<svg width="19" height="23" viewBox="0 0 19 23" fill="none" xmlns="http://www.w3.org/2000/svg">
<path fill-rule="evenodd" clip-rule="evenodd" d="M6.37117 0.0927296C6.24362 0.187971 6.24006 0.377082 6.20721 8.81801L6.17363 17.446L4.93104 17.4803C3.73292 17.5133 3.67744 17.5211 3.3815 17.6988C2.87553 18.0024 2.5802 18.5472 2.5802 19.1769V19.4687H6.6438H10.7074V19.1769C10.7074 18.5472 10.4121 18.0024 9.9061 17.6988C9.61016 17.5211 9.55468 17.5133 8.35656 17.4803L7.11397 17.446V13.7776V10.1092L12.665 10.0749C18.0039 10.0419 18.2214 10.0356 18.3574 9.91002C18.5878 9.69712 18.5338 9.46783 18.1298 8.94294C17.9268 8.6793 17.7078 8.38644 17.6431 8.29216C17.5784 8.19788 17.2964 7.82761 17.0165 7.46935C16.0624 6.24822 15.7412 5.79519 15.7719 5.7138C15.7887 5.66902 16.3563 4.91176 17.033 4.031C17.7099 3.15025 18.3166 2.34581 18.3812 2.24343C18.5424 1.98822 18.5287 1.80247 18.3339 1.60369L18.169 1.43536H12.6247H7.08038V0.822156C7.08038 0.266207 7.06641 0.198942 6.93107 0.102192C6.74529 -0.0306928 6.54117 -0.0341212 6.37117 0.0927296ZM0.42582 20.7887C0.302099 21.0743 0.264351 21.3046 0.242925 21.9039C0.21861 22.5826 0.229558 22.6766 0.350996 22.8296L0.486136 23H6.63601H12.7858L12.9388 22.8435C13.0777 22.7014 13.0915 22.6255 13.0879 22.0206C13.0841 21.3921 12.9938 20.9553 12.7853 20.5577C12.7199 20.4329 12.5208 20.4287 6.64971 20.4287H0.581715L0.42582 20.7887Z" fill="#C57D7D"/>
</svg>
