<svg width="21" height="19" viewBox="0 0 21 19" fill="none" xmlns="http://www.w3.org/2000/svg">
<path d="M5.97673 13.6169L7.76325 13.1386L18.5199 3.03646C18.6048 2.95577 18.652 2.84735 18.6514 2.73461C18.6509 2.62187 18.6025 2.51386 18.5169 2.43391L17.8727 1.82947C17.831 1.78978 17.7813 1.75817 17.7264 1.73651C17.6714 1.71484 17.6124 1.70355 17.5527 1.70329C17.493 1.70302 17.4339 1.7138 17.3787 1.73498C17.3236 1.75616 17.2735 1.78732 17.2315 1.82665L6.50325 11.9025L5.97571 13.616L5.97673 13.6169ZM19.1479 0.6319L19.7921 1.23728C20.6808 2.07238 20.6889 3.41965 19.8083 4.24628L8.72397 14.6573L4.90542 15.6778C4.67229 15.7384 4.42279 15.7107 4.21167 15.6007C4.00056 15.4907 3.84507 15.3075 3.77934 15.0913C3.73042 14.9358 3.72972 14.7707 3.77731 14.6149L4.88818 10.9996L15.9431 0.615895C16.1533 0.41946 16.4036 0.263836 16.6793 0.158098C16.955 0.0523596 17.2506 -0.00137543 17.5489 2.67504e-05C17.8472 0.00142893 18.1422 0.0579402 18.4168 0.166265C18.6913 0.274589 18.9398 0.432558 19.1479 0.630959V0.6319ZM7.46194 1.71744C7.96513 1.71744 8.37296 2.10062 8.37296 2.57325C8.37376 2.68498 8.35082 2.79575 8.30546 2.89924C8.2601 3.00274 8.1932 3.09692 8.10859 3.1764C8.02398 3.25588 7.92332 3.31911 7.81237 3.36246C7.70141 3.40582 7.58233 3.42845 7.46194 3.42906H3.81789C2.81151 3.42906 1.99586 4.19544 1.99586 5.13975V15.4076C1.99586 16.3529 2.81151 17.1193 3.81789 17.1193H14.7501C15.7564 17.1193 16.5731 16.3529 16.5731 15.4076V11.9853C16.5731 11.5127 16.9809 11.1295 17.4841 11.1295C17.9873 11.1295 18.3951 11.5127 18.3951 11.9863V15.4076C18.3951 17.2981 16.7628 18.8309 14.7501 18.8309H3.81789C1.80513 18.8309 0.173828 17.2981 0.173828 15.4076V5.13975C0.173828 3.25018 1.80513 1.71744 3.81789 1.71744H7.46194Z" fill="#C57D7D"/>
</svg>
