<svg width="373" height="157" viewBox="0 0 373 157" fill="none" xmlns="http://www.w3.org/2000/svg">
<path fill-rule="evenodd" clip-rule="evenodd" d="M56.8941 1.01671C56.3113 1.60249 55.6158 2.47464 55.3486 2.95502C54.88 3.79639 54.8095 3.78986 53.3971 2.77873C52.5105 2.14444 51.6183 1.85061 51.139 2.03577C50.4333 2.30767 50.4616 2.42847 51.3998 3.13971C52.2428 3.77913 53.8203 6.11061 53.8203 6.71739C53.8203 7.23415 52.0117 7.34795 50.7024 6.91374C48.4183 6.15585 48.3288 6.6964 50.5284 7.95938C51.5696 8.55729 52.4228 9.19158 52.4247 9.36928C52.4349 10.2937 50.1498 11.1448 47.6579 11.1448C44.4324 11.1448 44.5112 11.8575 47.7873 12.3108C50.0445 12.6228 50.0798 12.6513 49.1421 13.4143C47.7275 14.5658 47.56 17.4602 48.8549 18.372C50.2705 19.3687 51.7955 19.2404 52.6214 18.0548C53.2264 17.1869 53.4867 17.1151 54.3877 17.5703C57.6165 19.2003 58.6465 17.5171 55.8873 15.1203C53.9729 13.4567 54.2787 12.6578 56.4055 13.7669C58.0674 14.6334 58.0345 14.632 58.517 13.8662C59.1341 12.8873 58.9912 12.0776 58.2006 12.0776C57.803 12.0776 57.6021 11.8747 57.7547 11.6266C57.9074 11.3785 57.6063 10.9079 57.0862 10.5814C55.9856 9.8907 55.9253 9.37021 56.8101 8.19677C57.4054 7.40764 57.5506 7.39925 58.8604 8.08018C60.8462 9.1123 62.1717 9.03254 62.1717 7.8801C62.1717 7.36707 61.9536 6.94732 61.6869 6.94732C61.4201 6.94732 60.6981 6.44128 60.0834 5.82332C59.1128 4.84763 59.0232 4.49411 59.406 3.15184C60.2648 0.142227 58.91 -1.00975 56.8941 1.01671ZM63.6699 16.1231C62.896 16.4332 61.7077 18.7708 61.7077 19.9829C61.7077 21.1256 61.8455 21.1111 59.3508 20.2264C57.307 19.5016 56.1401 19.5874 56.1401 20.4624C56.1401 20.7296 57.3409 21.5234 58.8079 22.2262C62.2334 23.867 62.5935 24.9807 59.6213 24.7433C57.4652 24.5708 56.1401 25.1808 56.1401 26.3449C56.1401 26.7138 56.4296 26.8612 56.8416 26.7022C57.2277 26.5534 58.4623 26.5702 59.5851 26.7395C61.5797 27.0398 61.6242 27.0846 61.4994 28.6629C61.3477 30.5877 59.9734 31.9379 57.4782 32.6132C56.2691 32.9406 55.7931 33.2951 55.9634 33.7414C56.328 34.6961 57.3794 34.9661 58.7263 34.4512C60.3469 33.8319 60.3715 33.8449 60.0486 35.1392C59.8918 35.7669 60.0087 37.0262 60.3079 37.9375C60.8591 39.6174 62.0896 40.3249 63.8624 39.9817C64.8525 39.79 66.7928 36.5407 66.804 35.0561C66.8109 34.0996 66.9719 34.038 68.8013 34.2899C70.2615 34.4909 70.9449 34.3775 71.3689 33.8641C72.2765 32.7648 70.8544 31.6669 68.5183 31.6622C66.868 31.6594 66.4931 31.4719 65.9994 30.4034C65.0386 28.3238 65.2302 28.0291 67.3913 28.2618C69.5507 28.4945 71.6167 27.4694 70.7551 26.593C70.3445 26.1752 67.9513 25.5409 66.527 25.4723C66.243 25.4588 66.1089 25.0703 66.2286 24.609C66.3488 24.1478 66.5813 23.805 66.745 23.8465C67.9356 24.1487 70.9871 22.1082 70.9871 21.0104C70.9871 20.3691 70.2011 20.4083 67.5073 21.1839C66.7348 21.4063 66.5627 21.2104 66.4806 20.0123C66.3674 18.3603 65.406 16.1636 64.7235 15.9985C64.4683 15.937 63.9942 15.9929 63.6699 16.1231ZM37.1174 22.1166C37.1174 22.5075 37.6394 23.027 38.2774 23.271C39.8275 23.8633 39.9309 25.7391 38.3933 25.3706C36.0396 24.8063 34.3772 24.8161 34.1559 25.3954C33.9035 26.0576 34.8078 26.5319 36.3435 26.5427C36.8966 26.5469 37.6547 26.7442 38.0273 26.9811C38.5882 27.3379 38.4885 27.6144 37.4473 28.5841C36.7555 29.2286 36.1895 29.9758 36.1895 30.2444C36.1895 30.8269 35.7956 30.881 32.5395 30.7444C30.6251 30.6642 30.0971 30.7854 30.2554 31.2695C30.3686 31.6161 31.1443 31.9663 31.979 32.0489C33.3013 32.179 33.4563 32.3292 33.1816 33.2148C33.0085 33.7736 32.7612 34.67 32.6323 35.2068C32.0444 37.6516 36.2841 38.6721 37.4246 36.3602L37.9846 35.2245L38.2973 36.4768C38.8067 38.5168 40.0775 38.0602 40.6371 35.6368C40.903 34.4857 40.9739 33.3837 40.7948 33.1883C40.1611 32.4943 39.9282 30.957 40.3536 30.2752C40.715 29.6959 40.9999 29.7906 42.1083 30.8582C44.7502 33.4019 46.1226 31.6772 43.845 28.6759C42.3904 26.7591 42.3668 26.2185 43.7772 27.1476C44.3776 27.5431 45.6373 28.0118 46.5759 28.189C48.2462 28.5038 48.2717 28.487 47.7748 27.391C47.4959 26.7749 46.6543 25.8585 45.9055 25.3543C44.9757 24.728 44.5432 24.047 44.5423 23.2089C44.5405 21.7463 43.0279 21.127 41.9951 22.1656C41.4059 22.7579 41.1475 22.7528 39.9384 22.1241C38.1809 21.2109 37.1174 21.2076 37.1174 22.1166ZM28.1861 42.6602C27.2294 43.2902 26.4429 43.96 26.4392 44.1489C26.4142 45.3615 25.6375 45.6642 24.3221 44.9748C22.7641 44.1582 21.0651 44.0444 20.6447 44.7281C20.4856 44.9865 20.7343 45.3214 21.1973 45.473C23.0708 46.0853 25.0506 47.3007 24.9025 47.7475C24.7323 48.261 24.5165 48.3095 22 48.3977C20.113 48.4639 19.9687 49.622 21.8473 49.622C22.6003 49.622 22.9158 49.8505 22.8124 50.3201C22.5665 51.4334 21.7629 52.1871 20.822 52.1871C20.3427 52.1871 19.9506 52.4096 19.9506 52.681C19.9506 52.9524 19.7595 53.056 19.5256 52.9109C18.884 52.5122 16.6045 53.5158 16.9344 54.0517C17.0921 54.3087 17.7115 54.519 18.3105 54.519C19.1712 54.519 19.3489 54.7145 19.1572 55.4518C19.0236 55.9649 18.7299 56.3846 18.5044 56.3846C17.6795 56.3846 18.1217 58.6825 19.076 59.3546C20.3436 60.2468 21.2237 59.9161 23.1042 57.8402L24.6339 56.1514L25.5619 57.4107C26.6253 58.8541 27.8381 58.6914 27.8381 57.1061C27.8381 56.0036 26.6587 53.3069 25.9966 52.8955C25.7813 52.7617 25.7136 52.237 25.8458 51.7286C26.0718 50.8598 26.2082 50.8929 28.1341 52.2832C30.0104 53.638 30.2442 53.6991 30.9235 53.0163C31.6027 52.3335 31.5726 52.175 30.5634 51.1233C29.9575 50.4922 29.0444 49.7451 28.534 49.4634L27.6061 48.9508L28.534 48.8967C29.0444 48.8673 30.5579 48.8757 31.8978 48.9163C33.865 48.976 34.3336 48.8445 34.3336 48.234C34.3336 47.8091 33.563 47.13 32.5757 46.6842C30.8975 45.9272 30.8367 45.8227 31.2431 44.4012C31.7238 42.7213 31.4074 41.4466 30.5203 41.4877C30.1936 41.5026 29.1432 42.0305 28.1861 42.6602ZM62.1457 48.0936C61.3946 48.92 60.7798 49.7595 60.7798 49.9592C60.7798 50.1583 59.5271 50.3215 57.996 50.3215C55.8933 50.3215 55.2122 50.4843 55.2122 50.9875C55.2122 51.4451 56.0111 51.7538 57.764 51.974C60.5831 52.3279 61.2113 53.2896 58.9239 53.7495C58.0767 53.9197 57.532 54.3199 57.532 54.7718C57.532 55.3553 57.9426 55.4831 59.4431 55.3665C62.0325 55.1659 62.7368 56.1897 61.5426 58.419C60.8768 59.6619 60.2829 60.0887 58.7717 60.4091C57.4471 60.6898 56.7957 61.0914 56.6793 61.6996C56.5285 62.4873 56.715 62.5489 58.4131 62.276C60.1669 61.9943 60.3168 62.0526 60.3307 63.0251C60.3706 65.8878 63.2736 66.6223 65.4195 64.3132C66.1345 63.5437 67.0438 62.9141 67.4396 62.9141C68.3768 62.9141 70.5231 61.9276 70.5231 61.4972C70.5231 60.8041 69.3099 60.2435 67.84 60.257C65.9317 60.2748 65.3963 59.7407 64.9694 57.3929C64.6447 55.6095 64.6748 55.5451 65.651 55.9182C66.3637 56.1906 67.041 56.0651 67.8924 55.5041L69.1122 54.6995L67.4976 54.1128C66.2565 53.6614 65.8834 53.2635 65.8834 52.39C65.8834 51.7655 66.0816 51.2543 66.3233 51.2543C66.9626 51.2543 69.1312 49.1416 69.1312 48.5189C69.1312 47.8725 67.9732 47.831 66.8466 48.4369C66.1841 48.7932 65.9094 48.6514 65.4951 47.7373C64.7927 46.1875 63.7798 46.2947 62.1457 48.0936ZM13.5567 68.118C12.2464 68.9519 10.6713 68.8843 10.6713 67.9944C10.6713 67.7654 10.3581 67.5779 9.97531 67.5779C9.09795 67.5779 9.10305 67.8069 10.0138 69.2038C11.3992 71.3291 10.7808 72.0087 7.46014 72.0087C5.50312 72.0087 4.42765 72.2069 4.29681 72.5916C4.1553 73.0081 4.77655 73.1746 6.47143 73.1746C9.2891 73.1746 10.0969 74.1797 8.39318 75.5663C7.82111 76.0322 7.46803 76.6012 7.60908 76.8302C8.05448 77.5545 6.1485 78.9196 5.23681 78.5297C4.13442 78.0587 2.64972 77.8991 2.14121 78.1972C1.60255 78.5129 3.68854 79.6663 4.8364 79.6878C5.69985 79.7036 5.69753 79.7391 4.77377 80.7535C3.20091 82.481 3.01579 83.8228 4.2068 84.8614C4.77841 85.3595 5.43306 85.7671 5.6618 85.7671C6.67835 85.7671 8.77827 84.2873 9.06918 83.3662C9.38375 82.3695 9.40045 82.3732 10.1377 83.5942C11.0707 85.1398 11.9583 85.1837 12.3281 83.702C12.7081 82.1811 12.1787 80.5786 10.9701 79.5907C10.1164 78.8935 10.0741 78.7125 10.6713 78.3156C11.55 77.7312 12.0632 77.7149 12.0632 78.2718C12.0632 78.7755 13.3739 80.1737 13.836 80.1635C14.988 80.1374 15.3397 79.3431 14.7811 78.0293C14.4633 77.2831 13.9413 76.3531 13.6207 75.9622C12.6445 74.7729 13.5265 73.9763 15.1175 74.6106C15.8617 74.9073 17.1492 75.313 17.9788 75.5126C19.327 75.8363 19.4867 75.7677 19.4867 74.8639C19.4867 74.1872 18.9503 73.5627 17.8628 72.9741C16.2296 72.0898 15.8088 70.9952 16.7423 70.0568C17.0188 69.7788 17.1756 69.0545 17.0903 68.4478C16.8935 67.0528 15.4436 66.9171 13.5567 68.118ZM62.4533 70.1813C62.2984 70.5871 62.1717 71.3445 62.1717 71.8641C62.1717 72.6663 61.9787 72.7581 60.8958 72.4708C58.8181 71.9191 58.2716 71.9685 58.1152 72.7232C58.0164 73.1984 58.6223 73.6779 59.9256 74.1554C61.003 74.5505 61.9764 75.1503 62.0882 75.4879C62.2005 75.826 62.0887 75.9767 61.8404 75.8223C61.0865 75.3541 57.996 76.43 57.996 77.1609C57.996 77.9831 58.3245 77.9962 60.9904 77.2793C62.1341 76.972 63.1818 76.833 63.3186 76.9706C63.456 77.1082 63.3386 77.8819 63.0583 78.6892C62.5596 80.128 61.6275 80.6107 58.228 81.1909C56.9869 81.4027 57.0398 82.6983 58.2966 82.8783C58.8446 82.9571 60.0124 82.7188 60.8916 82.3499L62.49 81.6783L62.4468 83.7397C62.4004 85.9532 62.992 86.6803 64.8493 86.6929C65.5216 86.6971 66.0908 86.2862 66.4207 85.5582C66.804 84.7131 67.3644 84.3801 68.5786 84.2756C70.7458 84.0895 70.9221 83.3013 68.9572 82.5868C67.0076 81.8784 66.4333 80.2913 67.7825 79.3412C68.7076 78.6901 68.7072 78.6822 67.6906 77.7961C67.1292 77.3064 66.4926 76.9057 66.2764 76.9057C65.5285 76.9057 65.8867 75.1479 66.6954 74.8499C67.1422 74.6853 68.0929 74.224 68.8088 73.8248C69.8476 73.2455 70.0016 72.9676 69.572 72.4471C69.1855 71.9788 68.7944 71.9238 68.1852 72.2516C66.7478 73.0249 65.8834 72.7931 65.8834 71.6355C65.8834 71.0456 65.6329 70.311 65.3267 70.0032C64.5314 69.2038 62.7851 69.312 62.4533 70.1813ZM38.1614 88.44C37.8213 88.559 37.5814 89.4549 37.5814 90.6041C37.5814 92.4682 37.51 92.5699 36.1204 92.6767C34.149 92.8273 31.6009 95.0772 32.0249 96.2926C32.3594 97.251 32.4392 97.2781 35.1683 97.3686C36.9012 97.4259 36.9277 97.4549 36.7416 99.0592C36.5788 100.461 36.6878 100.692 37.5127 100.692C38.2365 100.692 38.5933 100.244 38.9589 98.8797C39.3338 97.4805 39.717 97.0155 40.6417 96.8378C41.6077 96.6522 42.0104 96.8896 42.7245 98.0668C43.2112 98.8689 43.6102 99.6833 43.6111 99.8754C43.6121 100.068 43.9122 100.225 44.2779 100.225C44.9028 100.225 45.5867 98.9384 45.4299 98.0584C45.2281 96.9264 45.6183 96.5874 47.1224 96.5874C48.5501 96.5874 48.88 96.8066 49.5374 98.1932C50.0798 99.3358 50.5623 99.7593 51.2114 99.6623C52.4284 99.4799 52.5244 97.7062 51.384 96.4759C50.6996 95.7376 50.617 95.3696 51.0244 94.8762C51.551 94.2386 50.9483 92.5093 49.9429 91.7719C49.7244 91.6115 49.6831 90.8512 49.851 90.0822C50.4667 87.2638 47.8022 88.0991 47.0955 90.9459C46.8816 91.8083 46.3291 92.3041 45.1923 92.6548C43.6297 93.137 43.5935 93.1184 43.7178 91.9067C43.9183 89.9474 42.2814 90.2739 41.1772 92.4132C40.6807 93.3754 40.1383 94.1622 39.9718 94.1622C39.8052 94.1622 39.6897 92.9132 39.7143 91.3862C39.7583 88.6695 39.4067 88.003 38.1614 88.44ZM104.043 89.6909C103.505 90.3783 102.932 91.5513 102.769 92.2975C102.476 93.6365 101.134 94.4984 100.223 93.9322C99.9656 93.7727 99.6241 92.8148 99.4631 91.8036C99.1481 89.8233 98.801 89.5691 97.9009 90.66C97.521 91.1199 97.43 92.0475 97.6318 93.4001C97.9186 95.3225 97.8661 95.4587 96.76 95.6709C95.0763 95.9946 94.4704 95.0166 94.8105 92.5233C95.067 90.6428 95.0012 90.431 94.1618 90.431C93.1304 90.431 92.6576 91.3069 92.3653 93.7606C92.3454 93.9243 91.6137 94.1934 90.7387 94.3585C89.8641 94.5231 88.6652 95.0516 88.075 95.5319C87.0214 96.3896 87.0177 96.4223 87.8737 97.3732C88.6299 98.2132 91.4671 99.1833 92.4224 98.9282C92.601 98.8806 92.4442 99.7043 92.0744 100.758C91.2351 103.149 91.2193 103.024 92.3551 103.024C93.0594 103.024 93.5568 102.425 94.2556 100.735C95.5347 97.64 96.6427 97.3896 97.347 100.036C97.9014 102.12 99.13 103.232 100.166 102.589C100.624 102.304 100.648 101.811 100.268 100.427C99.6469 98.167 99.9123 97.9921 103.739 98.1391C107.013 98.2645 107.724 98.6418 108.575 100.707C109.163 102.136 110.599 102.587 111.023 101.478C111.377 100.551 110.868 98.4567 110.141 97.8504C109.282 97.134 109.317 96.3253 110.192 96.6629C110.685 96.8528 110.888 96.6219 110.888 95.8733C110.888 95.2913 111.139 94.5632 111.445 94.2554C112.438 93.2578 111.044 92.5312 108.102 92.5116C105.098 92.492 104.446 92.1907 105.262 91.202C105.602 90.7902 105.657 90.1643 105.411 89.4959L105.022 88.44L104.043 89.6909ZM76.0907 90.3811C76.0907 91.764 75.5632 92.1823 73.3069 92.589C72.669 92.7038 71.5814 93.2098 70.8897 93.7135C70.1983 94.2167 69.5214 94.6285 69.3855 94.6285C69.2495 94.6285 69.1888 93.6319 69.2509 92.4132C69.3999 89.474 68.2914 89.3984 67.2341 92.2761C66.8142 93.4192 66.1999 94.4448 65.8695 94.5553C65.0358 94.8347 64.0276 93.3091 64.0276 91.7686C64.0276 90.2421 63.3177 89.6685 62.3879 90.4441C61.969 90.7939 61.8209 91.4221 61.9945 92.1166C62.1833 92.8735 62.0706 93.2406 61.6419 93.2639C58.7949 93.4206 56.3721 94.5861 56.3721 95.7987C56.3721 96.4955 57.0017 96.954 58.9239 97.6582C61.2354 98.5047 61.4623 98.7108 61.3315 99.847C61.2396 100.65 61.5421 101.458 62.1726 102.092C63.9037 103.832 64.5328 102.871 63.9728 99.3382C63.8322 98.4487 64.0522 98.1465 65.0423 97.8709C65.7276 97.6797 66.4175 97.6526 66.5748 97.8112C66.7325 97.9693 67.5598 98.0383 68.4135 97.9642C70.1134 97.8172 70.3617 98.0318 70.7073 99.9486C70.9917 101.526 71.7925 102.557 72.7316 102.557C73.3116 102.557 73.3816 102.104 73.1325 99.972C72.8448 97.5127 72.8741 97.411 73.7343 97.8732C74.2312 98.1409 75.0259 98.3597 75.5001 98.3597C76.1316 98.3597 76.5139 98.9291 76.9291 100.49C77.4103 102.298 77.6529 102.598 78.5331 102.472C79.4531 102.341 79.5705 102.053 79.5705 99.9295C79.5705 98.2813 79.8303 97.245 80.4052 96.6032C81.4746 95.4083 81.0274 93.3455 79.5519 92.6697C78.8741 92.3591 78.3869 91.6175 78.1985 90.6083C77.9837 89.4558 77.6608 89.0319 76.9978 89.0319C76.307 89.0319 76.0907 89.3532 76.0907 90.3811ZM19.592 93.0741C19.0236 93.7839 18.5587 94.5147 18.5587 94.6985C18.5587 94.8818 18.1411 95.1514 17.6308 95.2969C17.1204 95.4424 16.2584 95.6891 15.7151 95.8449C14.8312 96.0991 14.7491 95.9759 14.9384 94.6789C15.0548 93.8819 14.9778 93.1981 14.7667 93.1594C13.5451 92.9365 13.2546 93.1492 12.7596 94.6285C12.348 95.8575 11.9365 96.2758 11.0939 96.3206C9.28539 96.4167 8.02618 95.7143 7.70558 94.4294C7.25182 92.6128 6.03158 92.8903 6.03158 94.81C6.03158 96.2231 5.87198 96.4204 4.52369 96.6769C2.76618 97.0104 0 98.6022 0 99.2794C0 99.7887 2.69519 101.039 4.50374 101.369C5.12638 101.482 6.16242 101.374 6.80595 101.128L7.97607 100.681L7.66753 102.934C7.43741 104.619 7.52788 105.328 8.02572 105.744C8.90215 106.475 9.51552 105.717 9.93309 103.388C10.308 101.297 11.2763 100.225 12.7921 100.225C13.816 100.225 13.919 100.414 13.919 102.296C13.919 103.436 14.1274 104.497 14.3821 104.655C14.95 105.008 16.4537 103.941 16.5173 103.14C16.5428 102.82 16.5952 101.823 16.6333 100.925C16.6931 99.5205 16.8624 99.2924 17.8447 99.2924C18.7735 99.2924 19.0751 99.6217 19.4593 101.056C19.7191 102.025 20.2267 103.225 20.5867 103.72C21.1467 104.49 21.3518 104.53 21.9958 103.992C22.5832 103.502 22.6857 102.879 22.4598 101.168C22.1981 99.1852 22.2872 98.8806 23.3803 98.0164C24.0456 97.4898 24.5903 96.85 24.5903 96.5934C24.5903 96.0366 23.4819 95.5613 22.1823 95.5613C21.4284 95.5613 21.2957 95.3454 21.5142 94.4709C21.6641 93.8711 21.5253 93.0209 21.2057 92.5816C20.6726 91.8489 20.5403 91.8894 19.592 93.0741ZM62.9386 109.315C62.1856 110.072 61.4976 112.565 61.8729 113.175C62.0014 113.384 61.3908 113.472 60.5167 113.369C59.6422 113.266 58.3853 113.319 57.7241 113.486C55.7161 113.993 57.2114 115.15 59.8746 115.15C61.6219 115.15 62.1411 115.326 62.2775 115.966C62.7085 117.986 61.5853 118.991 58.2683 119.551C56.4691 119.855 55.6905 120.641 56.6078 121.227C56.9887 121.47 57.5794 121.566 57.9204 121.44C58.2618 121.314 59.3582 121.079 60.3562 120.919C62.0696 120.644 62.1717 120.694 62.1717 121.82C62.1717 122.972 61.1672 124.416 60.2829 124.536C60.0458 124.568 59.6533 124.62 59.4111 124.652C59.1684 124.685 58.7277 124.955 58.4307 125.253C57.8025 125.885 58.3031 126.968 59.0868 126.672C60.797 126.027 61.7189 125.853 61.6312 126.191C61.576 126.403 61.692 127.26 61.8892 128.096C62.2492 129.624 63.314 130.541 64.7286 130.541C65.9257 130.541 68.2033 127.966 68.2033 126.612C68.2033 125.738 68.4464 125.41 69.0932 125.41C71.9141 125.41 72.2435 123.795 69.5706 123.072C67.7704 122.584 65.8834 121.19 65.8834 120.348C65.8834 120.128 66.5622 119.753 67.3913 119.514C69.5567 118.89 69.3924 117.686 67.1594 117.817C66.2027 117.874 65.4195 117.73 65.4195 117.498C65.4195 116.503 66.3706 114.683 66.8907 114.683C67.202 114.683 68.0298 114.131 68.7304 113.457C69.836 112.392 69.9167 112.141 69.34 111.562C68.7633 110.982 68.5387 110.99 67.64 111.622C66.224 112.62 65.8834 112.542 65.8834 111.218C65.8834 110.111 64.8186 108.62 64.0276 108.62C63.809 108.62 63.3186 108.933 62.9386 109.315ZM63.153 137.34C62.6134 138.031 62.1717 138.986 62.1717 139.465C62.1717 140.176 61.7913 140.345 60.0839 140.393C57.0708 140.477 56.933 140.508 56.7201 141.151C56.5865 141.554 57.1465 141.745 58.5374 141.77C61.3194 141.819 62.2478 142.038 62.6983 142.752C63.4847 144 63.0356 144.43 60.3158 145.036C58.1774 145.514 57.532 145.852 57.532 146.494C57.532 147.389 58.6766 147.644 59.1605 146.857C59.3211 146.596 59.6403 146.499 59.8704 146.643C60.1005 146.785 60.9208 146.574 61.6943 146.172C63.0041 145.491 63.0992 145.497 63.0927 146.269C63.076 148.261 61.8131 150.612 60.1516 151.745C59.1986 152.395 58.2414 152.927 58.0252 152.927C57.8086 152.927 57.4977 153.277 57.3344 153.705C56.7651 155.197 57.842 155.27 59.7646 153.87C60.829 153.095 61.8061 152.461 61.9355 152.461C62.0655 152.461 62.1717 153.17 62.1717 154.036C62.1717 156.733 65.2088 158.098 66.3678 155.921C66.8183 155.074 67.3538 154.793 68.5137 154.793C70.4011 154.793 70.4586 154.262 68.7531 152.582C67.3644 151.214 66.0254 148.432 66.5177 147.937C66.6801 147.774 67.3185 147.912 67.936 148.245C68.6088 148.606 69.5729 148.719 70.3385 148.526L71.6176 148.204L70.3023 147.068C69.566 146.432 68.3977 145.931 67.6484 145.931C66.3776 145.931 66.3154 145.837 66.4193 144.066C66.5052 142.607 66.7144 142.2 67.3811 142.2C67.8497 142.2 68.9828 141.885 69.8986 141.501C71.3439 140.894 71.4835 140.703 70.9537 140.061C70.364 139.346 69.1048 139.362 67.1881 140.108C66.5381 140.361 66.3799 140.068 66.2602 138.391C66.1419 136.739 65.9345 136.344 65.1249 136.229C64.4906 136.138 63.7817 136.537 63.153 137.34Z" fill="#4D3826"/>
<path fill-rule="evenodd" clip-rule="evenodd" d="M317.674 1.01671C317.091 1.60249 316.396 2.47464 316.128 2.95502C315.66 3.79639 315.589 3.78986 314.177 2.77873C313.29 2.14444 312.398 1.85061 311.919 2.03577C311.213 2.30767 311.241 2.42847 312.179 3.13971C313.022 3.77913 314.6 6.11061 314.6 6.71739C314.6 7.23415 312.791 7.34795 311.482 6.91374C309.198 6.15585 309.108 6.6964 311.308 7.95938C312.349 8.55729 313.202 9.19158 313.204 9.36928C313.215 10.2937 310.929 11.1448 308.438 11.1448C305.212 11.1448 305.291 11.8575 308.567 12.3108C310.824 12.6228 310.859 12.6513 309.922 13.4143C308.507 14.5658 308.34 17.4602 309.635 18.372C311.05 19.3687 312.575 19.2404 313.401 18.0548C314.006 17.1869 314.266 17.1151 315.167 17.5703C318.396 19.2003 319.426 17.5171 316.667 15.1203C314.753 13.4567 315.058 12.6578 317.185 13.7669C318.847 14.6334 318.814 14.632 319.297 13.8662C319.914 12.8873 319.771 12.0776 318.98 12.0776C318.583 12.0776 318.382 11.8747 318.534 11.6266C318.687 11.3785 318.386 10.9079 317.866 10.5814C316.765 9.8907 316.705 9.37021 317.59 8.19677C318.185 7.40764 318.33 7.39925 319.64 8.08018C321.626 9.1123 322.951 9.03254 322.951 7.8801C322.951 7.36707 322.733 6.94732 322.467 6.94732C322.2 6.94732 321.478 6.44128 320.863 5.82332C319.892 4.84763 319.803 4.49411 320.186 3.15184C321.044 0.142227 319.69 -1.00975 317.674 1.01671ZM324.45 16.1231C323.676 16.4332 322.487 18.7708 322.487 19.9829C322.487 21.1256 322.625 21.1111 320.13 20.2264C318.087 19.5016 316.92 19.5874 316.92 20.4624C316.92 20.7296 318.121 21.5234 319.588 22.2262C323.013 23.867 323.373 24.9807 320.401 24.7433C318.245 24.5708 316.92 25.1808 316.92 26.3449C316.92 26.7138 317.209 26.8612 317.621 26.7022C318.007 26.5534 319.242 26.5702 320.365 26.7395C322.359 27.0398 322.404 27.0846 322.279 28.6629C322.127 30.5877 320.753 31.9379 318.258 32.6132C317.049 32.9406 316.573 33.2951 316.743 33.7414C317.108 34.6961 318.159 34.9661 319.506 34.4512C321.127 33.8319 321.151 33.8449 320.828 35.1392C320.671 35.7669 320.788 37.0262 321.088 37.9375C321.639 39.6174 322.869 40.3249 324.642 39.9817C325.632 39.79 327.572 36.5407 327.584 35.0561C327.591 34.0996 327.752 34.038 329.581 34.2899C331.041 34.4909 331.725 34.3775 332.149 33.8641C333.056 32.7648 331.634 31.6669 329.298 31.6622C327.648 31.6594 327.273 31.4719 326.779 30.4034C325.818 28.3238 326.01 28.0291 328.171 28.2618C330.33 28.4945 332.396 27.4694 331.535 26.593C331.124 26.1752 328.731 25.5409 327.307 25.4723C327.023 25.4588 326.889 25.0703 327.008 24.609C327.128 24.1478 327.361 23.805 327.525 23.8465C328.715 24.1487 331.767 22.1082 331.767 21.0104C331.767 20.3691 330.981 20.4083 328.287 21.1839C327.514 21.4063 327.342 21.2104 327.26 20.0123C327.147 18.3603 326.186 16.1636 325.503 15.9985C325.248 15.937 324.774 15.9929 324.45 16.1231ZM297.897 22.1166C297.897 22.5075 298.419 23.027 299.057 23.271C300.607 23.8633 300.711 25.7391 299.173 25.3706C296.819 24.8063 295.157 24.8161 294.936 25.3954C294.683 26.0576 295.587 26.5319 297.123 26.5427C297.676 26.5469 298.434 26.7442 298.807 26.9811C299.368 27.3379 299.268 27.6144 298.227 28.5841C297.535 29.2286 296.969 29.9758 296.969 30.2444C296.969 30.8269 296.575 30.881 293.319 30.7444C291.405 30.6642 290.877 30.7854 291.035 31.2695C291.148 31.6161 291.924 31.9663 292.759 32.0489C294.081 32.179 294.236 32.3292 293.961 33.2148C293.788 33.7736 293.541 34.67 293.412 35.2068C292.824 37.6516 297.064 38.6721 298.204 36.3602L298.764 35.2245L299.077 36.4768C299.586 38.5168 300.857 38.0602 301.417 35.6368C301.683 34.4857 301.754 33.3837 301.575 33.1883C300.941 32.4943 300.708 30.957 301.133 30.2752C301.495 29.6959 301.78 29.7906 302.888 30.8582C305.53 33.4019 306.902 31.6772 304.625 28.6759C303.17 26.7591 303.146 26.2185 304.557 27.1476C305.157 27.5431 306.417 28.0118 307.356 28.189C309.026 28.5038 309.051 28.487 308.554 27.391C308.276 26.7749 307.434 25.8585 306.685 25.3543C305.755 24.728 305.323 24.047 305.322 23.2089C305.32 21.7463 303.808 21.127 302.775 22.1656C302.186 22.7579 301.927 22.7528 300.718 22.1241C298.961 21.2109 297.897 21.2076 297.897 22.1166ZM288.966 42.6602C288.009 43.2902 287.223 43.96 287.219 44.1489C287.194 45.3615 286.417 45.6642 285.102 44.9748C283.544 44.1582 281.845 44.0444 281.424 44.7281C281.265 44.9865 281.514 45.3214 281.977 45.473C283.85 46.0853 285.83 47.3007 285.682 47.7475C285.512 48.261 285.296 48.3095 282.78 48.3977C280.893 48.4639 280.748 49.622 282.627 49.622C283.38 49.622 283.696 49.8505 283.592 50.3201C283.346 51.4334 282.543 52.1871 281.602 52.1871C281.122 52.1871 280.73 52.4096 280.73 52.681C280.73 52.9524 280.539 53.056 280.305 52.9109C279.664 52.5122 277.384 53.5158 277.714 54.0517C277.872 54.3087 278.491 54.519 279.09 54.519C279.951 54.519 280.129 54.7145 279.937 55.4518C279.803 55.9649 279.51 56.3846 279.284 56.3846C278.459 56.3846 278.901 58.6825 279.856 59.3546C281.123 60.2468 282.003 59.9161 283.884 57.8402L285.414 56.1514L286.342 57.4107C287.405 58.8541 288.618 58.6914 288.618 57.1061C288.618 56.0036 287.438 53.3069 286.776 52.8955C286.561 52.7617 286.493 52.237 286.625 51.7286C286.851 50.8598 286.988 50.8929 288.914 52.2832C290.79 53.638 291.024 53.6991 291.703 53.0163C292.382 52.3335 292.352 52.175 291.343 51.1233C290.737 50.4922 289.824 49.7451 289.314 49.4634L288.386 48.9508L289.314 48.8967C289.824 48.8673 291.338 48.8757 292.677 48.9163C294.645 48.976 295.113 48.8445 295.113 48.234C295.113 47.8091 294.343 47.13 293.355 46.6842C291.677 45.9272 291.616 45.8227 292.023 44.4012C292.503 42.7213 292.187 41.4466 291.3 41.4877C290.973 41.5026 289.923 42.0305 288.966 42.6602ZM322.925 48.0936C322.174 48.92 321.559 49.7595 321.559 49.9592C321.559 50.1583 320.307 50.3215 318.776 50.3215C316.673 50.3215 315.992 50.4843 315.992 50.9875C315.992 51.4451 316.791 51.7538 318.544 51.974C321.363 52.3279 321.991 53.2896 319.704 53.7495C318.856 53.9197 318.312 54.3199 318.312 54.7718C318.312 55.3553 318.722 55.4831 320.223 55.3665C322.812 55.1659 323.516 56.1897 322.322 58.419C321.656 59.6619 321.063 60.0887 319.551 60.4091C318.227 60.6898 317.575 61.0914 317.459 61.6996C317.308 62.4873 317.495 62.5489 319.193 62.276C320.947 61.9943 321.096 62.0526 321.11 63.0251C321.15 65.8878 324.053 66.6223 326.199 64.3132C326.914 63.5437 327.823 62.9141 328.219 62.9141C329.156 62.9141 331.303 61.9276 331.303 61.4972C331.303 60.8041 330.09 60.2435 328.62 60.257C326.711 60.2748 326.176 59.7407 325.749 57.3929C325.424 55.6095 325.454 55.5451 326.431 55.9182C327.143 56.1906 327.821 56.0651 328.672 55.5041L329.892 54.6995L328.277 54.1128C327.036 53.6614 326.663 53.2635 326.663 52.39C326.663 51.7655 326.861 51.2543 327.103 51.2543C327.742 51.2543 329.911 49.1416 329.911 48.5189C329.911 47.8725 328.753 47.831 327.626 48.4369C326.964 48.7932 326.689 48.6514 326.275 47.7373C325.572 46.1875 324.559 46.2947 322.925 48.0936ZM274.336 68.118C273.026 68.9519 271.451 68.8843 271.451 67.9944C271.451 67.7654 271.138 67.5779 270.755 67.5779C269.878 67.5779 269.883 67.8069 270.793 69.2038C272.179 71.3291 271.56 72.0087 268.24 72.0087C266.283 72.0087 265.207 72.2069 265.076 72.5916C264.935 73.0081 265.556 73.1746 267.251 73.1746C270.069 73.1746 270.877 74.1797 269.173 75.5663C268.601 76.0322 268.248 76.6012 268.389 76.8302C268.834 77.5545 266.928 78.9196 266.016 78.5297C264.914 78.0587 263.429 77.8991 262.921 78.1972C262.382 78.5129 264.468 79.6663 265.616 79.6878C266.48 79.7036 266.477 79.7391 265.553 80.7535C263.981 82.481 263.795 83.8228 264.986 84.8614C265.558 85.3595 266.213 85.7671 266.441 85.7671C267.458 85.7671 269.558 84.2873 269.849 83.3662C270.163 82.3695 270.18 82.3732 270.917 83.5942C271.85 85.1398 272.738 85.1837 273.108 83.702C273.488 82.1811 272.958 80.5786 271.75 79.5907C270.896 78.8935 270.854 78.7125 271.451 78.3156C272.33 77.7312 272.843 77.7149 272.843 78.2718C272.843 78.7755 274.154 80.1737 274.616 80.1635C275.768 80.1374 276.119 79.3431 275.561 78.0293C275.243 77.2831 274.721 76.3531 274.4 75.9622C273.424 74.7729 274.306 73.9763 275.897 74.6106C276.641 74.9073 277.929 75.313 278.758 75.5126C280.107 75.8363 280.266 75.7677 280.266 74.8639C280.266 74.1872 279.73 73.5627 278.642 72.9741C277.009 72.0898 276.588 70.9952 277.522 70.0568C277.798 69.7788 277.955 69.0545 277.87 68.4478C277.673 67.0528 276.223 66.9171 274.336 68.118ZM323.233 70.1813C323.078 70.5871 322.951 71.3445 322.951 71.8641C322.951 72.6663 322.758 72.7581 321.675 72.4708C319.598 71.9191 319.051 71.9685 318.895 72.7232C318.796 73.1984 319.402 73.6779 320.705 74.1554C321.783 74.5505 322.756 75.1503 322.868 75.4879C322.98 75.826 322.868 75.9767 322.62 75.8223C321.866 75.3541 318.776 76.43 318.776 77.1609C318.776 77.9831 319.104 77.9962 321.77 77.2793C322.914 76.972 323.961 76.833 324.098 76.9706C324.236 77.1082 324.118 77.8819 323.838 78.6892C323.339 80.128 322.407 80.6107 319.008 81.1909C317.767 81.4027 317.819 82.6983 319.076 82.8783C319.624 82.9571 320.792 82.7188 321.671 82.3499L323.27 81.6783L323.227 83.7397C323.18 85.9532 323.772 86.6803 325.629 86.6929C326.301 86.6971 326.871 86.2862 327.2 85.5582C327.584 84.7131 328.144 84.3801 329.358 84.2756C331.525 84.0895 331.702 83.3013 329.737 82.5868C327.787 81.8784 327.213 80.2913 328.562 79.3412C329.487 78.6901 329.487 78.6822 328.47 77.7961C327.909 77.3064 327.272 76.9057 327.056 76.9057C326.308 76.9057 326.666 75.1479 327.475 74.8499C327.922 74.6853 328.873 74.224 329.588 73.8248C330.627 73.2455 330.781 72.9676 330.352 72.4471C329.965 71.9788 329.574 71.9238 328.965 72.2516C327.527 73.0249 326.663 72.7931 326.663 71.6355C326.663 71.0456 326.413 70.311 326.106 70.0032C325.311 69.2038 323.565 69.312 323.233 70.1813ZM298.941 88.44C298.601 88.559 298.361 89.4549 298.361 90.6041C298.361 92.4682 298.29 92.5699 296.9 92.6767C294.929 92.8273 292.381 95.0772 292.805 96.2926C293.139 97.251 293.219 97.2781 295.948 97.3686C297.681 97.4259 297.707 97.4549 297.521 99.0592C297.358 100.461 297.467 100.692 298.292 100.692C299.016 100.692 299.373 100.244 299.739 98.8797C300.113 97.4805 300.497 97.0155 301.421 96.8378C302.387 96.6522 302.79 96.8896 303.504 98.0668C303.991 98.8689 304.39 99.6833 304.391 99.8754C304.392 100.068 304.692 100.225 305.058 100.225C305.682 100.225 306.366 98.9384 306.21 98.0584C306.008 96.9264 306.398 96.5874 307.902 96.5874C309.33 96.5874 309.66 96.8066 310.317 98.1932C310.859 99.3358 311.342 99.7593 311.991 99.6623C313.208 99.4799 313.304 97.7062 312.164 96.4759C311.479 95.7376 311.397 95.3696 311.804 94.8762C312.331 94.2386 311.728 92.5093 310.723 91.7719C310.504 91.6115 310.463 90.8512 310.631 90.0822C311.246 87.2638 308.582 88.0991 307.875 90.9459C307.661 91.8083 307.109 92.3041 305.972 92.6548C304.409 93.137 304.373 93.1184 304.498 91.9067C304.698 89.9474 303.061 90.2739 301.957 92.4132C301.46 93.3754 300.918 94.1622 300.751 94.1622C300.585 94.1622 300.469 92.9132 300.494 91.3862C300.538 88.6695 300.186 88.003 298.941 88.44ZM364.823 89.6909C364.285 90.3783 363.711 91.5513 363.549 92.2975C363.256 93.6365 361.914 94.4984 361.002 93.9322C360.745 93.7727 360.404 92.8148 360.243 91.8036C359.928 89.8233 359.581 89.5691 358.681 90.66C358.301 91.1199 358.21 92.0475 358.412 93.4001C358.698 95.3225 358.646 95.4587 357.54 95.6709C355.856 95.9946 355.25 95.0166 355.59 92.5233C355.847 90.6428 355.781 90.431 354.941 90.431C353.91 90.431 353.437 91.3069 353.145 93.7606C353.125 93.9243 352.393 94.1934 351.518 94.3585C350.644 94.5231 349.445 95.0516 348.855 95.5319C347.801 96.3896 347.797 96.4223 348.653 97.3732C349.41 98.2132 352.247 99.1833 353.202 98.9282C353.381 98.8806 353.224 99.7043 352.854 100.758C352.015 103.149 351.999 103.024 353.135 103.024C353.839 103.024 354.336 102.425 355.035 100.735C356.314 97.64 357.422 97.3896 358.127 100.036C358.681 102.12 359.91 103.232 360.945 102.589C361.404 102.304 361.427 101.811 361.047 100.427C360.427 98.167 360.692 97.9921 364.519 98.1391C367.793 98.2645 368.503 98.6418 369.355 100.707C369.943 102.136 371.379 102.587 371.803 101.478C372.157 100.551 371.648 98.4567 370.921 97.8504C370.062 97.134 370.097 96.3253 370.972 96.6629C371.465 96.8528 371.668 96.6219 371.668 95.8733C371.668 95.2913 371.919 94.5632 372.225 94.2554C373.217 93.2578 371.824 92.5312 368.882 92.5116C365.878 92.492 365.225 92.1907 366.041 91.202C366.382 90.7902 366.436 90.1643 366.19 89.4959L365.802 88.44L364.823 89.6909ZM336.87 90.3811C336.87 91.764 336.343 92.1823 334.087 92.589C333.449 92.7038 332.361 93.2098 331.669 93.7135C330.978 94.2167 330.301 94.6285 330.165 94.6285C330.029 94.6285 329.968 93.6319 330.031 92.4132C330.18 89.474 329.071 89.3984 328.014 92.2761C327.594 93.4192 326.98 94.4448 326.649 94.5553C325.815 94.8347 324.807 93.3091 324.807 91.7686C324.807 90.2421 324.097 89.6685 323.168 90.4441C322.749 90.7939 322.601 91.4221 322.774 92.1166C322.963 92.8735 322.85 93.2406 322.422 93.2639C319.575 93.4206 317.152 94.5861 317.152 95.7987C317.152 96.4955 317.781 96.954 319.704 97.6582C322.015 98.5047 322.242 98.7108 322.111 99.847C322.019 100.65 322.322 101.458 322.952 102.092C324.683 103.832 325.312 102.871 324.752 99.3382C324.612 98.4487 324.832 98.1465 325.822 97.8709C326.507 97.6797 327.197 97.6526 327.354 97.8112C327.512 97.9693 328.339 98.0383 329.193 97.9642C330.893 97.8172 331.141 98.0318 331.487 99.9486C331.771 101.526 332.572 102.557 333.511 102.557C334.091 102.557 334.161 102.104 333.912 99.972C333.624 97.5127 333.654 97.411 334.514 97.8732C335.011 98.1409 335.806 98.3597 336.28 98.3597C336.911 98.3597 337.294 98.9291 337.709 100.49C338.19 102.298 338.433 102.598 339.313 102.472C340.233 102.341 340.35 102.053 340.35 99.9295C340.35 98.2813 340.61 97.245 341.185 96.6032C342.254 95.4083 341.807 93.3455 340.332 92.6697C339.654 92.3591 339.167 91.6175 338.978 90.6083C338.763 89.4558 338.44 89.0319 337.777 89.0319C337.087 89.0319 336.87 89.3532 336.87 90.3811ZM280.372 93.0741C279.803 93.7839 279.338 94.5147 279.338 94.6985C279.338 94.8818 278.921 95.1514 278.41 95.2969C277.9 95.4424 277.038 95.6891 276.495 95.8449C275.611 96.0991 275.529 95.9759 275.718 94.6789C275.834 93.8819 275.757 93.1981 275.546 93.1594C274.325 92.9365 274.034 93.1492 273.539 94.6285C273.128 95.8575 272.716 96.2758 271.874 96.3206C270.065 96.4167 268.806 95.7143 268.485 94.4294C268.031 92.6128 266.811 92.8903 266.811 94.81C266.811 96.2231 266.652 96.4204 265.303 96.6769C263.546 97.0104 260.78 98.6022 260.78 99.2794C260.78 99.7887 263.475 101.039 265.283 101.369C265.906 101.482 266.942 101.374 267.586 101.128L268.756 100.681L268.447 102.934C268.217 104.619 268.308 105.328 268.805 105.744C269.682 106.475 270.295 105.717 270.713 103.388C271.088 101.297 272.056 100.225 273.572 100.225C274.596 100.225 274.699 100.414 274.699 102.296C274.699 103.436 274.907 104.497 275.162 104.655C275.73 105.008 277.233 103.941 277.297 103.14C277.322 102.82 277.375 101.823 277.413 100.925C277.473 99.5205 277.642 99.2924 278.624 99.2924C279.553 99.2924 279.855 99.6217 280.239 101.056C280.499 102.025 281.006 103.225 281.366 103.72C281.926 104.49 282.131 104.53 282.775 103.992C283.363 103.502 283.465 102.879 283.239 101.168C282.978 99.1852 283.067 98.8806 284.16 98.0164C284.825 97.4898 285.37 96.85 285.37 96.5934C285.37 96.0366 284.262 95.5613 282.962 95.5613C282.208 95.5613 282.075 95.3454 282.294 94.4709C282.444 93.8711 282.305 93.0209 281.985 92.5816C281.452 91.8489 281.32 91.8894 280.372 93.0741ZM323.718 109.315C322.965 110.072 322.277 112.565 322.653 113.175C322.781 113.384 322.171 113.472 321.296 113.369C320.422 113.266 319.165 113.319 318.504 113.486C316.496 113.993 317.991 115.15 320.654 115.15C322.402 115.15 322.921 115.326 323.057 115.966C323.488 117.986 322.365 118.991 319.048 119.551C317.249 119.855 316.47 120.641 317.387 121.227C317.768 121.47 318.359 121.566 318.7 121.44C319.042 121.314 320.138 121.079 321.136 120.919C322.849 120.644 322.951 120.694 322.951 121.82C322.951 122.972 321.947 124.416 321.063 124.536C320.825 124.568 320.433 124.62 320.191 124.652C319.948 124.685 319.507 124.955 319.21 125.253C318.582 125.885 319.083 126.968 319.866 126.672C321.577 126.027 322.499 125.853 322.411 126.191C322.356 126.403 322.472 127.26 322.669 128.096C323.029 129.624 324.094 130.541 325.508 130.541C326.705 130.541 328.983 127.966 328.983 126.612C328.983 125.738 329.226 125.41 329.873 125.41C332.694 125.41 333.023 123.795 330.35 123.072C328.55 122.584 326.663 121.19 326.663 120.348C326.663 120.128 327.342 119.753 328.171 119.514C330.336 118.89 330.172 117.686 327.939 117.817C326.982 117.874 326.199 117.73 326.199 117.498C326.199 116.503 327.15 114.683 327.67 114.683C327.982 114.683 328.809 114.131 329.51 113.457C330.616 112.392 330.696 112.141 330.12 111.562C329.543 110.982 329.318 110.99 328.42 111.622C327.004 112.62 326.663 112.542 326.663 111.218C326.663 110.111 325.598 108.62 324.807 108.62C324.589 108.62 324.098 108.933 323.718 109.315ZM323.933 137.34C323.393 138.031 322.951 138.986 322.951 139.465C322.951 140.176 322.571 140.345 320.864 140.393C317.851 140.477 317.713 140.508 317.5 141.151C317.366 141.554 317.926 141.745 319.317 141.77C322.099 141.819 323.027 142.038 323.478 142.752C324.264 144 323.815 144.43 321.095 145.036C318.957 145.514 318.312 145.852 318.312 146.494C318.312 147.389 319.456 147.644 319.94 146.857C320.101 146.596 320.42 146.499 320.65 146.643C320.88 146.785 321.701 146.574 322.474 146.172C323.784 145.491 323.879 145.497 323.872 146.269C323.856 148.261 322.593 150.612 320.931 151.745C319.978 152.395 319.021 152.927 318.805 152.927C318.588 152.927 318.277 153.277 318.114 153.705C317.545 155.197 318.622 155.27 320.544 153.87C321.609 153.095 322.586 152.461 322.715 152.461C322.845 152.461 322.951 153.17 322.951 154.036C322.951 156.733 325.989 158.098 327.147 155.921C327.598 155.074 328.133 154.793 329.293 154.793C331.181 154.793 331.238 154.262 329.533 152.582C328.144 151.214 326.805 148.432 327.297 147.937C327.46 147.774 328.098 147.912 328.716 148.245C329.388 148.606 330.353 148.719 331.118 148.526L332.397 148.204L331.082 147.068C330.346 146.432 329.177 145.931 328.428 145.931C327.157 145.931 327.095 145.837 327.199 144.066C327.285 142.607 327.494 142.2 328.161 142.2C328.629 142.2 329.762 141.885 330.678 141.501C332.124 140.894 332.263 140.703 331.733 140.061C331.144 139.346 329.884 139.362 327.968 140.108C327.318 140.361 327.16 140.068 327.04 138.391C326.922 136.739 326.714 136.344 325.905 136.229C325.27 136.138 324.561 136.537 323.933 137.34Z" fill="#4D3826"/>
<path fill-rule="evenodd" clip-rule="evenodd" d="M186.783 21.058C186.484 21.7533 186.088 22.8226 185.903 23.4344C185.576 24.5232 185.545 24.5437 184.455 24.3982C183.109 24.2185 181.178 24.9933 180.915 25.8182C180.618 26.7477 181.339 27.7005 182.48 27.8882C184.061 28.1481 184.481 28.3865 183.574 28.5101C183.133 28.5699 182.79 28.7945 182.79 29.0229C182.79 29.2466 182.659 29.4295 182.5 29.4295C182.339 29.4295 182.061 29.7521 181.88 30.1461C181.638 30.6751 181.487 30.7681 181.306 30.5005C181.162 30.2884 181.139 30.6085 181.251 31.2721C181.356 31.8958 181.475 32.4457 181.516 32.4942C181.619 32.6161 182.87 31.3126 183.218 30.7213C183.423 30.3723 186.098 29.146 186.654 29.146C186.676 29.146 186.632 30.1013 186.557 31.2693C186.462 32.7425 186.53 33.5249 186.781 33.8251C187.095 34.2022 187.195 34.1571 187.561 33.4736C187.792 33.0424 188.063 32.0517 188.164 31.2721L188.346 29.8547H189.672C190.837 29.8547 190.991 29.925 190.937 30.4336C190.903 30.7522 190.78 31.1649 190.665 31.3515C190.549 31.5377 190.462 32.2977 190.471 33.0402C190.48 33.7829 190.411 34.9803 190.317 35.7015C190.153 36.967 190.172 37.0126 190.885 37.0126C191.291 37.0126 191.623 36.9205 191.623 36.8079C191.623 36.6954 191.888 36.2994 192.211 35.9283C192.548 35.5425 192.67 35.2099 192.496 35.1524C192.094 35.0192 192.105 34.2486 192.508 34.2486C192.682 34.2486 192.756 34.0729 192.673 33.858C192.59 33.6431 192.673 33.3055 192.856 33.1076C193.113 32.831 193.109 32.7938 192.837 32.946C192.6 33.079 192.54 32.9993 192.654 32.7042C192.869 32.1466 193.045 32.1523 193.892 32.7425C194.99 33.5073 196.988 33.7123 198.379 33.2023C199.327 32.8548 199.647 32.5588 199.901 31.7937C200.165 30.9982 200.14 30.7006 199.762 30.1274C199.51 29.7436 199.166 29.4295 198.999 29.4295C198.832 29.4295 198.463 29.1448 198.181 28.7973C197.734 28.2485 197.718 28.0914 198.059 27.6072C198.417 27.0984 198.373 27.0168 197.557 26.6754C196.568 26.2618 195.763 26.4064 194.9 27.152C194.077 27.8627 193.418 28.0308 193.074 27.6183C192.896 27.4048 192.404 27.3121 191.865 27.3909L190.956 27.5236L191.863 26.7049C192.426 26.1964 192.807 25.5523 192.867 25.0054C192.92 24.521 193.066 23.9591 193.192 23.7567C193.337 23.5226 193.308 23.4579 193.111 23.579C192.941 23.6836 192.722 23.6394 192.623 23.4809C192.046 22.5511 190.872 23.5829 189.469 26.2539C189.16 26.8416 189.084 26.8623 188.685 26.4665C188.443 26.225 188.094 26.0277 187.909 26.0277C187.706 26.0277 187.649 25.8321 187.766 25.5316C187.873 25.2586 188.033 24.4257 188.122 23.6807C188.212 22.9355 188.395 22.2582 188.53 22.1757C188.664 22.093 188.774 21.6709 188.774 21.2371C188.774 20.6685 188.573 20.3578 188.051 20.1213C187.363 19.8095 187.301 19.8552 186.783 21.058ZM163.345 25.9826C162.914 26.2414 162.562 26.608 162.561 26.7973C162.56 27.7084 160.926 27.8286 159.098 27.0522C158.161 26.6542 158.04 26.6536 157.889 27.0471C157.735 27.4442 158.759 28.5612 159.884 29.2242C160.486 29.5789 159.903 30.6513 158.975 30.8982C158.325 31.0711 157.912 30.9588 157.009 30.3641C155.838 29.5933 155.517 29.563 155.673 30.2374C155.727 30.4724 155.629 30.5393 155.42 30.4106C154.593 29.902 155.434 31.06 156.458 31.8391C157.494 32.6283 157.541 32.7232 157.106 33.1555C156.848 33.4121 156.14 33.7055 155.531 33.8078C154.584 33.9669 154.249 33.8685 153.224 33.1292C151.885 32.1642 151.71 32.1183 151.222 32.6033C150.958 32.8664 151.136 33.1785 152.018 33.9963C152.642 34.5761 153.315 35.117 153.512 35.1986C153.775 35.3075 153.738 35.4546 153.372 35.7502C153.098 35.9722 152.873 36.3629 152.873 36.6186C152.873 36.8743 152.76 37.0835 152.622 37.0835C152.22 37.0835 152.022 38.2602 152.328 38.8303C152.536 39.2167 152.938 39.3513 153.881 39.3513C154.963 39.3513 155.153 39.4361 155.153 39.9183C155.153 40.2962 155.343 40.4852 155.723 40.4852C156.036 40.4852 156.293 40.661 156.293 40.8759C156.293 41.0905 156.481 41.4221 156.712 41.6126C157.4 42.1807 157.996 41.2923 158.17 39.4358C158.275 38.3206 158.497 37.6448 158.861 37.3341C159.155 37.082 159.683 36.2208 160.034 35.4206C160.386 34.62 160.745 33.9657 160.833 33.9663C160.922 33.9669 161.238 34.5727 161.536 35.3128C161.835 36.0527 162.192 36.8037 162.329 36.9817C162.718 37.4843 163.92 36.7932 164.077 35.9776C164.275 34.9483 163.632 33.4161 162.837 33.0217C161.886 32.55 161.951 31.9468 162.988 31.6041C163.458 31.449 163.986 31.1281 164.162 30.8917C164.436 30.5217 164.531 30.558 164.84 31.1502C165.698 32.7913 166.959 34.5321 167.29 34.5321C167.699 34.5321 168.544 33.7656 168.544 33.3948C168.544 33.259 168.405 33.0626 168.235 32.9577C168.064 32.8531 167.988 32.5262 168.066 32.2317C168.143 31.9371 168.046 31.6006 167.85 31.4841C167.047 31.0059 166.644 29.8343 166.702 28.1538C166.735 27.2183 166.646 26.2298 166.504 25.9568C166.171 25.3181 164.428 25.3326 163.345 25.9826ZM207.727 39.2447C207.375 39.5943 207.304 40.02 207.432 41.0165C207.669 42.8753 207.77 43.3977 207.992 43.9284C208.119 44.2334 207.984 44.5368 207.601 44.8035C206.989 45.2299 205.928 46.5894 205.159 47.9317C204.746 48.6526 204.748 48.7311 205.185 48.8978C205.514 49.0237 205.953 48.7416 206.619 47.9745C207.147 47.3668 207.579 46.7312 207.579 46.5617C207.579 46.3924 207.887 45.9655 208.264 45.6131L208.95 44.9725L209.138 45.5635C209.242 45.889 209.456 46.1549 209.613 46.1549C209.77 46.1549 210.099 46.3536 210.343 46.5965C210.587 46.8392 210.958 46.9724 211.168 46.8922C211.979 46.5829 211.885 47.3911 211.033 48.0542C210.541 48.4377 210.211 48.8689 210.299 49.0124C210.389 49.1558 210.358 49.274 210.231 49.2752C209.846 49.2783 208.653 51.2065 208.845 51.5152C209.053 51.8506 210.428 51.3236 210.428 50.9083C210.428 50.7663 210.617 50.4615 210.849 50.2311C211.08 50.0009 211.457 49.5464 211.686 49.2213C212.039 48.7204 212.159 48.6903 212.476 49.0237C213.623 50.231 213.626 50.2665 212.719 52.1301C212.242 53.1087 211.853 54.0552 211.853 54.2338C211.853 54.4121 211.608 55.0587 211.309 55.6708C210.912 56.4824 210.854 56.8416 211.095 56.9975C211.579 57.3107 213.277 55.3842 213.277 54.5218C213.277 53.5268 213.905 53.6328 214.512 54.7302C215.146 55.8746 217.305 57.497 218.18 57.4859C219.037 57.4749 220.682 55.9698 220.726 55.1565C220.768 54.3645 219.923 52.3915 219.542 52.3915C219.387 52.3915 219.261 52.2843 219.261 52.1536C219.261 51.829 220.569 51.2595 221.34 51.2485C222.498 51.2317 223.122 50.4085 222.997 49.0606C222.946 48.5032 220.429 48.6416 219.016 49.2794C217.436 49.9926 217.115 49.9836 216.57 49.2099C215.811 48.1322 216.021 47.6485 217.551 46.95C218.335 46.5926 218.976 46.2036 218.976 46.0857C218.976 45.9678 219.168 45.8714 219.403 45.8714C220.109 45.8714 219.885 45.3118 219.047 44.9827C218.616 44.8134 217.882 44.6813 217.417 44.689C216.952 44.6966 216.439 44.5943 216.277 44.4616C216.108 44.3219 215.526 44.4421 214.899 44.7457C213.836 45.2605 213.802 45.2599 213.261 44.721C212.495 43.9587 212.545 43.7663 213.89 42.314C214.541 41.6115 214.862 41.1177 214.603 41.2166C214.078 41.417 213.972 41.0411 214.426 40.5893C214.797 40.2208 214.482 39.3513 213.978 39.3513C213.771 39.3513 213.348 39.7023 213.039 40.1309C212.414 40.9981 210.82 42.0322 210.629 41.6946C210.562 41.5752 210.415 41.0947 210.303 40.627C209.901 38.951 208.68 38.2959 207.727 39.2447ZM143.903 47.7849C143.522 48.1358 143.091 48.4227 142.944 48.4227C142.797 48.4227 142.603 48.6141 142.513 48.8479C142.423 49.0818 142.089 49.2732 141.77 49.2732C141.435 49.2732 141.192 49.46 141.192 49.7174C141.192 50.3382 140.164 49.9844 138.978 48.9557C138.466 48.5112 137.697 48.074 137.269 47.9845C136.841 47.8949 136.261 47.6973 135.98 47.5456C135.455 47.2613 134.923 47.4164 134.923 47.8535C134.923 47.9896 135.161 48.1761 135.452 48.2679C135.742 48.3595 136.543 48.9404 137.232 49.5586C137.921 50.1769 138.549 50.6863 138.627 50.6909C138.706 50.6954 138.94 50.8071 139.149 50.9386C139.446 51.1257 139.369 51.3494 138.799 51.9623C138.397 52.3934 138.146 52.872 138.242 53.0259C138.483 53.4143 137.785 53.7992 136.83 53.8046C136.39 53.8069 135.451 53.954 134.743 54.1315C133.558 54.4283 133.492 54.4906 133.915 54.911C134.222 55.2164 134.846 55.3612 135.795 55.347C136.764 55.3329 137.123 55.4185 136.925 55.6164C136.764 55.776 136.633 56.2638 136.633 56.7004C136.633 57.1636 136.478 57.4941 136.262 57.4941C136.057 57.4941 135.383 57.8652 134.763 58.3191C134.143 58.7726 133.124 59.2384 132.499 59.3538C131.151 59.603 130.013 60.2757 130.262 60.6759C130.361 60.8352 131.051 60.9024 131.826 60.8282C132.934 60.7224 133.153 60.7692 132.911 61.0595C132.744 61.2596 132.647 61.9105 132.697 62.5061C132.774 63.4362 132.935 63.661 133.839 64.1007C134.834 64.5849 134.942 64.5866 135.833 64.131C136.84 63.6165 138.057 62.4582 138.057 62.0151C138.057 61.3795 138.58 61.8328 139.055 62.8803C139.577 64.0321 140.209 64.3116 140.85 63.674C141.264 63.2618 141.303 61.8481 140.907 61.6046C140.75 61.5082 140.622 61.1819 140.622 60.8792C140.622 60.5764 140.506 60.3289 140.365 60.3289C140.223 60.3289 139.973 59.9443 139.808 59.4742C139.644 59.0042 139.214 58.507 138.854 58.3695L138.2 58.1195L138.991 57.8111C139.426 57.6415 139.865 57.2776 139.967 57.0023C140.323 56.0427 140.759 56.0682 141.647 57.1007C142.354 57.9225 142.656 58.0866 143.169 57.9247C143.664 57.7683 143.765 57.5857 143.618 57.1126C143.513 56.7766 143.336 56.1207 143.225 55.6543C143.113 55.1883 142.738 54.6661 142.391 54.4943C141.775 54.1885 141.783 54.17 142.759 53.6473C143.307 53.3533 143.756 53.0146 143.756 52.8941C143.756 52.4618 144.45 52.6874 145.165 53.3519C146.227 54.3396 147.074 54.5264 147.436 53.8531C147.757 53.2564 147.11 51.541 146.564 51.541C146.407 51.541 146.105 51.3675 145.892 51.1558C145.574 50.8388 145.569 50.5863 145.863 49.735C146.059 49.1654 146.166 48.3326 146.1 47.8841C146.003 47.2281 145.845 47.0765 145.287 47.1079C144.906 47.1295 144.283 47.4339 143.903 47.7849ZM135.545 61.2409C135.341 61.4442 135.208 61.4609 135.208 61.2834C135.208 60.905 135.545 60.5696 135.735 60.759C135.816 60.8395 135.731 61.0564 135.545 61.2409ZM227.951 64.2163C227.637 64.2915 227.038 64.6744 226.618 65.0673L225.855 65.782L225.11 65.041C224.381 64.3153 224.344 64.3093 223.309 64.7498C222.728 64.9973 222.1 65.2627 221.913 65.3395C221.726 65.4166 221.534 65.7559 221.485 66.0935C221.409 66.6285 221.2 66.7141 219.859 66.7592C218.451 66.8068 217.853 67.1101 217.84 67.7834C217.833 68.1661 220.797 69.4004 221.326 69.2348C221.607 69.1469 221.825 69.224 221.825 69.4108C221.825 69.5937 222.143 70.3727 222.531 71.1421C223.108 72.2839 223.162 72.5697 222.83 72.6967C222.606 72.7823 222.287 72.7692 222.121 72.6675C221.956 72.5657 221.631 72.6706 221.4 72.9005C221.169 73.1304 220.818 73.3838 220.619 73.4641C220.34 73.5763 220.351 73.6741 220.669 73.8941C221.009 74.1297 221.019 74.3122 220.727 74.9512C220.48 75.4893 220.464 75.8133 220.672 76.0202C220.836 76.1835 220.97 76.2124 220.97 76.0843C220.97 75.9559 221.154 76.0029 221.379 76.1889C221.824 76.556 222.965 76.1518 222.965 75.627C222.965 75.4765 223.273 75.3535 223.649 75.3535C224.466 75.3535 224.959 76.4812 224.959 78.353C224.959 79.7347 224.329 80.3385 222.181 81.0157C221.297 81.2944 220.97 81.5478 220.97 81.9552C220.97 82.4507 221.102 82.4918 222.154 82.3246C222.805 82.2211 223.467 82.0567 223.625 81.9594C223.784 81.8622 224.27 81.7545 224.706 81.7205C225.363 81.6689 225.529 81.7933 225.673 82.4453C225.83 83.1597 226.954 84.5306 226.954 84.009C226.954 83.8877 227.13 83.9339 227.345 84.1116C227.864 84.5405 228.663 84.2111 228.663 83.5676C228.663 83.2856 228.816 83.0041 229.003 82.942C229.336 82.8317 229.457 79.1677 229.139 78.8505C229.06 78.7723 229.218 78.4865 229.491 78.2155C229.838 77.8699 230.295 77.7591 231.024 77.8439C232.378 78.0012 233.154 77.3279 232.717 76.3743C232.472 75.8391 232.176 75.7203 230.989 75.6783C230.202 75.6506 229.48 75.752 229.386 75.9034C229.29 76.0568 228.954 76.0829 228.626 75.9621C228.171 75.7948 228.013 75.4459 227.933 74.4322L227.829 73.1191L229.884 72.4903C232.39 71.7241 232.511 71.6299 231.875 70.9312C231.314 70.3149 229.464 70.2395 228.429 70.7905C227.607 71.2285 227.037 70.9156 227.033 70.0237C227.031 69.603 226.946 68.9077 226.844 68.479C226.715 67.9424 226.77 67.6966 227.019 67.6907C227.218 67.6856 227.616 67.3607 227.903 66.9684C228.345 66.3654 228.366 66.1831 228.046 65.7902C227.72 65.3916 227.732 65.35 228.13 65.4982C228.385 65.5932 228.723 65.5425 228.88 65.3857C229.174 65.0934 229.026 63.9878 228.701 64.0471C228.602 64.0652 228.264 64.1415 227.951 64.2163ZM135.11 77.3719C134.115 77.9544 133.559 79.7497 133.686 81.973L133.802 84.0121L132.582 84.3424C131.911 84.5238 130.885 84.7492 130.303 84.8433C127.789 85.2484 129.384 86.2343 132.43 86.1581L134.353 86.1099V86.9683C134.353 87.4658 134.204 87.8267 133.997 87.8269C133.67 87.8272 130.094 89.4184 129.829 89.682C129.766 89.7455 129.86 89.9735 130.04 90.1886C130.312 90.5146 130.702 90.4086 132.365 89.5579C134.506 88.4625 134.909 88.5356 134.919 90.0236C134.921 90.3746 135.038 90.6615 135.178 90.6615C135.669 90.6615 135.773 91.5644 135.351 92.1651C135.116 92.4987 134.915 93.0305 134.905 93.3469C134.895 93.6701 134.307 94.4023 133.562 95.0203C131.582 96.6622 129.72 99.4494 130.604 99.4494C130.735 99.4494 131.773 98.5474 132.91 97.4446C134.047 96.3422 135.037 95.4994 135.11 95.5717C135.182 95.6439 135.298 96.2747 135.367 96.9732C135.573 99.0633 136.37 100.59 137.345 100.759C137.502 100.786 137.972 100.896 138.391 101.004C139.562 101.306 140.142 100.208 140.159 97.6564C140.166 96.5378 140.062 95.3208 139.928 94.9522C139.717 94.3751 139.758 94.3051 140.224 94.4482C141.345 94.7926 143.219 94.9131 143.043 94.6296C142.947 94.474 142.971 94.3467 143.098 94.3464C143.225 94.3464 143.346 94.0397 143.368 93.6652C143.4 93.1102 143.241 92.9565 142.513 92.8361C142.021 92.7547 140.943 92.516 140.116 92.3054C138.946 92.0077 138.689 91.8476 138.955 91.5825C139.222 91.3172 139.192 91.1255 138.82 90.7168C138.557 90.4279 138.342 89.8507 138.342 89.4343C138.342 88.7698 138.456 88.6765 139.268 88.6728C140.444 88.6672 140.764 88.4265 140.764 87.5486C140.764 87.0666 140.585 86.8143 140.194 86.7474C138.074 86.384 137.488 86.0963 137.488 85.4196C137.488 84.9615 137.866 84.4325 138.632 83.8199C139.451 83.1654 139.674 82.8402 139.416 82.6772C139.154 82.5119 139.192 82.4479 139.553 82.4448C139.894 82.4419 140.052 82.216 140.052 81.7318C140.052 81.1447 139.915 81.0231 139.254 81.0231C138.815 81.0231 138.317 81.1617 138.147 81.3312C137.924 81.5529 137.643 81.0169 137.144 79.4177C136.437 77.1536 136.086 76.8004 135.11 77.3719ZM226.028 92.899C225.753 93.1757 225.529 93.4923 225.529 93.6023C225.529 93.7126 225.264 94.1588 224.941 94.5939C224.617 95.0294 224.321 95.6017 224.282 95.8659C224.199 96.4261 224.21 96.4241 222.513 96.1709C221.701 96.0499 221.096 96.0921 220.904 96.2838C220.378 96.8065 221.21 97.465 222.395 97.465C223.575 97.465 223.958 97.7856 224.169 98.9516C224.346 99.933 224.018 100.196 222.297 100.451C221.53 100.565 220.591 100.935 220.182 101.285L219.446 101.915L220.178 102.097C220.586 102.199 221.445 102.092 222.116 101.857C222.779 101.624 223.433 101.434 223.57 101.434C223.917 101.434 223.883 102.495 223.53 102.712C223.371 102.81 223.307 102.997 223.388 103.129C223.717 103.657 223.146 104.224 221.949 104.557C220.909 104.847 220.685 105.028 220.685 105.581C220.685 106.088 220.842 106.253 221.326 106.255C221.912 106.256 221.969 106.394 221.992 107.859C222.012 109.14 222.14 109.561 222.632 109.957C223.43 110.599 224.097 110.403 225.499 109.115C226.288 108.391 226.751 107.655 226.999 106.735C227.38 105.317 227.515 105.216 228.339 105.727C229.061 106.176 230.373 105.81 230.373 105.16C230.373 104.467 228.85 103.158 227.801 102.949C227.097 102.809 226.954 102.643 226.954 101.965C226.954 101.005 227.137 100.956 227.935 101.703C228.425 102.161 228.712 102.213 229.614 102.011C230.213 101.877 230.784 101.686 230.884 101.587C231.125 101.347 230.605 100.554 229.959 100.177C228.996 99.6138 228.08 98.5842 228.452 98.4824C231.669 97.6028 231.655 97.611 231.655 96.7421C231.655 95.8257 231.209 95.7154 229.304 96.1599L228.378 96.3762V95.2082C228.378 94.4513 228.159 93.7449 227.755 93.2015C227.044 92.2441 226.731 92.1894 226.028 92.899ZM147.868 112.348C147.074 113.338 146.457 113.606 146.267 113.041C146.213 112.877 145.682 112.698 145.089 112.643C144.282 112.568 143.821 112.704 143.261 113.184C142.551 113.792 142.533 113.872 142.906 114.768C143.191 115.454 143.209 115.742 142.973 115.82C142.793 115.88 141.862 116.433 140.902 117.05C139.712 117.816 139.187 118.326 139.251 118.655C139.4 119.422 141.1 119.358 141.906 118.557C143.04 117.429 143.86 117.411 145.162 118.486C145.793 119.008 146.312 119.533 146.315 119.654C146.318 119.774 145.805 120.428 145.176 121.108C144.426 121.918 144.093 122.501 144.209 122.802C144.432 123.38 145.35 123.403 145.569 122.837C145.659 122.603 145.932 122.411 146.176 122.411C146.42 122.411 146.741 122.092 146.89 121.703C147.27 120.709 147.686 120.821 147.904 121.976C148.006 122.516 148.262 123.101 148.472 123.274C148.683 123.448 149.003 124.037 149.184 124.582C149.472 125.45 149.442 125.649 148.944 126.189C147.831 127.394 147.176 128.733 147.507 129.129C147.925 129.631 148.6 129.596 148.6 129.073C148.6 128.839 148.792 128.648 149.027 128.648C149.262 128.648 149.454 128.457 149.454 128.223C149.454 127.56 150.179 127.718 151.549 128.679C152.749 129.521 152.852 129.543 153.862 129.18C154.443 128.97 155.041 128.572 155.19 128.294C155.506 127.709 155.252 126.016 154.682 124.895C154.059 123.67 153.993 123.744 156.008 123.394C157.058 123.211 158.551 122.013 158.184 121.647C157.817 121.283 155.67 121.442 153.669 121.984C151.6 122.543 150.879 122.351 150.879 121.243C150.879 120.95 150.613 120.445 150.287 120.122C149.595 119.433 149.752 118.726 150.598 118.726C151.239 118.726 152.589 117.549 152.589 116.991C152.589 116.802 152.504 116.731 152.401 116.834C152.298 116.937 152.044 116.88 151.837 116.709C151.564 116.484 151.213 116.485 150.558 116.712C149.356 117.129 148.885 117.107 148.885 116.635C148.885 116.42 148.7 116.092 148.476 115.907C148.127 115.619 148.19 115.376 148.898 114.265C149.524 113.284 149.652 112.868 149.418 112.587C149.246 112.382 149.18 112.02 149.271 111.785C149.582 110.979 148.671 111.345 147.868 112.348ZM212.636 118.354C212.007 118.518 212.008 118.533 212.776 119.859L213.414 120.963L212.582 121.827C211.863 122.573 211.689 122.638 211.303 122.304C210.812 121.879 207.922 121.125 207.686 121.36C207.605 121.44 208.125 122.341 208.841 123.36C209.557 124.38 210.143 125.326 210.143 125.464C210.143 125.602 209.833 126.004 209.455 126.357C208.933 126.845 208.606 126.946 208.102 126.775C207.736 126.651 207.351 126.543 207.246 126.536C207.142 126.528 206.966 126.432 206.856 126.323C206.747 126.214 206.293 126.196 205.85 126.285C205.406 126.373 204.655 126.311 204.18 126.146C203.706 125.982 203.252 125.952 203.173 126.079C202.99 126.374 204.403 127.798 204.879 127.798C205.076 127.798 205.517 128.023 205.86 128.3L206.483 128.802L205.749 129.59C204.86 130.544 204.832 130.947 205.605 131.643C206.421 132.378 207.9 132.197 209.422 131.176C210.099 130.721 210.716 130.349 210.793 130.349C210.87 130.349 211.019 130.922 211.125 131.621C211.31 132.848 211.875 133.751 212.459 133.751C212.613 133.751 212.997 133.172 213.311 132.466C213.855 131.241 213.86 131.107 213.426 129.619C212.985 128.109 212.989 128.031 213.57 127.219C214.111 126.464 214.577 126.244 215.2 126.451C215.318 126.49 215.382 126.617 215.343 126.734C215.304 126.852 215.449 126.947 215.667 126.947C215.884 126.947 216.423 127.134 216.865 127.362C217.647 127.766 217.678 127.753 218.042 126.893C218.368 126.12 218.353 125.941 217.918 125.463C217.644 125.162 216.989 124.737 216.462 124.518L215.504 124.119L216.38 123.386L217.256 122.653L218.329 123.215C218.92 123.525 219.936 123.975 220.586 124.215C221.768 124.652 221.77 124.652 221.951 123.933C222.232 122.819 221.935 122.318 220.544 121.562C219.838 121.178 219.261 120.664 219.261 120.419C219.261 120.174 219.107 119.82 218.919 119.633C218.481 119.198 216.494 119.189 216.349 119.621C216.229 119.978 214.672 119.723 214.749 119.359C214.773 119.245 214.694 118.928 214.574 118.655C214.365 118.18 213.703 118.077 212.636 118.354ZM172.533 126.647C172.533 127.307 172.071 127.663 171.867 127.161C171.756 126.89 171.654 126.903 171.434 127.217C171.276 127.443 171.201 127.718 171.269 127.826C171.525 128.239 170.377 130.21 169.825 130.305C169.512 130.359 169.11 130.523 168.931 130.669C168.718 130.842 168.452 130.783 168.167 130.501C167.603 129.939 166.092 129.932 165.877 130.49C165.474 131.537 168.212 134.203 169.308 133.831C169.494 133.768 169.77 133.948 169.922 134.231C170.257 134.853 169.724 136.575 168.822 137.789C168.072 138.799 168.244 139.512 169.157 139.176C169.516 139.044 170.156 138.251 170.632 137.347C171.094 136.468 171.583 135.818 171.718 135.901C171.853 135.984 171.963 135.884 171.963 135.679C171.963 135.086 173.518 134.547 174.63 134.754C175.589 134.933 175.617 134.975 175.46 135.975C175.37 136.545 175.206 137.265 175.094 137.576C174.84 138.283 175.314 139.704 175.803 139.704C176.292 139.704 176.728 138.495 176.949 136.524L177.13 134.904L178.174 135.461C178.749 135.767 179.67 136.098 180.221 136.197C181.413 136.41 181.936 136.774 181.936 137.391C181.936 137.899 183.259 139.137 183.802 139.137C184.311 139.137 184.449 138.591 184.322 137.073C184.232 136.009 184.299 135.735 184.649 135.735C184.89 135.735 185.162 135.544 185.252 135.31C185.342 135.076 185.579 134.885 185.779 134.885C186.298 134.885 186.517 133.82 186.035 133.636C185.818 133.553 185.64 133.191 185.64 132.83C185.64 131.862 184.857 130.916 184.056 130.916C183.309 130.916 183.216 130.731 183.635 130.073C183.806 129.803 183.79 129.587 183.588 129.463C183.363 129.325 183.363 128.934 183.589 128.048C183.761 127.375 183.875 126.798 183.844 126.767C183.812 126.735 183.455 126.627 183.05 126.526C182.384 126.359 182.267 126.46 181.845 127.566C181.587 128.239 181.294 129.206 181.193 129.715C181.007 130.645 180.067 131.202 179.388 130.784C179.223 130.683 178.802 130.798 178.454 131.041C177.621 131.621 177.298 131.601 177.605 130.987C177.741 130.714 177.824 130.044 177.788 129.498C177.752 128.953 177.709 128.043 177.693 127.476C177.669 126.708 177.52 126.409 177.105 126.301C176.387 126.115 175.474 127.775 175.243 129.691C175.057 131.237 174.964 131.371 173.887 131.635C173.158 131.814 173.103 131.765 173.103 130.946C173.103 130.462 172.967 130.065 172.802 130.065C172.633 130.065 172.696 129.788 172.944 129.435C173.485 128.668 173.516 128.081 173.018 128.081C172.763 128.081 172.684 127.773 172.764 127.089C172.828 126.543 172.802 126.097 172.707 126.097C172.611 126.097 172.533 126.344 172.533 126.647Z" fill="#4D3826"/>
</svg>
