<svg width="153" height="78" viewBox="0 0 153 78" fill="none" xmlns="http://www.w3.org/2000/svg">
<path d="M119.517 39.1379C119.704 39.2185 119.731 39.3932 119.691 39.5814C119.651 39.783 119.57 39.9039 119.356 39.9174C118.928 39.9308 118.487 39.998 118.058 39.9577C116.761 39.8502 115.476 39.6352 114.232 39.2454C112.76 38.8019 111.248 38.4391 109.803 37.9015C108.478 37.4177 107.153 36.8935 106.002 36.0065C105.4 35.5361 104.731 35.1733 104.116 34.7163C103.688 34.3938 103.286 34.0309 102.925 33.6412C102.109 32.7676 101.319 31.8672 100.516 30.9802C99.9677 30.3754 99.4058 29.7841 98.8571 29.1793C98.5761 28.8702 98.3219 28.5342 98.0275 28.252C97.6261 27.8488 97.1846 27.4725 96.7564 27.0962C96.7296 27.0693 96.7029 27.0424 96.6761 27.029C96.0472 26.7065 95.5923 26.142 94.9767 25.7926C94.7091 25.6447 94.4147 25.5103 94.1338 25.3894C93.2105 24.9996 92.2872 24.5965 91.3372 24.2605C90.8689 24.0992 90.347 24.0992 89.8653 23.9648C88.8216 23.6691 87.7512 23.4272 86.6673 23.3197C85.7307 23.2256 84.8743 22.8225 83.9644 22.6209C83.1616 22.4327 82.3453 22.258 81.5425 22.0699C81.3017 22.0161 81.0742 21.9623 80.8333 21.8817C79.7495 21.5457 78.6255 21.4651 77.5015 21.492C76.3642 21.5188 75.2536 21.3844 74.1296 21.2232C73.4606 21.1157 72.7915 21.1022 72.1091 21.0485C71.7612 21.0216 71.4133 21.0081 71.0654 20.9678C70.2893 20.8603 69.5133 20.8469 68.7505 21.0485C68.309 21.1694 67.8407 21.2232 67.3857 21.3038C67.3857 21.3172 67.3991 21.3307 67.3991 21.3576C68.2287 21.4113 69.0583 21.492 69.8879 21.5323C70.2893 21.5592 70.6774 21.5323 71.0788 21.5323C72.5641 21.5188 74.0092 21.7473 75.4677 22.0295C76.4177 22.2177 77.3945 22.2714 78.3445 22.4327C79.5755 22.6477 80.7932 22.9031 82.0108 23.145C82.3855 23.2122 82.7602 23.2794 83.1348 23.3063C84.0313 23.3735 84.8743 23.6288 85.7173 23.8707C86.7075 24.1664 87.711 24.4217 88.7146 24.704C88.7948 24.7309 88.8885 24.7443 88.9554 24.7846C89.8385 25.1744 90.735 25.5507 91.6048 25.9673C92.0999 26.2092 92.5548 26.5183 93.1034 26.8274C93.157 26.7333 93.2372 26.5989 93.3175 26.4645C93.4647 26.1689 93.6387 26.0882 93.933 26.2629C94.1204 26.3705 94.3211 26.5049 94.4549 26.6796C94.776 27.0962 94.6556 27.5397 94.1873 27.8085C94.0535 27.8891 93.9197 27.9698 93.8126 28.0773C93.3309 28.5476 92.9027 29.0852 92.3675 29.4884C92.0196 29.7572 91.6851 30.1469 91.1766 30.1469C90.6681 30.5636 90.0259 30.4829 89.4371 30.5904C89.0223 30.6711 88.5808 30.6576 88.1526 30.698C87.4969 30.7517 86.8546 30.8323 86.199 30.8861C85.9581 30.8995 85.7173 30.8727 85.4764 30.8592C84.513 30.8189 83.563 30.9936 82.613 31.128C82.1179 31.1952 81.6094 31.1146 81.1143 31.1683C80.3382 31.2624 79.5755 31.1011 78.7995 31.1952C77.7022 31.3162 76.5783 31.2758 75.481 31.3565C74.8521 31.4102 74.25 31.3027 73.6345 31.249C73.3268 31.2221 73.019 31.2624 72.7112 31.2355C72.4035 31.2087 72.0957 31.1952 71.8013 31.1146C71.2929 30.9802 70.7844 30.8727 70.2492 30.8323C69.3794 30.7652 68.5097 30.6711 67.6667 30.4023C67.2921 30.2813 66.8906 30.3082 66.4892 30.2545C65.8202 30.1604 65.1511 30.0797 64.4821 29.9722C63.88 29.8647 63.2645 29.7572 62.6623 29.6228C61.7524 29.4212 60.8559 29.1927 59.9594 28.9508C58.8756 28.6552 57.7917 28.3729 56.7213 28.0101C55.9586 27.7547 55.2093 27.4187 54.4867 27.0424C53.5501 26.5586 53.2423 25.6044 52.9881 24.6502C52.9613 24.5293 53.0282 24.3814 53.0684 24.247C53.0951 24.1395 53.1353 24.0454 53.162 23.9514C53.1754 23.9245 53.1486 23.8842 53.1353 23.8439C52.8677 23.7632 52.6268 23.8842 52.3993 23.9917C51.5965 24.368 50.7936 24.7309 50.0176 25.1475C49.683 25.3222 49.4154 25.6179 49.1211 25.8598C49.0541 25.9135 49.0006 25.9942 48.9337 26.0479C47.5957 26.908 46.4984 28.037 45.3343 29.0852C44.5582 29.7841 43.8089 30.5098 43.0462 31.2087C42.7117 31.5043 42.337 31.7597 42.0025 32.0688C41.3602 32.6601 40.5842 33.0499 39.8884 33.5471C39.2729 33.9906 38.5503 34.1922 37.8545 34.4341C37.3996 34.5819 36.9446 34.7567 36.4094 35.0389C36.4763 35.0523 36.5432 35.0658 36.6101 35.0926C37.9749 35.7646 39.032 36.8129 40.0757 37.888C40.3835 38.1971 40.6912 38.4928 41.0123 38.7885C41.2398 38.9901 41.6546 38.9094 41.8152 38.6406C42.3237 37.8208 42.8054 36.9742 43.3272 36.1678C43.5681 35.7915 43.8892 35.4689 44.1836 35.1195C44.8794 34.2594 45.6153 33.4396 46.1773 32.472C46.378 32.136 46.6992 31.8672 46.9935 31.5984C47.2879 31.3296 47.8499 31.3162 48.1576 31.5581C48.2379 31.6253 48.3048 31.7462 48.3182 31.8537C48.4654 32.7676 48.5724 33.6815 48.7464 34.5819C48.8802 35.2405 48.8267 35.9393 49.188 36.6247C49.5359 36.2081 49.857 35.8049 50.2049 35.4286C50.807 34.7835 51.4493 34.1788 52.038 33.5202C52.3859 33.117 52.6536 32.6467 52.9613 32.2032C53.0817 32.0285 53.1888 31.8537 53.336 31.7059C53.7642 31.2758 54.4198 31.464 54.5804 32.0553C54.6205 32.1897 54.6473 32.3241 54.6473 32.472C54.6205 33.7487 54.5804 35.0254 54.5536 36.3022C54.5536 36.6113 54.6071 36.9204 54.6205 37.2295C54.6339 37.4177 54.5804 37.6058 54.5804 37.794C54.5938 38.5063 54.6205 39.2185 54.6339 39.9308C54.6339 40.0383 54.6741 40.1324 54.6874 40.2803C54.7811 40.2131 54.8748 40.1862 54.9149 40.1324C55.5706 39.232 56.1994 38.3315 56.8551 37.4177C57.0826 37.1085 57.3234 36.8129 57.5509 36.5038C57.7918 36.1678 58.1664 36.1678 58.4875 36.2081C58.7552 36.235 58.9291 36.4769 59.0495 36.7591C59.4108 37.6058 59.4376 38.5197 59.5312 39.4201C59.558 39.6755 59.558 39.9443 59.5848 40.2668C60.0531 39.998 60.4545 39.7158 60.8559 39.4336C61.2841 39.1245 61.6989 38.775 62.2341 38.6406C62.6891 38.5331 62.9433 38.6003 63.1307 39.0169C63.2778 39.326 63.3849 39.662 63.5053 39.9846C63.6659 40.4415 63.7863 40.9119 63.9469 41.3688C64.0539 41.6645 64.1342 41.7183 64.4152 41.5839C65.3385 41.1135 65.7399 41.5839 66.2216 42.323C66.2751 42.4037 66.3019 42.5112 66.342 42.5918C66.3822 42.6187 66.4223 42.6321 66.4491 42.6456C67.5061 42.8203 68.5498 43.0085 69.6069 43.1697C70.1823 43.2638 70.7577 43.3713 71.3464 43.4385C72.6042 43.5729 73.7549 44.0433 74.8521 44.6346C75.5212 44.9975 76.1233 45.4813 76.6987 45.9651C77.0734 46.2742 77.4079 46.6371 77.6889 47.0403C78.5318 48.2364 79.0135 49.5938 79.2945 51.0318C79.3347 51.2199 79.3614 51.4081 79.4016 51.5962C79.4685 51.9591 79.5488 52.2548 80.0171 52.2816C80.2178 52.2951 80.4185 52.5101 80.6861 52.6714C80.4988 52.873 80.365 53.0342 80.2178 53.1552C79.8164 53.4643 79.415 53.7734 79.0002 54.0422C78.5051 54.3647 77.9966 54.647 77.5015 54.9426C77.2607 55.0905 77.0332 55.2383 76.7924 55.3727C76.4043 55.5877 75.9895 55.6953 75.5479 55.7087C75.374 55.7087 75.1867 55.7221 75.0395 55.7893C73.9021 56.2866 72.7246 56.7166 71.7077 57.4692C70.7577 58.1815 69.6872 58.3428 68.5498 58.1681C67.7871 58.0471 67.0378 58.0606 66.2751 58.0606C65.6195 58.0606 64.9504 57.9531 64.3082 57.98C63.6926 58.0068 63.0905 57.9934 62.5018 57.8859C62.1271 57.8187 61.7792 57.6708 61.4179 57.5499C60.5616 57.2811 59.6784 57.093 58.8756 56.636C57.872 56.0447 56.9621 55.3458 56.1058 54.5529C55.8515 54.311 55.5973 54.0825 55.3297 53.8541C54.8212 53.424 54.3797 52.9402 54.1656 52.2816C54.1388 52.201 54.0853 52.1204 54.0452 52.0532C54.0184 52.0129 53.9782 51.986 53.9113 51.9322C53.7909 51.9994 53.6571 52.0397 53.5501 52.1204C52.8944 52.6311 52.1317 52.7386 51.3423 52.7386C50.6598 52.7386 49.9908 52.7251 49.3084 52.7251C48.1309 52.7251 46.9668 52.8999 45.8428 53.2762C45.4012 53.424 44.9329 53.4509 44.4646 53.424C43.4878 53.3568 42.4976 53.2896 41.5208 53.3837C41.0926 53.424 40.6511 53.3971 40.2229 53.3299C40.0088 53.303 39.8081 53.1283 39.594 53.0208C39.4869 52.967 39.3933 52.873 39.2862 52.8461C38.0284 52.4564 36.8108 51.9591 35.5932 51.4618C34.9777 51.2065 34.3086 51.0318 33.6931 50.7764C32.3684 50.2388 31.0303 49.7013 29.7458 49.0831C28.5281 48.5052 27.4443 47.7122 26.8154 46.4624C26.521 45.8845 26.3739 45.226 26.133 44.6077C25.5978 43.1563 25.5978 41.6779 25.8922 40.1862C26.0393 39.447 26.026 38.7078 25.9323 37.9687C25.9055 37.7268 25.9591 37.5386 26.0795 37.337C26.9358 35.9393 28.1669 35.1195 29.7592 34.7298C30.7895 34.4744 31.8198 34.2325 32.8769 34.1384C32.9839 34.125 33.091 34.1116 33.1846 34.1519C33.6931 34.4072 34.2149 34.3132 34.7502 34.246C35.5798 34.1384 36.3826 33.9234 37.1453 33.5874C37.5066 33.4262 37.908 33.3321 38.2559 33.1439C38.8045 32.8483 39.3398 32.5257 39.8482 32.1628C40.718 31.5312 41.561 30.8592 42.3906 30.1738C42.6849 29.9319 42.9392 29.6497 43.2068 29.3809C44.2237 28.4133 45.2139 27.4187 46.2576 26.478C46.8865 25.9135 47.5689 25.4163 48.2379 24.8921C48.4788 24.704 48.7063 24.4621 48.9739 24.3142C49.469 24.032 49.9908 23.817 50.4993 23.5616C50.7669 23.4272 51.0077 23.2391 51.2754 23.145C52.1585 22.8359 53.0416 22.5268 53.9515 22.2849C54.8614 22.043 55.7846 21.922 56.7079 21.7473C57.7516 21.5592 58.7819 21.371 59.8256 21.1963C61.6454 20.8872 63.4785 20.5781 65.3117 20.2824C65.6462 20.2287 66.0075 20.2421 66.342 20.2018C66.9709 20.1211 67.6132 20.0674 68.2421 19.9196C69.2456 19.6911 70.2358 19.7717 71.2394 19.7986C71.895 19.8255 72.5507 19.812 73.2063 19.8524C73.688 19.8792 74.1697 19.933 74.6381 20.0405C75.8289 20.3093 77.0198 20.3362 78.2375 20.3227C78.6121 20.3227 79.0002 20.269 79.3748 20.3093C79.8833 20.3765 80.3918 20.4571 80.8735 20.6318C81.3819 20.82 81.9172 20.8469 82.4256 20.9544C82.7602 21.0216 83.0947 21.1022 83.4292 21.1829C83.8038 21.2635 84.1785 21.3307 84.5398 21.4382C84.9412 21.5592 85.3292 21.7339 85.744 21.8414C86.0384 21.922 86.3462 21.9489 86.6539 22.0027C87.2694 22.1102 87.8983 22.1774 88.5005 22.3118C88.7948 22.379 89.1026 22.2849 89.397 22.473C89.6512 22.6343 89.9857 22.6746 90.2801 22.7553C91.2168 23.0106 92.1534 23.2525 93.0767 23.5348C93.545 23.6826 94 23.8573 94.4281 24.0992C94.8831 24.3411 95.3915 24.4889 95.8331 24.7443C96.2078 24.9593 96.5155 25.2684 96.85 25.5372C97.6261 26.1554 98.4423 26.693 99.098 27.4591C99.6734 28.131 100.289 28.7761 100.904 29.4078C101.145 29.6497 101.373 29.8916 101.573 30.1738C102.604 31.5581 103.848 32.7407 105.159 33.8562C105.507 34.1519 105.936 34.3669 106.324 34.6223C106.645 34.8373 106.939 35.0658 107.26 35.2539C107.715 35.5361 108.17 35.8184 108.665 36.0468C109.829 36.5844 111.034 37.0682 112.278 37.3101C113.415 37.5252 114.459 38.0224 115.57 38.2509C116.546 38.4525 117.55 38.5734 118.54 38.7616C118.888 38.8422 119.196 38.9901 119.517 39.1379ZM91.8724 27.8354C91.9126 27.8085 91.9393 27.7682 91.9795 27.7413C91.8055 27.4322 91.7118 27.029 91.083 27.0828C91.3907 27.3784 91.6316 27.6069 91.8724 27.8354ZM90.4407 28.9508C90.5477 28.924 90.6414 28.8433 90.802 28.7627C90.5611 28.467 90.3604 28.1848 90.1195 27.9563C89.6378 27.5128 89.1294 27.0828 88.6209 26.6796C88.2864 26.4108 87.8983 26.2092 87.5237 25.9807C87.323 25.8598 87.1089 25.7119 86.8948 25.6313C86.1722 25.3356 85.4363 25.1206 84.7004 24.9056C84.4595 24.8384 84.2186 24.7577 83.9644 24.6771C83.951 24.704 83.9377 24.7309 83.9243 24.7577C84.0848 24.8518 84.232 24.9459 84.3792 25.04C84.687 25.2281 85.0215 25.3894 85.3025 25.6179C85.9715 26.1958 86.6272 26.7871 87.2695 27.4053C87.6709 27.7816 88.0322 28.1982 88.2462 28.7224C88.3934 29.0583 88.6209 29.2599 89.0089 29.2062C89.4907 29.139 89.9723 29.0449 90.4407 28.9508ZM85.9046 29.3675C86.306 29.3675 86.6941 29.3675 87.2159 29.3675C87.1089 29.1659 87.0821 29.018 86.9885 28.924C86.3596 28.2923 85.7708 27.6338 85.0884 27.0693C84.4461 26.5452 83.7102 26.1554 83.0144 25.6985C82.9609 25.6582 82.8806 25.6582 82.8271 25.6447C82.6665 25.591 82.5059 25.5507 82.3453 25.4835C81.6495 25.1609 80.9671 24.8115 80.1911 24.7577C79.5889 24.7174 78.9868 24.6905 78.3847 24.6368C76.8325 24.5158 75.2803 24.3814 73.7282 24.2605C73.3669 24.2336 73.0056 24.2605 72.631 24.2739C72.3232 24.2874 72.0154 24.3277 71.6943 24.3546C70.2492 24.4352 68.7773 24.4352 67.3456 24.583C65.6596 24.7577 63.9603 24.8518 62.3144 25.255C61.6454 25.4163 60.9764 25.5372 60.3073 25.7254C59.5714 25.927 58.996 26.4242 58.3671 26.814C58.2735 26.8677 58.1932 26.9484 58.0594 27.0693C59.1031 27.365 60.0799 27.6472 61.0433 27.9294C61.4179 28.037 61.7123 27.9832 62.0201 27.7547C62.7426 27.2037 63.5722 26.8408 64.4152 26.5183C65.4589 26.1151 66.5695 26.0345 67.6667 25.8866C68.6703 25.7523 69.6738 25.7119 70.664 25.5775C71.9352 25.4163 73.2063 25.255 74.4909 25.2684C74.9458 25.2819 75.3874 25.2147 75.8423 25.2281C76.5114 25.2416 77.2072 25.2012 77.8628 25.3088C78.7861 25.4566 79.696 25.7119 80.6059 25.9404C81.4087 26.142 82.2383 26.2898 82.9609 26.7333C83.2419 26.908 83.4961 27.15 83.8038 27.244C84.4461 27.4591 84.9278 27.8354 85.2891 28.3864C85.4898 28.7224 85.6905 29.0449 85.9046 29.3675ZM84.4461 29.4078C84.2722 28.9777 83.9644 28.7896 83.67 28.6148C83.4024 28.4536 83.0947 28.3595 82.8404 28.1713C82.1982 27.701 81.4488 27.5531 80.7129 27.3515C79.9368 27.1365 79.134 26.9618 78.3445 26.8005C77.8227 26.693 77.2874 26.5586 76.7522 26.5586C75.4543 26.5586 74.1564 26.5855 72.8584 26.6661C71.5605 26.7468 70.2759 26.8946 68.9914 27.0424C67.9879 27.1634 67.0111 27.3381 66.0075 27.4725C65.5258 27.5397 65.0441 27.5666 64.6561 27.916C64.6159 27.9563 64.5222 27.9294 64.4687 27.9563C64.2279 28.0907 63.9201 28.131 63.7729 28.467C63.88 28.5073 63.9603 28.5476 64.0405 28.5611C64.6962 28.6552 65.3385 28.7358 65.9941 28.8299C67.2787 29.0315 68.5498 29.2331 69.8344 29.4346C70.1421 29.4884 70.4633 29.5018 70.7577 29.5556C72.1091 29.811 73.4606 29.9588 74.8388 29.9453C75.5613 29.9453 76.2973 29.8781 77.0198 29.8378C78.7192 29.7303 80.4185 29.8916 82.1045 29.69C82.8806 29.5959 83.6299 29.5018 84.4461 29.4078ZM77.8227 53.4106C78.2375 53.1418 78.291 52.967 78.1572 52.4967C78.0501 52.1338 77.9297 51.7575 77.8762 51.3812C77.7156 50.306 77.3811 49.2847 76.886 48.317C76.4445 47.4703 75.8825 46.6908 75.1064 46.1129C74.3035 45.5082 73.407 45.0781 72.457 44.7556C71.3063 44.3658 70.102 44.2986 68.9111 44.1105C67.8407 43.9358 66.7568 43.8014 65.673 43.6401C65.4054 43.5998 65.1244 43.5191 64.8568 43.4923C64.5356 43.4519 64.2145 43.452 63.88 43.4385C63.7328 43.4385 63.5722 43.452 63.425 43.4385C63.2778 43.4251 63.1307 43.3848 62.9835 43.3444C62.6356 43.2504 62.301 43.3848 61.9665 43.4519C61.525 43.546 61.0968 43.6132 60.6552 43.7207C59.9728 43.8954 59.3038 44.1239 58.608 44.2718C58.1932 44.3524 57.8319 44.5271 57.4706 44.7421C57.2164 44.89 57.1629 45.0647 57.2431 45.3469C57.4572 46.1398 57.6446 46.9328 57.8319 47.7257C57.8587 47.8601 57.8854 48.0213 57.8319 48.1289C57.5643 48.6396 57.3234 49.1906 56.7882 49.4459C56.4002 49.6341 56.1058 49.9163 55.798 50.1851C55.4635 50.4808 55.1959 50.8436 54.9015 51.1796C55.3163 51.8516 55.7044 52.4564 56.2664 52.9402C57.0826 53.639 57.8988 54.3244 58.715 55.0367C59.3172 55.5609 59.9862 55.9372 60.7355 56.1791C61.1503 56.3135 61.5651 56.4075 61.9799 56.5419C62.6891 56.7704 63.3983 56.9451 64.161 56.9182C64.8969 56.8779 65.6462 56.9048 66.3822 56.9048C66.8639 56.9048 67.3322 56.9451 67.8273 56.8645C68.2555 56.7973 68.7238 56.972 69.1787 57.0661C69.7407 57.1736 70.2492 57.0929 70.7041 56.757C71.4802 56.1925 72.3232 55.7759 73.2063 55.3861C73.5542 55.2383 73.9155 55.1308 74.2634 54.9964C74.5444 54.8889 74.812 54.6604 75.1064 54.6335C75.7487 54.5798 76.2839 54.2841 76.8325 53.975C77.167 53.8003 77.5015 53.6121 77.8227 53.4106ZM72.8183 23.0106C72.8183 22.9703 72.8183 22.9434 72.8317 22.9031C72.5641 22.8628 72.2964 22.7956 72.0154 22.7956C71.4936 22.7821 70.9851 22.8225 70.4633 22.7956C69.5935 22.7553 68.7372 22.6343 67.8674 22.6612C66.2216 22.7015 64.5758 22.6477 62.9299 22.8897C61.7658 23.0644 60.6151 23.3332 59.5045 23.696C59.0763 23.8304 58.6883 24.0589 58.2735 24.247C57.7382 24.4889 57.1896 24.704 56.6678 24.9728C56.1593 25.2416 55.6508 25.5507 55.236 26.0882C55.6776 26.2898 56.079 26.4645 56.4537 26.6258C56.6678 26.3839 56.8016 26.1689 56.9889 26.0345C58.2066 25.1878 59.451 24.4083 60.9496 24.1798C62.0736 24.0051 63.1976 23.7632 64.3215 23.6154C65.673 23.4407 67.0378 23.3466 68.4027 23.2256C69.2858 23.145 70.1555 23.0644 71.0386 23.0106C71.6542 22.9837 72.2429 23.0106 72.8183 23.0106ZM66.2484 21.3844C66.2484 21.3576 66.2617 21.3172 66.2617 21.2904C66.1815 21.2769 66.0878 21.2635 66.0075 21.2366C65.9941 21.2769 65.9807 21.3172 65.9807 21.3576C66.0744 21.371 66.1681 21.371 66.2484 21.3844ZM62.7426 42.323C62.475 41.5167 62.3144 40.7372 61.9264 39.9711C61.5517 40.2399 61.1771 40.4415 60.8827 40.7238C60.5214 41.0732 60.2137 41.4629 59.8925 41.8527C59.6517 42.1618 59.2369 42.3365 58.889 42.2424C58.5143 42.1349 58.3002 41.893 58.2601 41.5032C58.2467 41.342 58.2199 41.1941 58.2066 41.0329C58.1932 40.549 58.2199 40.0518 58.1798 39.568C58.1396 39.0573 58.0326 38.5466 57.9523 38.0359C57.9122 38.0224 57.872 38.0224 57.8319 38.009C56.8283 39.3798 55.9184 40.8178 54.7142 42.0811C55.41 42.6993 55.8917 43.4654 56.534 43.9761C58.5946 43.1966 60.6285 42.6725 62.7426 42.323ZM58.1263 22.7149C58.1129 22.6746 58.0995 22.6478 58.0861 22.6074C57.4171 22.7553 56.7481 22.8897 56.079 23.0644C55.3966 23.2256 54.6874 23.266 54.0184 23.5079C54.1923 23.8573 54.2325 24.1261 54.1121 24.4621C53.9515 24.9056 53.9783 25.0265 54.1522 25.255C54.2459 25.1206 54.3128 24.9324 54.46 24.8115C55.129 24.2874 55.798 23.7632 56.6009 23.4407C57.1093 23.2122 57.6178 22.9569 58.1263 22.7149ZM56.0924 48.7336C56.4002 48.5858 56.4938 48.3305 56.4002 47.9945C56.2664 47.4569 56.1459 46.9059 56.0121 46.3683C55.7846 45.4544 55.41 44.6212 54.7409 43.9223C53.7106 42.8741 52.774 41.7183 51.4627 40.9925C50.807 40.6297 50.1648 40.2265 49.469 39.998C48.8267 39.783 48.1175 39.7292 47.4351 39.662C46.6055 39.5814 45.7893 39.4604 44.9998 39.2051C44.3441 38.9901 43.7153 39.111 43.0864 39.3529C42.5511 39.5545 42.0293 39.783 41.4807 39.9039C40.7715 40.0652 40.1426 39.8771 39.7144 39.2185C39.6341 39.0841 39.5003 38.9901 39.3933 38.8825C38.8982 38.3987 38.3763 37.9418 37.9214 37.4311C37.239 36.665 36.4629 35.9662 35.4861 35.7109C34.1882 35.3614 32.8501 34.9045 31.4585 35.348C31.2444 35.4152 30.9902 35.3211 30.7493 35.2942C30.6423 35.2808 30.5353 35.2674 30.4416 35.2808C29.3444 35.5361 28.3676 35.9931 27.6584 36.9473C27.257 37.4849 27.1366 38.0627 27.1633 38.7078C27.1633 38.8691 27.1767 39.0304 27.1633 39.1782C27.0697 40.1324 26.976 41.0732 26.8823 42.0274C26.8957 42.0274 26.9091 42.0274 26.9225 42.0408C26.9358 42.2558 26.9225 42.4843 26.976 42.6993C27.2436 43.6132 27.5112 44.5405 27.8056 45.441C27.8859 45.6829 28.0197 45.9114 28.1669 46.1264C29.0366 47.3359 30.1874 48.1557 31.579 48.653C32.1811 48.868 32.7431 49.1637 33.3318 49.419C33.9741 49.6878 34.603 49.9835 35.2453 50.2254C36.2488 50.6017 37.2658 50.9377 38.2693 51.3006C38.8447 51.5022 39.3799 51.7978 39.9687 51.9457C40.7314 52.1472 41.5476 52.1069 42.2969 52.3623C42.3772 52.3892 42.4708 52.4026 42.5511 52.4026C43.1131 52.416 43.6885 52.3892 44.2505 52.4698C44.9195 52.5773 45.5752 52.4698 46.2041 52.2951C46.9935 52.0935 47.7428 51.7978 48.5858 51.8247C49.2281 51.8381 49.857 51.7441 50.4993 51.7306C50.8472 51.7172 51.1817 51.7575 51.5296 51.7844C52.4395 51.865 53.0684 51.314 53.6973 50.8033C54.5135 50.1179 55.1022 49.204 56.0924 48.7336ZM53.2825 40.7372C53.2557 39.5276 53.2289 38.4256 53.2156 37.3236C53.2022 36.2081 53.1888 35.0926 53.1754 33.9906C52.5599 34.2997 52.1451 34.7835 51.7303 35.2808C51.2887 35.8049 50.8338 36.3425 50.4457 36.907C50.1112 37.3773 49.7901 37.8477 49.3351 38.1971C48.907 38.5197 48.3584 38.4659 48.1576 37.9821C47.9569 37.4849 47.7696 36.9742 47.6626 36.45C47.4886 35.563 47.3682 34.676 47.2344 33.7756C47.2076 33.6009 47.2344 33.3858 47.0203 33.3186C46.4449 34.0712 45.9231 34.8373 45.2942 35.5093C44.692 36.1678 44.197 36.8935 43.7286 37.6461C43.6483 37.7805 43.5814 37.9418 43.4744 38.1568C43.9561 38.1568 44.3308 38.1165 44.7054 38.1703C45.254 38.2509 45.7759 38.4256 46.3245 38.5062C47.2745 38.6541 48.2379 38.775 49.2013 38.9094C49.9239 39.0169 50.6197 39.1917 51.262 39.5814C51.8775 39.9443 52.5198 40.2937 53.2825 40.7372Z" fill="#4D3826"/>
<g filter="url(#filter0_d)">
<path d="M148.526 13.1731C148.526 13.7913 148.178 14.2751 147.576 14.4364C147.376 14.4902 147.295 14.5843 147.282 14.7993C147.188 16.3448 147.095 17.8903 146.988 19.4224C146.934 20.2691 146.867 21.1292 146.787 21.9759C146.693 23.1586 146.573 24.3278 146.479 25.5105C146.359 26.9888 146.292 28.4537 146.158 29.9321C146.024 31.397 145.877 32.8618 145.583 34.3133C145.422 35.0793 145.355 35.8588 145.235 36.6383C145.181 36.9206 145.088 37.2028 145.007 37.485C144.967 37.6328 144.9 37.7807 144.873 37.9285C144.833 38.1839 144.699 38.3317 144.499 38.5064C144.178 38.7886 143.897 39.1381 143.683 39.5009C143.402 39.9579 143.054 40.3073 142.599 40.5895C142.318 40.7642 142.064 40.9658 141.997 41.3287C141.983 41.4228 141.876 41.49 141.823 41.584C141.675 41.8797 141.475 42.1485 141.394 42.4576C141.167 43.2774 140.699 43.8822 139.963 44.2719C139.896 44.3122 139.842 44.3391 139.789 44.3794C139.28 44.8901 138.611 45.1186 137.929 45.253C137.153 45.4008 136.35 45.4949 135.614 45.0245C135.4 44.8901 135.226 44.7423 135.132 44.5004C135.025 44.245 134.891 44.0031 134.771 43.7478C134.383 42.9548 133.714 42.4845 132.951 42.1082C132.603 41.9334 132.296 41.6647 131.961 41.4496C131.466 41.1271 130.958 40.8314 130.462 40.5223C129.753 40.0923 129.044 39.6622 128.335 39.2187C128.041 39.0305 127.76 38.8424 127.452 38.6542C127.077 38.4258 126.689 38.2376 126.341 37.9823C125.993 37.7269 125.659 37.4447 125.364 37.1356C125.19 36.9474 125.016 36.8265 124.776 36.7458C123.745 36.4099 123.223 35.6035 122.996 34.609C122.795 33.6951 123.331 33.05 124.04 32.6199C124.508 32.3377 124.628 32.0017 124.602 31.5179C124.588 31.1416 124.642 30.7519 124.642 30.3756C124.642 29.7708 124.642 29.1526 124.628 28.5478C124.615 28.1715 124.588 27.7818 124.562 27.4189C124.495 27.4054 124.454 27.392 124.441 27.4054C124.026 27.9296 123.424 28.2924 123.09 28.8972C123.05 28.9644 123.009 29.0182 122.956 29.0585C122.608 29.2735 122.581 29.5558 122.715 29.9186C122.755 30.0396 122.728 30.1874 122.715 30.3218C122.675 31.4373 122.019 32.2168 121.283 32.9559C121.203 33.0231 121.123 33.0903 121.056 33.171C120.32 34.0176 119.463 33.8832 118.741 33.3725C118.313 33.0769 117.951 32.7006 117.737 32.2168C116.827 31.9614 116.025 31.5448 115.249 31.061C114.566 30.6443 113.857 30.2815 113.148 29.9186C112.385 29.5154 111.609 29.1391 110.833 28.7494C110.498 28.5881 110.137 28.4403 109.789 28.2924C109.415 28.1312 109.281 27.8893 109.468 27.5667C109.602 27.3248 109.575 27.1098 109.562 26.8679C109.441 25.5642 109.12 24.2875 109.134 22.9839C109.134 22.621 109.053 22.2582 109.013 21.8953C108.879 20.7529 108.759 19.624 108.598 18.4817C108.478 17.5812 108.277 16.6942 108.184 15.7938C108.063 14.4767 108.023 13.1597 107.929 11.8292C107.903 11.3857 107.796 10.9422 107.755 10.4987C107.662 9.41008 107.568 8.30805 107.488 7.21946C107.448 6.69533 107.461 6.14431 107.153 5.66049C107.113 5.59329 107.1 5.48578 107.126 5.40514C107.287 4.97508 107.18 4.54502 107.14 4.11496C107.1 3.76553 107.22 3.51019 107.501 3.30859C107.836 3.05325 108.237 2.94573 108.638 2.83822C108.679 2.82478 108.705 2.83821 108.746 2.82477C109.642 2.44847 110.619 2.3544 111.462 1.8437C111.796 1.64211 112.131 1.42708 112.492 1.25236C112.894 1.05077 113.308 0.876061 113.71 0.701348C113.737 0.687909 113.777 0.674469 113.803 0.66103C114.472 0.472878 115.128 0.244408 115.811 0.123453C116.881 -0.0646983 117.938 -0.0109398 118.942 0.540076C119.437 0.808864 119.999 0.983577 120.534 1.15829C121.645 1.52115 122.675 2.03185 123.705 2.56943C123.852 2.65006 124.013 2.7307 124.173 2.77102C124.789 2.91885 125.338 3.22796 125.859 3.5505C126.248 3.77897 126.649 4.0612 126.876 4.42406C127.117 4.80037 127.157 5.31106 127.264 5.768C127.278 5.80832 127.251 5.88896 127.224 5.91584C126.876 6.26526 126.917 6.7894 126.582 7.25978C127.171 7.07163 127.639 6.92379 128.121 6.77596C129.526 6.35934 130.944 5.95616 132.349 5.55297C132.965 5.37826 133.567 5.16323 134.196 5.00196C135.106 4.76005 136.029 4.62566 136.965 4.71973C137.461 4.77349 137.929 4.98852 138.397 5.12291C138.625 5.19011 138.852 5.25731 139.08 5.32451C139.2 5.36482 139.32 5.3917 139.427 5.43202C140.056 5.70081 140.712 5.95616 141.328 6.26526C141.956 6.58781 142.545 7.00443 143.174 7.32698C143.964 7.7436 144.82 8.0527 145.583 8.52308C146.252 8.9397 147.028 9.22193 147.576 9.82671C147.831 10.1089 148.058 10.418 148.245 10.754C148.486 11.1706 148.62 11.6276 148.526 12.1383C148.446 12.5011 148.526 12.8506 148.526 13.1731ZM146.68 13.536C146.921 13.3882 147.028 13.2134 146.894 12.9178C146.573 12.8909 146.332 13.0656 146.078 13.2C145.355 13.5897 144.699 14.1139 143.91 14.423C143.495 14.5843 143.08 14.7858 142.706 15.0278C141.983 15.4981 141.194 15.7804 140.404 16.1029C139.842 16.3314 139.749 16.412 139.802 17.0168C139.816 17.2453 139.882 17.4737 139.949 17.756C140.244 17.6081 140.458 17.5006 140.659 17.3797C141.073 17.1377 141.475 16.8824 141.89 16.6405C142.612 16.2104 143.361 15.7938 144.071 15.3503C144.526 15.0681 144.94 14.7186 145.382 14.423C145.81 14.1004 146.238 13.8182 146.68 13.536ZM146.72 11.3454C146.921 11.1572 146.907 10.9287 146.733 10.7406C146.573 10.5659 146.385 10.3912 146.171 10.2836C145.195 9.74607 144.218 9.23537 143.241 8.71123C142.866 8.50964 142.478 8.29461 142.104 8.07958C141.689 7.83767 141.287 7.55545 140.846 7.34042C140.311 7.08507 139.762 6.88348 139.2 6.68189C138.611 6.46686 138.023 6.25183 137.434 6.07711C136.551 5.80832 135.641 5.87552 134.758 6.07711C133.513 6.3459 132.269 6.68189 131.038 7.01787C130.355 7.20602 129.673 7.40761 129.004 7.6092C128.683 7.70328 128.388 7.85111 128.067 7.90487C127.104 8.03926 126.381 8.5634 125.726 9.28913C125.793 9.34289 125.819 9.36977 125.846 9.39664C126.595 9.77295 127.358 10.0955 128.067 10.5121C128.79 10.9422 129.606 11.1706 130.288 11.6948C130.797 12.0845 131.399 12.4071 132.028 12.6624C132.844 12.985 133.62 13.4016 134.423 13.7779C134.49 13.8048 134.557 13.8316 134.597 13.8854C134.945 14.2886 135.427 14.4364 135.895 14.5574C136.832 14.8127 137.728 15.1487 138.625 15.4847C138.732 15.525 138.866 15.5385 138.973 15.4847C139.749 15.1622 140.538 14.8262 141.301 14.4633C141.823 14.2214 142.318 13.9392 142.813 13.6704C143.228 13.4553 143.656 13.2538 144.057 13.0253C144.74 12.649 145.422 12.2592 146.078 11.8695C146.319 11.7217 146.519 11.5335 146.72 11.3454ZM145.65 17.0302C145.676 16.6539 145.743 16.2507 145.583 15.8341C145.449 15.9013 145.328 15.9282 145.235 15.9954C144.753 16.2911 144.271 16.6136 143.776 16.8958C143.161 17.2453 142.532 17.5812 141.903 17.9172C141.033 18.401 140.163 18.9117 139.28 19.3956C139.12 19.4762 139.026 19.5568 139.026 19.745C139.026 19.9063 139.013 20.0541 139.013 20.2154C139.053 22.2716 139.08 24.3144 139.12 26.3706C139.12 26.7335 139.093 27.0963 139.093 27.4592C139.106 28.3462 139.187 29.2332 139.16 30.1202C139.106 32.3243 139.254 34.5015 139.468 36.6786C139.508 37.0818 139.642 37.2028 140.03 37.3372C140.284 37.4312 140.551 37.5253 140.766 37.7C141.274 38.1032 141.742 38.5467 141.689 39.2859C141.689 39.3128 141.716 39.3396 141.769 39.4337C141.863 39.4068 141.97 39.3934 142.023 39.3531C142.385 38.9768 142.813 38.6811 143 38.157C143.067 37.9823 143.187 37.821 143.281 37.6597C143.375 37.485 143.495 37.2969 143.522 37.1087C143.723 35.9395 143.923 34.7837 144.097 33.6145C144.204 32.8618 144.271 32.0958 144.352 31.3298C144.419 30.6712 144.485 30.0127 144.552 29.3542C144.619 28.7494 144.686 28.1446 144.78 27.5398C144.914 26.6394 144.726 25.6986 144.994 24.8116C145.007 24.7713 145.007 24.7444 145.007 24.7041C145.047 24.1128 145.101 23.5215 145.141 22.9436C145.221 21.9759 145.302 21.0083 145.395 20.0407C145.476 19.0327 145.583 18.0382 145.65 17.0302ZM138.25 17.8366C138.33 17.084 138.317 17.1109 137.715 16.8286C137.367 16.6674 137.019 16.6539 136.671 16.5733C135.226 16.2373 133.888 15.6057 132.577 14.9471C132.47 14.8934 132.336 14.8665 132.215 14.8262C132.202 14.8665 132.189 14.9202 132.162 14.9606C134.115 16.0626 136.082 17.1781 138.25 17.8366ZM137.742 36.9474C137.742 36.4367 137.755 35.9395 137.742 35.4288C137.688 34.0848 137.594 32.7543 137.568 31.4104C137.527 29.2735 137.541 27.1232 137.527 24.9864C137.514 23.2258 137.501 21.4652 137.474 19.7047C137.447 18.6564 137.367 18.737 136.577 18.4817C135.266 18.0382 134.089 17.3393 132.871 16.7346C132.028 16.3179 131.212 15.861 130.369 15.4713C129.205 14.9337 128.027 14.423 126.85 13.9257C126.622 13.8316 126.355 13.7913 126.033 13.7107C126.033 14.1811 125.967 14.5439 126.047 14.8934C126.207 15.6325 126.207 16.3851 126.234 17.1243C126.261 17.6081 126.355 18.0919 126.301 18.5758C126.194 19.7584 126.261 20.9411 126.247 22.1238C126.247 22.2582 126.261 22.406 126.247 22.5404C126.207 23.2527 126.154 23.965 126.14 24.6772C126.127 25.2148 126.181 25.7524 126.181 26.29C126.181 27.0829 126.154 27.8893 126.154 28.6822C126.154 28.9375 126.194 29.2063 126.194 29.4617C126.181 30.1068 126.14 30.7519 126.154 31.397C126.167 32.284 126.247 33.171 126.247 34.058C126.247 34.7165 126.341 35.3347 126.542 35.9529C126.649 36.2889 126.823 36.5442 127.131 36.7055C127.479 36.8937 127.826 37.0953 128.161 37.2969C128.576 37.5522 128.964 37.8344 129.379 38.0898C130.797 38.9499 132.229 39.81 133.66 40.6701C133.901 40.818 134.156 40.9658 134.396 41.1136C135.427 38.8961 135.922 38.2779 137.742 36.9474ZM131.8 14.7993C131.814 14.7724 131.814 14.759 131.827 14.7321C129.673 13.6166 127.532 12.5146 125.311 11.3722C125.324 11.7082 125.284 11.9636 125.552 12.1248C126.087 12.434 126.609 12.7834 127.238 12.9043C127.385 12.9312 127.532 12.9984 127.666 13.0656C128.87 13.5629 130.021 14.208 131.279 14.6111C131.466 14.6649 131.627 14.7321 131.8 14.7993ZM125.712 6.31902C125.672 6.2787 125.632 6.25183 125.605 6.21151C125.458 6.30558 125.324 6.38622 125.177 6.4803C124.602 6.84316 124.04 7.24634 123.371 7.47481C122.822 7.66296 122.314 7.95863 121.792 8.24085C121.417 8.44245 121.069 8.72467 120.695 8.91282C120.146 9.16817 119.972 9.62511 119.905 10.2568C120.266 10.0821 120.574 9.93422 120.882 9.77295C121.966 9.16818 123.063 8.57684 124.133 7.93175C124.615 7.63608 125.03 7.2329 125.445 6.84316C125.578 6.7222 125.632 6.49373 125.712 6.31902ZM125.592 5.0154C125.311 4.77349 125.164 4.59878 124.976 4.5047C124.535 4.26279 124.08 4.07464 123.625 3.85961C122.902 3.52362 122.18 3.1742 121.457 2.86509C120.668 2.51567 119.865 2.20656 119.062 1.87058C118.594 1.68242 118.152 1.45396 117.67 1.29268C117.149 1.10453 116.613 0.943258 116.051 1.10453C115.757 1.19861 115.463 1.27924 115.168 1.37332C114.138 1.68242 113.121 2.00497 112.184 2.56943C111.796 2.81134 111.341 2.98605 110.9 3.107C110.391 3.2414 109.963 3.42955 109.696 3.98056C109.87 4.04776 110.017 4.08808 110.151 4.15528C110.713 4.42406 111.274 4.70629 111.823 4.98852C112.184 5.17667 112.613 5.31107 112.88 5.59329C113.215 5.94272 113.629 6.10399 114.044 6.30558C114.606 6.57437 115.168 6.82972 115.69 7.15227C116.038 7.3673 116.399 7.48825 116.774 7.63608C117.095 7.77047 117.416 7.89143 117.724 8.03926C118.005 8.17366 118.286 8.30805 118.54 8.48277C118.955 8.73811 119.316 8.64404 119.704 8.40213C120.454 7.94519 121.23 7.51513 122.006 7.08507C122.407 6.87004 122.849 6.70877 123.237 6.4803C123.906 6.09055 124.562 5.66049 125.231 5.25731C125.324 5.17667 125.431 5.12291 125.592 5.0154ZM124.722 20.1885C124.735 19.4224 124.749 18.6564 124.709 17.8904C124.655 16.748 124.548 15.6057 124.454 14.4499C124.428 14.1408 124.414 13.8316 124.401 13.5225C124.374 13.1462 124.374 12.7834 124.08 12.4608C123.892 12.2592 123.785 11.9367 123.759 11.6545C123.705 11.1706 123.732 10.6868 123.745 10.1896C123.759 9.86702 123.906 9.62511 124.24 9.53104C124.281 9.5176 124.307 9.46384 124.361 9.41008C124.267 9.30257 124.187 9.19505 124.08 9.0741C123.531 9.39664 122.983 9.69231 122.447 10.0014C121.992 10.2568 121.537 10.4987 121.083 10.754C120.628 11.0094 120.186 11.2647 119.731 11.5201C119.544 11.6276 119.423 11.7754 119.423 12.0173C119.423 12.4474 119.343 12.8909 119.383 13.3075C119.45 14.0332 119.49 14.7455 119.41 15.4713C119.303 16.4658 119.37 17.4872 119.356 18.4951C119.356 18.7773 119.356 19.0461 119.37 19.3284C119.423 20.2288 119.477 21.1292 119.517 22.0297C119.571 23.172 119.597 24.3278 119.651 25.4702C119.678 25.9271 119.704 26.3975 119.878 26.8948C120.922 26.7604 121.537 27.4726 122.273 27.943C122.742 27.4592 123.223 26.9888 123.678 26.4781C123.919 26.2093 124.08 25.8734 124.307 25.5911C124.481 25.3761 124.575 25.1879 124.562 24.8923C124.535 24.516 124.602 24.1262 124.602 23.7499C124.655 22.5941 124.695 21.398 124.722 20.1885ZM118.888 10.6868C118.968 10.0955 118.794 9.77295 118.286 9.54448C117.911 9.36977 117.523 9.19505 117.135 9.0741C116.051 8.73811 115.061 8.21398 114.071 7.6764C113.161 7.17914 112.278 6.62813 111.355 6.15775C110.539 5.74112 109.682 5.3917 108.853 5.02884C108.746 4.97508 108.625 4.97508 108.465 4.93476C108.465 5.32451 108.518 5.4589 108.705 5.56641C109.174 5.82176 109.642 6.06367 110.11 6.31902C110.485 6.53405 110.833 6.82972 111.234 6.95067C111.944 7.16571 112.559 7.55545 113.161 7.94519C113.589 8.22742 114.031 8.42901 114.472 8.64404C115.034 8.89939 115.623 9.11442 116.199 9.35633C116.546 9.50416 116.894 9.66543 117.229 9.84015C117.563 10.0149 117.871 10.2299 118.192 10.4046C118.406 10.5256 118.647 10.5928 118.888 10.6868ZM118.112 28.615C118.313 28.2924 118.353 27.9968 118.326 27.6339C118.219 26.4513 118.139 25.2686 118.072 24.0859C118.032 23.5483 118.059 23.0108 118.005 22.4732C117.885 20.9142 117.925 19.3418 118.005 17.7828C118.059 16.8286 118.139 15.8744 118.072 14.9202C118.045 14.423 118.032 13.9123 118.018 13.415C117.992 12.864 117.965 12.313 117.965 11.762C117.965 11.5201 117.885 11.3588 117.684 11.2513C117.242 11.0094 116.814 10.7406 116.359 10.5256C115.396 10.0686 114.392 9.652 113.429 9.16818C112.639 8.77843 111.877 8.33493 111.087 7.91831C110.565 7.64952 110.03 7.39417 109.508 7.13883C109.374 7.07163 109.227 7.04475 109.04 6.97755C109 7.17914 108.96 7.28666 108.973 7.38073C109 8.03926 109.013 8.71124 109.067 9.36977C109.107 9.92078 109.214 10.4718 109.267 11.0228C109.374 12.3802 109.428 13.7376 109.575 15.0815C109.762 16.7211 110.017 18.3607 110.244 19.9869C110.378 20.968 110.498 21.9491 110.619 22.9436C110.793 24.3009 110.94 25.6718 111.114 27.0426C111.154 27.3517 111.301 27.5936 111.596 27.7414C112.265 28.0909 112.92 28.4806 113.589 28.83C114.205 29.1526 114.834 29.4348 115.449 29.7573C115.931 29.9993 116.386 30.2949 116.868 30.5234C117.189 30.6847 117.256 30.604 117.389 30.268C117.59 29.717 117.804 29.1257 118.112 28.615Z" fill="#29353A"/>
<path d="M146.881 12.9178C147.015 13.2135 146.908 13.3882 146.667 13.536C146.225 13.8183 145.797 14.1005 145.369 14.3961C144.927 14.7053 144.512 15.0412 144.057 15.3235C143.348 15.767 142.599 16.1836 141.876 16.6136C141.462 16.8556 141.06 17.1109 140.645 17.3528C140.431 17.4738 140.217 17.5813 139.936 17.7291C139.883 17.4469 139.816 17.2184 139.789 16.99C139.735 16.3852 139.829 16.3045 140.391 16.0761C141.181 15.767 141.97 15.4713 142.693 15.0009C143.067 14.759 143.482 14.5574 143.897 14.3961C144.686 14.1005 145.329 13.5629 146.065 13.1732C146.332 13.0656 146.573 12.8909 146.881 12.9178Z" fill="#FFF31A"/>
<path d="M146.733 10.7409C146.907 10.929 146.921 11.1575 146.72 11.3457C146.519 11.5338 146.319 11.7354 146.091 11.8698C145.422 12.273 144.753 12.6493 144.071 13.0256C143.669 13.2541 143.241 13.4422 142.826 13.6707C142.318 13.926 141.823 14.2217 141.314 14.4636C140.538 14.8265 139.762 15.149 138.986 15.485C138.892 15.5253 138.745 15.5119 138.638 15.485C137.742 15.149 136.845 14.7996 135.908 14.5577C135.44 14.4367 134.945 14.2889 134.61 13.8857C134.57 13.8319 134.49 13.8051 134.436 13.7782C133.647 13.4019 132.858 12.9853 132.041 12.6627C131.412 12.4074 130.81 12.0848 130.302 11.6951C129.606 11.1709 128.803 10.9425 128.081 10.5124C127.371 10.0958 126.595 9.75981 125.859 9.39694C125.833 9.3835 125.806 9.35663 125.739 9.28943C126.395 8.5637 127.117 8.03956 128.081 7.90517C128.402 7.86485 128.71 7.70358 129.017 7.6095C129.7 7.40791 130.369 7.19288 131.051 7.01817C132.282 6.69563 133.527 6.35964 134.771 6.07741C135.654 5.88926 136.564 5.82206 137.447 6.07741C138.036 6.25213 138.625 6.46716 139.213 6.68219C139.762 6.88378 140.324 7.08537 140.859 7.34072C141.301 7.54231 141.689 7.83797 142.117 8.07988C142.492 8.29491 142.88 8.4965 143.254 8.71153C144.231 9.23567 145.208 9.74637 146.185 10.2839C146.385 10.3915 146.573 10.5662 146.733 10.7409ZM139.749 12.824C140.378 12.5552 140.444 12.4343 140.337 11.7623C140.284 11.4666 140.163 11.2247 139.936 11.0634C139.601 10.8215 139.254 10.5931 138.906 10.3646C138.344 9.97484 137.782 9.57166 137.22 9.16848C136.939 8.96689 136.604 8.81905 136.39 8.5637C135.948 8.06645 135.427 8.10676 134.865 8.21428C134.503 8.28147 134.155 8.36211 133.808 8.44275C133.66 8.48306 133.486 8.4965 133.393 8.60402C132.858 9.1416 132.898 9.71949 133.513 10.1361C134.758 10.9828 136.015 11.8026 137.26 12.6627C137.407 12.7568 137.514 12.9315 137.621 13.0928C137.688 13.2003 137.728 13.3481 137.808 13.5632C138.063 13.5094 138.29 13.4825 138.491 13.4019C138.906 13.2137 139.307 12.9987 139.749 12.824Z" fill="#FFF31A"/>
<path d="M145.583 15.834C145.743 16.2506 145.663 16.6538 145.65 17.0301C145.596 18.0381 145.476 19.046 145.395 20.0405C145.315 21.0082 145.221 21.9758 145.141 22.9434C145.088 23.5348 145.047 24.1261 145.007 24.704C145.007 24.7443 145.007 24.7712 144.994 24.8115C144.74 25.712 144.914 26.6393 144.78 27.5397C144.686 28.1445 144.619 28.7493 144.552 29.354C144.485 30.0126 144.419 30.6711 144.352 31.3296C144.271 32.0957 144.204 32.8483 144.097 33.6143C143.923 34.7836 143.736 35.9528 143.522 37.1086C143.482 37.2967 143.361 37.4849 143.281 37.6596C143.187 37.8343 143.067 37.9821 143 38.1568C142.813 38.681 142.371 38.9766 142.023 39.3529C141.97 39.4067 141.876 39.4067 141.769 39.4336C141.716 39.3395 141.689 39.3126 141.689 39.2857C141.742 38.5466 141.274 38.1031 140.766 37.6999C140.551 37.5252 140.284 37.4311 140.03 37.337C139.642 37.2026 139.508 37.0817 139.468 36.6785C139.254 34.5013 139.093 32.3107 139.16 30.1201C139.187 29.2331 139.106 28.3461 139.093 27.4591C139.093 27.0962 139.133 26.7333 139.12 26.3705C139.093 24.3143 139.053 22.2715 139.013 20.2152C139.013 20.054 139.026 19.9061 139.026 19.7449C139.026 19.5567 139.12 19.4761 139.28 19.3954C140.163 18.9116 141.033 18.4144 141.903 17.9171C142.518 17.5677 143.147 17.2451 143.776 16.8957C144.271 16.6135 144.74 16.2909 145.235 15.9953C145.328 15.9281 145.449 15.8877 145.583 15.834Z" fill="#295E1B"/>
<path d="M140.324 11.7623C140.444 12.4343 140.378 12.5552 139.735 12.824C139.307 12.9987 138.892 13.2138 138.464 13.3885C138.263 13.4691 138.036 13.496 137.782 13.5497C137.701 13.3347 137.661 13.2003 137.594 13.0794C137.487 12.9315 137.38 12.7568 137.233 12.6493C135.989 11.8026 134.731 10.9694 133.487 10.1227C132.871 9.70608 132.831 9.11475 133.366 8.59061C133.46 8.49653 133.634 8.46966 133.781 8.42934C134.129 8.3487 134.49 8.26806 134.838 8.20087C135.387 8.09335 135.922 8.05303 136.363 8.55029C136.591 8.80564 136.912 8.95347 137.193 9.15507C137.755 9.55825 138.317 9.96143 138.879 10.3512C139.213 10.5931 139.575 10.8081 139.909 11.05C140.163 11.2382 140.284 11.4801 140.324 11.7623ZM138.866 11.8967C138.745 11.7623 138.638 11.6279 138.504 11.5338C137.875 11.0769 137.246 10.62 136.604 10.1899C136.163 9.89423 135.708 9.62544 135.266 9.31634C134.999 9.12818 134.838 9.24914 134.624 9.43729C135.065 9.70608 135.346 10.1093 135.815 10.284C136.029 10.3646 136.189 10.5662 136.377 10.7275C136.564 10.8753 136.711 11.1172 136.925 11.171C137.42 11.3054 137.782 11.5876 138.17 11.8833C138.357 12.0445 138.585 12.0983 138.866 11.8967Z" fill="#37474F"/>
<path d="M138.517 11.5335C138.651 11.6276 138.745 11.762 138.879 11.8964C138.598 12.098 138.37 12.0442 138.169 11.8829C137.795 11.5873 137.42 11.2916 136.925 11.1707C136.711 11.1169 136.564 10.875 136.376 10.7272C136.189 10.5793 136.028 10.3643 135.814 10.2837C135.346 10.1089 135.065 9.70577 134.624 9.43698C134.838 9.24883 134.998 9.12787 135.266 9.31602C135.707 9.62513 136.162 9.89391 136.604 10.1896C137.246 10.6331 137.888 11.0766 138.517 11.5335Z" fill="#FFF31A"/>
<path d="M137.715 16.8423C138.317 17.1245 138.33 17.0977 138.25 17.8503C136.069 17.1917 134.115 16.0763 132.162 14.9742C132.175 14.9339 132.189 14.8802 132.215 14.8398C132.336 14.8802 132.47 14.907 132.577 14.9608C133.888 15.6328 135.226 16.251 136.671 16.587C137.019 16.6542 137.367 16.681 137.715 16.8423Z" fill="#FFF31A"/>
<path d="M137.741 35.4283C137.755 35.9255 137.741 36.4362 137.741 36.9469C135.922 38.2774 135.426 38.8956 134.383 41.1266C134.128 40.9787 133.888 40.8309 133.647 40.6831C132.215 39.823 130.797 38.9628 129.365 38.1027C128.95 37.8474 128.562 37.5651 128.147 37.3098C127.813 37.1082 127.465 36.9066 127.117 36.7185C126.809 36.5437 126.635 36.3018 126.528 35.9659C126.328 35.3476 126.234 34.716 126.234 34.0709C126.234 33.1839 126.154 32.2969 126.14 31.4099C126.127 30.7648 126.18 30.1197 126.18 29.4746C126.18 29.2193 126.14 28.9505 126.14 28.6951C126.14 27.9022 126.167 27.0958 126.167 26.3029C126.167 25.7653 126.127 25.2278 126.127 24.6902C126.14 23.9779 126.194 23.2656 126.234 22.5533C126.247 22.4189 126.234 22.2711 126.234 22.1367C126.247 20.954 126.18 19.7714 126.287 18.5887C126.328 18.1183 126.234 17.6211 126.22 17.1372C126.194 16.3846 126.18 15.6455 126.033 14.9063C125.953 14.5569 126.02 14.1806 126.02 13.7236C126.341 13.8043 126.595 13.8311 126.836 13.9387C128.014 14.4359 129.191 14.9466 130.355 15.4842C131.198 15.8739 132.028 16.3309 132.857 16.7475C134.088 17.3523 135.252 18.0511 136.564 18.4946C137.353 18.7634 137.434 18.6828 137.46 19.7176C137.5 21.4782 137.5 23.2387 137.514 24.9993C137.527 27.1362 137.514 29.2865 137.554 31.4233C137.594 32.7538 137.688 34.0978 137.741 35.4283Z" fill="#295E1B"/>
<path d="M131.827 14.7319C131.814 14.7588 131.814 14.7722 131.8 14.7991C131.626 14.7319 131.466 14.6647 131.292 14.611C130.047 14.2078 128.897 13.5627 127.679 13.0654C127.532 13.0117 127.398 12.9445 127.251 12.9042C126.622 12.7832 126.1 12.4338 125.565 12.1247C125.297 11.9634 125.324 11.7081 125.324 11.3721C127.532 12.5144 129.673 13.6165 131.827 14.7319Z" fill="#FFF31A"/>
<path d="M125.605 6.21094C125.645 6.25126 125.685 6.27813 125.712 6.31845C125.618 6.49316 125.565 6.72163 125.431 6.84259C125.016 7.23233 124.588 7.63551 124.12 7.93118C123.063 8.57627 121.952 9.16761 120.868 9.77238C120.574 9.93365 120.266 10.068 119.891 10.2562C119.958 9.62454 120.132 9.1676 120.681 8.91225C121.069 8.7241 121.403 8.45532 121.778 8.24028C122.3 7.95806 122.808 7.66239 123.357 7.47424C124.026 7.24577 124.575 6.85603 125.163 6.47973C125.324 6.38565 125.458 6.30501 125.605 6.21094Z" fill="#FF2222"/>
<path d="M124.976 4.50491C125.164 4.59899 125.311 4.78714 125.592 5.01561C125.418 5.12312 125.311 5.17688 125.217 5.23064C124.548 5.64726 123.906 6.06388 123.223 6.45362C122.822 6.6821 122.394 6.84337 121.992 7.0584C121.216 7.48846 120.44 7.91852 119.691 8.37546C119.303 8.61737 118.942 8.71144 118.527 8.4561C118.259 8.29482 117.992 8.14699 117.711 8.0126C117.403 7.86476 117.082 7.73037 116.761 7.60942C116.399 7.46158 116.025 7.34063 115.677 7.1256C115.155 6.80305 114.579 6.5477 114.031 6.27891C113.616 6.07732 113.215 5.92949 112.867 5.56662C112.599 5.2844 112.171 5.15 111.81 4.96185C111.261 4.67962 110.699 4.3974 110.137 4.12861C110.003 4.06141 109.856 4.02109 109.682 3.95389C109.95 3.40288 110.378 3.21473 110.886 3.08033C111.328 2.97282 111.783 2.78467 112.171 2.54276C113.108 1.9783 114.125 1.65576 115.155 1.34665C115.449 1.25257 115.744 1.1585 116.038 1.07786C116.6 0.916589 117.135 1.07786 117.657 1.26601C118.125 1.44073 118.58 1.65576 119.049 1.84391C119.851 2.17989 120.654 2.489 121.444 2.83843C122.166 3.16097 122.889 3.49696 123.611 3.83294C124.08 4.07485 124.535 4.263 124.976 4.50491ZM121.002 5.91605C121.337 5.51287 121.337 5.27096 120.895 5.02905C120.601 4.86777 120.28 4.76026 120.039 4.55867C119.397 4.03453 118.62 3.7523 117.898 3.376C117.43 3.13409 116.948 2.90562 116.533 2.5562C116.319 2.38148 116.091 2.34117 115.851 2.46212C115.342 2.70403 114.914 3.05345 114.539 3.48352C114.232 3.83294 114.365 4.30332 114.794 4.45115C115.824 4.80058 116.72 5.40535 117.604 5.99669C118.112 6.33267 118.647 6.50738 119.249 6.52082C119.892 6.4805 120.52 6.4805 121.002 5.91605Z" fill="#FF2222"/>
<path d="M124.709 17.8902C124.749 18.6562 124.736 19.4223 124.722 20.1883C124.695 21.3844 124.669 22.594 124.629 23.7901C124.615 24.1664 124.548 24.5561 124.588 24.9324C124.615 25.2281 124.508 25.4163 124.334 25.6313C124.107 25.9135 123.946 26.2495 123.705 26.5183C123.264 27.0155 122.782 27.4859 122.3 27.9832C121.564 27.4994 120.949 26.8005 119.905 26.9349C119.718 26.4511 119.704 25.9807 119.678 25.5103C119.611 24.368 119.597 23.2122 119.544 22.0698C119.504 21.1694 119.437 20.269 119.397 19.3685C119.383 19.0863 119.383 18.8175 119.383 18.5353C119.397 17.5273 119.33 16.5194 119.437 15.5114C119.517 14.7722 119.477 14.06 119.41 13.3477C119.37 12.9176 119.45 12.4876 119.45 12.0575C119.45 11.8156 119.557 11.6677 119.758 11.5602C120.213 11.3049 120.654 11.0495 121.109 10.7942C121.564 10.5388 122.019 10.2969 122.474 10.0416C123.009 9.73247 123.558 9.4368 124.107 9.11426C124.214 9.23521 124.294 9.34273 124.388 9.45024C124.334 9.504 124.307 9.55776 124.267 9.5712C123.933 9.66528 123.786 9.90719 123.772 10.2297C123.759 10.7135 123.732 11.2108 123.786 11.6946C123.812 11.9769 123.919 12.2994 124.107 12.501C124.401 12.8235 124.401 13.1864 124.428 13.5627C124.441 13.8718 124.468 14.1809 124.481 14.49C124.535 15.6055 124.655 16.7478 124.709 17.8902Z" fill="#295E1B"/>
<path d="M120.895 5.02881C121.35 5.27071 121.35 5.51262 121.002 5.91581C120.52 6.48026 119.892 6.48026 119.249 6.50714C118.647 6.50714 118.125 6.33243 117.603 5.983C116.707 5.39167 115.81 4.7869 114.794 4.43747C114.365 4.28964 114.232 3.81926 114.539 3.46984C114.901 3.05321 115.342 2.69035 115.851 2.44844C116.078 2.34092 116.306 2.3678 116.533 2.54252C116.948 2.89194 117.43 3.10697 117.898 3.36232C118.62 3.73862 119.383 4.03429 120.039 4.54499C120.28 4.76002 120.601 4.88097 120.895 5.02881ZM118.634 5.40511C118.888 5.51263 119.049 5.47231 119.236 5.29759C118.192 4.76002 117.202 4.23588 116.199 3.73862C116.065 3.67143 115.891 3.65799 115.744 3.61767C115.73 3.65799 115.703 3.69831 115.69 3.73862C115.851 3.8327 115.998 3.92677 116.158 4.02085C116.439 4.18212 116.774 4.28964 117.015 4.49123C117.523 4.88097 118.058 5.14976 118.634 5.40511Z" fill="#37474F"/>
<path d="M119.236 5.29688C119.049 5.47159 118.888 5.51191 118.634 5.4044C118.058 5.14905 117.523 4.88026 117.041 4.47708C116.801 4.27548 116.466 4.16797 116.185 4.0067C116.025 3.91262 115.864 3.81855 115.717 3.72447C115.73 3.68415 115.757 3.64383 115.77 3.60352C115.918 3.64383 116.091 3.65727 116.225 3.72447C117.202 4.23517 118.192 4.74586 119.236 5.29688Z" fill="#FF2222"/>
<path d="M118.299 9.55796C118.808 9.78643 118.968 10.109 118.902 10.7003C118.661 10.6062 118.42 10.5256 118.192 10.4181C117.858 10.2434 117.55 10.0283 117.229 9.85362C116.894 9.67891 116.547 9.51764 116.199 9.36981C115.623 9.1279 115.048 8.91287 114.473 8.65752C114.031 8.45593 113.576 8.2409 113.161 7.95867C112.559 7.56893 111.944 7.17918 111.234 6.96415C110.833 6.8432 110.485 6.53409 110.11 6.3325C109.642 6.07715 109.174 5.83524 108.705 5.5799C108.518 5.47238 108.465 5.33798 108.465 4.94824C108.625 4.98856 108.746 5.002 108.853 5.04232C109.696 5.41862 110.552 5.75461 111.355 6.17123C112.278 6.64161 113.161 7.20607 114.071 7.68988C115.061 8.22746 116.051 8.7516 117.135 9.08758C117.537 9.20854 117.911 9.38325 118.299 9.55796Z" fill="#FF2222"/>
<path d="M118.326 27.6466C118.353 28.0095 118.313 28.2917 118.112 28.6277C117.804 29.1384 117.59 29.7163 117.363 30.2807C117.229 30.6167 117.162 30.6973 116.841 30.5361C116.359 30.2942 115.904 30.0119 115.423 29.77C114.807 29.4475 114.178 29.1653 113.563 28.8427C112.894 28.4933 112.238 28.117 111.569 27.7541C111.275 27.6063 111.127 27.3644 111.087 27.0553C110.927 25.6979 110.766 24.3271 110.592 22.9562C110.472 21.9752 110.351 20.9807 110.217 19.9996C109.99 18.36 109.736 16.7338 109.548 15.0942C109.401 13.7503 109.348 12.3929 109.241 11.0355C109.201 10.4845 109.093 9.93346 109.04 9.38245C108.986 8.72392 108.973 8.05195 108.946 7.39342C108.946 7.2859 108.986 7.19183 109.013 6.99023C109.214 7.05743 109.361 7.09775 109.482 7.15151C110.017 7.40686 110.552 7.6622 111.06 7.93099C111.85 8.33417 112.613 8.79111 113.402 9.18086C114.365 9.65123 115.356 10.0679 116.332 10.5382C116.787 10.7533 117.216 11.0221 117.657 11.264C117.858 11.3715 117.938 11.5462 117.938 11.7747C117.938 12.3257 117.965 12.8767 117.992 13.4277C118.005 13.9384 118.018 14.4357 118.045 14.9329C118.112 15.8871 118.018 16.8413 117.978 17.7955C117.898 19.3545 117.858 20.9269 117.978 22.4859C118.018 23.0234 118.005 23.561 118.045 24.0986C118.139 25.2813 118.219 26.4639 118.326 27.6466Z" fill="#295E1B"/>
</g>
<path d="M91.9669 27.7419C91.9267 27.7688 91.9 27.8091 91.8598 27.836C91.6188 27.6075 91.3778 27.3791 91.0698 27.0834C91.7125 27.0162 91.7928 27.4328 91.9669 27.7419Z" fill="#66442C"/>
<path d="M90.802 28.776C90.6414 28.8566 90.5478 28.9373 90.4407 28.9642C89.9724 29.0582 89.4907 29.1389 89.009 29.2195C88.6209 29.2733 88.3801 29.0717 88.2463 28.7357C88.0188 28.2116 87.6575 27.7949 87.2695 27.4186C86.6272 26.8139 85.9716 26.2091 85.3025 25.6312C85.0349 25.4027 84.687 25.2414 84.3793 25.0533C84.2321 24.9592 84.0715 24.8651 83.9243 24.7711C83.9377 24.7442 83.9511 24.7173 83.9645 24.6904C84.2053 24.7711 84.4462 24.8517 84.7004 24.9189C85.4363 25.1339 86.1856 25.349 86.8948 25.6446C87.1223 25.7387 87.323 25.8731 87.5237 25.994C87.8984 26.2225 88.273 26.4241 88.6209 26.6929C89.1428 27.0961 89.6379 27.5261 90.1196 27.9696C90.3738 28.1847 90.5611 28.4803 90.802 28.776Z" fill="#66442C"/>
<path d="M87.2163 29.3677C86.7079 29.3677 86.3064 29.3677 85.905 29.3677C85.6909 29.0452 85.4902 28.7226 85.2761 28.4001C84.9015 27.8625 84.4198 27.4728 83.7909 27.2577C83.4831 27.1502 83.2289 26.9218 82.9479 26.747C82.2253 26.3035 81.3957 26.1557 80.5929 25.9541C79.683 25.7257 78.7731 25.4703 77.8498 25.3225C77.1808 25.215 76.4984 25.2418 75.8293 25.2418C75.3744 25.2418 74.9328 25.2956 74.4779 25.2822C73.1933 25.2687 71.9222 25.43 70.651 25.5913C69.6475 25.7122 68.6439 25.766 67.6537 25.9004C66.5565 26.0482 65.4459 26.1288 64.4022 26.532C63.5592 26.8546 62.7296 27.2309 62.0071 27.7684C61.6993 27.9969 61.4049 28.0507 61.0303 27.9432C60.0669 27.6475 59.0901 27.3787 58.0464 27.083C58.1802 26.9621 58.2605 26.8814 58.3541 26.8277C58.983 26.4379 59.5718 25.9407 60.2943 25.7391C60.9634 25.5644 61.6324 25.43 62.3014 25.2687C63.9607 24.8655 65.6466 24.7715 67.3326 24.5967C68.7777 24.4489 70.2362 24.4355 71.6813 24.3683C71.9891 24.3548 72.2968 24.3011 72.618 24.2876C72.9793 24.2742 73.3539 24.2473 73.7152 24.2742C75.2674 24.3952 76.8195 24.5295 78.3717 24.6505C78.9738 24.7043 79.5759 24.7311 80.1781 24.7715C80.9542 24.8252 81.6366 25.1746 82.3324 25.4972C82.4796 25.5644 82.6535 25.6047 82.8141 25.6585C82.881 25.6719 82.9479 25.6853 83.0014 25.7122C83.6972 26.1557 84.4331 26.5589 85.0754 27.083C85.7578 27.634 86.3466 28.306 86.9755 28.9377C87.0691 29.0183 87.1093 29.1527 87.2163 29.3677Z" fill="#473629"/>
<path d="M83.6703 28.6148C83.9647 28.7895 84.2591 28.9777 84.4464 29.4077C83.6302 29.5018 82.8809 29.5959 82.1182 29.69C80.4188 29.8916 78.7195 29.7303 77.0335 29.8378C76.311 29.8781 75.575 29.9453 74.8525 29.9453C73.4742 29.9588 72.1228 29.8109 70.7713 29.5556C70.4636 29.5018 70.1558 29.4884 69.8481 29.4346C68.5635 29.233 67.2924 29.0314 66.0078 28.8299C65.3522 28.7358 64.7099 28.6551 64.0542 28.5611C63.974 28.5476 63.8937 28.5073 63.7866 28.467C63.9338 28.131 64.2416 28.0907 64.4824 27.9563C64.5359 27.9294 64.6296 27.9563 64.6697 27.916C65.0578 27.5666 65.5395 27.5397 66.0212 27.4725C67.0114 27.3381 68.0015 27.1634 69.0051 27.0424C70.2896 26.8946 71.5876 26.7467 72.8721 26.6661C74.17 26.5855 75.468 26.5586 76.7659 26.5586C77.3011 26.5586 77.823 26.693 78.3582 26.8005C79.1477 26.9618 79.9505 27.1365 80.7266 27.3515C81.4625 27.5531 82.2119 27.7009 82.8541 28.1713C83.095 28.3595 83.4027 28.4535 83.6703 28.6148Z" fill="#1E160F"/>
<path d="M78.1573 52.4827C78.2911 52.9531 78.2509 53.1278 77.8228 53.3966C77.5016 53.5981 77.1671 53.7863 76.8326 53.9744C76.2974 54.2835 75.7621 54.5792 75.1065 54.633C74.8255 54.6599 74.5579 54.8749 74.2635 54.9958C73.9156 55.1302 73.5543 55.2377 73.2064 55.3856C72.3367 55.7619 71.4803 56.1919 70.7042 56.7564C70.2359 57.0924 69.7274 57.173 69.1788 57.0655C68.7239 56.9849 68.2556 56.7967 67.8274 56.8639C67.3323 56.9446 66.864 56.8908 66.3823 56.9042C65.6463 56.9042 64.897 56.8908 64.1611 56.9177C63.3984 56.958 62.6892 56.7833 61.98 56.5414C61.5652 56.407 61.1504 56.3129 60.7356 56.1785C59.9863 55.9366 59.3039 55.5737 58.7151 55.0362C57.9123 54.3239 57.0827 53.6385 56.2664 52.9396C55.7045 52.4558 55.3164 51.8376 54.9016 51.179C55.196 50.8431 55.4636 50.4802 55.7981 50.1845C56.1059 49.9157 56.4002 49.6335 56.7883 49.4454C57.3235 49.19 57.5778 48.6256 57.832 48.1283C57.8855 48.0208 57.8588 47.8595 57.832 47.7251C57.6447 46.9322 57.4707 46.1258 57.2432 45.3464C57.163 45.0641 57.2165 44.8894 57.4707 44.7416C57.832 44.54 58.1933 44.3653 58.6081 44.2712C59.3039 44.1234 59.9729 43.8949 60.6553 43.7202C61.0835 43.6127 61.5251 43.532 61.9666 43.4514C62.3011 43.3842 62.6357 43.2498 62.9836 43.3439C63.1307 43.3842 63.2779 43.4245 63.4251 43.438C63.5723 43.4514 63.7329 43.438 63.8801 43.438C64.2012 43.4514 64.5357 43.4514 64.8569 43.4917C65.1379 43.5186 65.4055 43.5992 65.6731 43.6395C66.7569 43.8008 67.8274 43.9352 68.9112 44.1099C70.0887 44.2981 71.3064 44.3653 72.4571 44.755C73.4071 45.0776 74.3036 45.5076 75.1065 46.1124C75.8826 46.6903 76.4445 47.4698 76.8861 48.3165C77.3812 49.2707 77.7157 50.3055 77.8763 51.3806C77.9164 51.7569 78.0502 52.1198 78.1573 52.4827Z" fill="#A3A3A3"/>
<path d="M72.8323 22.9031C72.8323 22.9434 72.8323 22.9703 72.8189 23.0106C72.2302 23.0106 71.6414 22.9837 71.066 23.0106C70.1829 23.0644 69.3132 23.145 68.43 23.2256C67.0652 23.3466 65.7004 23.4407 64.3489 23.6154C63.2116 23.7498 62.101 24.0051 60.977 24.1798C59.4784 24.4083 58.2206 25.1878 57.0163 26.0345C56.829 26.1689 56.6952 26.3839 56.4811 26.6258C56.1064 26.4645 55.7184 26.2898 55.2634 26.0882C55.6916 25.5641 56.1867 25.2416 56.6952 24.9728C57.217 24.704 57.7656 24.489 58.3008 24.247C58.7023 24.0589 59.1037 23.8439 59.5319 23.696C60.6425 23.3197 61.7932 23.0509 62.9573 22.8897C64.5898 22.6478 66.249 22.7015 67.8948 22.6612C68.7646 22.6478 69.6209 22.7687 70.4907 22.7956C71.0125 22.809 71.521 22.7821 72.0428 22.7956C72.2971 22.7956 72.5647 22.8628 72.8323 22.9031Z" fill="#66442C"/>
<path d="M66.2753 21.2908C66.2753 21.3311 66.2619 21.358 66.2619 21.3849C66.1682 21.3715 66.0745 21.358 65.9941 21.3446C66.0075 21.3043 66.0209 21.264 66.0209 21.2236C66.1012 21.2505 66.1816 21.2774 66.2753 21.2908Z" fill="#4D3826"/>
<path d="M61.9269 39.9714C62.3283 40.7375 62.4755 41.5169 62.7431 42.3233C60.629 42.6727 58.5951 43.2103 56.5612 44.0032C55.9056 43.4925 55.4373 42.7265 54.7415 42.1083C55.9457 40.845 56.8422 39.3935 57.8592 38.0361C57.8993 38.0496 57.9394 38.0496 57.9796 38.063C58.0599 38.5737 58.1669 39.0844 58.2071 39.5951C58.2472 40.0789 58.2204 40.5627 58.2338 41.06C58.2338 41.2213 58.2606 41.3691 58.2873 41.5304C58.3275 41.9201 58.555 42.1755 58.9162 42.2695C59.2641 42.3636 59.6789 42.1755 59.9198 41.8798C60.2409 41.4901 60.5487 41.0869 60.91 40.7509C61.1776 40.4418 61.5522 40.2402 61.9269 39.9714Z" fill="#0BB20F"/>
<path d="M58.0865 22.6074C58.0999 22.6477 58.1133 22.6746 58.1267 22.7149C57.6182 22.9568 57.1098 23.2122 56.6013 23.4272C55.8118 23.7632 55.1294 24.2739 54.4604 24.798C54.3266 24.9056 54.2597 25.0937 54.1526 25.2415C53.992 25.0131 53.9519 24.9056 54.1125 24.4486C54.2329 24.1261 54.1928 23.8438 54.0188 23.4944C54.6878 23.2525 55.397 23.2256 56.0794 23.0509C56.7485 22.9031 57.4309 22.7553 58.0865 22.6074Z" fill="#4D3826"/>
<path d="M56.4002 47.9945C56.4938 48.3305 56.4002 48.5993 56.0924 48.7337C55.1022 49.1906 54.5135 50.118 53.6973 50.7899C53.0817 51.3006 52.4395 51.8516 51.5296 51.771C51.1817 51.7441 50.8472 51.7038 50.4993 51.7172C49.857 51.7307 49.2281 51.8248 48.5858 51.8113C47.7428 51.7979 46.9935 52.0801 46.2041 52.2817C45.5752 52.443 44.9195 52.5505 44.2505 52.4564C43.7019 52.3758 43.1265 52.4027 42.5511 52.3892C42.4708 52.3892 42.3772 52.3758 42.2969 52.3489C41.5342 52.0936 40.7314 52.1339 39.9687 51.9323C39.3933 51.7844 38.8447 51.4888 38.2693 51.2872C37.2658 50.9243 36.2488 50.5883 35.2453 50.212C34.5896 49.9701 33.9607 49.6879 33.3318 49.4057C32.7431 49.1503 32.1811 48.8547 31.579 48.6396C30.174 48.1424 29.0366 47.3226 28.1669 46.113C28.0197 45.9114 27.8859 45.6695 27.8056 45.4276C27.5112 44.5137 27.2436 43.5998 26.976 42.686C26.9225 42.4844 26.9358 42.2559 26.9225 42.0274C26.9091 42.0274 26.8957 42.0274 26.8823 42.014C26.976 41.0598 27.0697 40.119 27.1633 39.1648C27.1767 39.0036 27.1633 38.8557 27.1633 38.6945C27.1366 38.0494 27.257 37.4849 27.6584 36.9339C28.3676 35.9797 29.3444 35.5228 30.4416 35.2674C30.5353 35.2405 30.6423 35.2674 30.7493 35.2809C30.9902 35.2943 31.2444 35.4018 31.4585 35.3346C32.8501 34.9045 34.1882 35.348 35.4861 35.6975C36.4629 35.9528 37.239 36.6517 37.9214 37.4177C38.3764 37.9284 38.9116 38.3854 39.3933 38.8692C39.5003 38.9767 39.6341 39.0842 39.7144 39.2052C40.1426 39.8637 40.7715 40.0518 41.4807 39.8906C42.0293 39.7696 42.5645 39.5411 43.0864 39.3396C43.7153 39.0976 44.3441 38.9767 44.9998 39.1917C45.7893 39.4605 46.6055 39.568 47.4351 39.6487C48.1175 39.7159 48.8267 39.7696 49.469 39.9846C50.1648 40.2266 50.807 40.6163 51.4627 40.9792C52.774 41.7049 53.7106 42.8607 54.741 43.909C55.41 44.5944 55.7846 45.4276 56.0121 46.3549C56.1459 46.9059 56.2664 47.457 56.4002 47.9945Z" fill="#A3A3A3"/>
<path d="M53.2158 37.3238C53.2291 38.4258 53.2559 39.5279 53.2827 40.7374C52.52 40.2939 51.8777 39.9311 51.2622 39.5548C50.6199 39.165 49.9241 38.9903 49.2016 38.8828C48.2381 38.7484 47.2747 38.6274 46.3247 38.4796C45.7761 38.3855 45.2542 38.2243 44.7056 38.1436C44.331 38.0899 43.9563 38.1302 43.4746 38.1302C43.5817 37.9017 43.6352 37.7539 43.7288 37.6195C44.1972 36.8669 44.6789 36.1411 45.2944 35.4826C45.9233 34.8106 46.4317 34.0446 47.0205 33.292C47.2346 33.3592 47.2078 33.5608 47.2346 33.7489C47.3684 34.6359 47.4888 35.5364 47.6628 36.4234C47.7698 36.9475 47.9438 37.4582 48.1579 37.9555C48.3586 38.4393 48.9072 38.493 49.3354 38.1705C49.7903 37.8345 50.1248 37.3641 50.446 36.8803C50.834 36.3159 51.2889 35.7783 51.7305 35.2541C52.1453 34.7703 52.5601 34.2731 53.1756 33.964C53.189 35.1063 53.2024 36.2218 53.2158 37.3238Z" fill="#0BB20F"/>
<path d="M35.0983 11.2515C35.4863 11.6278 35.4997 11.9369 34.9377 12.2325C34.6701 12.3804 34.5497 12.5551 34.5229 12.8373C34.4694 13.348 34.4025 13.8721 34.3623 14.3828C34.2553 15.8881 34.1616 17.4067 34.068 18.9119C34.0278 19.4629 34.0144 20.0274 33.9877 20.5784C33.9877 20.5918 33.9743 20.6187 33.9877 20.6322C34.3088 21.546 33.6532 22.0164 33.1179 22.5137C32.6228 22.9706 32.0742 23.3604 31.6461 23.8845C31.3651 24.2205 30.9636 24.4624 30.6425 24.7715C29.8798 25.4704 29.1171 26.1692 28.3544 26.8949C27.6051 27.6207 26.8691 28.3598 26.1198 29.0721C24.8353 30.3085 23.5507 31.5584 22.2394 32.768C21.9852 33.0099 22.0119 33.2652 22.0253 33.5206C22.1056 34.5957 22.1056 35.6709 22.0521 36.746C21.9718 38.1303 21.9852 39.528 21.945 40.9122C21.8915 42.3906 21.838 43.8555 21.7577 45.3338C21.6908 46.4761 21.6373 47.6185 21.4901 48.7608C21.3161 50.1317 21.3697 51.5025 21.3295 52.8733C21.3028 53.8141 21.2626 54.7414 21.2359 55.6821C21.2091 56.3407 21.1823 56.9992 21.1556 57.6577C21.1556 57.7518 21.1823 57.8593 21.1957 57.94C21.5035 58.034 21.5302 57.7787 21.6373 57.6443C21.7845 57.4696 21.8915 57.2949 22.1591 57.2546C22.681 57.1605 22.962 57.3889 22.9352 57.9265C22.9084 58.5044 22.8817 59.0689 22.8415 59.6468C22.8014 60.3053 22.7613 60.9638 22.7211 61.6224C22.7077 61.7836 22.7211 61.9583 22.7211 62.2003C22.8683 62.1196 22.962 62.0927 23.0155 62.039C23.5641 61.488 24.1127 60.9235 24.6747 60.3859C25.5712 59.5258 26.4811 58.6657 27.4044 57.819C27.5516 57.6846 27.7523 57.5771 27.9396 57.5502C28.3678 57.483 28.5685 57.7115 28.5819 58.155C28.5952 59.3242 28.1671 60.3591 27.7255 61.4073C27.2973 62.4287 26.8959 63.4636 26.4811 64.4984C26.2804 65.0091 26.0529 65.5332 25.8656 66.0439C25.7318 66.4068 25.7318 66.4874 26.0529 66.7025C26.7621 67.2132 27.1501 67.9658 27.4713 68.7184C27.8325 69.5785 28.1002 70.4924 28.3276 71.3928C28.4748 71.9841 28.3678 72.562 27.9664 73.0593C27.498 73.6372 26.9896 74.1748 26.4677 74.6989C25.8923 75.2902 25.2635 75.8009 24.5677 76.2176C23.8585 76.6476 23.0958 76.9836 22.2394 76.9836C21.6507 76.9836 21.0753 77.2255 20.4865 77.0508C19.9379 76.8895 19.4027 76.9298 18.8407 76.997C18.6801 77.0105 18.4928 76.9567 18.3456 76.903C17.9308 76.7551 17.516 76.6879 17.0745 76.6611C16.3787 76.6342 15.7096 76.5535 15.0406 76.2982C14.4251 76.0697 13.7962 76.2579 13.2342 76.5401C12.418 76.9433 11.6018 77.0777 10.7186 76.782C10.6651 76.7686 10.625 76.7417 10.5714 76.7283C9.30027 76.5267 8.48405 75.6397 7.6812 74.7392C6.90512 73.8791 6.62413 72.7905 6.3699 71.7019C6.26285 71.245 6.24947 70.7612 6.27623 70.3042C6.28961 70.022 6.39666 69.7263 6.54385 69.471C6.81146 68.9872 7.11921 68.5168 7.45373 68.0733C7.66782 67.8045 7.92206 67.5491 8.21643 67.3879C9.26013 66.8503 10.3707 66.4605 11.5081 66.1649C12.2708 65.9767 13.0602 66.0036 13.8229 65.8692C13.93 65.8558 14.0237 65.8289 14.1575 65.8155C14.0504 65.466 13.9701 65.1435 13.8631 64.8075C13.649 64.1624 13.4081 63.5308 13.1941 62.8857C13.0602 62.4959 12.9532 62.0927 12.8328 61.703C12.6588 61.1789 12.4715 60.6547 12.2975 60.1306C12.2039 59.8618 12.1637 59.5796 12.3645 59.3377C12.5785 59.0958 12.8729 59.1092 13.1405 59.2033C13.4483 59.3242 13.7427 59.4855 14.0103 59.6602C14.5589 60.0231 15.0674 60.4263 15.5223 60.9235C16.2047 61.6627 16.9139 62.3615 17.7034 63.1679C17.7301 62.6975 17.8505 62.3481 17.7569 62.0524C17.6097 61.582 17.6632 61.1251 17.6364 60.6682C17.5562 59.2301 17.5294 57.7921 17.6766 56.3541C17.7836 55.2924 17.8639 54.2172 17.9576 53.1555C18.0245 52.3626 18.1182 51.5697 18.1851 50.7768C18.252 49.8494 18.3322 48.9221 18.3456 47.9814C18.359 47.2019 18.3189 46.4358 18.3055 45.6563C18.3055 45.6429 18.3055 45.616 18.3055 45.6026C18.3322 44.8769 18.3456 44.1511 18.3992 43.4254C18.4259 43.0625 18.4527 42.7131 18.3992 42.3502C18.3456 42.0411 18.3992 41.7052 18.3992 41.3826C18.4259 40.5897 18.4661 39.7968 18.4928 39.0038C18.5062 38.5469 18.4794 38.1034 18.4794 37.6465C18.4794 37.4045 18.5062 37.1626 18.5062 36.9207C18.5062 36.8132 18.4527 36.7057 18.4125 36.5175C17.971 37.0014 17.5294 37.3642 17.2484 37.8615C17.235 37.8884 17.2216 37.9287 17.1949 37.9556C16.7935 38.305 16.392 38.6678 15.9772 38.9904C15.6962 39.2189 15.3483 39.1248 15.0272 39.0442C14.1842 38.8426 13.3948 38.4663 12.6053 38.1034C11.7222 37.7002 10.8524 37.2567 9.95593 36.8938C9.23337 36.5982 8.48405 36.3966 7.73473 36.1547C6.35651 35.7112 4.9783 35.2408 3.64023 34.6629C2.94443 34.3672 2.32892 33.9775 1.70003 33.5609C1.15142 33.198 0.97747 32.7008 0.964089 32.1094C0.950708 30.7655 0.950709 29.435 0.950709 28.091C0.950709 26.8949 0.96409 25.6854 0.990852 24.4893C1.00423 24.0189 1.04437 23.5485 1.05776 23.0781C1.07114 22.0567 1.05776 21.0353 1.05776 19.9468C1.08452 19.9871 1.07114 19.9468 1.04437 19.9333C0.469003 19.6914 0.4021 19.557 0.549288 18.9388C0.656334 18.5222 0.709857 18.0787 0.857045 17.6755C0.990852 17.3261 1.1648 16.9632 1.39227 16.6675C1.91412 15.9956 2.48949 15.3774 3.11838 14.7995C4.10856 13.8856 5.23253 13.2002 6.38328 12.5148C6.79808 12.2594 7.17274 11.9503 7.58754 11.695C8.39038 11.2111 9.19322 10.7408 10.0094 10.2838C10.8123 9.82688 11.5884 9.34306 12.4314 8.96676C13.6356 8.42919 14.6659 7.63626 15.7899 6.99117C16.6597 6.49391 17.5695 6.06385 18.4794 5.62035C19.3759 5.17685 20.2858 4.76023 21.1957 4.33017C21.7577 4.06138 22.3063 3.75227 22.8817 3.5238C23.3099 3.34909 23.7916 3.29533 24.2465 3.18781C24.3 3.17437 24.3536 3.17437 24.4071 3.18781C25.1163 3.37597 25.8522 3.24157 26.5614 3.49692C27.1635 3.71195 27.8058 3.81947 28.4079 4.02106C29.2643 4.33016 30.027 4.77366 30.6826 5.43219C31.2045 5.95633 31.8066 6.41327 32.3151 6.96429C32.8369 7.5153 33.332 8.10664 33.7736 8.72485C34.0278 9.08771 34.175 9.53122 34.3623 9.94784C34.5229 10.4585 34.7236 10.8886 35.0983 11.2515ZM33.4792 11.91C33.6665 11.7756 33.6799 11.6412 33.5595 11.4262C33.3186 11.0499 33.0644 10.6601 32.9306 10.2301C32.6362 9.34306 32.0475 8.65765 31.4453 8.01256C30.8967 7.42123 30.2277 6.92397 29.6791 6.33264C29.1037 5.72786 28.4079 5.365 27.6452 5.13653C26.9494 4.9215 26.2269 4.81398 25.5311 4.62583C24.4205 4.31672 23.4169 4.57207 22.4535 5.14997C22.3063 5.24404 22.1591 5.35156 22.0119 5.41875C20.7542 6.01009 19.5098 6.60142 18.252 7.19276C17.9442 7.34059 17.6231 7.46155 17.3019 7.60938C17.128 7.69002 16.954 7.75721 16.7935 7.83785C16.2984 8.07976 15.8167 8.30823 15.4019 8.71141C14.9068 9.19523 14.3047 9.53122 13.6222 9.74625C13.0067 9.94784 12.3912 10.2301 11.8694 10.6064C11.2672 11.0364 10.6785 11.4934 9.96931 11.7353C9.15308 12.0175 8.47066 12.5013 7.78825 13.012C7.66782 13.1061 7.57416 13.2539 7.41359 13.4421C7.77487 13.469 8.04248 13.4824 8.32348 13.5227C9.35379 13.6706 10.3306 14.0469 11.3074 14.3828C11.575 14.4769 11.8292 14.6516 12.0567 14.8263C12.6187 15.243 13.1941 15.6596 13.7025 16.1568C14.1307 16.56 14.4652 17.017 14.8265 17.4739C15.0941 17.8233 15.2814 18.24 15.4822 18.6431C16.2315 20.2155 16.7533 21.8417 16.6597 23.6157C16.6463 23.8173 16.6998 24.0055 16.7266 24.3146C17.1012 24.0458 17.3956 23.8442 17.6766 23.6157C19.0147 22.554 20.3527 21.4788 21.7042 20.4037C21.9852 20.1752 22.2796 19.9602 22.5739 19.7452C23.069 19.3689 23.5909 19.0194 24.0726 18.6431C25.2902 17.6889 26.4543 16.681 27.7121 15.7805C29.1305 14.7591 30.6291 13.8453 32.0876 12.8776C32.5426 12.5685 33.0109 12.246 33.4792 11.91ZM33.2384 14.1409C33.2517 13.9662 33.2384 13.7781 33.225 13.5362C33.051 13.6168 32.9574 13.6571 32.8771 13.7109C31.8334 14.356 30.9235 15.1892 29.8263 15.7537C29.2643 16.0493 28.7558 16.4525 28.234 16.8288C27.5917 17.2858 26.9494 17.7561 26.3205 18.2534C25.3571 18.9926 24.4205 19.7586 23.4571 20.4978C22.3197 21.3713 21.1556 22.2315 20.0182 23.105C19.3358 23.6292 18.6801 24.1936 17.9977 24.7446C17.5829 25.0806 17.1681 25.4032 16.9674 25.9407C16.9139 26.1154 16.6998 26.2498 16.5259 26.3439C16.3653 26.438 16.178 26.4649 15.9772 26.5321C15.9639 26.6261 15.9371 26.7337 15.9371 26.8412C15.9371 28.0104 15.9237 29.1796 15.9237 30.3354C15.9237 30.6445 15.9906 30.9536 15.9639 31.2762C15.9103 32.2304 15.8301 33.1846 15.7498 34.1253C15.6427 35.2408 15.8836 36.3294 15.8702 37.4449C15.8702 37.4852 15.9103 37.5389 15.9505 37.6061C16.0308 37.5524 16.111 37.5255 16.1646 37.4717C16.3653 37.2567 16.5526 37.0282 16.7533 36.8132C17.6498 35.8993 18.5597 34.9855 19.4562 34.0716C20.1654 33.3458 20.8612 32.6201 21.5704 31.9078C22.1591 31.3165 22.7613 30.752 23.3634 30.1607C23.6711 29.8516 23.9521 29.5291 24.2599 29.2199C25.1296 28.3733 26.0128 27.54 26.8825 26.6933C28.2474 25.3628 29.6122 24.0323 30.977 22.7018C31.0707 22.6078 31.1911 22.5137 31.2982 22.433C31.713 22.0971 32.1411 21.7611 32.5693 21.4385C32.77 21.2907 32.8503 21.1025 32.8503 20.8472C32.8503 20.3634 32.8503 19.8796 32.8771 19.3957C32.9975 17.6486 33.1313 15.8881 33.2384 14.1409ZM26.3741 73.0862C27.0698 72.6158 27.0966 71.9304 26.9227 71.2315C26.7219 70.4386 26.4543 69.6591 26.1466 68.9065C25.986 68.5033 25.6649 68.1539 25.3973 67.7507C25.2635 67.8448 25.2233 67.8717 25.1832 67.912C24.9022 68.1539 24.5944 68.1002 24.3134 67.9658C24.0324 67.8179 24.086 67.5491 24.1529 67.2803C24.2465 66.9175 24.1395 66.7696 23.7514 66.7025C23.1894 66.6084 22.6275 66.5009 22.0655 66.4605C21.45 66.4068 20.8211 66.3665 20.2055 66.4202C19.3492 66.5009 18.5597 66.81 17.797 67.1863C17.4759 67.3475 17.1146 67.4416 16.7667 67.5357C16.3251 67.6432 15.9103 67.576 15.5357 67.3341C15.2413 67.146 14.9469 66.9712 14.6392 66.81C14.4652 66.7159 14.2511 66.5949 14.0638 66.6218C13.4617 66.6621 12.8595 66.7428 12.2708 66.8637C11.2806 67.0519 10.344 67.4147 9.40732 67.8045C8.99251 67.9792 8.56433 68.1674 8.28334 68.5437C7.8953 69.0544 7.5474 69.5919 7.1995 70.1295C7.11921 70.2505 7.10583 70.4386 7.1326 70.573C7.30654 71.5138 7.50726 72.4411 7.97558 73.2878C8.24319 73.785 8.59109 74.242 8.91223 74.6989C8.99251 74.8064 9.09956 74.9005 9.21999 74.9811C9.54112 75.223 9.8355 75.5187 10.1834 75.68C10.7454 75.9353 11.3208 76.2041 11.963 75.9084C12.1771 75.8009 12.3912 75.6531 12.6187 75.6128C13.4751 75.4381 14.3448 75.2902 15.2145 75.1424C15.4286 75.1021 15.6026 75.1693 15.7765 75.344C15.897 75.4649 16.0977 75.5321 16.2716 75.5725C16.9674 75.7606 17.6766 75.68 18.3992 75.6934C18.5597 75.6934 18.7738 75.7337 18.8541 75.8413C19.0147 76.0294 19.202 76.0563 19.4027 76.0563C19.5767 76.0563 19.7506 76.0428 19.9246 76.0832C20.4732 76.2041 21.0084 76.2041 21.5704 76.1638C22.2929 76.11 22.9218 75.8816 23.5373 75.5456C24.5944 74.9677 25.424 74.1344 26.2536 73.2878C26.2804 73.1937 26.3205 73.1265 26.3741 73.0862ZM26.6684 60.8563C26.7755 60.6278 26.9093 60.3725 26.8156 60.0096C26.3607 60.4531 25.9593 60.8429 25.5578 61.2192C24.5409 62.1599 23.5507 63.141 22.681 64.2162C22.4267 64.5253 22.0253 64.6059 21.5971 64.4312C21.276 64.2968 21.3028 63.9877 21.276 63.7189C21.276 63.6651 21.2894 63.6114 21.2894 63.5576C21.3697 62.9125 21.45 62.2809 21.5035 61.6358C21.557 61.0713 21.5704 60.5069 21.5971 59.9424C21.5704 59.929 21.5302 59.9021 21.5035 59.8887C21.2894 60.144 21.0485 60.3994 20.8746 60.6816C20.6471 61.031 20.4732 61.4073 20.2591 61.7568C19.7105 62.6438 19.1619 63.5173 18.5999 64.4043C18.533 64.4984 18.4393 64.5925 18.3456 64.6462C17.9843 64.8344 17.2752 64.6865 17.0343 64.4178C16.4589 63.7995 15.8836 63.1679 15.2814 62.5631C14.8399 62.1062 14.3716 61.6627 13.9166 61.2057C13.8497 61.152 13.7694 61.1251 13.6089 61.0445C13.6891 61.2998 13.7293 61.4611 13.7962 61.6224C13.93 61.9449 14.0772 62.254 14.2244 62.5631C14.599 63.3426 14.6124 64.243 15.0406 65.0091C15.2681 65.4123 15.4153 65.8692 15.5892 66.2993C15.6695 66.5009 15.8167 66.5681 15.9906 66.5546C16.1646 66.5412 16.3385 66.5143 16.4991 66.4471C17.0477 66.2455 17.6097 66.0708 18.1449 65.8289C18.7872 65.5332 19.4696 65.4257 20.152 65.3585C20.714 65.3048 21.2894 65.3585 21.8648 65.3854C22.2796 65.4123 22.6944 65.466 23.0958 65.5198C23.6042 65.587 24.1127 65.6811 24.6346 65.7751C24.7148 65.6004 24.7951 65.466 24.8486 65.3182C25.3705 63.813 25.9592 62.3078 26.6684 60.8563ZM20.7274 37.2298C20.7408 36.6519 20.7675 36.0875 20.7542 35.5096C20.7542 35.1736 20.7006 34.8376 20.6873 34.5151C20.6471 34.5016 20.6203 34.4882 20.5802 34.4748C20.3527 34.7167 20.0985 34.9451 19.8978 35.2139C19.8309 35.308 19.8175 35.4962 19.8443 35.6171C20.0048 36.1816 19.7907 36.7326 19.8443 37.297C19.8844 37.7943 19.7506 38.2915 19.7372 38.7888C19.7238 39.5548 19.764 40.3209 19.764 41.0869C19.764 41.5976 19.8175 42.1083 19.8175 42.619C19.8175 43.6539 19.7105 44.7021 19.6837 45.737C19.6569 46.7853 19.6971 47.8335 19.6436 48.8684C19.59 50.0645 19.4696 51.2606 19.3626 52.4432C19.2823 53.3706 19.1619 54.3113 19.0682 55.2386C19.0548 55.3596 19.0548 55.4806 19.0548 55.6015C19.0548 55.8569 19.0414 56.1256 19.0414 56.381C19.028 57.3083 18.8407 58.2088 18.9344 59.1361C19.0013 59.808 19.0013 60.48 19.0414 61.152C19.309 60.7891 19.6837 60.5203 19.6703 60.0096C19.6569 59.3108 19.7372 58.6254 19.764 57.9265C19.8041 56.932 19.8309 55.9509 19.871 54.9564C19.8844 54.5129 19.9647 54.056 19.9781 53.6125C19.9915 52.8733 19.9246 52.1207 19.9647 51.3815C20.0316 49.9166 20.1654 48.4652 20.2457 47.0003C20.3394 45.6295 20.433 44.2586 20.4999 42.8878C20.5534 41.6783 20.5802 40.4553 20.6337 39.2457C20.6605 38.5872 20.714 37.9018 20.7274 37.2298ZM15.161 24.4893C15.3082 22.4734 14.7997 20.5918 13.9166 18.8044C13.6356 18.24 13.2342 17.7561 12.8595 17.2723C12.2842 16.5331 11.6018 15.9284 10.7721 15.5252C10.3841 15.337 9.96931 15.2161 9.5545 15.0817C7.97558 14.5576 6.42342 14.3828 4.88464 15.2295C4.85787 15.243 4.81773 15.243 4.79097 15.2564C4.06841 15.6058 3.30571 15.9015 2.79725 16.6003C2.39583 17.1514 1.9944 17.6889 1.90074 18.4012C1.84722 18.791 1.8606 18.8447 2.22188 18.9791C2.63668 19.1404 3.05148 19.3151 3.46628 19.4898C3.84094 19.6511 4.2156 19.8124 4.59026 19.9602C5.35296 20.2827 6.12904 20.5784 6.89174 20.901C7.64106 21.2235 8.377 21.546 9.12632 21.8686C9.63479 22.0836 10.17 22.2583 10.6517 22.5271C11.4144 22.9303 12.2574 23.1453 12.9933 23.6292C13.6356 24.0323 14.3849 24.2742 15.1209 24.5834C15.1343 24.5565 15.161 24.5162 15.161 24.4893ZM14.7462 31.2627C14.7462 29.771 14.7328 28.2658 14.7328 26.774C14.7328 25.9273 14.7195 25.9273 14.0237 25.4972C13.9701 25.4569 13.9032 25.43 13.8363 25.4032C12.6588 24.8387 11.4947 24.2608 10.3172 23.7367C8.99251 23.1453 7.64106 22.6078 6.31637 22.0299C5.13887 21.5192 3.97475 20.995 2.79725 20.4709C2.44935 20.3096 2.30216 20.4306 2.30216 20.8338C2.30216 21.8417 2.28878 22.8497 2.26202 23.8442C2.24864 24.7715 2.19512 25.6988 2.19512 26.6396C2.19512 27.2847 2.24864 27.9163 2.24864 28.5614C2.24864 29.0856 2.19511 29.6097 2.20849 30.1204C2.22188 30.6311 2.15497 31.1283 2.23526 31.639C2.30216 32.1363 2.47611 32.4857 2.86415 32.7545C3.62685 33.2921 4.46984 33.7087 5.33958 34.0313C6.53046 34.4882 7.76149 34.8645 8.96575 35.2677C9.66155 35.4962 10.3707 35.6843 11.0398 35.9531C12.0567 36.3697 13.0335 36.8535 14.037 37.297C14.1976 37.3777 14.3849 37.418 14.599 37.4852C14.6124 37.3105 14.6392 37.2164 14.6258 37.1223C14.5589 35.6305 14.5321 34.1253 14.6927 32.6336C14.7195 32.1766 14.7462 31.7197 14.7462 31.2627Z" fill="#29353A"/>
<path d="M33.5594 11.4262C33.6932 11.6412 33.6664 11.789 33.4791 11.91C33.0108 12.246 32.5424 12.5685 32.0607 12.891C30.6022 13.8587 29.1036 14.7726 27.6853 15.794C26.4275 16.6944 25.2633 17.7024 24.0457 18.6566C23.564 19.0463 23.0421 19.3957 22.5471 19.7586C22.2527 19.9736 21.9583 20.1886 21.6773 20.4171C20.3392 21.4788 19.0012 22.554 17.6497 23.6291C17.3687 23.8442 17.0744 24.0458 16.6997 24.328C16.6729 24.0189 16.6194 23.8307 16.6328 23.6291C16.7265 21.8551 16.2046 20.229 15.4553 18.6566C15.268 18.2534 15.0806 17.8368 14.7996 17.4873C14.4517 17.0304 14.1038 16.5734 13.6757 16.1703C13.1538 15.673 12.5918 15.2698 12.0298 14.8398C11.8024 14.6651 11.5481 14.4903 11.2805 14.3963C10.3037 14.0603 9.32692 13.684 8.29661 13.5361C8.02899 13.4958 7.748 13.4824 7.38672 13.4555C7.54729 13.2674 7.62757 13.1195 7.76138 13.0254C8.44379 12.5147 9.12621 12.0309 9.94243 11.7487C10.6516 11.5068 11.227 11.0499 11.8425 10.6198C12.3643 10.2435 12.9799 9.96126 13.5954 9.75967C14.2778 9.54464 14.8799 9.20865 15.375 8.72483C15.7898 8.32165 16.2715 8.07974 16.7666 7.85127C16.9405 7.77063 17.1145 7.69 17.2751 7.6228C17.5962 7.48841 17.904 7.35401 18.2251 7.20618C19.4829 6.61485 20.7407 6.02351 21.9851 5.43218C22.1456 5.35154 22.2794 5.25746 22.4266 5.16339C23.3767 4.58549 24.3802 4.33015 25.5042 4.63925C26.2 4.84084 26.9226 4.94836 27.6183 5.14995C28.381 5.37842 29.0768 5.74129 29.6522 6.34606C30.2142 6.93739 30.8699 7.43465 31.4185 8.02599C32.0206 8.68452 32.6094 9.35649 32.9037 10.2435C33.0643 10.6601 33.3185 11.0499 33.5594 11.4262Z" fill="#4343A8"/>
<path d="M33.2253 13.5361C33.2253 13.778 33.252 13.9662 33.2387 14.1409C33.1316 15.888 32.9978 17.6486 32.9041 19.3957C32.8774 19.8795 32.8908 20.3634 32.8774 20.8472C32.8774 21.0891 32.7837 21.2772 32.5964 21.4385C32.1682 21.761 31.7534 22.097 31.3252 22.433C31.2182 22.5137 31.1111 22.6077 31.0041 22.7018C29.6393 24.0323 28.2744 25.3628 26.9096 26.6933C26.0398 27.54 25.1567 28.3732 24.287 29.2199C23.9792 29.5156 23.6982 29.8516 23.3905 30.1607C22.8017 30.752 22.1862 31.3165 21.5974 31.9078C20.8883 32.6201 20.1925 33.3593 19.4833 34.0715C18.5868 34.9854 17.6769 35.8993 16.7804 36.8132C16.5797 37.0282 16.3924 37.2567 16.1916 37.4717C16.1381 37.5255 16.0578 37.5523 15.9776 37.6061C15.9374 37.5255 15.8973 37.4852 15.8973 37.4448C15.9106 36.3428 15.6832 35.2408 15.7768 34.1253C15.8571 33.1711 15.9374 32.2169 15.9909 31.2761C16.0043 30.967 15.9508 30.6579 15.9508 30.3354C15.9508 29.1662 15.9508 27.9969 15.9642 26.8411C15.9642 26.7336 15.9909 26.6396 16.0043 26.532C16.205 26.4648 16.3924 26.438 16.5529 26.3439C16.7269 26.2364 16.941 26.102 16.9945 25.9407C17.1818 25.4031 17.5966 25.0806 18.0248 24.7446C18.6938 24.207 19.3495 23.6426 20.0453 23.105C21.1826 22.2314 22.3468 21.3713 23.4841 20.4977C24.4475 19.7586 25.3842 18.9925 26.3476 18.2534C26.9765 17.7695 27.6188 17.2992 28.261 16.8288C28.7829 16.4525 29.2914 16.0493 29.8533 15.7536C30.9506 15.1892 31.8605 14.3559 32.9041 13.7108C32.9577 13.6571 33.0513 13.6168 33.2253 13.5361Z" fill="#6891D8"/>
<path d="M26.9228 71.2452C27.1102 71.944 27.07 72.6294 26.3742 73.0998C26.3207 73.1401 26.2939 73.2073 26.2404 73.2611C25.4108 74.1078 24.5812 74.941 23.5241 75.5189C22.9086 75.8549 22.2797 76.0968 21.5572 76.1371C20.9952 76.1774 20.46 76.1774 19.9113 76.0565C19.7508 76.0162 19.5634 76.043 19.3895 76.0296C19.1754 76.0296 19.0015 76.0027 18.8409 75.8146C18.7472 75.7071 18.5331 75.6667 18.3859 75.6667C17.6768 75.6533 16.9676 75.7339 16.2584 75.5458C16.0845 75.5055 15.8837 75.4383 15.7633 75.3173C15.5894 75.1426 15.4154 75.0888 15.2013 75.1157C14.3316 75.2636 13.4618 75.4114 12.6055 75.5861C12.378 75.6264 12.1639 75.7877 11.9498 75.8818C11.3075 76.1774 10.7188 75.9087 10.1702 75.6533C9.82229 75.492 9.52791 75.1964 9.20678 74.9545C9.09973 74.8738 8.9793 74.7797 8.89902 74.6722C8.57788 74.2018 8.22999 73.7449 7.96237 73.2611C7.49405 72.4144 7.29334 71.4871 7.11939 70.5463C7.09262 70.3985 7.11939 70.2238 7.18629 70.1028C7.53419 69.5652 7.88209 69.0277 8.27013 68.517C8.55112 68.1407 8.9793 67.9525 9.39411 67.7778C10.3174 67.3881 11.254 67.0252 12.2576 66.837C12.8463 66.7295 13.4485 66.6489 14.0506 66.5951C14.2379 66.5817 14.452 66.7027 14.626 66.7833C14.9337 66.9446 15.2281 67.1193 15.5225 67.3074C15.9105 67.5628 16.3253 67.63 16.7535 67.509C17.1014 67.4149 17.4627 67.3209 17.7838 67.1596C18.5599 66.7833 19.3494 66.4742 20.1923 66.3936C20.8079 66.3398 21.4367 66.3801 22.0523 66.4339C22.6142 66.4742 23.1896 66.5817 23.7382 66.6758C24.1263 66.743 24.2333 66.9043 24.1396 67.2537C24.0594 67.5359 24.0192 67.7912 24.3002 67.9391C24.5812 68.0869 24.889 68.1407 25.17 67.8853C25.2101 67.845 25.2502 67.8316 25.3841 67.7241C25.665 68.1407 25.9728 68.4767 26.1334 68.8798C26.4545 69.6728 26.7087 70.4522 26.9228 71.2452Z" fill="#A3A3A3"/>
<path d="M26.8159 60.0101C26.8962 60.373 26.7758 60.6283 26.6687 60.8568C25.973 62.3082 25.3842 63.8134 24.8624 65.3455C24.8088 65.4934 24.7285 65.6278 24.6483 65.8025C24.1264 65.7084 23.6179 65.6278 23.1095 65.5471C22.6947 65.4799 22.2933 65.4262 21.8785 65.4127C21.3031 65.3859 20.7277 65.3321 20.1657 65.3859C19.4833 65.4531 18.8009 65.574 18.1586 65.8562C17.6234 66.0981 17.0614 66.2729 16.5128 66.4744C16.3522 66.5282 16.1783 66.5685 16.0043 66.582C15.8304 66.5954 15.6698 66.5282 15.6029 66.3266C15.429 65.8831 15.2818 65.4396 15.0543 65.0364C14.6395 64.2704 14.6127 63.3699 14.2381 62.5905C14.0909 62.2814 13.9437 61.9722 13.8099 61.6497C13.743 61.4884 13.7028 61.3272 13.6226 61.0718C13.7697 61.1524 13.8634 61.1793 13.9303 61.2331C14.3853 61.6766 14.8536 62.1201 15.2951 62.5905C15.8839 63.1952 16.4726 63.8269 17.048 64.4451C17.2889 64.7004 17.998 64.8483 18.3593 64.6736C18.4664 64.6198 18.56 64.5257 18.6136 64.4317C19.1755 63.5581 19.7242 62.6711 20.2728 61.7841C20.4869 61.4347 20.6608 61.0449 20.8883 60.7089C21.0756 60.4267 21.3031 60.1848 21.5172 59.916C21.5439 59.9295 21.5841 59.9563 21.6108 59.9698C21.5841 60.5342 21.5707 61.0987 21.5172 61.6631C21.4637 62.3082 21.37 62.9399 21.3031 63.585C21.3031 63.6387 21.2897 63.6925 21.2897 63.7462C21.3165 64.015 21.2897 64.3241 21.6108 64.4585C22.039 64.6332 22.4404 64.5661 22.6947 64.2435C23.5644 63.1549 24.5546 62.1873 25.5715 61.2465C25.9596 60.8433 26.3476 60.4536 26.8159 60.0101Z" fill="#0BB20F"/>
<path d="M20.7678 35.5097C20.7678 36.0876 20.7544 36.652 20.741 37.2299C20.7143 37.9019 20.6741 38.5873 20.6473 39.2593C20.5938 40.4688 20.5804 41.6918 20.5135 42.9014C20.4466 44.2722 20.353 45.643 20.2593 47.0138C20.1656 48.4787 20.0452 49.9302 19.9783 51.3951C19.9382 52.1342 20.0051 52.8734 19.9917 53.626C19.9917 54.0829 19.9114 54.5264 19.8846 54.9699C19.8445 55.9645 19.8177 56.9455 19.7776 57.94C19.7508 58.6389 19.6706 59.3243 19.6839 60.0232C19.6839 60.5338 19.3093 60.8026 19.055 61.1655C19.0149 60.4935 19.0149 59.8216 18.948 59.1496C18.8543 58.2223 19.0417 57.3084 19.055 56.3945C19.055 56.1392 19.0684 55.8704 19.0684 55.615C19.0684 55.4941 19.0684 55.3731 19.0818 55.2522C19.1755 54.3248 19.2825 53.3841 19.3762 52.4568C19.4832 51.2607 19.6037 50.0646 19.6572 48.8819C19.7107 47.8336 19.6572 46.7988 19.6973 45.7505C19.7241 44.7022 19.8445 43.6674 19.8311 42.6326C19.8311 42.1219 19.7776 41.6112 19.7776 41.1005C19.7776 40.3344 19.7375 39.5684 19.7508 38.8023C19.7642 38.3051 19.898 37.7944 19.8579 37.3106C19.8044 36.7461 20.0185 36.1951 19.8579 35.6306C19.8177 35.5097 19.8311 35.3215 19.9114 35.2274C20.1121 34.9587 20.3664 34.7302 20.5938 34.4883C20.634 34.5017 20.6607 34.5152 20.7009 34.5286C20.7142 34.8377 20.7678 35.1737 20.7678 35.5097Z" fill="#2A287F"/>
<path d="M13.9173 18.8045C14.8005 20.6054 15.2956 22.4735 15.1617 24.4894C15.1617 24.5163 15.135 24.5566 15.1216 24.5835C14.3857 24.2609 13.6363 24.0324 12.9941 23.6293C12.2581 23.1589 11.4151 22.9438 10.6524 22.5272C10.1707 22.2584 9.63552 22.0972 9.12705 21.8687C8.37773 21.5461 7.64179 21.2236 6.89247 20.9011C6.12977 20.5785 5.35369 20.2694 4.59099 19.9603C4.21633 19.799 3.84167 19.6378 3.46701 19.4899C3.05221 19.3152 2.63741 19.1405 2.22261 18.9792C1.87471 18.8448 1.84794 18.7776 1.90147 18.4013C1.98175 17.689 2.39656 17.1515 2.79798 16.6004C3.29306 15.9016 4.05576 15.6059 4.7917 15.2565C4.81846 15.2431 4.8586 15.2431 4.88537 15.2296C6.41077 14.3829 7.97631 14.5577 9.55523 15.0818C9.97003 15.2162 10.3848 15.3371 10.7729 15.5253C11.6025 15.9419 12.2849 16.5332 12.8603 17.2724C13.2349 17.7562 13.6363 18.2401 13.9173 18.8045Z" fill="#20207F"/>
<path d="M14.7325 26.7743C14.7458 28.2661 14.7458 29.7713 14.7458 31.2631C14.7458 31.72 14.7191 32.1635 14.6655 32.6205C14.505 34.1122 14.5317 35.604 14.5986 37.1092C14.5986 37.2033 14.5853 37.3108 14.5719 37.4721C14.3578 37.4049 14.1838 37.3646 14.0099 37.2839C13.0063 36.8404 12.0296 36.3566 11.0126 35.94C10.3436 35.6712 9.6344 35.483 8.93861 35.2546C7.73434 34.8514 6.50332 34.4751 5.31243 34.0182C4.44269 33.6822 3.5997 33.279 2.837 32.7414C2.44896 32.4592 2.27501 32.1098 2.20811 31.6259C2.14121 31.1152 2.20811 30.618 2.18135 30.1073C2.16797 29.5831 2.22149 29.059 2.22149 28.5483C2.22149 27.9032 2.16797 27.2716 2.16797 26.6265C2.18135 25.6992 2.22149 24.7718 2.23487 23.8311C2.24825 22.8231 2.27501 21.8152 2.27501 20.8207C2.27501 20.4175 2.4222 20.2965 2.7701 20.4578C3.9476 20.9819 5.11172 21.5061 6.28923 22.0168C7.6273 22.5947 8.96537 23.1322 10.2901 23.7236C11.4809 24.2611 12.6451 24.839 13.8092 25.39C13.8761 25.4169 13.9296 25.4438 13.9965 25.4841C14.7191 25.9276 14.7325 25.9276 14.7325 26.7743ZM10.7851 33.7225C11.0394 33.6418 11.1598 33.4134 11.133 33.1446C11.1063 32.8355 10.9725 32.7011 10.6647 32.6205C10.3302 32.5264 10.0091 32.4189 9.67455 32.3113C9.46045 32.2441 9.40693 32.0963 9.43369 31.8678C9.54074 30.8733 9.5006 29.8519 9.75483 28.8709C9.78159 28.7768 9.78159 28.6693 9.79497 28.5618C9.80835 27.5135 9.80835 26.4652 9.80835 25.4035C9.80835 25.2422 9.76821 25.0944 9.76821 24.9331C9.75483 24.6643 9.59426 24.5568 9.35341 24.5702C9.16608 24.5702 8.97875 24.624 8.8048 24.6912C8.48366 24.8122 8.16253 24.9465 7.85477 25.1078C7.22588 25.4572 6.59698 25.8201 5.98147 26.2099C5.63357 26.4249 5.64695 26.7474 6.00823 26.9356C6.1688 27.0162 6.42303 27.0565 6.59698 26.9893C6.91812 26.8818 7.2125 26.6937 7.50687 26.519C7.81463 26.3308 8.09562 26.1158 8.47028 25.8604C8.52381 26.0889 8.57733 26.2233 8.57733 26.3711C8.57733 27.0162 8.55057 27.6613 8.53719 28.3064C8.53719 28.508 8.61747 28.7499 8.55057 28.9246C8.26957 29.6235 8.24281 30.3358 8.25619 31.0615C8.26957 31.6663 8.12238 31.7603 7.54701 31.505C7.10545 31.3168 6.74417 31.505 6.35613 31.6663C6.1019 31.7738 6.07514 31.9754 6.02161 32.2038C6.11528 32.2845 6.18218 32.3651 6.26247 32.4189C6.32937 32.4726 6.40965 32.4995 6.48994 32.5264C7.66744 32.9833 8.83156 33.4671 10.0626 33.7762C10.3436 33.8569 10.5577 33.8031 10.7851 33.7225ZM8.18929 29.1531C8.20267 29.0052 8.20267 28.8574 8.21605 28.7096C8.17591 28.7096 8.13577 28.7096 8.109 28.7096C8.12238 28.8574 8.12238 29.0052 8.13576 29.1396C8.14915 29.1531 8.17591 29.1531 8.18929 29.1531Z" fill="#6891D8"/>
<path d="M11.1336 33.1439C11.1604 33.4127 11.0399 33.6277 10.7857 33.7218C10.5582 33.8024 10.3441 33.8562 10.0631 33.789C8.83211 33.4799 7.66799 32.9961 6.49049 32.5391C6.4102 32.5123 6.32992 32.4719 6.26302 32.4316C6.18273 32.3779 6.11583 32.2972 6.02216 32.2166C6.07569 31.9881 6.10245 31.7865 6.35668 31.679C6.74472 31.5177 7.106 31.3296 7.54757 31.5177C8.12294 31.7731 8.27012 31.679 8.25674 31.0742C8.22998 30.3351 8.27012 29.6228 8.55112 28.9374C8.61802 28.7627 8.53774 28.5342 8.53774 28.3192C8.55112 27.6741 8.57788 27.029 8.57788 26.3839C8.57788 26.2495 8.52436 26.1017 8.47083 25.8732C8.09617 26.1285 7.81518 26.3436 7.50742 26.5317C7.21305 26.7064 6.91867 26.8946 6.59753 27.0021C6.42359 27.0693 6.18273 27.029 6.00878 26.9483C5.64751 26.7602 5.63412 26.4511 5.98202 26.2226C6.59753 25.8329 7.22643 25.47 7.85532 25.1206C8.16308 24.9459 8.48421 24.8249 8.80535 24.704C8.9793 24.6368 9.18001 24.5964 9.35396 24.583C9.58143 24.583 9.75538 24.6771 9.76876 24.9459C9.78214 25.1071 9.8089 25.255 9.8089 25.4163C9.8089 26.4645 9.79552 27.5128 9.79552 28.5745C9.79552 28.682 9.78214 28.7895 9.75538 28.8836C9.50115 29.8647 9.54129 30.8861 9.43425 31.8806C9.40748 32.1091 9.46101 32.2569 9.6751 32.3241C9.99623 32.4316 10.3308 32.5391 10.6653 32.6332C10.973 32.7004 11.1068 32.8348 11.1336 33.1439Z" fill="black"/>
<path d="M8.21649 28.7227C8.2031 28.8705 8.2031 29.0183 8.18971 29.1662C8.17632 29.1662 8.14954 29.1662 8.13615 29.1662C8.12276 29.0183 8.12276 28.8705 8.10938 28.7361C8.14954 28.7227 8.18971 28.7227 8.21649 28.7227Z" fill="black"/>
<defs>
<filter id="filter0_d" x="103.113" y="0.0253906" width="49.4439" height="53.348" filterUnits="userSpaceOnUse" color-interpolation-filters="sRGB">
<feFlood flood-opacity="0" result="BackgroundImageFix"/>
<feColorMatrix in="SourceAlpha" type="matrix" values="0 0 0 0 0 0 0 0 0 0 0 0 0 0 0 0 0 0 127 0"/>
<feOffset dy="4"/>
<feGaussianBlur stdDeviation="2"/>
<feColorMatrix type="matrix" values="0 0 0 0 0 0 0 0 0 0 0 0 0 0 0 0 0 0 0.25 0"/>
<feBlend mode="normal" in2="BackgroundImageFix" result="effect1_dropShadow"/>
<feBlend mode="normal" in="SourceGraphic" in2="effect1_dropShadow" result="shape"/>
</filter>
</defs>
</svg>
