<svg width="159" height="108" viewBox="0 0 159 108" fill="none" xmlns="http://www.w3.org/2000/svg">
<path d="M112.345 45.8176C113.001 46.1258 113.295 46.7211 113.312 47.4594C113.327 48.2777 113.273 49.0962 113.312 49.9105C113.41 51.9692 113.564 54.0289 113.656 56.0882C113.747 58.1474 113.825 60.1591 113.835 62.1925C113.841 63.2224 113.677 64.2497 113.599 65.2783C113.372 67.8356 112.997 70.3777 112.477 72.8916C112.223 74.0111 111.896 75.1127 111.498 76.1892C110.882 78.0311 110.283 79.8839 109.578 81.6932C108.698 83.9487 107.739 86.1709 106.772 88.3912C106.46 89.1088 106.015 89.7701 105.636 90.4585C104.943 91.719 104.278 92.9897 103.558 94.24C102.887 95.3948 101.828 96.1306 100.693 96.7795C100.217 97.0479 99.7682 97.3626 99.3534 97.719C98.5451 98.3951 97.6675 98.983 96.7356 99.4727C94.8562 100.527 93.0249 101.649 91.1106 102.653C89.6509 103.435 88.0535 103.922 86.4079 104.089C84.3891 104.276 82.3568 104.372 80.3269 104.397C79.2854 104.409 78.2407 104.201 77.2007 104.06C75.0148 103.8 72.8851 103.187 70.8939 102.245C70.3371 101.973 69.7606 101.73 69.2229 101.421C66.7099 99.9669 64.0862 98.6588 61.7875 96.8481C60.512 95.8461 59.3585 94.6877 58.0875 93.6805C57.0376 92.8085 56.1243 91.7828 55.3781 90.6377C54.8394 89.7893 54.3465 88.9124 53.9014 88.0108C53.5412 87.3353 53.1877 86.652 52.8766 85.9537C52.4111 84.9049 51.973 83.8347 51.5479 82.7782C51.0143 81.4408 50.4382 80.1185 49.9989 78.7502C49.2457 76.3523 48.7299 73.8854 48.4588 71.3856L47.7299 70.9273C47.6431 70.8688 47.543 70.8332 47.4389 70.8238C47.3347 70.8144 47.2299 70.8314 47.134 70.8734C47.0381 70.9153 46.9543 70.9808 46.8902 71.0638C46.8261 71.1468 46.7838 71.2447 46.7672 71.3484C46.7438 71.464 46.7502 71.592 46.7267 71.7052C46.7223 71.7659 46.7036 71.8246 46.6722 71.8766C46.6409 71.9287 46.5977 71.9725 46.5462 72.0045C46.4947 72.0364 46.4364 72.0557 46.376 72.0607C46.3157 72.0656 46.2551 72.0561 46.1991 72.0329C45.6748 71.9168 45.5426 71.7151 45.5523 71.1204C45.5539 70.9676 45.5239 70.7078 45.449 70.6718C44.8403 70.4161 44.6564 69.8834 44.541 69.2587C44.3008 69.2199 44.0573 69.206 43.8142 69.2173C43.6336 69.246 43.4689 69.3383 43.3496 69.4776C42.8662 70.0956 42.728 70.1222 41.9742 69.6171C42.1477 69.2632 42.3078 68.8908 42.5106 68.5421C42.7134 68.1934 42.5582 68.0417 42.2799 67.9254C41.7531 67.7027 41.2243 67.4875 40.686 67.3092C40.5333 67.2657 40.3699 67.2815 40.2282 67.3533C40.012 67.4726 39.8368 67.7661 39.6303 67.7805C39.3493 67.8001 39.0571 67.6217 38.7017 67.5058C38.8627 67.3245 39.0107 67.1319 39.1445 66.9295C39.2317 66.7697 39.2876 66.5946 39.3093 66.4137C39.3529 66.0664 39.3599 65.7119 39.3854 65.3125C38.9706 64.9293 38.7403 64.9139 38.2907 65.2871C37.745 65.7373 37.619 65.7291 36.9749 65.1364L37.9669 64.1605C37.7521 63.7391 37.9096 63.328 38.1996 62.949C39.0664 61.8364 39.9432 60.7303 40.7979 59.616C41.4219 58.7967 42.0178 57.9551 42.6138 57.1159C43.3518 56.0946 44.0729 55.0382 44.8121 53.9999C45.4359 53.0914 45.897 52.0804 46.1747 51.0125C46.4858 49.9758 46.8623 48.9599 47.3019 47.9712C47.7536 46.8924 48.2747 45.8402 48.7385 44.7629C48.8736 44.4341 48.9642 44.0886 49.008 43.7356C49.4167 40.7371 49.8405 37.7474 50.7236 34.8395C51.5407 32.1857 52.6053 29.6154 53.9033 27.1626C54.7713 25.5068 55.629 23.842 56.5397 22.2099C57.0033 21.3751 57.5874 20.607 58.0936 19.7935C59.8093 17.0288 61.9102 14.5669 64.1323 12.2178C65.0679 11.2555 66.0941 10.3866 67.1965 9.62328C68.8551 8.4457 70.5696 7.34422 72.3013 6.28276C74.5388 4.93456 76.9493 3.90016 79.4657 3.2083C80.5417 2.8908 81.6477 2.97367 82.7459 2.9795C83.055 2.98218 83.3662 3.01624 83.6771 3.01152C85.0579 2.98552 86.3894 3.2951 87.6947 3.67924C88.9261 4.04186 90.1419 4.49285 91.3443 4.95933C91.9129 5.2042 92.4595 5.49783 92.978 5.83697C94.5171 6.80864 95.9836 7.8918 97.3659 9.07783C98.743 10.2255 99.783 11.661 100.782 13.138C101.476 14.1733 102.159 15.224 103.09 16.0633C103.268 16.2255 103.306 16.5332 103.451 16.7413C103.869 17.3545 104.316 17.9489 104.737 18.5596C105.036 18.9896 105.327 19.4276 105.599 19.8765C106.713 21.7165 107.843 23.5506 108.927 25.4097C110.018 27.277 110.792 29.314 111.217 31.4371C111.338 32.0492 111.475 32.658 111.601 33.2698C111.639 33.4065 111.639 33.551 111.601 33.6877C111.563 33.8244 111.489 33.9482 111.387 34.046C111.208 34.2287 111.073 34.4505 110.994 34.6941C110.914 34.9377 110.892 35.1965 110.929 35.4502C111.101 37.0795 111.573 38.6466 111.8 40.2576C111.961 41.398 112.086 42.5433 112.205 43.689C112.265 44.3831 112.294 45.0769 112.345 45.8176ZM112.233 48.6135C112.229 48.3713 112.2 48.1309 112.184 47.8896C112.027 47.987 111.901 48.1259 111.818 48.2909C111.413 48.9689 111.024 49.6579 110.597 50.3156C110.312 50.7605 110.001 51.1871 109.664 51.5929C109.183 52.2194 108.659 52.8116 108.097 53.3653C107.457 53.9506 106.957 53.9055 106.325 53.3168C105.941 52.9605 105.615 52.5396 105.244 52.163C104.467 51.3833 103.69 50.6132 102.943 49.8603C101.939 50.5292 101.004 51.1035 100.125 51.754C99.6531 52.1187 99.2329 52.546 98.8755 53.0242C98.1315 53.9926 97.469 55.0231 96.7226 55.9916C95.3759 57.739 94.0692 59.5054 92.9961 61.4422C92.6787 61.9511 92.3286 62.4388 91.9482 62.9021C91.5684 63.4134 91.1517 63.9153 90.8101 64.4555C90.5964 64.831 90.4232 65.2283 90.2934 65.6407C89.7448 67.17 89.1546 68.69 88.695 70.2495C88.482 70.9747 88.1948 71.6396 87.6107 72.0222C87.0952 72.3491 87.0322 72.7317 87.0464 73.218C87.0723 73.9435 87.1198 74.6676 87.1542 75.3779C87.2131 76.6176 87.2429 77.8568 87.41 79.0913C87.5323 79.8573 87.3623 80.6415 86.9339 81.2871C86.8823 81.3796 86.8068 81.4564 86.7153 81.5093C86.6238 81.5622 86.5197 81.5893 86.4141 81.5876C85.9111 81.6057 85.5423 81.2605 85.3805 80.5929C84.9567 78.8551 84.8967 77.0725 84.729 75.3047C84.6571 74.5411 84.5396 73.7808 84.4437 73.0189C84.4395 72.8744 84.3881 72.7352 84.2976 72.6228C84.207 72.5105 84.0822 72.4311 83.9424 72.3969C83.5761 72.2833 83.2418 72.0843 82.9667 71.8162C82.6916 71.548 82.4835 71.2182 82.3594 70.8538C82.0694 70.1467 81.8381 69.4162 81.5483 68.7115C80.7955 66.8899 79.9284 65.1272 78.7247 63.5553C78.0384 62.6649 77.3632 61.7592 76.6135 60.929C75.5175 59.7302 74.3536 58.5968 73.2193 57.437C72.6765 57.6494 72.5471 58.187 72.2408 58.5744C71.5757 59.4282 70.9968 60.3413 70.3157 61.1719C69.687 61.9282 69.0109 62.6434 68.2916 63.3133C67.8226 63.7557 67.4174 63.7573 66.9915 63.4597C66.3855 63.0341 65.7927 62.5905 65.1955 62.1521C64.0003 61.2709 62.7202 60.5123 61.3743 59.8876C60.7339 59.5928 60.5181 59.6127 60.1432 60.1601C59.549 61.0259 58.7284 61.6529 57.9829 62.3546C57.53 62.7452 57.0207 63.0644 56.4725 63.3012C55.9104 63.5829 55.5701 63.4418 55.1587 62.9686C54.8416 62.5615 54.3889 62.2831 53.8837 62.1847C53.7929 62.3365 53.7084 62.4758 53.629 62.6195C53.0128 63.7268 52.4421 64.8649 51.7678 65.935C51.2339 66.8436 50.8819 67.8482 50.7313 68.8924C50.6229 69.6457 50.4267 70.3836 50.1468 71.0909C50.0543 71.3325 50.0364 71.5965 50.0953 71.8485C50.2485 72.4972 50.2698 72.4909 49.5939 72.8362C49.8832 74.0937 50.1599 75.3084 50.4392 76.5254C50.779 77.9564 51.3705 79.2922 51.8753 80.6656C53.0411 83.7651 54.4533 86.7654 56.0982 89.6371C56.6133 90.5885 57.2876 91.4436 58.0917 92.165C59.2442 93.1683 60.4256 94.1357 61.5578 95.1598C62.7818 96.2706 64.1448 97.2163 65.6122 97.973C67.1383 98.7611 68.639 99.5996 70.1614 100.403C70.963 100.831 71.7671 101.26 72.6017 101.607C74.7803 102.514 77.0776 102.972 79.4062 103.22C80.6215 103.348 81.8384 103.256 83.0561 103.244C85.3395 103.22 87.5845 102.955 89.7132 102.052C90.1548 101.876 90.5864 101.676 91.0062 101.453C92.3348 100.703 93.6578 99.9443 94.9671 99.1596C96.2158 98.4082 97.4429 97.622 98.6806 96.8495C98.8691 96.7031 99.0711 96.5753 99.2841 96.468C100.249 96.1098 101.018 95.467 101.747 94.7737C102.048 94.5045 102.312 94.1967 102.533 93.8582C102.921 93.2274 103.247 92.5574 103.605 91.9069C104.105 91.0065 104.643 90.1229 105.108 89.2031C105.532 88.3493 105.894 87.4512 106.291 86.5823C107.329 84.3389 108.245 82.0404 109.035 79.697C109.707 77.6451 110.494 75.6288 111.063 73.5503C111.489 71.877 111.809 70.1785 112.023 68.4648C112.375 66.0157 112.699 63.5688 112.66 61.0767C112.64 59.8053 112.564 58.5329 112.513 57.2637C112.446 55.5107 112.368 53.7608 112.313 52.0094C112.256 50.8666 112.256 49.7393 112.233 48.6135ZM111.228 46.1064C111.154 43.7963 110.785 41.5309 110.404 39.2519C110.263 38.3938 110.024 37.5522 109.799 36.5714C109.644 36.7714 109.588 36.8286 109.538 36.9073C108.876 37.8069 108.215 38.7209 107.509 39.6066C107.065 40.1757 106.533 40.1595 106.077 39.5901C105.966 39.4524 105.869 39.3016 105.676 39.0337C104.746 43.0431 103.098 46.5838 101.02 49.9654C101.435 49.6972 101.823 49.3884 102.177 49.0434C102.803 48.4542 103.285 48.4594 103.895 49.0763C104.065 49.2757 104.25 49.4622 104.447 49.6342C105.381 50.3004 106.172 51.1469 106.776 52.1241C106.934 52.3177 107.116 52.4899 107.318 52.6366C107.421 52.5584 107.519 52.4747 107.612 52.3858C108.974 50.939 110.107 49.29 110.969 47.4967C111.166 47.061 111.255 46.584 111.228 46.1064ZM110.039 34.0672C110.235 33.6902 110.309 33.2614 110.252 32.8402C109.826 29.9805 108.815 27.2403 107.284 24.7921C106.859 24.1235 106.492 23.4193 106.077 22.7452C105.058 21.0925 104.086 19.4075 102.986 17.8137C101.571 15.7644 100.055 13.7876 98.5704 11.7819C98.3761 11.5191 98.1705 11.2667 97.9164 10.9402C97.8311 11.2558 97.7284 11.5665 97.6089 11.8708C97.4408 12.2404 97.2416 12.5949 97.0136 12.9306C96.7939 13.2441 96.197 13.3366 95.8237 13.1711C95.4504 13.0057 95.2815 12.6562 95.3539 12.1663C95.5258 11.17 95.5372 10.1526 95.3876 9.15278C95.3741 9.01281 95.3298 8.87761 95.2581 8.75686C95.1864 8.63611 95.0889 8.53282 94.9728 8.45439C93.9984 7.79503 93.047 7.11952 92.0624 6.48754C91.6541 6.24095 91.2212 6.03794 90.7708 5.88182C89.9658 5.57916 89.1425 5.32626 88.3376 5.02601C87.1058 4.56542 85.822 4.25922 84.5155 4.11434C83.5884 4.01952 82.6566 3.97686 81.7247 3.98656C81.1506 3.97663 80.5776 4.04104 80.0199 4.1782C77.7543 4.78157 75.5766 5.6792 73.5419 6.84839C72.758 7.30795 71.9686 7.75819 71.2266 8.26574C69.6458 9.34577 68.0649 10.4258 66.523 11.5443C65.2204 12.4959 64.199 13.7454 63.1378 14.9443C61.6731 16.5569 60.3397 18.2852 59.1507 20.1125C58.1417 21.6836 57.1405 23.2614 56.2071 24.8781C55.5863 25.9542 55.1137 27.1146 54.5332 28.2145C53.5844 30.0135 52.7582 31.875 52.0601 33.7862C51.9385 34.122 51.822 34.4623 51.7079 34.8024C51.4765 35.404 51.2771 36.0176 51.1106 36.6405C50.7793 38.1353 50.4947 39.6437 50.2148 41.1494C50.1076 41.6951 50.0493 42.2495 49.9618 42.8011C50.1918 42.7482 50.3999 42.6253 50.5577 42.4492C51.4543 41.4533 52.351 40.4598 53.2465 39.4493C53.9444 38.6515 54.2049 38.58 55.1707 39.0097C55.3023 39.0667 55.4302 39.1323 55.5534 39.206C56.931 40.0797 58.299 40.954 59.4152 42.166C59.6122 42.3531 59.8225 42.5256 60.0443 42.6821C60.1251 42.6164 60.2008 42.5446 60.2708 42.4675C61.6321 40.5974 63.0937 38.8031 64.6491 37.0927C65.0483 36.6527 65.5705 36.6672 66.072 37.0468C66.8534 37.6371 67.668 38.184 68.4801 38.7286C68.9349 39.0405 69.4089 39.3232 69.8993 39.5752C70.8536 40.0492 71.6006 40.8045 72.4645 41.4012C73.3765 42.031 73.5595 42.0255 74.3671 41.2443C75.0753 40.5621 75.7473 39.8437 76.4636 39.173C77.5086 38.1958 78.7028 37.3876 79.6426 36.2844C79.9932 35.8745 80.5993 35.8468 81.0058 36.3882C81.1734 36.6205 81.3587 36.8394 81.56 37.0429C82.8182 38.2498 84.088 39.4486 85.3487 40.6577C85.7672 41.0576 85.9151 41.1031 86.3765 40.6903C86.9575 40.1895 87.508 39.654 88.025 39.0867C88.8541 38.1633 89.7908 37.3294 90.4428 36.2512C90.7788 35.6992 91.1425 35.1647 91.5138 34.6345C91.9314 34.0429 92.5796 33.925 93.0956 34.4102C93.7562 35.0333 94.3823 35.6921 94.9713 36.3838C95.4124 36.9034 95.7718 37.4965 96.1924 38.1024C96.4302 37.8773 96.6336 37.7128 96.8037 37.5191C97.9635 36.2115 99.1206 34.9008 100.275 33.587C100.609 33.2098 100.922 32.8146 101.278 32.46C101.683 32.0633 102.17 32.1335 102.492 32.5668C103.161 33.4439 103.82 34.3241 104.523 35.1769C105.28 36.1069 105.931 37.1185 106.465 38.1932C106.587 38.4025 106.722 38.6036 106.869 38.7954C107.049 38.5743 107.18 38.4367 107.287 38.2813C108.248 36.8954 109.366 35.6344 110.044 34.0621L110.039 34.0672ZM104.38 39.0902C104.522 38.5639 104.625 38.0258 104.785 37.331L101.8 33.4831C100.957 34.4414 100.154 35.3241 99.3838 36.2336C98.5627 37.2049 97.7516 38.1803 96.76 38.9865C96.2526 39.3977 95.9062 39.3782 95.453 38.8934C95.2633 38.6775 95.0916 38.4462 94.9397 38.2019C94.2255 37.151 93.548 36.0734 92.4525 35.197L92.0657 35.7816C91.6665 36.436 91.2315 37.0677 90.7628 37.6738C89.9074 38.6717 88.9986 39.6297 88.0662 40.5603C87.5852 41.0263 87.0605 41.4446 86.4994 41.809C85.8328 42.2556 85.4822 42.2097 84.9037 41.6585C83.8473 40.6485 82.8187 39.622 81.7638 38.5997C81.2474 38.1096 80.7856 37.5697 80.2545 37.2503C79.5458 37.821 78.9124 38.3282 78.2842 38.8424C78.0363 39.0299 77.7988 39.231 77.5729 39.4448C76.8302 40.1875 76.106 40.9533 75.3581 41.6891C75.0393 42.012 74.691 42.3042 74.3179 42.5617C73.5011 43.1036 73.0221 43.0861 72.225 42.5138C71.1004 41.7049 69.9866 40.8782 68.8444 40.0948C68.0163 39.5271 67.1447 39.0278 66.3036 38.4828C66.0104 38.2899 65.7493 38.0366 65.4182 37.7833C65.0965 38.1234 64.7786 38.4122 64.5193 38.7455C63.2768 40.3232 62.0572 41.9186 60.8122 43.4965C60.3417 44.0918 59.8602 44.2126 59.2463 43.5669C58.0032 42.2644 56.7254 41.0177 55.1676 40.0863C54.4428 39.652 54.2895 39.6336 53.7326 40.2712C52.9509 41.1477 52.2055 42.0603 51.3614 42.8732C50.7574 43.456 50.4098 44.1906 50.0302 44.8789C49.4036 46.0928 48.8451 47.341 48.3574 48.6177C47.8764 49.6908 47.4936 50.8057 47.2139 51.9486C47.0612 52.5781 46.7911 53.1728 46.4178 53.7012C45.0091 55.739 43.562 57.7795 42.1005 59.787C41.3137 60.8698 40.4634 61.9062 39.6411 62.9648C39.4195 63.2494 39.1979 63.5364 39.2896 63.9906C39.4617 64.0497 39.6401 64.0885 39.8211 64.1063C39.9163 64.0964 40.0125 64.1057 40.1041 64.1335C40.1957 64.1613 40.2808 64.2071 40.3547 64.2683C40.4285 64.3294 40.4894 64.4047 40.534 64.4898C40.5786 64.5749 40.6059 64.668 40.6144 64.7637C40.6608 65.0221 40.6917 65.2831 40.7068 65.5452C40.7235 65.7865 40.7171 66.01 40.7195 66.2547C41.4812 66.524 42.1825 66.8606 42.9215 67.0103C43.5797 67.1438 43.9489 67.4235 44.0522 68.083C44.0542 68.112 44.1277 68.1286 44.193 68.1653C44.3608 68.092 44.533 68.029 44.7084 67.9766C45.3608 67.8147 45.6435 67.9962 45.7711 68.6565C45.7977 68.7977 45.791 68.946 45.8272 69.0865C45.9933 69.9211 46.3971 70.1087 47.1385 69.6982C47.7383 69.3678 48.1542 69.4503 48.5794 69.9831C48.7167 70.1554 48.8631 70.3197 49.0679 70.56C49.2026 70.3082 49.342 70.1603 49.3395 70.0198C49.3307 69.0507 49.6534 68.1311 49.9135 67.2135C50.0521 66.6326 50.2738 66.0749 50.5716 65.5578C51.4419 64.1807 52.1537 62.7103 52.9065 61.2734C53.5016 60.1215 54.2459 59.0538 55.1199 58.0982C55.5554 57.6242 56.0088 57.1659 56.4547 56.7032C56.538 56.6174 56.6347 56.4797 56.7263 56.4782C57.3262 56.4654 57.6887 55.9819 58.1798 55.7561C58.671 55.5304 59.0114 55.5333 59.1475 55.7929C59.2836 56.0525 59.081 56.3333 58.6249 56.6124C58.2572 56.8305 57.9103 57.0819 57.5884 57.3636C57.1634 57.7448 56.7987 58.1945 56.3713 58.5758C55.5575 59.3017 55.0382 60.2398 54.4076 61.1372C54.9109 61.4391 55.3834 61.6777 55.8115 61.9727C56.3639 62.356 56.4822 62.3914 56.9815 61.9687C58.01 61.1017 58.9652 60.1526 59.6295 58.9716C59.8788 58.5276 60.3021 58.578 60.6392 58.3921C60.9134 58.2396 61.0353 58.539 61.222 58.6569C61.4131 58.7572 61.611 58.8438 61.8141 58.9162C62.1937 59.0516 62.5635 59.213 62.9211 59.3991C64.5427 60.3818 66.1514 61.3872 67.8173 62.4178C68.8158 61.7105 69.4182 60.5775 70.1409 59.5452C70.8636 58.5129 71.7724 57.5549 72.2451 56.3606L70.7242 54.5975C70.4907 54.3253 70.2772 54.0274 70.0189 53.7812C68.665 52.4816 67.585 50.9544 66.4431 49.4751C66.0809 49.0155 65.7833 48.4786 65.4686 47.9721C65.2187 47.5676 64.9922 47.1519 64.747 46.7447C64.0048 45.5212 63.2604 44.3004 62.5137 43.082C63.2381 42.6 63.4183 42.6238 63.8353 43.2129C63.8777 43.2713 63.9143 43.3337 63.9447 43.3992C64.9169 45.3582 66.2613 47.0803 67.476 48.8818C68.1052 49.8162 68.7921 50.7101 69.5328 51.558C70.9677 53.1937 72.4571 54.7797 73.9261 56.384C74.5078 57.0174 75.0918 57.6483 75.6893 58.266C76.2868 58.8838 76.9252 59.4648 77.5045 60.0983C77.9716 60.6088 78.3526 61.2005 78.8215 61.7036C80.2276 63.2347 81.2501 65.0132 82.1146 66.8803C82.5767 67.8785 82.9099 68.9317 83.2921 69.9621C83.6164 70.8171 84.1832 71.374 85.123 71.4611C85.3849 71.4841 85.6481 71.4901 85.9108 71.4789C86.8879 71.4423 87.2078 71.1824 87.5153 70.2518C88.0558 68.6406 88.5815 67.0257 89.1736 65.4279C89.4915 64.579 89.8258 63.7217 90.4562 63.0304C91.2092 62.1913 91.8614 61.2662 92.3993 60.274C92.5727 59.9584 92.7626 59.6522 92.9683 59.3567C93.7003 58.3189 94.4349 57.2834 95.1819 56.2542C96.0833 55.0131 97.0175 53.7939 97.9035 52.5393C98.7036 51.4046 99.5583 50.2904 100.21 49.0691C101.144 47.3189 102.299 45.6697 102.836 43.7195C102.869 43.633 102.908 43.5492 102.954 43.4688C103.597 42.0493 103.977 40.5681 104.379 39.0854L104.38 39.0902ZM86.0537 72.9576C86.0406 72.7669 86.0707 72.5394 85.7835 72.5376C85.4962 72.5358 85.4838 72.7403 85.5031 72.9863C85.6358 74.4923 85.7371 75.998 85.8818 77.5032C85.9493 78.2016 86.0887 78.8949 86.1971 79.5929L86.4176 79.5363C86.3228 78.6847 86.1848 77.8385 86.143 76.9856C86.0867 75.6439 86.0835 74.301 86.0537 72.9576Z" fill="#4D3826"/>
<path d="M112.162 47.8437C112.178 48.085 112.195 48.3262 112.211 48.5675C112.233 49.6934 112.233 50.8208 112.267 51.9579C112.322 53.7094 112.398 55.4594 112.465 57.2124C112.516 58.4817 112.591 59.7542 112.61 61.0257C112.647 63.5082 112.323 65.9651 111.97 68.4144C111.755 70.1284 111.434 71.8271 111.007 73.5007C110.438 75.5797 109.649 77.5965 108.977 79.6488C108.186 81.9927 107.269 84.2918 106.229 86.5357C105.833 87.4097 105.479 88.3025 105.045 89.1573C104.58 90.0773 104.042 90.9613 103.542 91.8619C103.183 92.5126 102.857 93.1828 102.469 93.8138C102.248 94.1525 101.983 94.4604 101.682 94.7298C100.953 95.4235 100.184 96.0666 99.2189 96.4253C99.0059 96.5327 98.8038 96.6606 98.6153 96.8071C97.3773 97.5802 96.1499 98.367 94.9009 99.1191C93.5914 99.9044 92.2681 100.664 90.9393 101.414C90.5194 101.638 90.0877 101.838 89.6461 102.014C87.5171 102.918 85.2721 103.185 82.9889 103.209C81.7713 103.222 80.5447 103.315 79.3392 103.187C77.0108 102.94 74.7067 102.484 72.5359 101.577C71.7015 101.23 70.8971 100.795 70.0962 100.373C68.5743 99.5711 67.0741 98.7333 65.5484 97.9458C64.0815 97.1897 62.719 96.2445 61.4955 95.1343C60.3639 94.1106 59.1878 93.1433 58.031 92.1408C57.2274 91.4198 56.5535 90.565 56.0388 89.6138C54.3953 86.7425 52.9845 83.7428 51.8203 80.6435C51.3161 79.2703 50.7181 77.9352 50.3861 76.5038C50.1074 75.2869 49.8312 74.0722 49.5425 72.8148C50.2186 72.4691 50.1973 72.4754 50.0443 71.8267C49.9855 71.5747 50.0036 71.3107 50.0962 71.069C50.3764 70.3615 50.5729 69.6235 50.6817 68.8701C50.8327 67.8258 51.1852 66.821 51.7194 65.9121C52.3941 64.8416 52.9653 63.7032 53.582 62.5955C53.6614 62.4518 53.746 62.3125 53.8369 62.1606C54.342 62.2588 54.7945 62.5369 55.1114 62.944C55.5226 63.417 55.862 63.5459 56.425 63.276C56.9733 63.0389 57.4827 62.7194 57.9357 62.3286C58.6815 61.6265 59.5028 61.0064 60.0969 60.133C60.4721 59.5854 60.6878 59.5654 61.3281 59.8599C62.6712 60.4854 63.9486 61.2444 65.141 62.1258C65.7383 62.5687 66.3308 63.012 66.9362 63.4326C67.3619 63.73 67.7672 63.7282 68.2363 63.2855C68.9559 62.6154 69.6322 61.8998 70.2612 61.1432C70.9427 60.3122 71.5268 59.3984 72.1874 58.5446C72.4866 58.1575 72.6235 57.6194 73.1663 57.4067C74.3001 58.566 75.4634 59.699 76.5587 60.8974C77.3176 61.7266 77.9924 62.632 78.6687 63.5228C79.8716 65.0943 80.7378 66.8567 81.4897 68.678C81.7794 69.3851 82.0126 70.113 82.2998 70.8202C82.4237 71.1846 82.6317 71.5142 82.9066 71.7823C83.1816 72.0503 83.5158 72.2492 83.882 72.3626C84.0218 72.3967 84.1466 72.4761 84.2371 72.5884C84.3276 72.7008 84.3788 72.8399 84.383 72.9845C84.4786 73.7463 84.5957 74.5066 84.6673 75.2702C84.8295 77.0408 84.8935 78.8232 85.3163 80.5585C85.4802 81.2259 85.8488 81.5709 86.3494 81.5527C86.455 81.5544 86.559 81.5273 86.6506 81.4744C86.7421 81.4214 86.8177 81.3446 86.8693 81.252C87.2979 80.6062 87.4683 79.8218 87.3464 79.0558C87.1823 77.8212 87.153 76.5819 87.0923 75.3424C87.0571 74.6175 87.01 73.8934 86.9855 73.1824C86.9717 72.6984 87.0346 72.3134 87.5503 71.9862C88.1446 71.6099 88.4327 70.9545 88.6353 70.2129C89.0956 68.6531 89.6864 67.1327 90.2356 65.6031C90.3656 65.1906 90.539 64.7931 90.7529 64.4175C91.0947 63.8771 91.5121 63.3823 91.8916 62.8635C92.2722 62.4 92.6225 61.9122 92.9401 61.4031C94.014 59.4657 95.3406 57.6972 96.6688 55.9504C97.4156 54.9815 98.0785 53.9506 98.823 52.9819C99.1805 52.5035 99.6009 52.0759 100.073 51.711C100.952 51.0553 101.887 50.4804 102.891 49.8159C103.679 50.5704 104.456 51.3426 105.233 52.1197C105.603 52.4961 105.929 52.9169 106.313 53.273C106.944 53.8615 107.444 53.9064 108.085 53.3208C108.647 52.7667 109.171 52.1742 109.652 51.5475C109.99 51.1415 110.301 50.7148 110.586 50.2697C111.023 49.6038 111.403 48.9153 111.808 48.2443C111.888 48.0811 112.01 47.9426 112.162 47.8437ZM107.832 61.4C107.864 61.3631 107.886 61.3185 107.896 61.2704C107.905 61.2224 107.902 61.1726 107.887 61.1261C107.872 61.0796 107.844 61.038 107.808 61.0054C107.772 60.9728 107.727 60.9504 107.68 60.9403C107.488 60.88 107.282 60.8867 107.094 60.9593C106.907 61.0319 106.75 61.1661 106.648 61.3401C106.491 61.6614 106.395 62.0125 106.253 62.3376C105.999 62.9252 105.73 63.5066 105.451 64.1274C106.085 64.5678 106.592 64.6122 106.903 64.1855C107.35 63.6177 107.619 62.9297 107.677 62.2085C107.677 61.9224 107.637 61.6609 107.832 61.4ZM103.791 83.7321C103.938 83.4321 104.061 83.1211 104.159 82.8019C103.681 82.3384 103.239 82.4616 102.845 82.7051C102.031 83.2152 101.365 83.9308 100.912 84.7804C100.813 84.9709 100.753 85.1796 100.737 85.3939C100.698 85.8452 100.894 86.0642 101.338 86.1057C101.586 86.1503 101.841 86.1225 102.074 86.0258C102.307 85.9292 102.507 85.7675 102.652 85.5601C103.05 84.9576 103.436 84.3535 103.791 83.7321ZM87.6851 99.1675C87.8486 98.5596 87.2711 97.7006 86.722 97.7513C86.2895 97.7752 85.8818 97.9623 85.5804 98.2752C84.8399 99.0545 84.0874 99.8347 83.2885 100.676C83.5195 101.055 83.847 101.047 84.2122 100.883C84.5102 100.759 84.8305 100.697 85.153 100.703C85.9962 100.688 86.7997 100.339 87.3883 99.7314C87.5315 99.5741 87.6337 99.3837 87.6858 99.1771L87.6851 99.1675ZM78.7804 85.1488C79.2552 85.0354 79.4217 84.7886 79.2739 84.3213C79.0627 83.667 78.8301 83.019 78.5706 82.259C78.2678 82.2414 77.9379 82.2161 77.6022 82.2106C77.4652 82.1988 77.3275 82.2221 77.2018 82.2783C77.0761 82.3345 76.9667 82.4218 76.8836 82.5319C76.8005 82.6421 76.7466 82.7717 76.7268 82.9084C76.707 83.0452 76.7221 83.1847 76.7705 83.3139C76.9117 83.7463 77.102 84.1609 77.3376 84.5494C77.7153 85.1678 78.1083 85.3051 78.7804 85.1488ZM63.8644 93.6805C64.2913 93.573 64.6363 93.3257 64.5481 93.0943C64.4181 92.7971 64.2361 92.5257 64.0107 92.2931C63.4076 91.6591 62.7477 91.0774 62.1603 90.4277C61.487 89.6846 60.8659 88.8942 60.2243 88.1222C60.1876 88.0668 60.1402 88.0194 60.085 87.9826C60.0299 87.9458 59.968 87.9203 59.9029 87.9078C59.8379 87.8952 59.771 87.8957 59.7061 87.9093C59.6412 87.9229 59.5797 87.9493 59.525 87.987C59.2631 88.1436 59.0664 88.3368 59.1942 88.6891C59.3257 88.9981 59.4415 89.3137 59.5412 89.6345C59.9788 91.2694 61.0855 92.3506 62.4805 93.1667C62.925 93.3771 63.3872 93.5475 63.8616 93.6759L63.8644 93.6805ZM60.4936 73.7575C60.9056 73.6777 60.9979 73.3706 60.8273 72.9922C60.7107 72.7337 60.5989 72.4748 60.4681 72.1858C60.3673 72.1534 60.2619 72.1378 60.1561 72.1398C59.7837 72.1981 59.4145 72.2759 59.0501 72.3727C58.7422 72.4573 58.8695 72.766 58.7844 72.9683C58.7428 73.0658 58.567 73.1048 58.3207 73.2434C58.6185 73.491 58.9694 73.6659 59.3459 73.7543C59.7225 73.8427 60.1144 73.8422 60.4909 73.7529L60.4936 73.7575Z" fill="#FFFDE1"/>
<path d="M110.382 39.2192C110.761 41.4909 111.13 43.7732 111.203 46.0738C111.231 46.5506 111.145 47.0275 110.951 47.4637C110.085 49.2582 108.95 50.908 107.584 52.3552C107.491 52.4441 107.392 52.5279 107.29 52.6061C107.088 52.4596 106.906 52.2874 106.748 52.0938C106.145 51.1168 105.354 50.2707 104.421 49.6048C104.223 49.4329 104.039 49.2465 103.869 49.0472C103.26 48.4305 102.777 48.4256 102.151 49.015C101.796 49.3602 101.409 49.6693 100.993 49.9376C103.073 46.5549 104.732 43.0126 105.655 39.0032C105.847 39.2709 105.944 39.4217 106.055 39.5594C106.51 40.119 107.04 40.1448 107.486 39.5752C108.183 38.6898 108.843 37.7828 109.517 36.8748C109.567 36.8058 109.623 36.7388 109.778 36.5388C110.005 37.5194 110.243 38.3609 110.382 39.2192Z" fill="#E5AD83"/>
<path d="M110.234 32.8119C110.291 33.2331 110.217 33.662 110.021 34.0391C109.347 35.6115 108.229 36.8731 107.281 38.2537C107.174 38.4092 107.043 38.5468 106.863 38.768C106.716 38.5763 106.581 38.3752 106.46 38.1659C105.926 37.0914 105.275 36.08 104.519 35.1504C103.823 34.2973 103.157 33.4179 102.489 32.5411C102.158 32.1085 101.671 32.0385 101.276 32.4347C100.919 32.7871 100.603 33.1851 100.272 33.5623C99.1134 34.8737 97.9557 36.185 96.7988 37.4963C96.6287 37.69 96.4252 37.8546 96.1873 38.0798C95.7622 37.4745 95.408 36.8811 94.9671 36.3617C94.3784 35.6702 93.7526 35.0116 93.0924 34.3889C92.5767 33.9038 91.9285 34.0221 91.5105 34.6139C91.1391 35.1443 90.7751 35.679 90.4389 36.2311C89.7889 37.3096 88.8495 38.1441 88.02 39.0679C87.5028 39.6355 86.9521 40.1713 86.3708 40.6723C85.9162 41.0801 85.7614 41.04 85.3432 40.6403C84.0834 39.4365 82.8143 38.2382 81.5563 37.027C81.3551 36.8235 81.1699 36.6047 81.0025 36.3724C80.5963 35.8312 80.0022 35.8584 79.6394 36.2693C78.6942 37.371 77.4997 38.1798 76.4592 39.1596C75.7427 39.8306 75.0705 40.5493 74.362 41.2319C73.5543 42.0159 73.3718 42.0288 72.4594 41.3897C71.5958 40.7933 70.8499 40.048 69.8952 39.5647C69.405 39.313 68.9312 39.0305 68.4765 38.7188C67.6647 38.1745 66.8499 37.6207 66.0693 37.0379C65.5608 36.659 65.0459 36.6443 64.6465 37.0845C63.0739 38.798 61.5957 40.5966 60.2185 42.4723C60.1484 42.5494 60.0727 42.6212 59.9919 42.687C59.7702 42.5305 59.56 42.3581 59.3631 42.1711C58.2473 40.9572 56.8796 40.081 55.5028 39.2127C55.3797 39.1391 55.2519 39.0735 55.1202 39.0165C54.1555 38.5994 53.8894 38.6593 53.196 39.4571C52.3145 40.467 51.403 41.462 50.506 42.4584C50.3481 42.6346 50.14 42.7576 49.91 42.8106C49.9929 42.2593 50.0563 41.7044 50.1637 41.1587C50.4515 39.6522 50.7368 38.1436 51.0616 36.6491C51.2283 36.026 51.4279 35.4123 51.6596 34.8106C51.7738 34.4704 51.8905 34.13 52.0123 33.7942C52.7111 31.8825 53.5382 30.0205 54.4877 28.221C55.0687 27.1207 55.5397 25.9651 56.163 24.8836C57.0971 23.2664 58.099 21.688 59.1086 20.1163C60.2983 18.2884 61.6324 16.5594 63.0978 14.946C64.169 13.7459 65.1909 12.4958 66.4842 11.5443C68.026 10.4153 69.6074 9.33691 71.1891 8.26332C71.9409 7.75473 72.7304 7.3041 73.5048 6.84483C75.5399 5.67464 77.7179 4.77595 79.9837 4.17151C80.5414 4.03409 81.1144 3.96941 81.6884 3.97907C82.6206 3.96483 83.5528 4.00298 84.4806 4.09335C85.787 4.23764 87.0705 4.54328 88.302 5.00333C89.1067 5.30323 89.9299 5.55577 90.7347 5.85808C91.185 6.01401 91.6178 6.21684 92.026 6.46325C93.0102 7.09482 93.962 7.78201 94.936 8.44097C95.0522 8.51934 95.1495 8.6226 95.2212 8.74332C95.2929 8.86404 95.3371 8.99924 95.3506 9.13921C95.4997 10.139 95.4878 11.1565 95.3155 12.1529C95.2429 12.6429 95.4015 12.9857 95.7848 13.1576C96.1681 13.3295 96.7429 13.231 96.9747 12.9165C97.2029 12.5807 97.4022 12.2261 97.5705 11.8564C97.6901 11.552 97.7929 11.2413 97.8784 10.9256C98.1419 11.2513 98.3378 11.5043 98.5319 11.767C100.008 13.7727 101.531 15.7484 102.945 17.7972C104.043 19.3906 105.015 21.0753 106.033 22.7276C106.448 23.4016 106.815 24.1056 107.239 24.774C108.779 27.2164 109.798 29.9531 110.234 32.8119ZM99.3273 27.7274C99.7061 27.3396 99.7015 27.3423 99.387 26.7316C99.3251 26.5778 99.2763 26.4191 99.2412 26.2569C99.0273 26.2145 98.807 26.2153 98.5934 26.2595C98.3797 26.3036 98.1769 26.3902 97.9969 26.514C97.4015 26.9462 97.4388 27.5618 98.0929 27.9183C98.2941 28.0137 98.519 28.0464 98.7389 28.0124C98.9589 27.9784 99.1637 27.8791 99.3273 27.7274ZM81.75 25.7176C81.5415 24.857 80.8891 24.4907 80.0616 24.8446C79.0303 25.2879 77.8537 25.5112 77.1322 26.6383C77.2901 27.5364 77.6973 27.8448 78.6064 27.6961C78.86 27.636 79.1078 27.5537 79.3472 27.4501C80.3218 27.0956 80.9487 26.2782 81.75 25.7176ZM78.0724 10.4785C77.9943 10.0427 77.8999 9.57898 77.8293 9.11116C77.7763 8.7609 77.6799 8.44521 77.2818 8.37376C77.0903 8.35103 76.8969 8.39554 76.7343 8.49976C76.5717 8.60398 76.4499 8.76149 76.3895 8.94555C76.2413 9.39699 76.1358 9.86142 76.0743 10.3327C76.0527 10.4153 76.0512 10.502 76.0702 10.5853C76.0891 10.6686 76.1278 10.746 76.183 10.811C76.2381 10.8759 76.3081 10.9265 76.387 10.9584C76.4659 10.9902 76.5512 11.0024 76.6359 10.9939C76.8695 10.9767 77.0983 10.9179 77.3116 10.8204C77.5475 10.7408 77.7613 10.6215 78.0724 10.4785ZM64.7968 23.2373C64.9997 23.1358 65.2275 23.0786 65.1529 22.8001C65.1141 22.5689 65.0161 22.3519 64.8685 22.1703C64.2726 21.6061 63.6408 21.0831 63.0223 20.5422L62.5723 20.6296C62.4307 20.6462 62.2906 20.6739 62.1533 20.7123C61.7111 20.8792 61.5743 21.0658 61.7262 21.523C61.8934 22.0672 62.1309 22.5869 62.4328 23.0687C62.8865 23.74 63.5271 23.935 64.1752 23.6737C64.4035 23.5898 64.5706 23.3526 64.7968 23.2373Z" fill="#FFFDE1"/>
<path d="M107.679 60.9405C107.727 60.9506 107.771 60.973 107.808 61.0056C107.844 61.0382 107.871 61.0798 107.887 61.1263C107.902 61.1729 107.905 61.2226 107.895 61.2707C107.886 61.3187 107.864 61.3634 107.831 61.4002C107.637 61.6564 107.677 61.9227 107.668 62.2143C107.609 62.9356 107.34 63.6236 106.893 64.1915C106.592 64.6176 106.084 64.5756 105.441 64.1334C105.72 63.5125 105.989 62.9311 106.243 62.3434C106.385 62.0134 106.481 61.6623 106.638 61.3458C106.739 61.1689 106.898 61.0321 107.088 60.9584C107.277 60.8846 107.486 60.8783 107.679 60.9405Z" fill="#4D3826"/>
<path d="M104.765 37.2953C104.605 37.9902 104.502 38.526 104.36 39.0549C103.962 40.5375 103.569 42.0198 102.934 43.4245C102.888 43.505 102.849 43.5888 102.816 43.6753C102.278 45.6259 101.132 47.2751 100.188 49.0264C99.5353 50.2481 98.6802 51.3628 97.8796 52.4979C97.0004 53.7525 96.0584 54.9727 95.1565 56.2143C94.4085 57.2366 93.6741 58.2798 92.9416 59.318C92.7358 59.6136 92.5458 59.9199 92.3723 60.2357C91.8341 61.2289 91.1816 62.1552 90.4282 62.9955C89.7999 63.6869 89.4653 64.5445 89.1446 65.3937C88.5515 66.987 88.0254 68.6072 87.4842 70.2187C87.1739 71.1497 86.8539 71.4097 85.8793 71.4466C85.6166 71.4579 85.3534 71.4521 85.0915 71.4292C84.1518 71.3425 83.5853 70.7858 83.2614 69.9309C82.8701 68.9013 82.5374 67.8482 82.0854 66.8495C81.2338 64.9818 80.2001 63.2045 78.7949 61.6739C78.3282 61.166 77.9476 60.5745 77.4787 60.0692C76.8997 59.4358 76.2617 58.8575 75.6644 58.2376C75.067 57.6176 74.4836 56.9894 73.9022 56.3563C72.4347 54.7622 70.9456 53.1696 69.5113 51.5319C68.7711 50.6843 68.0846 49.7907 67.4559 48.8565C66.242 47.0555 64.8985 45.3339 63.9273 43.3752C63.8969 43.3097 63.8604 43.2473 63.818 43.1889C63.4013 42.5999 63.2211 42.5762 62.4965 43.0587C63.241 44.2768 63.9848 45.4975 64.728 46.7206C64.973 47.1276 65.1993 47.5433 65.449 47.9477C65.7635 48.4541 66.06 48.9788 66.4228 49.4503C67.5639 50.9292 68.6425 52.4463 69.9964 53.7551C70.2545 54.0012 70.4679 54.299 70.7013 54.5711L72.2213 56.3337C71.7481 57.5282 70.8498 58.469 70.1158 59.5194C69.3818 60.5698 68.7898 61.6854 67.791 62.3932C66.1257 61.3634 64.5152 60.3588 62.8965 59.3765C62.539 59.1906 62.1693 59.0294 61.7898 58.8942C61.5867 58.8219 61.3889 58.7353 61.1978 58.6351C61.0112 58.5173 60.8894 58.2179 60.6151 58.3705C60.278 58.5567 59.8548 58.5064 59.6053 58.9506C58.9405 60.1319 57.9849 61.0816 56.9561 61.949C56.4566 62.372 56.3384 62.3367 55.7862 61.9536C55.3583 61.6587 54.8931 61.4199 54.3827 61.1187C55.0109 60.2139 55.533 59.2753 56.3475 58.5562C56.775 58.1747 57.1399 57.7248 57.565 57.3434C57.8871 57.0615 58.2341 56.8099 58.6018 56.5917C59.0655 56.3167 59.2588 56.0389 59.1247 55.7719C58.9907 55.5049 58.6391 55.515 58.1571 55.7356C57.6752 55.9561 57.3033 56.4453 56.7034 56.4583C56.6122 56.4647 56.5151 56.5976 56.4317 56.6835C55.9808 57.1467 55.5296 57.6051 55.0964 58.0792C54.222 59.0353 53.4773 60.1034 52.8817 61.2556C52.1288 62.7001 51.4259 64.1702 50.545 65.5413C50.242 66.0573 50.0152 66.6147 49.8716 67.196C49.6111 68.1138 49.2873 69.0239 49.2964 70.0028C49.306 70.1427 49.159 70.2864 49.0246 70.5431C48.8199 70.3029 48.6736 70.1387 48.5363 69.9665C48.1114 69.4338 47.6956 69.3515 47.0957 69.6821C46.3541 70.093 45.9504 69.9056 45.7848 69.0711C45.7582 68.9299 45.7649 68.7815 45.7288 68.641C45.6016 67.9808 45.3189 67.7994 44.6665 67.9616C44.491 68.014 44.3189 68.0771 44.151 68.1505C44.0858 68.1139 44.0147 68.0971 44.0103 68.0683C43.9076 67.4136 43.5384 67.1316 42.8801 66.996C42.146 66.8463 41.4402 66.5104 40.6786 66.2414C40.6765 65.9991 40.6816 65.7563 40.6663 65.5319C40.6513 65.2697 40.6205 65.0088 40.5742 64.7504C40.5658 64.6546 40.5385 64.5615 40.494 64.4764C40.4494 64.3914 40.3885 64.3161 40.3147 64.255C40.2409 64.1938 40.1558 64.1481 40.0642 64.1203C39.9726 64.0925 39.8765 64.0833 39.7813 64.0932C39.6003 64.0755 39.4219 64.0368 39.2498 63.9778C39.1656 63.5231 39.3804 63.2413 39.6018 62.9518C40.4226 61.9001 41.2738 60.8705 42.058 59.7778C43.5225 57.7669 44.9691 55.7403 46.3778 53.6896C46.7513 53.161 47.0217 52.5662 47.1747 51.9365C47.4548 50.7935 47.8381 49.6783 48.3196 48.6049C48.8078 47.3279 49.3668 46.0794 49.9939 44.8651C50.3739 44.1766 50.7217 43.4418 51.326 42.8587C52.1703 42.0454 52.9161 41.1323 53.6982 40.2555C54.2674 39.6167 54.4206 39.635 55.1332 40.0699C56.6904 41.0006 57.9676 42.2469 59.21 43.5489C59.8236 44.1943 60.3051 44.0732 60.7759 43.4777C62.0215 41.8992 63.2417 40.303 64.4849 38.7247C64.7468 38.3911 65.0648 38.1021 65.3841 37.762C65.7158 38.0249 65.9761 38.2684 66.2692 38.4612C67.1099 39.0059 67.9813 39.5047 68.8091 40.0721C69.9509 40.8551 71.0642 41.6812 72.1884 42.4897C72.9852 43.0617 73.4649 43.091 74.2811 42.5367C74.6544 42.279 75.0027 41.9866 75.3216 41.6635C76.0699 40.9273 76.7944 40.1612 77.5374 39.4181C77.7634 39.2042 78.0009 39.003 78.2489 38.8153C78.8774 38.3033 79.511 37.7957 80.2197 37.2222C80.7513 37.551 81.2201 38.0903 81.7283 38.571C82.782 39.5832 83.8108 40.6189 84.8667 41.6286C85.4449 42.1795 85.7955 42.2252 86.4622 41.7784C87.0235 41.4136 87.5483 40.9951 88.0295 40.5288C88.9598 39.5979 89.869 38.6395 90.7272 37.6409C91.1962 37.0346 91.6314 36.4026 92.0309 35.748L92.4303 35.1672C93.5253 36.0431 94.2022 37.1205 94.9159 38.1711C95.0677 38.4154 95.2393 38.6466 95.4289 38.8625C95.8819 39.3471 96.2283 39.3664 96.7357 38.955C97.7284 38.1579 98.544 37.1721 99.3606 36.2007C100.131 35.2908 100.927 34.4081 101.778 33.4489L104.765 37.2953ZM95.5564 53.7714C94.9637 53.4664 94.8424 53.4918 94.5164 53.9123C94.328 54.1559 94.1117 54.3796 93.9156 54.6164C93.4322 55.2032 92.9361 55.7811 92.4757 56.388C92.3749 56.5987 92.3089 56.8244 92.2802 57.0563C92.7436 57.1644 93.0724 57.2795 93.3796 56.8676C93.839 56.2337 94.3402 55.6315 94.88 55.0651C95.2226 54.7067 95.4571 54.2581 95.5564 53.7714ZM86.4767 70.304C86.6349 69.6892 86.7293 69.0594 86.8465 68.4451C86.2057 68.2476 86.0411 68.2762 85.9129 68.6585C85.6877 69.3017 85.5924 69.9835 85.6327 70.6639C86.0799 70.8167 86.38 70.689 86.4767 70.304ZM85.0912 70.9662C85.2523 70.1475 84.8881 69.4797 84.5114 68.8394C84.4405 68.7207 84.0748 68.7003 83.8731 68.7508C83.636 68.8111 83.6058 69.0751 83.6858 69.2925C83.8316 69.6945 84.0197 70.0813 84.1598 70.4715C84.2999 70.8617 84.5478 71.0649 85.0915 70.971L85.0912 70.9662ZM76.0041 58.0537C76.4712 58.6392 77.042 58.5894 77.4624 57.8568L75.5515 55.6004C75.2338 55.2251 74.9636 55.2247 74.5301 55.4127C74.1714 55.5664 74.0964 55.9159 74.4091 56.1485C75.0956 56.6604 75.4894 57.4086 76.0068 58.0584L76.0041 58.0537Z" fill="#E5AD83"/>
<path d="M104.159 82.8017C104.061 83.121 103.938 83.432 103.791 83.732C103.435 84.3534 103.049 84.9576 102.651 85.5506C102.506 85.758 102.306 85.9196 102.073 86.0163C101.84 86.113 101.585 86.1408 101.337 86.0962C100.892 86.0547 100.696 85.8357 100.736 85.3844C100.752 85.17 100.811 84.9613 100.911 84.7707C101.363 83.921 102.03 83.2054 102.844 82.6952C103.238 82.4614 103.681 82.3382 104.159 82.8017Z" fill="#4D3826"/>
<path d="M99.3919 26.7258C99.7063 27.3366 99.711 27.3338 99.3321 27.7217C99.1686 27.8744 98.9635 27.9744 98.743 28.0088C98.5226 28.0433 98.2971 28.0107 98.0954 27.9153C97.4436 27.5585 97.4063 26.9428 97.9993 26.5108C98.1794 26.3869 98.3822 26.3004 98.5959 26.2562C98.8095 26.2121 99.0298 26.2112 99.2437 26.2537C99.2797 26.415 99.3292 26.573 99.3919 26.7258Z" fill="#4D3826"/>
<path d="M94.5162 53.9125C94.8421 53.492 94.9683 53.4661 95.5562 53.7716C95.4544 54.2553 95.2189 54.7004 94.8768 55.0559C94.3369 55.6223 93.8356 56.2246 93.3761 56.8586C93.0689 57.2705 92.7395 57.1457 92.2767 57.0473C92.3054 56.8154 92.3714 56.5896 92.4722 56.3789C92.9326 55.7719 93.4287 55.1939 93.9122 54.6072C94.1114 54.3798 94.3278 54.1561 94.5162 53.9125Z" fill="#4D3826"/>
<path d="M86.8468 68.4506C86.7295 69.065 86.6351 69.6948 86.4769 70.3096C86.3798 70.6899 86.0789 70.8056 85.6328 70.6696C85.5926 69.9891 85.6878 69.3073 85.913 68.6641C86.0413 68.2816 86.2065 68.2628 86.8468 68.4506Z" fill="#4D3826"/>
<path d="M85.7588 72.5167C86.0365 72.5191 86.0155 72.7412 86.0288 72.9366C86.058 74.2802 86.0607 75.6231 86.1259 76.9642C86.1674 77.8171 86.3049 78.6633 86.3994 79.5149L86.1789 79.5716C86.0708 78.8737 85.9316 78.1804 85.8646 77.482C85.7205 75.9768 85.6199 74.4709 85.4879 72.9649C85.459 72.7196 85.4474 72.5144 85.7588 72.5167Z" fill="#FF8888"/>
<path d="M86.7211 97.7612C87.2702 97.7106 87.8477 98.5695 87.6842 99.1774C87.6331 99.3876 87.5303 99.5816 87.385 99.7415C86.7953 100.345 85.9926 100.691 85.1514 100.703C84.8298 100.698 84.5104 100.759 84.2131 100.883C83.8479 101.047 83.5203 101.055 83.2893 100.676C84.0888 99.842 84.8414 99.0642 85.5813 98.2752C85.8838 97.9664 86.2906 97.7829 86.7211 97.7612Z" fill="#4D3826"/>
<path d="M84.512 68.8444C84.8889 69.4847 85.2531 70.1526 85.0919 70.9714C84.5482 71.0653 84.2995 70.8864 84.1613 70.4887C84.023 70.0911 83.8322 69.6996 83.6872 69.3096C83.6072 69.0922 83.635 68.8284 83.8746 68.7679C84.0754 68.7053 84.4412 68.7257 84.512 68.8444Z" fill="#4D3826"/>
<path d="M80.0624 24.8442C80.8899 24.4903 81.5423 24.8567 81.7508 25.7173C80.9495 26.2778 80.3231 27.1025 79.3479 27.4498C79.1086 27.5533 78.8607 27.6356 78.6072 27.6958C77.6956 27.8446 77.2916 27.5457 77.1329 26.6379C77.8544 25.5108 79.0263 25.2879 80.0624 24.8442Z" fill="#4D3826"/>
<path d="M77.8306 9.11053C77.9013 9.5784 77.9957 10.0422 78.0738 10.478C77.7627 10.6211 77.5416 10.7408 77.3085 10.8251C77.096 10.9195 76.8687 10.9757 76.637 10.9911C76.5522 11 76.4665 10.9881 76.3873 10.9564C76.3082 10.9247 76.2378 10.8742 76.1824 10.8092C76.1269 10.7442 76.088 10.6667 76.0689 10.5832C76.0499 10.4997 76.0512 10.4128 76.0729 10.3299C76.1344 9.85863 76.24 9.39415 76.3882 8.94267C76.449 8.759 76.571 8.602 76.7337 8.49824C76.8963 8.39447 77.0895 8.35032 77.2807 8.37324C77.6813 8.44452 77.7777 8.76024 77.8306 9.11053Z" fill="#4D3826"/>
<path d="M79.2711 84.3176C79.4194 84.7922 79.262 85.0311 78.7776 85.1452C78.1081 85.3061 77.715 85.1688 77.3346 84.5457C77.0989 84.1572 76.9086 83.7426 76.7674 83.3102C76.719 83.1809 76.704 83.0414 76.7237 82.9046C76.7435 82.7678 76.7975 82.6383 76.8805 82.5281C76.9636 82.4179 77.0731 82.3306 77.1988 82.2744C77.3244 82.2182 77.4622 82.1949 77.5992 82.2067C77.9302 82.2126 78.2601 82.2379 78.5677 82.2551C78.8273 83.0152 79.0606 83.6753 79.2711 84.3176Z" fill="#4D3826"/>
<path d="M77.4651 57.8616C77.0447 58.5943 76.4738 58.6441 76.0066 58.0586C75.4796 57.4094 75.0958 56.6677 74.4016 56.1491C74.0889 55.9164 74.1639 55.5669 74.5225 55.4132C74.9561 55.2251 75.2336 55.225 75.544 55.6009L77.4651 57.8616Z" fill="#4D3826"/>
<path d="M65.1542 22.8006C65.2288 23.079 65.0011 23.1362 64.7981 23.2378C64.5951 23.3393 64.4047 23.5903 64.1745 23.6816C63.5259 23.9357 62.8852 23.7406 62.4319 23.0766C62.13 22.5946 61.8925 22.0749 61.7253 21.5307C61.571 21.0736 61.7078 20.887 62.1524 20.72C62.2898 20.6815 62.4299 20.6538 62.5715 20.6372L63.0193 20.5524C63.6379 21.0933 64.2697 21.6164 64.8657 22.1807C65.0132 22.359 65.1126 22.5724 65.1542 22.8006Z" fill="#4D3826"/>
<path d="M64.5347 93.0901C64.6329 93.3256 64.2876 93.5681 63.851 93.6763C63.3712 93.5467 62.904 93.3743 62.4549 93.1609C61.06 92.3449 59.9533 91.2637 59.5157 89.6287C59.416 89.3079 59.3002 88.9924 59.1687 88.6833C59.036 88.3314 59.2375 88.1378 59.4995 87.9812C59.5541 87.9436 59.6157 87.9172 59.6806 87.9036C59.7454 87.89 59.8123 87.8894 59.8774 87.902C59.9424 87.9146 60.0043 87.94 60.0595 87.9768C60.1147 88.0136 60.162 88.061 60.1988 88.1164C60.8403 88.8884 61.4614 89.6788 62.1348 90.4219C62.7221 91.0717 63.382 91.6533 63.9852 92.2874C64.215 92.5194 64.4012 92.7914 64.5347 93.0901Z" fill="#4D3826"/>
<path d="M60.817 72.9886C60.9876 73.367 60.8952 73.6741 60.4832 73.754C60.1071 73.8412 59.7161 73.8399 59.3408 73.7502C58.9655 73.6604 58.6159 73.4847 58.3196 73.2367C58.5516 73.1016 58.7323 73.0622 58.7833 72.9616C58.8684 72.7593 58.7483 72.4501 59.049 72.3659C59.4135 72.2691 59.7827 72.1914 60.1552 72.133C60.261 72.131 60.3664 72.1466 60.4672 72.179C60.5957 72.4707 60.7075 72.7295 60.817 72.9886Z" fill="#4D3826"/>
</svg>
