<svg width="232" height="286" viewBox="0 0 232 286" fill="none" xmlns="http://www.w3.org/2000/svg">
<path d="M231.21 123.029C231.614 123.994 231.691 125.066 231.427 126.079C231.163 127.093 230.573 127.991 229.749 128.636C229.535 128.863 229.367 129.13 229.256 129.421C229.146 129.713 229.094 130.024 229.104 130.335C229.206 132.154 228.832 133.496 226.743 133.819C226.023 134.002 225.332 134.282 224.688 134.652C224.042 134.889 223.466 135.286 223.015 135.806C222.563 136.326 222.251 136.952 222.106 137.625C221.291 141.024 218.71 142.876 215.568 143.964C214.804 144.219 214.022 144.389 213.258 144.627C212.704 144.712 212.191 144.969 211.791 145.363C211.392 145.756 211.127 146.266 211.033 146.819C210.646 147.88 209.917 148.783 208.961 149.385C207.806 150.268 206.397 150.778 205.191 151.594C204.002 152.445 202.868 153.371 201.794 154.363C199.909 156.063 198.143 157.762 196.172 159.325C194.921 160.093 193.628 160.791 192.3 161.416C191.536 161.874 190.602 162.333 190.245 163.115C188.322 166.979 186.621 170.951 185.15 175.01C184.729 176.995 184.683 179.041 185.014 181.042C185.186 182.401 185.027 183.781 184.551 185.065C184.075 186.35 183.296 187.499 182.28 188.417C181.745 188.877 181.306 189.438 180.988 190.068C180.67 190.697 180.48 191.384 180.429 192.088C180.38 193.28 180.081 194.448 179.552 195.516C179.022 196.585 178.273 197.53 177.355 198.29C176.98 198.595 176.668 198.97 176.437 199.395L174.399 199.106C174.721 198.254 175.232 197.487 175.894 196.863C176.699 196.278 177.356 195.512 177.81 194.626C178.265 193.741 178.504 192.76 178.509 191.765C178.476 190.919 178.647 190.077 179.007 189.311C179.368 188.544 179.908 187.877 180.581 187.364C181.416 186.712 182.07 185.858 182.483 184.883C182.896 183.907 183.054 182.843 182.942 181.79C182.636 178.782 182.195 175.825 183.605 172.954C184.335 171.475 184.929 169.946 185.575 168.434L185.184 168.553C185.877 167.308 186.445 165.999 186.882 164.644C187.899 163.782 188.756 162.746 189.413 161.585C190.163 160.365 191.232 159.372 192.504 158.714C193.54 157.966 194.644 157.32 195.663 156.539C199.06 153.99 201.641 150.625 205.53 148.773C207.45 147.855 209.25 146.802 209.454 144.236C209.454 143.692 210.524 143.097 211.152 142.74C211.808 142.555 212.478 142.424 213.156 142.349C215.755 141.449 218.676 140.65 219.406 137.625C219.69 136.285 220.353 135.055 221.317 134.082C222.281 133.108 223.504 132.433 224.841 132.137C226.352 131.678 226.539 130.777 226.539 129.435C226.483 128.574 226.756 127.723 227.303 127.056C228.001 126.55 228.504 125.821 228.73 124.989C228.955 124.158 228.889 123.274 228.543 122.485C228.233 121.685 228.098 120.828 228.148 119.972C228.198 119.116 228.431 118.281 228.832 117.523C229.245 116.826 229.45 116.025 229.423 115.215C229.396 114.405 229.138 113.62 228.679 112.952L230.276 111.898C230.581 112.374 230.904 112.833 231.193 113.292C232.636 115.518 231.804 117.744 231.295 120.089C231.039 121.049 231.01 122.055 231.21 123.029Z" fill="#692B40"/>
<path d="M230.157 111.643L228.561 112.697C228.397 112.43 228.215 112.175 228.017 111.932C226.877 110.595 225.87 109.15 225.011 107.616C224.758 107.181 224.6 106.697 224.548 106.196C224.495 105.695 224.549 105.189 224.706 104.71C225.538 103.334 224.926 102.637 224.094 101.77C223.251 100.772 222.349 99.824 221.394 98.9326C219.949 97.6275 218.986 95.8736 218.659 93.9537C218.549 93.4876 218.616 92.9972 218.846 92.5773C219.261 92.0804 219.566 91.502 219.743 90.8794C219.92 90.2569 219.964 89.604 219.873 88.9633C219.782 88.3225 219.557 87.7081 219.214 87.1597C218.87 86.6114 218.415 86.1414 217.878 85.7801C215.823 84.0809 213.853 82.1267 211.866 80.2744C211.572 80.0632 211.325 79.7926 211.141 79.4803C210.957 79.1679 210.841 78.8205 210.799 78.4605C210.758 78.1005 210.792 77.7358 210.9 77.3897C211.007 77.0436 211.186 76.7239 211.424 76.451C211.615 76.2735 211.763 76.0545 211.855 75.8108C211.948 75.5671 211.984 75.3053 211.959 75.0457C211.934 74.7862 211.85 74.5357 211.713 74.3138C211.577 74.092 211.39 73.9046 211.17 73.7662C209.471 72.3558 207.773 70.9114 206.074 69.5859C204.154 68.068 202.14 66.6718 200.045 65.4057C199.023 64.9951 198.199 64.2061 197.743 63.2028C197.288 62.1995 197.236 61.0592 197.6 60.0189C197.743 59.5777 197.794 59.1118 197.75 58.6501C197.706 58.1884 197.568 57.7405 197.345 57.334C196.177 56.0312 194.747 54.9891 193.15 54.2753C190.824 53.5314 188.445 52.9634 186.034 52.576C185.647 52.5237 185.276 52.3921 184.942 52.1896C184.609 51.9871 184.321 51.718 184.096 51.399C183.871 51.08 183.715 50.7181 183.636 50.3359C183.557 49.9536 183.559 49.5593 183.639 49.1774C183.996 48.1239 183.639 47.6991 182.909 47.2063C181.2 46.0328 179.126 45.5141 177.066 45.7449C174.876 45.9148 172.821 45.9148 171.632 43.5868C171.513 43.3829 171.139 43.3149 170.901 43.179C166.614 40.9532 161.743 40.1103 156.958 40.766C156.343 40.8758 155.71 40.7786 155.157 40.4895C154.603 40.2005 154.162 39.7359 153.901 39.1686C153.448 38.267 152.754 37.5083 151.897 36.9765C149.666 35.7643 147.076 35.3906 144.594 35.923C141.76 36.6988 138.981 37.6581 136.272 38.7948C134.166 39.6784 132.875 39.4405 132.043 37.3504C131.856 36.8832 131.543 36.4779 131.137 36.1804C130.732 35.883 130.251 35.7055 129.75 35.6681L129.886 33.6289C130.672 33.7789 131.425 34.0665 132.111 34.4786C132.45 34.6825 132.909 34.8184 133.096 35.1243C134.047 36.6367 135.083 36.3818 136.611 35.855C139.633 34.6538 142.804 33.8705 146.037 33.527C147.893 33.3459 149.764 33.6446 151.471 34.3944C153.177 35.1442 154.663 36.32 155.786 37.8092C156.188 38.132 156.7 38.2845 157.213 38.234C161.598 37.911 165.999 38.609 170.069 40.2732C170.34 40.3491 170.593 40.4759 170.816 40.647C173.789 43.3489 177.61 43.5528 181.244 44.0456C182.597 44.3826 183.831 45.0858 184.81 46.0779C185.79 47.0701 186.478 48.3129 186.798 49.6702C186.798 50.0101 187.528 50.4179 187.97 50.5029C190.806 51.0637 193.863 51.2506 196.139 53.1708C197.783 54.7102 199.211 56.465 200.385 58.3876C200.497 58.7693 200.53 59.17 200.48 59.5648C200.43 59.9595 200.3 60.3398 200.096 60.6816C199.451 61.8881 199.553 62.4829 200.81 63.2476C205.174 65.8645 209.624 68.3454 212.953 72.4407C214.787 74.6668 214.974 75.6184 213.276 78.5072C215.297 80.3594 217.471 82.1267 219.339 84.1828C220.559 85.5206 221.516 87.0773 222.158 88.7709C222.481 90.0034 222.404 91.3068 221.937 92.4923C221.643 93.2636 221.57 94.1016 221.726 94.9122C221.882 95.7227 222.261 96.4737 222.82 97.0804C224.214 98.5093 225.529 100.013 226.761 101.584C227.27 102.054 227.594 102.693 227.672 103.382C227.75 104.072 227.577 104.766 227.185 105.339C227.083 105.67 227.054 106.02 227.101 106.363C227.148 106.707 227.27 107.036 227.457 107.327C228.255 108.738 229.257 110.216 230.157 111.643Z" fill="#692B40"/>
<path d="M228.56 112.697C229.018 113.365 229.277 114.15 229.304 114.96C229.331 115.77 229.126 116.571 228.713 117.268C228.312 118.026 228.079 118.861 228.029 119.718C227.979 120.574 228.114 121.43 228.424 122.23C228.77 123.019 228.836 123.903 228.611 124.734C228.385 125.566 227.882 126.295 227.184 126.801C226.637 127.468 226.364 128.319 226.42 129.18C226.42 130.522 226.284 131.423 224.722 131.882C223.385 132.178 222.161 132.854 221.198 133.827C220.234 134.8 219.571 136.03 219.287 137.371C218.557 140.412 215.635 141.194 213.037 142.095C212.359 142.169 211.689 142.3 211.033 142.485C210.336 142.842 209.334 143.437 209.334 143.981C209.131 146.547 207.33 147.6 205.411 148.518C201.522 150.37 198.873 153.735 195.544 156.284C194.525 157.065 193.421 157.711 192.385 158.459C191.095 159.138 190.02 160.161 189.277 161.416C188.62 162.576 187.763 163.612 186.746 164.474C186.309 165.83 185.74 167.139 185.048 168.383L185.438 168.264C184.793 169.776 184.199 171.305 183.468 172.784C182.059 175.656 182.5 178.612 182.806 181.62C182.918 182.673 182.76 183.738 182.347 184.713C181.934 185.688 181.279 186.542 180.445 187.194C179.772 187.707 179.232 188.375 178.871 189.141C178.51 189.907 178.34 190.749 178.373 191.595C178.368 192.59 178.129 193.571 177.674 194.456C177.22 195.342 176.563 196.108 175.758 196.693C175.095 197.317 174.584 198.084 174.263 198.936L174.11 199.293C173.601 200.482 173.125 201.128 171.58 201.094C170.878 201.137 170.175 201.137 169.474 201.094C168.787 201.03 168.131 200.784 167.572 200.38C166.727 199.677 165.922 198.929 165.16 198.137C164.439 197.35 163.63 196.649 162.748 196.047C161.85 195.662 161.037 195.104 160.355 194.404C159.673 193.704 159.136 192.877 158.774 191.969C157.483 188.281 153.951 187.279 150.758 185.817C148.886 184.869 147.087 183.784 145.374 182.572C144.817 182.324 144.318 181.962 143.912 181.508C143.505 181.054 143.199 180.519 143.013 179.938C142.511 179.538 142.04 179.1 141.604 178.629C141.383 178.629 141.196 178.629 140.992 178.476C136.942 177.308 132.623 177.481 128.679 178.969C125.282 180.108 121.886 181.433 118.132 181.059C117.42 180.999 116.715 180.874 116.026 180.685C114.973 180.38 114.328 180.091 114.09 178.986C114.098 178.907 114.098 178.827 114.09 178.748C113.92 175.537 113.852 172.291 113.462 169.096C112.901 164.525 112.137 159.971 111.322 155.502C110.727 152.256 109.946 149.028 109.182 145.816C108.74 143.947 108.18 142.095 107.653 140.242C107.025 138.016 106.532 135.722 105.717 133.564C104.664 130.794 103.34 128.143 102.117 125.442C101.379 124.109 100.744 122.723 100.215 121.295C99.2692 118.289 97.4185 115.648 94.9156 113.733C92.187 111.063 89.8125 108.054 87.8504 104.778C85.5237 101.499 83.4687 97.981 81.2098 94.6844C80.6447 94.0017 80.0378 93.3547 79.3926 92.7472C76.7261 89.7225 74.2975 86.5278 71.4103 83.69C69.005 81.5455 66.4818 79.5372 63.8525 77.6745C68.4211 70.8774 73.0577 63.9613 77.864 56.7903C78.4755 57.6569 78.7302 58.0647 79.0359 58.4895C79.8172 59.4751 80.7343 59.3052 81.2608 58.4895C83.5026 54.1394 87.4938 51.6924 91.1622 48.7696C91.7476 48.2254 92.4118 47.7728 93.1323 47.4272C93.769 47.1975 94.4658 47.1975 95.1024 47.4272C95.619 47.7769 96.2417 47.9345 96.8623 47.8724C97.4829 47.8103 98.0621 47.5325 98.4992 47.0873C102.381 43.322 107.487 41.0784 112.884 40.7659C113.103 40.7385 113.325 40.7576 113.536 40.822C113.746 40.8864 113.941 40.9947 114.107 41.1398C115.143 42.4312 116.213 42.1933 117.504 41.4457C119.916 39.9503 122.31 38.4379 124.807 37.0955C126.086 36.4162 127.46 35.9349 128.883 35.6681C129.171 35.6343 129.461 35.6343 129.749 35.6681C130.252 35.7069 130.734 35.887 131.14 36.1875C131.545 36.4881 131.858 36.897 132.042 37.3674C132.925 39.4575 134.165 39.6954 136.271 38.8118C138.98 37.6751 141.76 36.7158 144.593 35.94C147.075 35.4076 149.665 35.7813 151.896 36.9935C152.753 37.5253 153.447 38.284 153.9 39.1856C154.161 39.7529 154.603 40.2175 155.156 40.5065C155.709 40.7956 156.342 40.8928 156.957 40.7829C161.74 40.1605 166.598 41.033 170.866 43.2809C171.104 43.4168 171.478 43.4848 171.597 43.6887C172.786 46.0167 174.841 46.0168 177.032 45.8468C179.091 45.616 181.165 46.1348 182.874 47.3082C183.536 47.801 183.961 48.2258 183.604 49.2794C183.524 49.6612 183.523 50.0556 183.601 50.4378C183.68 50.8201 183.836 51.182 184.061 51.5009C184.286 51.8199 184.574 52.0891 184.907 52.2916C185.241 52.4941 185.612 52.6256 185.999 52.678C188.41 53.0653 190.789 53.6333 193.115 54.3773C194.712 55.091 196.142 56.1332 197.31 57.436C197.533 57.8424 197.671 58.2903 197.715 58.7521C197.759 59.2138 197.708 59.6796 197.565 60.1209C197.201 61.1611 197.253 62.3015 197.708 63.3048C198.164 64.3081 198.988 65.097 200.01 65.5076C202.104 66.7628 204.118 68.1476 206.04 69.6539C207.738 70.9793 209.436 72.4237 211.135 73.8341C211.346 73.9711 211.524 74.1534 211.657 74.3679C211.789 74.5823 211.872 74.8235 211.9 75.074C211.927 75.3245 211.899 75.578 211.817 75.8162C211.734 76.0544 211.6 76.2712 211.423 76.451C211.188 76.7236 211.012 77.0421 210.906 77.3865C210.8 77.7308 210.766 78.0935 210.808 78.4514C210.849 78.8093 210.965 79.1546 211.147 79.4656C211.329 79.7765 211.573 80.0461 211.865 80.2574C213.852 82.1097 215.822 83.9959 217.877 85.7631C218.414 86.1244 218.869 86.5944 219.213 87.1427C219.556 87.6911 219.781 88.3055 219.872 88.9463C219.964 89.5871 219.919 90.2399 219.742 90.8624C219.565 91.485 219.26 92.0634 218.845 92.5603C218.615 92.9802 218.549 93.4706 218.658 93.9367C218.985 95.8566 219.948 97.6105 221.393 98.9157C222.372 99.8105 223.297 100.764 224.161 101.77C224.993 102.637 225.605 103.334 224.773 104.71C224.616 105.189 224.562 105.695 224.615 106.196C224.667 106.697 224.825 107.181 225.078 107.616C225.937 109.15 226.944 110.595 228.084 111.932C228.259 112.177 228.418 112.432 228.56 112.697Z" fill="#C57D7D"/>
<path d="M183.044 277.613C183.146 277.987 182.467 278.853 181.991 279.023C179.953 279.805 178 281.266 175.571 280.026C173.72 279.091 171.801 278.65 170.307 280.791C168.812 282.932 166.519 282.626 164.328 280.553C163.905 280.089 163.508 279.601 163.139 279.091C162.205 280.06 161.322 280.961 160.456 281.878C160.32 281.997 160.201 282.15 160.065 282.269L158.503 280.366C159.464 279.613 160.341 278.758 161.118 277.817C163.224 275.472 164.379 275.421 165.942 277.579C167.504 279.737 168.286 279.822 170.12 277.902C170.591 277.375 171.191 276.979 171.86 276.753C172.53 276.526 173.247 276.477 173.941 276.61C174.853 276.662 175.752 276.851 176.607 277.171C177.203 277.481 177.889 277.571 178.545 277.425C179.2 277.279 179.783 276.906 180.191 276.373C179.631 275.795 179.104 275.285 178.629 274.673C175.826 271.479 173.33 268.148 173.381 263.56C173.381 261.164 173.16 258.768 173.024 256.372C172.769 252.209 172.396 248.028 172.209 243.848V242.064C172.056 237.153 172.209 232.242 172.209 227.331C172.209 222.097 172.497 216.846 172.599 211.596C172.599 208.775 172.599 205.971 172.599 203.286L169.339 203.014L169.542 200.839C170.244 200.882 170.947 200.882 171.648 200.839C173.194 200.839 173.669 200.227 174.179 199.038L174.332 198.681L176.37 198.97C175.821 200.029 175.475 201.182 175.351 202.368C175.039 205.423 174.897 208.492 174.926 211.562C174.824 217.135 174.807 222.709 174.756 228.283C174.756 230.288 174.586 232.276 174.654 234.281C174.909 241.792 175.232 249.303 175.521 256.831C175.521 258.921 175.521 261.011 175.758 263.084C176.149 267.298 178.663 270.323 181.38 273.28C182.272 274.571 182.842 276.057 183.044 277.613Z" fill="#692B40"/>
<path d="M178.629 274.809C179.104 275.353 179.631 275.863 180.191 276.508C179.783 277.042 179.2 277.415 178.545 277.561C177.889 277.707 177.203 277.617 176.607 277.307C175.752 276.987 174.853 276.798 173.941 276.746C173.247 276.613 172.53 276.662 171.86 276.888C171.191 277.115 170.591 277.511 170.12 278.038C168.286 279.958 167.47 279.737 165.942 277.715C164.413 275.693 163.224 275.608 161.118 277.953C160.341 278.894 159.464 279.749 158.503 280.502C158.605 280.281 158.639 280.009 158.741 279.788C158.77 279.715 158.81 279.646 158.86 279.584C161.764 275.795 164.549 271.903 167.64 268.267C169.687 265.873 170.765 262.8 170.663 259.651C170.663 255.216 170.884 250.781 170.663 246.346C170.663 245.615 170.663 244.868 170.663 244.137H172.209C172.396 248.317 172.769 252.497 173.024 256.661C173.16 259.057 173.398 261.453 173.381 263.849C173.33 268.284 175.826 271.614 178.629 274.809Z" fill="#B7B7B8"/>
<path d="M172.616 203.422C172.616 206.107 172.616 208.911 172.616 211.732C172.514 216.982 172.31 222.233 172.225 227.467C172.123 232.378 172.021 237.289 172.225 242.2V243.984H170.68C170.493 240.687 170.153 237.408 169.949 234.111C169.83 231.953 169.949 229.795 169.779 227.654C169.315 221.91 168.811 216.178 168.268 210.457C168.03 207.891 167.673 205.359 167.385 202.878L169.372 203.065L172.616 203.422Z" fill="#B7B7B8"/>
<path d="M170.748 246.278C170.884 250.713 170.748 255.148 170.748 259.584C170.85 262.732 169.772 265.805 167.725 268.199C164.634 271.835 161.849 275.727 158.945 279.516C158.895 279.578 158.855 279.647 158.826 279.72L157.127 278.921C158.862 275.907 160.936 273.102 163.309 270.561C165.011 268.925 166.345 266.945 167.223 264.754C168.102 262.563 168.504 260.209 168.404 257.85C167.929 249.082 167.776 240.297 167.334 231.528C166.978 224.357 166.57 217.186 165.857 210.066C165.37 206.705 164.621 203.387 163.615 200.142C163.038 197.984 161.101 197.237 159.267 196.37C158.513 196.029 157.909 195.425 157.569 194.671C157.092 193.07 156.22 191.616 155.032 190.443C153.845 189.27 152.381 188.415 150.775 187.958C149.23 187.432 147.752 186.718 145.918 185.936C144.717 186.971 143.303 187.728 141.777 188.154C140.251 188.58 138.649 188.664 137.087 188.4L137.273 186.157C139.652 186.344 142.015 185.648 143.914 184.203C142.695 183.291 141.386 182.505 140.008 181.858C135.17 180.283 129.948 180.342 125.147 182.028C123.106 182.722 120.944 182.988 118.795 182.81H118.133L118.32 180.957C122.022 181.331 125.504 180.006 128.866 178.867C132.81 177.379 137.129 177.206 141.18 178.374C141.383 178.374 141.57 178.476 141.791 178.527C142.227 178.998 142.699 179.436 143.201 179.836C143.386 180.417 143.692 180.952 144.099 181.406C144.506 181.86 145.004 182.223 145.561 182.47C147.274 183.682 149.073 184.767 150.945 185.715C154.138 187.177 157.739 188.179 158.962 191.867C159.323 192.775 159.86 193.603 160.542 194.302C161.224 195.002 162.038 195.561 162.936 195.945C163.817 196.547 164.626 197.248 165.347 198.035C166.109 198.827 166.915 199.576 167.759 200.278C168.318 200.682 168.975 200.929 169.661 200.992L169.457 203.167L167.47 202.98C167.759 205.444 168.116 208.078 168.353 210.559C168.829 216.314 169.316 222.024 169.814 227.688C169.967 229.829 169.814 231.987 169.984 234.145C170.188 237.442 170.527 240.721 170.714 244.018C170.697 244.8 170.731 245.547 170.748 246.278Z" fill="#692B40"/>
<path d="M158.502 280.366L160.065 282.201C159.24 283.201 158.325 284.123 157.33 284.954C156.736 285.396 155.632 285.243 154.834 285.345C154.705 284.603 154.705 283.844 154.834 283.102C155.457 281.648 156.16 280.23 156.94 278.853L158.638 279.652C158.638 279.941 158.604 280.213 158.502 280.366Z" fill="#692B40"/>
<path d="M139.905 181.909C141.284 182.556 142.592 183.342 143.812 184.254C141.913 185.699 139.549 186.395 137.171 186.208C136.399 186.139 135.633 186.014 134.878 185.834C134.32 185.705 133.739 185.705 133.18 185.834C130.247 186.611 127.158 186.57 124.247 185.715C122.897 185.522 121.525 185.556 120.187 185.817C118.149 185.919 116.111 186.259 114.243 184.934C113.651 184.605 112.998 184.403 112.324 184.339C112.077 184.304 111.834 184.253 111.594 184.186C113.575 183.16 115.783 182.651 118.014 182.708H118.676C120.824 182.886 122.987 182.62 125.028 181.926C129.851 180.286 135.079 180.28 139.905 181.909Z" fill="#966060"/>
<path d="M137.171 186.208L136.984 188.451L135.829 188.332C134.604 188.322 133.38 188.379 132.161 188.502C129.682 188.594 127.199 188.481 124.739 188.162C122.31 187.704 120.68 188.026 119.508 190.253C117.368 194.246 115.109 198.188 113.292 202.334C112.157 205.374 111.22 208.485 110.49 211.647C109.42 215.487 108.367 219.327 107.399 223.202C106.057 228.622 104.953 234.094 103.425 239.464C101.828 245.157 99.8581 250.73 98.0918 256.372C97.6227 257.895 97.2707 259.451 97.0388 261.028C97.0441 261.31 97.1142 261.587 97.2438 261.837C97.3734 262.088 97.559 262.305 97.7861 262.472C98.7032 263.118 99.6543 263.713 100.588 264.291L99.5015 265.99C98.8706 265.606 98.2054 265.282 97.5144 265.021C94.1176 264.019 93.4383 262.846 94.2535 259.499C94.2535 259.227 94.3894 258.955 94.4743 258.683C96.3085 252.939 98.2956 247.247 99.926 241.452C100.368 239.906 100.775 238.376 101.166 236.83C101.556 235.284 101.964 233.737 102.338 232.191C102.711 230.645 103.102 229.098 103.493 227.552C103.883 226.006 104.257 224.459 104.681 222.913C106.108 217.526 107.942 212.224 109.148 206.787C110.517 200.543 113.134 194.642 116.842 189.437C117.003 189.108 117.123 188.759 117.198 188.4C115.709 187.638 114.158 187.001 112.562 186.497L111.95 186.361L112.341 184.39C113.015 184.454 113.668 184.656 114.26 184.985C116.128 186.31 118.166 185.97 120.205 185.868C121.542 185.607 122.914 185.573 124.264 185.766C127.175 186.621 130.264 186.662 133.197 185.885C133.756 185.756 134.337 185.756 134.895 185.885C135.645 186.047 136.406 186.155 137.171 186.208Z" fill="#692B40"/>
<path d="M129.885 33.544L129.749 35.6681C129.462 35.6344 129.171 35.6344 128.883 35.6681C127.433 35.9159 126.029 36.3859 124.722 37.0615C122.226 38.404 119.831 39.9164 117.419 41.4117C116.213 42.1594 115.143 42.3973 114.023 41.1059C113.857 40.9608 113.662 40.8525 113.451 40.7881C113.24 40.7236 113.018 40.7045 112.8 40.732C107.453 41.0049 102.377 43.1735 98.4825 46.8495C98.0455 47.2946 97.4663 47.5724 96.8456 47.6345C96.225 47.6966 95.6023 47.5391 95.0858 47.1893C94.4492 46.9596 93.7523 46.9596 93.1157 47.1893C92.3952 47.5349 91.731 47.9875 91.1456 48.5317C87.4771 51.3866 83.486 53.9015 81.2441 58.2517C80.8026 59.1523 79.8005 59.3222 79.0193 58.2517C78.7136 57.8778 78.4588 57.47 77.8474 56.5524L77.7285 54.8531C78.0544 54.7956 78.3877 54.7956 78.7136 54.8531C79.7496 55.108 80.1742 54.4963 80.8535 53.9015C84.5729 50.9617 88.2923 47.886 92.0287 44.8613C93.4893 43.6548 95.0349 44.1816 96.5464 45.0822C99.1864 42.5347 102.403 40.6633 105.921 39.6275C108.927 38.8118 111.934 37.9282 115.11 39.0157C115.58 39.0992 116.066 39.0022 116.468 38.7438C119.135 37.3334 121.682 35.7191 124.417 34.4446C126.093 33.558 128.013 33.2419 129.885 33.544Z" fill="#692B40"/>
<path d="M118.218 180.94L118.031 182.793C115.801 182.736 113.592 183.245 111.611 184.271C111.851 184.338 112.095 184.389 112.342 184.424L111.951 186.395C109.112 185.889 106.186 186.318 103.612 187.619C102.78 188.009 102.321 188.383 102.457 189.318C102.838 191.612 103.076 193.927 103.17 196.251C103.17 201.774 102.729 207.296 102.865 212.819C103.001 218.92 100.827 224.425 99.0774 230.05C97.9055 233.839 96.5468 237.561 95.3919 241.35C94.0672 245.598 92.9293 249.847 91.6046 254.112C91.3828 255.099 90.8391 255.983 90.0591 256.627C88.645 257.439 87.1074 258.013 85.5075 258.326C83.3423 258.785 81.1448 259.075 78.9348 259.193C77.2364 259.295 75.5381 259.04 73.8397 259.023H72.7527V257.12L75.1474 257.001C77.3213 256.865 79.5122 256.729 81.6861 256.44C83.86 256.151 85.7622 256.593 87.3926 255.097C88.0015 254.644 88.5055 254.064 88.8702 253.398C89.7194 250.934 90.3648 248.402 91.129 245.921C92.6236 241.027 94.1861 236.133 95.6807 231.222C96.8865 227.178 98.1093 223.151 99.2133 219.072C99.5895 217.576 99.8058 216.044 99.8586 214.501C100.096 208.792 100.334 203.082 100.385 197.373C100.385 194.603 100.011 191.816 99.7737 188.672C97.7017 189.386 95.8165 190.083 93.9144 190.677C89.7534 191.986 85.6263 193.515 81.3804 194.45C77.4135 195.244 73.3057 194.951 69.4919 193.6C68.5287 193.282 67.5476 193.021 66.5537 192.818L66.9783 190.524C68.9824 190.898 70.9864 191.289 73.0075 191.561C75.8124 192.063 78.6798 192.109 81.4993 191.697C85.6847 190.674 89.8121 189.426 93.8634 187.958C95.5618 187.466 97.0903 186.905 98.6698 186.259C101.22 185.595 103.695 184.673 106.058 183.506C107.892 182.368 109.454 181.042 111.985 181.28C111.815 180.465 111.679 179.989 111.611 179.479C111.621 179.383 111.621 179.286 111.611 179.19L114.21 178.85C114.363 179.938 115.093 180.227 116.146 180.55C116.823 180.742 117.517 180.873 118.218 180.94Z" fill="#692B40"/>
<path d="M117.165 188.434C117.089 188.793 116.97 189.142 116.808 189.471C113.1 194.676 110.483 200.577 109.114 206.821C107.909 212.258 106.074 217.56 104.648 222.947C104.223 224.493 103.85 226.04 103.459 227.586C103.068 229.132 102.678 230.679 102.304 232.225C101.93 233.771 101.54 235.318 101.132 236.864C100.725 238.41 100.334 239.94 99.8923 241.486C98.194 247.281 96.2748 252.973 94.4406 258.717C94.4406 258.989 94.2877 259.261 94.2198 259.533C93.4046 262.931 94.1179 264.053 97.4806 265.055C98.1716 265.316 98.8369 265.64 99.4677 266.024L99.7734 266.177C97.7938 267.027 95.8903 268.044 94.0839 269.219C92.4397 270.709 90.9229 272.335 89.5493 274.078C89.3566 272.668 88.9739 271.291 88.4114 269.983C87.6779 269.191 86.8095 268.535 85.8468 268.046C85.9568 266.751 85.9568 265.449 85.8468 264.155C85.7735 263.384 85.406 262.671 84.8207 262.165C84.2355 261.658 83.4777 261.397 82.7049 261.436C78.8496 261.215 75.0113 260.875 71.173 260.552C70.5887 260.441 70.019 260.265 69.4746 260.025C69.4746 259.787 69.4746 259.567 69.5595 259.329C70.6295 259.329 71.7165 259.176 72.7864 259.142H73.8734C75.5717 259.142 77.2701 259.414 78.9685 259.312C81.1785 259.194 83.376 258.904 85.5411 258.445C87.1411 258.132 88.6787 257.558 90.0928 256.746C90.8728 256.102 91.4165 255.218 91.6383 254.231C92.963 250 94.1009 245.734 95.4256 241.469C96.5805 237.68 97.9392 233.958 99.1111 230.169C100.809 224.544 103.034 219.038 102.898 212.938C102.763 207.415 103.204 201.893 103.204 196.37C103.109 194.046 102.871 191.731 102.491 189.437C102.355 188.434 102.814 188.06 103.646 187.738C106.22 186.437 109.146 186.008 111.985 186.514L112.596 186.65C114.165 187.119 115.693 187.716 117.165 188.434Z" fill="#B7B7B8"/>
<path d="M114.159 178.646C114.167 178.726 114.167 178.805 114.159 178.884L111.56 179.224C111.187 176.335 110.83 173.447 110.49 170.558C110.168 167.55 110.1 164.508 109.556 161.552C108.792 157.422 107.484 153.378 106.839 149.249C105.861 143.47 104.249 137.817 102.033 132.392C100.98 129.741 99.2813 127.294 98.483 124.643C97.4587 121.313 95.6266 118.289 93.1502 115.841C91.5858 114.344 90.1059 112.761 88.7174 111.1C83.6223 104.438 79.7331 96.8596 73.9926 90.5722C70.6945 87.0416 67.1409 83.7587 63.3608 80.7503C62.3758 79.9516 61.9172 80.1046 61.5436 81.447C60.2528 86.0181 59.6584 90.8441 56.992 95.0413C56.7882 95.3585 56.6013 95.6814 56.4315 96.0099L54.2236 94.6505C55.0558 92.6453 55.922 90.8271 56.5674 88.9069C57.6883 85.3894 58.6394 81.8208 59.6584 78.2693C59.7603 77.9635 59.8452 77.4707 60.066 77.3857C62.8004 76.2302 63.3608 73.3244 64.9573 71.2513C67.0633 68.5154 68.6767 65.4057 70.6298 62.5509C72.0904 60.4608 73.7718 58.5066 75.3513 56.5014C75.6289 56.0952 75.9914 55.7541 76.4136 55.5018C76.8359 55.2495 77.3079 55.0919 77.7969 55.04L77.9158 56.7393C73.1095 63.9103 68.4729 70.7755 63.9043 77.6236C66.5336 79.4863 69.0568 81.4946 71.462 83.6391C74.2983 86.4769 76.7779 89.6716 79.4444 92.6963C80.0896 93.3038 80.6965 93.9508 81.2616 94.6335C83.5204 98.0321 85.5755 101.431 87.9022 104.727C89.8643 108.003 92.2388 111.012 94.9674 113.683C97.4703 115.597 99.321 118.238 100.266 121.244C100.795 122.672 101.431 124.058 102.168 125.391C103.391 128.093 104.716 130.743 105.769 133.513C106.584 135.671 107.077 137.965 107.705 140.191C108.232 142.044 108.792 143.896 109.234 145.765C109.998 148.977 110.779 152.205 111.374 155.451C112.189 159.988 112.953 164.542 113.514 169.045C113.921 172.189 113.989 175.435 114.159 178.646Z" fill="#692B40"/>
<path d="M112.069 181.314C109.607 181.076 107.976 182.402 106.142 183.54C103.767 184.745 101.274 185.702 98.7033 186.395C97.1238 186.973 95.5104 187.534 93.8969 188.094C89.8456 189.562 85.7182 190.81 81.5328 191.833C78.7133 192.245 75.8459 192.199 73.041 191.697C71.02 191.425 69.0159 191.034 67.0118 190.66C64.4473 190.168 61.9167 189.658 59.2842 189.335C56.6518 189.012 54.0023 189.522 51.3699 189.454C49.8415 189.307 48.3294 189.023 46.8522 188.604C45.6124 188.349 44.3726 187.975 42.895 187.585C41.6011 183.814 40.5013 179.98 39.6002 176.097C38.7784 171.157 38.2115 166.177 37.9018 161.178C37.4433 155.706 37.2225 150.217 36.9847 144.729C36.8319 141.33 36.8489 137.778 36.7639 134.295C36.7639 133.275 36.5092 132.239 36.5432 131.219C36.5268 129.659 36.6921 128.102 37.0357 126.58C38.2245 122.434 39.5832 118.322 40.9249 114.226C42.6233 109.128 44.3217 104.116 46.02 99.0516H46.4786C47.0051 100.751 47.6505 102.45 48.0071 104.149C49.0035 108.941 49.9319 113.75 50.7924 118.576C51.268 121.21 51.0472 123.674 48.5166 125.374C47.4466 126.297 46.6825 127.523 46.3257 128.891C45.4596 131.814 46.6654 133.496 49.7225 133.989C53.7816 134.703 58.3502 131.168 58.2143 127.09C58.2143 125.73 57.0084 124.388 56.3291 123.029C56.1253 122.621 55.6497 122.247 55.6158 121.822C55.395 118.61 55.4969 115.348 55.0044 112.17C54.418 109.289 53.6407 106.451 52.6776 103.674C51.9983 101.329 51.251 99.0006 50.6056 96.6386C50.4463 95.8894 50.3553 95.1273 50.3339 94.3616L50.8604 94.1916C51.3019 95.3472 51.7435 96.5027 52.1681 97.5902L56.448 109.094C56.8151 109.859 57.1439 110.642 57.433 111.439C59.2503 118.576 61.2883 125.73 63.1226 132.986C64.3114 137.659 65.1946 142.434 66.2306 147.159C66.4004 147.923 66.3834 149.079 67.6232 148.858C68.863 148.637 69.1857 147.702 68.914 146.496C67.4194 139.886 66.0607 133.258 64.4473 126.665C63.1112 121.182 61.6223 115.773 59.9806 110.437C59.1722 107.596 58.062 104.85 56.6688 102.246C56.0861 101.318 55.7588 100.253 55.7201 99.1578C55.6813 98.0627 55.9324 96.9767 56.448 96.0099C56.6178 95.6927 56.8046 95.3698 57.0084 95.0413C59.6749 90.929 60.2693 86.103 61.5601 81.447C61.9337 80.1045 62.3923 79.9516 63.3773 80.7503C67.1574 83.7587 70.7109 87.0415 74.0091 90.5722C79.8005 96.8425 83.5878 104.438 88.7339 111.1C90.1224 112.761 91.6022 114.344 93.1666 115.841C95.6369 118.291 97.4631 121.315 98.4825 124.643C99.2807 127.345 100.979 129.741 102.032 132.392C104.248 137.817 105.86 143.47 106.838 149.249C107.484 153.378 108.792 157.422 109.556 161.552C110.099 164.508 110.167 167.55 110.49 170.558C110.813 173.565 111.186 176.335 111.56 179.224C111.569 179.32 111.569 179.417 111.56 179.513C111.679 180.108 111.815 180.499 112.069 181.314ZM47.5316 183.506C47.5316 183.251 46.2238 182.045 45.8332 182.198C45.0104 182.616 44.3393 183.282 43.9141 184.101C43.7952 184.305 44.7632 185.121 45.6124 186.072C46.3778 185.319 47.0248 184.454 47.5316 183.506ZM42.0968 164.627C42.8271 164.729 44.1518 164.627 43.8971 163.302C43.7782 162.707 43.0988 162.231 42.4535 161.45L40.5343 163.149C41.0608 163.778 41.5363 164.627 42.1138 164.695L42.0968 164.627ZM41.3495 152.256C42.1647 152.409 43.3706 152.086 43.0479 150.829C42.912 150.166 42.1817 149.622 41.4344 148.637L39.5153 150.88C40.1267 151.39 40.7381 152.205 41.3665 152.324L41.3495 152.256ZM41.3495 135.365C41.3495 134.023 40.6872 133.19 39.4474 133.36C38.9548 133.36 38.3604 134.448 38.1906 135.06C37.9018 136.3 38.785 136.623 40.0927 136.606C40.823 136.929 41.2646 136.47 41.2986 135.433L41.3495 135.365Z" fill="white"/>
<path d="M103.578 266.279C104.002 266.568 104.529 267.553 104.41 267.706C103.985 268.199 103.238 268.845 102.712 268.777C100.215 268.505 98.177 269.728 96.054 270.595C95.2415 270.994 94.5323 271.575 93.982 272.294C92.7981 273.876 91.534 275.396 90.1947 276.848C89.3152 277.365 88.3104 277.63 87.2905 277.613C87.1206 277.613 86.6621 276.916 86.6281 276.509C86.4753 275.047 86.5262 273.569 86.3564 272.09C86.2545 271.105 85.8808 270.289 84.658 270.867C84.2175 270.999 83.7592 271.062 83.2993 271.054C81.8048 271.173 81.0405 270.102 81.7029 268.777C82.0779 268.203 82.4182 267.607 82.7219 266.993C82.9597 266.33 83.3333 265.293 83.0616 264.902C82.5407 264.29 81.8053 263.901 81.0065 263.815C77.7457 263.475 74.4339 263.373 71.173 263.016C70.2836 263.001 69.4111 262.771 68.6302 262.345C67.8494 261.918 67.1834 261.309 66.6893 260.569C66.522 260.295 66.4232 259.984 66.4012 259.663C66.3792 259.342 66.4346 259.021 66.5628 258.726C66.6911 258.431 66.8883 258.171 67.1379 257.968C67.3876 257.766 67.6822 257.626 67.9971 257.561C69.5765 257.409 71.156 257.358 72.7355 257.29V259.193C71.6655 259.193 70.5786 259.312 69.5086 259.38C69.5086 259.618 69.5086 259.838 69.4237 260.076C69.968 260.316 70.5378 260.493 71.1221 260.603C74.9604 260.926 78.7987 261.266 82.6539 261.487C83.4267 261.448 84.1846 261.709 84.7698 262.216C85.355 262.722 85.7226 263.435 85.7959 264.206C85.9058 265.5 85.9058 266.802 85.7959 268.097C86.7586 268.586 87.6269 269.242 88.3605 270.034C88.9229 271.342 89.3057 272.719 89.4984 274.13C90.872 272.386 92.3888 270.76 94.033 269.27C95.8394 268.095 97.7429 267.078 99.7225 266.228L99.4168 266.075L100.504 264.376C101.625 264.953 102.644 265.582 103.578 266.279Z" fill="#692B40"/>
<path d="M68.9135 146.479C69.1852 147.685 68.9135 148.603 67.6227 148.841C66.332 149.079 66.3999 147.923 66.2301 147.141C65.1941 142.417 64.3109 137.642 63.1221 132.969C61.2878 125.73 59.2498 118.576 57.2797 111.388C56.9906 110.591 56.6618 109.808 56.2946 109.043L52.0148 97.5392C51.5902 96.3837 51.1486 95.2282 50.707 94.1406L52.8979 92.9001C53.2979 93.5024 53.7466 94.0707 54.2396 94.5994L56.4475 95.9589C55.9319 96.9257 55.6808 98.0116 55.7196 99.1068C55.7584 100.202 56.0856 101.267 56.6683 102.195C58.0648 104.815 59.1752 107.579 59.9801 110.437C61.6105 115.841 63.0994 121.273 64.4468 126.733C66.0602 133.241 67.4189 139.869 68.9135 146.479Z" fill="#692B40"/>
<path d="M66.9949 190.592L66.5703 192.886C63.5955 192.346 60.5887 192 57.5689 191.85C54.9874 191.646 52.3549 191.85 49.7565 191.697C48.3643 191.567 46.9807 191.357 45.6124 191.068L43.2687 193.702C43.2687 193.498 43.2687 193.277 43.1328 193.056C41.7741 192.53 40.4324 191.935 39.0228 191.51C34.6726 190.195 30.511 188.321 26.6417 185.936C24.8075 184.815 22.9902 183.659 21.2069 182.538L22.6336 180.346C22.7795 180.463 22.9326 180.571 23.0921 180.669C26.9474 182.997 30.9725 185.07 34.9807 187.143C36.5771 187.959 38.3774 188.502 40.4324 189.352C39.9909 187.959 39.7021 187.109 39.4644 186.242C37.9516 181.972 36.7427 177.599 35.8468 173.158C35.0147 166.802 35.0147 160.328 34.692 153.905C34.3183 146.343 34.0466 138.781 33.571 131.219C33.5438 129.008 33.0941 126.822 32.2463 124.779C29.1213 118.458 25.5378 112.374 22.4298 106.087C21.9262 105.045 21.1538 104.158 20.1923 103.515C19.2308 102.873 18.1152 102.499 16.961 102.433C16.8591 102.62 16.7233 102.722 16.7402 102.807C17.4875 107.531 18.2178 112.255 19.0161 116.945C19.0161 117.183 19.3557 117.421 19.6614 117.591L18.6594 119.732C18.1839 123.233 17.6404 126.529 17.3347 129.792C17.1233 131.403 17.2505 133.041 17.7083 134.601C19.2199 138.832 21.105 142.927 22.7015 147.125C22.9053 147.634 22.7015 148.824 22.3448 148.943C21.5127 149.215 20.4257 149.487 19.8652 148.246C18.9211 145.871 17.8438 143.55 16.6383 141.296C13.8021 136.538 13.9719 131.491 14.6173 126.274C15.1098 122.502 16.961 118.933 15.5004 114.855C14.9147 112.774 14.5 110.648 14.2606 108.5C13.8871 108.809 13.6395 109.244 13.5643 109.723L11.1356 109.468C11.4244 106.749 11.9169 104.065 12.2396 101.363C12.2396 101.04 11.815 100.496 11.4413 100.326C7.41622 98.304 6.80481 97.4373 9.74298 93.0532C10.6261 91.7447 11.4413 90.3683 12.3754 89.0768C12.9663 88.2429 13.6438 87.4739 14.3965 86.7828C14.6173 86.5649 14.8842 86.3994 15.1775 86.2984C15.4708 86.1975 15.783 86.1637 16.0911 86.1996C16.3991 86.2355 16.6952 86.3401 16.9575 86.5057C17.2198 86.6714 17.4415 86.8938 17.6064 87.1566C18.4216 88.0573 19.3048 88.8559 20.137 89.8075L20.6465 89.5866L22.8374 90.0964C22.7648 90.3245 22.7081 90.5572 22.6675 90.7931C22.5487 91.4388 22.3618 92.3735 22.6675 92.7643C24.3604 94.8306 25.656 97.1928 26.4889 99.7314C27.9664 103.691 29.7158 107.565 31.3632 111.473C32.0765 113.173 32.8407 114.77 33.4861 116.197C35.0316 110.573 36.4243 104.897 38.1057 99.3066L40.5513 100.037C38.853 105.458 37.9019 111.049 36.3224 116.435L36.8149 116.571C36.9215 116.45 37.0076 116.312 37.0697 116.164C38.853 110.947 40.857 105.781 42.3346 100.462C43.2434 97.3 45.1647 94.524 47.8033 92.5604C49.3658 91.2689 50.7755 89.8075 52.4399 88.2612L54.6987 89.2468C54.3642 89.5758 54.0467 89.9218 53.7476 90.2833C52.7286 91.5918 52.3719 91.9826 52.8475 92.8663L50.6566 94.1067L50.1301 94.2767C50.1515 95.0423 50.2425 95.8045 50.4018 96.5537C51.0472 98.9157 51.7945 101.244 52.4738 103.589C53.4369 106.366 54.2142 109.205 54.8006 112.085C55.2931 115.263 55.1912 118.526 55.412 121.737C55.412 122.162 55.9215 122.536 56.1253 122.944C56.8047 124.303 57.9765 125.646 58.0105 127.005C58.1124 131.083 53.5438 134.618 49.5187 133.904C46.5296 133.394 45.3237 131.712 46.122 128.806C46.4787 127.438 47.2428 126.212 48.3128 125.289C50.8434 123.487 51.0642 121.108 50.5886 118.492C49.7395 113.666 48.811 108.857 47.8033 104.065C47.4467 102.365 46.8013 100.666 46.2748 98.9667H45.8162C44.1179 104.065 42.4195 109.162 40.7212 114.141C39.3794 118.237 38.0208 122.349 36.8319 126.495C36.4883 128.017 36.3231 129.574 36.3394 131.134C36.3394 132.154 36.5432 133.19 36.5602 134.21C36.6451 137.609 36.5602 141.177 36.7809 144.644C37.0187 150.132 37.2395 155.621 37.6981 161.093C38.0078 166.092 38.5746 171.072 39.3964 176.012C40.2976 179.895 41.3973 183.73 42.6913 187.5C44.1688 187.891 45.4086 188.264 46.6484 188.519C48.1228 188.908 49.629 189.164 51.1491 189.284C53.7816 189.284 56.465 188.842 59.0635 189.165C61.662 189.488 64.5152 190.1 66.9949 190.592ZM55.0044 126.546C54.8006 126.189 54.5458 125.068 53.9684 124.847C53.5515 124.767 53.122 124.78 52.7109 124.886C52.2997 124.991 51.9171 125.187 51.5907 125.459C50.5559 126.4 49.6786 127.502 48.9922 128.721C48.8209 129.05 48.74 129.418 48.758 129.789C48.7759 130.159 48.8919 130.518 49.0941 130.828C49.7208 131.353 50.5198 131.625 51.3359 131.593C53.6967 131.355 54.7496 128.925 55.0044 126.546ZM27.2701 108.874C27.2701 108.721 27.2701 108.534 27.2701 108.398C24.9603 103.827 23.7545 98.6948 20.4766 94.5655C19.033 92.7303 17.5045 90.9461 16.0099 89.1448L15.2627 89.2298C13.904 91.2859 12.5113 93.3251 11.2206 95.4322C11.0923 95.593 11.006 95.7832 10.9695 95.9857C10.933 96.1882 10.9474 96.3966 11.0114 96.5921C11.0755 96.7876 11.1871 96.9641 11.3362 97.1057C11.4854 97.2474 11.6674 97.3496 11.8659 97.4034C14.0568 98.27 16.2307 99.2386 18.4726 99.9353C21.3088 100.819 23.9753 101.635 24.9943 104.931C25.5655 106.337 26.2588 107.691 27.0663 108.976L27.2701 108.874Z" fill="#692B40"/>
<path d="M54.6989 86.069C55.8708 86.9527 56.0406 87.7683 55.0556 88.8559C54.9537 88.9918 54.8518 89.0938 54.7499 89.2127L52.4911 88.2271L48.2791 84.6416C44.7118 89.167 42.1002 94.37 40.6025 99.9352L38.1569 99.2046C38.4626 98.168 38.7853 97.1144 39.1419 96.0779C39.8998 93.5619 39.9409 90.8842 39.2608 88.3461C38.3738 83.6339 38.2305 78.8117 38.8362 74.0551C39.3118 69.0931 39.7533 64.1142 40.5346 59.2033C41.1965 54.831 42.1612 50.5101 43.4218 46.2717C44.5812 43.4024 45.9551 40.6247 47.5318 37.9621C47.328 37.7412 46.9544 37.3334 46.5977 36.8916C46.265 36.546 45.8523 36.2878 45.3962 36.1396C44.94 35.9914 44.4544 35.9579 43.9823 36.0419L43.5067 33.6289L43.9992 33.527C46.5128 33.0002 46.5977 32.8133 46.6657 30.2134C46.7761 29.2479 46.7761 28.273 46.6657 27.3076C46.3769 25.8972 46.6657 24.011 44.7126 23.5182C42.9814 23.0484 41.2232 22.6852 39.4476 22.4306L39.7024 19.8477C41.4007 20.0176 43.0991 20.3235 44.7975 20.4934C45.239 18.7941 45.6127 16.9759 46.1731 15.2766C46.7336 13.5773 46.6317 13.2375 44.7126 13.2545C44.252 13.2546 43.7941 13.1859 43.3539 13.0505C38.4456 11.7251 33.5033 10.4166 28.5951 8.98924C28.2962 8.92599 28.0134 8.80229 27.764 8.62572C27.5146 8.44916 27.3039 8.22346 27.1449 7.96248C26.9859 7.70151 26.8818 7.41076 26.8391 7.10809C26.7964 6.80543 26.816 6.49722 26.8967 6.20241C27.2406 5.12905 27.6664 4.08374 28.1705 3.07572C27.8695 2.75944 27.4996 2.51694 27.0896 2.36709C26.6796 2.21724 26.2406 2.16409 25.8067 2.21178C25.3729 2.25946 24.9558 2.4067 24.5882 2.64202C24.2205 2.87734 23.912 3.1944 23.6868 3.56851C22.9225 4.68753 22.3698 5.93738 22.0564 7.25597C22.0114 7.87205 21.7789 8.45958 21.3903 8.93957C21.0017 9.41955 20.4755 9.76897 19.8825 9.94085C18.6405 10.3597 17.436 10.8827 16.2819 11.5042C12.5455 13.3734 8.79215 15.2766 5.07273 17.2138L4.05371 15.3786C6.36349 14.0361 8.67326 12.7277 11.017 11.4702C13.3607 10.2127 15.7724 9.36309 18.0822 8.15659C18.7554 7.71309 19.249 7.04453 19.4749 6.27038C20.4939 3.14369 21.8696 0.356851 25.589 0C26.7955 0.0168723 27.9924 0.21742 29.1386 0.594752C30.1305 0.80177 31.0941 1.12695 32.0088 1.56335C32.6379 1.99185 33.2088 2.50021 33.7072 3.07572C33.1807 3.39858 32.7051 3.75543 32.1616 4.0613C31.6783 4.22555 31.2119 4.43611 30.769 4.69004C30.4147 5.04241 30.1117 5.44282 29.8688 5.87954C30.2105 6.19898 30.6003 6.46275 31.0237 6.66122C36.7133 8.27554 42.4028 9.88987 48.1093 11.4022C49.6548 11.8101 49.9775 12.6257 49.6038 14.0361C49.0434 16.1093 48.432 18.1654 48.0753 20.2725C48.0402 21.1637 48.2393 22.0484 48.6528 22.8385C50.1475 26.4046 50.2804 30.396 49.0264 34.0538C48.6188 35.4642 48.7547 36.0419 50.0964 36.2289C52.0325 36.5007 52.1854 36.8406 51.0814 38.5059C49.8747 40.0674 48.774 41.7081 47.7866 43.4169C45.2964 48.8539 43.7788 54.6859 43.3029 60.6477C42.6915 66.6462 41.7404 72.5427 41.3838 78.6432C41.4202 82.0592 41.7154 85.4675 42.2669 88.8389C43.5746 86.9357 44.7465 85.4403 45.6636 83.843C47.2771 81.1241 48.9245 80.9032 51.1833 83.1293C52.2892 84.1855 53.4637 85.1676 54.6989 86.069Z" fill="#692B40"/>
<path d="M53.9688 124.881C54.5463 125.068 54.801 126.189 55.0048 126.58C54.7501 128.959 53.6971 131.389 51.3364 131.542C50.5268 131.588 49.7286 131.334 49.0945 130.828C48.9136 130.532 48.8096 130.194 48.7918 129.847C48.774 129.5 48.843 129.154 48.9926 128.84C49.6791 127.621 50.5563 126.519 51.5911 125.578C51.9103 125.291 52.2895 125.08 52.701 124.959C53.1124 124.839 53.5457 124.812 53.9688 124.881Z" fill="#692B40"/>
<path d="M48.2794 84.6417L52.4913 88.2272C50.793 89.7735 49.4173 91.2349 47.8548 92.5264C45.2352 94.4979 43.3324 97.273 42.437 100.428C40.9594 105.747 39.0403 110.913 37.1721 116.13C37.11 116.278 37.0239 116.416 36.9173 116.537L36.4248 116.401C38.0043 111.015 39.0403 105.424 40.6537 100.003C42.1275 94.4181 44.7221 89.1914 48.2794 84.6417Z" fill="white"/>
<path d="M45.9178 182.266C46.2405 182.113 47.6162 183.319 47.6162 183.574C47.1302 184.517 46.5063 185.382 45.765 186.14C44.9158 185.189 43.9477 184.441 44.0666 184.169C44.474 183.36 45.1203 182.695 45.9178 182.266Z" fill="black"/>
<path d="M46.6656 27.3076C46.776 28.273 46.776 29.2479 46.6656 30.2134C46.6656 32.8133 46.5128 33.0002 43.9992 33.527L43.5067 33.629C41.4516 34.0368 39.4136 34.3087 37.8851 34.5466L33.0108 34.0708C32.369 34.0624 31.7551 33.807 31.2965 33.3577C30.8379 32.9084 30.5699 32.2996 30.5481 31.6578C30.2594 29.3467 30.1066 27.0187 29.8688 24.7077C29.7669 23.7561 30.1405 23.3992 31.0916 23.3143C32.2739 23.207 33.4446 22.9967 34.5902 22.6855C36.1631 22.3061 37.7924 22.2197 39.3966 22.4306C41.1722 22.6852 42.9304 23.0484 44.6615 23.5182C46.6486 24.011 46.3769 25.8972 46.6656 27.3076ZM41.4347 31.6918C42.1832 31.4699 42.8239 30.9799 43.2343 30.3154C43.6447 29.6509 43.796 28.8584 43.6595 28.0893C43.5571 27.2364 43.1243 26.4578 42.4542 25.9208C41.7841 25.3837 40.9302 25.1312 40.076 25.2175C39.457 25.13 38.8329 25.0845 38.2078 25.0815C36.484 25.1477 34.774 25.4157 33.1127 25.8802C32.6329 26.0736 32.21 26.3856 31.8835 26.787C31.5571 27.1884 31.3378 27.6662 31.2461 28.1756C31.1545 28.6849 31.1935 29.2092 31.3596 29.6993C31.5256 30.1895 31.8133 30.6294 32.1956 30.9781C33.5882 32.6774 35.2866 32.6774 37.1548 32.6774C38.6038 32.4551 40.0343 32.1257 41.4347 31.6918Z" fill="#DFBDBC"/>
<path d="M46.5975 36.8915C46.9541 37.3334 47.3278 37.7412 47.5316 37.9621C45.9599 40.6307 44.5917 43.4141 43.4385 46.2886C42.1779 50.527 41.2132 54.848 40.5513 59.2202C39.7531 64.1312 39.3115 69.1101 38.8529 74.072C38.2434 78.8221 38.3809 83.6385 39.2606 88.346C39.9504 90.9002 39.9092 93.5969 39.1417 96.1288C38.785 97.1654 38.4623 98.2189 38.1566 99.2555C36.4583 104.846 35.0826 110.522 33.5371 116.146C32.8917 114.719 32.1274 113.088 31.4141 111.422C29.7157 107.514 28.0174 103.64 26.5398 99.6803C25.707 97.1417 24.4114 94.7795 22.7185 92.7132C22.3958 92.3224 22.5826 91.3878 22.7185 90.742C22.759 90.5062 22.8158 90.2734 22.8883 90.0453C23.161 89.3955 23.3328 88.7079 23.3978 88.0062C23.5859 82.7145 23.0951 77.4205 21.9372 72.2538C20.7824 67.8186 19.8652 63.2815 17.3177 59.2882C15.4325 56.3314 13.921 53.1028 12.0867 50.129C10.813 48.1238 9.04665 46.4585 7.67098 44.5213C7.48514 44.2539 7.31502 43.9759 7.16147 43.6887C6.70291 42.8051 6.34625 41.8365 5.8877 40.8679C6.39644 40.588 6.98677 40.4943 7.55712 40.6028C8.12747 40.7114 8.64217 41.0154 9.01269 41.4626C13.2319 45.9871 18.7101 49.142 24.7395 50.5198C26.9304 51.0466 28.3061 49.6872 29.7327 48.4977C32.5011 46.1527 35.2354 43.7567 37.9019 41.2927C39.2476 40.043 40.4756 38.6722 41.5703 37.1974C42.1931 36.5006 43.0663 36.079 43.999 36.0249C44.4699 35.9459 44.953 35.9835 45.4061 36.1346C45.8591 36.2857 46.2681 36.5456 46.5975 36.8915Z" fill="#C57D7D"/>
<path d="M44.645 13.2544C46.5641 13.2544 46.717 13.5093 46.1056 15.2766C45.4942 17.0439 45.1715 18.6752 44.7299 20.4934C43.1335 20.3235 41.4351 20.0176 39.6348 19.8477C38.7155 19.7459 37.7914 19.6949 36.8665 19.6948C34.257 19.8067 31.664 20.1652 29.1219 20.7653C27.1179 21.1901 26.6084 22.4646 27.1688 24.9456C27.2752 25.5072 27.349 26.0746 27.3896 26.6449C26.1449 26.1985 24.9357 25.6589 23.7721 25.0305C22.6682 24.3338 22.0737 24.2319 21.7341 25.7102C21.6322 26.1181 21.1736 26.4239 20.8849 26.7808L20.3584 26.6279V23.6711C20.3584 21.9718 19.696 21.462 18.1165 21.411C16.5371 21.3601 15.3822 21.2071 14.0235 21.1392C13.463 21.1392 12.9026 21.1392 12.3251 21.1392C10.5737 21.2074 8.83315 21.4464 7.12813 21.8529L6.77147 21.9038C4.69947 22.2947 3.37474 21.6489 3.25586 19.5248C3.25586 18.8111 4.29186 17.6726 5.12406 17.2138C8.79253 15.2766 12.5459 13.3734 16.2993 11.5042C17.4534 10.8827 18.6578 10.3597 19.8998 9.94083C20.4897 9.76604 21.0122 9.41536 21.3976 8.93562C21.783 8.45587 22.013 7.8699 22.0568 7.25596C22.3494 5.94204 22.8788 4.69247 23.6192 3.5685C23.8444 3.19439 24.1529 2.87733 24.5206 2.64201C24.8883 2.40668 25.3053 2.25945 25.7392 2.21176C26.1731 2.16408 26.6121 2.21723 27.0221 2.36707C27.4321 2.51692 27.8019 2.75943 28.1029 3.0757C27.5989 4.08373 27.173 5.12904 26.8292 6.2024C26.7485 6.49721 26.7289 6.80541 26.7716 7.10808C26.8142 7.41075 26.9183 7.7015 27.0773 7.96247C27.2364 8.22345 27.4471 8.44915 27.6964 8.62571C27.9458 8.80228 28.2286 8.92598 28.5275 8.98923C33.4358 10.4166 38.378 11.7251 43.2863 13.0505C43.7265 13.1859 44.1845 13.2546 44.645 13.2544Z" fill="#C57D7D"/>
<path d="M43.5069 33.629L43.9825 36.042C43.0498 36.0961 42.1766 36.5177 41.5538 37.2145C40.4591 38.6892 39.2311 40.0601 37.8853 41.3098C35.2189 43.7737 32.4845 46.1697 29.7162 48.5147C28.2896 49.7042 26.9139 51.0637 24.723 50.5369C18.6935 49.1591 13.2154 46.0042 8.99615 41.4797C8.62564 41.0325 8.11094 40.7284 7.54059 40.6199C6.97024 40.5113 6.37991 40.605 5.87116 40.8849C6.32972 41.8535 6.68638 42.8221 7.14494 43.7057L4.85215 44.7253C4.18978 43.4509 3.5444 42.1594 2.86506 40.9019C2.52539 40.2732 1.72715 39.8314 1.52335 39.2026C1.31955 38.5739 1.13273 37.9452 0.962891 37.3674L3.47647 36.8746C3.47836 37.0818 3.52696 37.2858 3.61865 37.4716C3.71033 37.6573 3.84274 37.8199 4.006 37.9474C4.16926 38.0748 4.35916 38.1637 4.56154 38.2074C4.76392 38.2512 4.97356 38.2487 5.17483 38.2001C7.72238 37.7073 10.2699 37.0955 12.7835 36.5008C13.974 36.1958 15.0504 35.5518 15.8824 34.647C16.7144 33.7421 17.2663 32.6152 17.471 31.4029C17.8071 28.9358 17.8527 26.4377 17.6069 23.96C16.3161 23.8071 15.0423 23.5012 13.8025 23.4332L13.9384 21.1052C15.2971 21.1052 16.6728 21.3431 18.0315 21.3771C19.3901 21.4111 20.3582 22.0738 20.3582 23.6711V26.6279L20.9526 26.7638C21.2414 26.407 21.6999 26.1011 21.8018 25.6933C22.1245 24.2149 22.7359 24.3169 23.8399 25.0136C25.0034 25.6419 26.2127 26.1816 27.4574 26.6279C27.4167 26.0577 27.343 25.4903 27.2366 24.9286C26.6761 22.5326 27.2366 21.1732 29.1897 20.7483C31.7318 20.1482 34.3248 19.7898 36.9342 19.6778C37.8591 19.6779 38.7833 19.729 39.7026 19.8307L39.4478 22.4137C37.8437 22.2027 36.2144 22.2891 34.6415 22.6685C33.4958 22.9797 32.3251 23.1901 31.1428 23.2973C30.1917 23.2973 29.8181 23.7391 29.92 24.6907C30.1578 27.0017 30.3106 29.3298 30.5994 31.6408C30.6205 32.274 30.8814 32.8755 31.3292 33.3235C31.777 33.7716 32.3781 34.0326 33.011 34.0538L37.8853 34.5296C39.4139 34.3087 41.4519 33.9688 43.5069 33.629ZM30.7352 39.8144L34.4377 38.387C29.0708 36.3988 28.85 35.6681 26.6591 32.8643C26.812 34.8525 26.9309 36.6197 27.0158 37.8092L30.7352 39.8144ZM26.0987 47.5631C28.1877 45.8638 30.2427 44.1646 32.4336 42.4653C29.5973 43.128 26.9988 43.8417 24.3664 44.3175C23.2279 44.4337 22.078 44.3474 20.9696 44.0626C18.8976 43.7058 16.8256 43.2469 14.7536 42.8391C14.7389 42.9462 14.7389 43.0549 14.7536 43.162C17.5219 45.9488 21.2753 46.5606 24.8079 47.784C25.027 47.8345 25.2539 47.841 25.4754 47.8031C25.697 47.7651 25.9089 47.6836 26.0987 47.5631ZM24.723 30.8421C24.9778 30.5702 25.8439 30.8421 26.6082 30.9611C25.9968 29.7886 26.0987 28.1403 23.9248 28.3272C24.3324 35.1243 19.7978 37.8602 14.1592 39.6275L14.329 40.2562C17.7257 40.766 21.1225 41.2928 24.1286 41.7346C24.1286 38.5059 24.1286 35.6001 24.1286 32.7283C24.0922 32.0536 24.3036 31.3888 24.723 30.8591V30.8421Z" fill="#692B40"/>
<path d="M43.9135 163.37C44.1683 164.746 42.8436 164.797 42.1133 164.695C41.383 164.593 41.0603 163.778 40.5508 163.268L42.4699 161.569C43.1153 162.299 43.7947 162.775 43.9135 163.37Z" fill="black"/>
<path d="M43.6594 28.0893C43.7959 28.8584 43.6445 29.6509 43.2341 30.3154C42.8237 30.9799 42.1831 31.4699 41.4345 31.6918C40.0264 32.0978 38.5902 32.3988 37.1377 32.5924C35.2695 32.5924 33.5711 32.5924 32.1784 30.8931C31.7961 30.5445 31.5085 30.1045 31.3425 29.6144C31.1764 29.1242 31.1374 28.6 31.229 28.0906C31.3206 27.5813 31.54 27.1035 31.8664 26.7021C32.1928 26.3006 32.6158 25.9886 33.0956 25.7952C34.7569 25.3308 36.4669 25.0627 38.1907 24.9966C38.8157 24.9996 39.4399 25.045 40.0589 25.1325C40.4897 25.088 40.9251 25.1293 41.3398 25.2541C41.7546 25.3789 42.1406 25.5848 42.4754 25.8597C42.8102 26.1346 43.0872 26.4732 43.2904 26.8559C43.4936 27.2386 43.619 27.6578 43.6594 28.0893ZM34.0297 27.6645C34.0297 29.0239 34.726 29.8396 36.4074 29.7546C35.4563 28.888 37.3075 27.1037 35.2525 26.7638C34.8958 26.7129 34.0466 27.3246 34.0297 27.6645Z" fill="#692B40"/>
<path d="M43.1326 150.897C43.3873 152.154 42.1815 152.477 41.4342 152.324C40.6869 152.171 40.1944 151.39 39.583 150.88L41.5871 148.705C42.2664 149.69 42.9967 150.234 43.1326 150.897Z" fill="black"/>
<path d="M39.3966 133.428C40.6364 133.258 41.3327 134.091 41.2988 135.433C41.2988 136.47 40.8232 136.929 40.042 136.742C38.7342 136.742 37.8511 136.436 38.1398 135.195C38.3096 134.516 38.9041 133.479 39.3966 133.428Z" fill="black"/>
<path d="M39.4643 186.225C39.702 187.092 39.9908 187.924 40.4323 189.335C38.3094 188.485 36.577 187.941 34.9806 187.126C30.9724 185.053 26.9473 182.98 23.092 180.652C22.9325 180.554 22.7794 180.446 22.6335 180.329C21.5966 179.425 20.7531 178.321 20.1539 177.083C19.1166 174.772 17.8537 172.569 16.3835 170.507C13.5597 166.803 11.9784 162.3 11.8658 157.643C11.5601 152.698 11.3733 147.753 11.4073 142.808C11.4073 138.645 11.8828 134.499 12.1206 130.336C12.3244 126.478 12.4603 122.604 12.715 118.763C12.9018 115.739 13.2245 112.731 13.5133 109.723C13.5884 109.244 13.8361 108.809 14.2096 108.5C14.449 110.648 14.8636 112.774 15.4494 114.855C16.893 118.848 15.0588 122.502 14.6002 126.274C13.9548 131.491 13.785 136.47 16.6213 141.296C17.8267 143.55 18.904 145.87 19.8482 148.246C20.4086 149.487 21.5465 149.215 22.3278 148.943C22.6165 148.943 22.8882 147.634 22.6844 147.125C20.9861 142.927 19.2028 138.832 17.6912 134.601C17.2335 133.041 17.1062 131.403 17.3176 129.792C17.6233 126.495 18.1668 123.233 18.6423 119.732C21.2238 120.701 21.6145 122.757 22.2089 124.473C23.9072 129.367 25.3509 134.312 26.8284 139.257C27.3379 140.956 27.6437 142.655 28.0003 144.355C28.2551 145.595 29.0023 146.224 30.1912 145.884C31.3801 145.544 31.3121 144.627 30.9894 143.556C28.8325 136.538 26.7435 129.503 24.6715 122.485C24.2895 121.38 23.6636 120.375 22.8403 119.546C22.017 118.716 21.0176 118.083 19.9161 117.693L19.6274 117.54C19.3217 117.37 19.016 117.132 18.982 116.894C18.1838 112.204 17.4535 107.48 16.7062 102.756C16.7062 102.756 16.8251 102.569 16.927 102.382C18.0599 102.463 19.1519 102.839 20.0937 103.475C21.0355 104.11 21.7942 104.981 22.2938 106.002C25.4018 112.323 28.9854 118.407 32.1103 124.694C32.9852 126.725 33.4637 128.906 33.52 131.117C33.9955 138.679 34.2673 146.241 34.6409 153.803C34.9636 160.226 34.9636 166.7 35.7958 173.056C36.7044 177.527 37.9303 181.928 39.4643 186.225Z" fill="white"/>
<path d="M36.4075 29.7546C34.7092 29.8395 33.9789 29.0239 34.0298 27.6644C34.0298 27.3246 34.896 26.7128 35.2527 26.7638C37.3416 27.1716 35.4565 28.8709 36.4075 29.7546Z" fill="white"/>
<path d="M31.0405 143.607C31.3632 144.678 31.4651 145.595 30.2422 145.935C29.0194 146.275 28.3061 145.646 28.0513 144.406C27.6947 142.706 27.389 141.007 26.8795 139.308C25.4019 134.363 23.9243 129.418 22.2599 124.524C21.6655 122.825 21.2749 120.751 18.6934 119.783L19.6784 117.642L19.9671 117.795C21.0686 118.185 22.0681 118.818 22.8914 119.648C23.7146 120.477 24.3405 121.482 24.7226 122.587C26.7946 129.554 28.8496 136.589 31.0405 143.607Z" fill="#692B40"/>
<path d="M34.4377 38.387L30.7353 39.8144L27.0158 37.8092C26.9309 36.6197 26.812 34.8525 26.6592 32.8643C28.8501 35.6681 29.0709 36.3988 34.4377 38.387Z" fill="#B7B7B8"/>
<path d="M32.4332 42.4652C30.2423 44.1645 28.1873 45.8638 26.0983 47.5631C25.9072 47.6807 25.6948 47.7592 25.4733 47.7942C25.2517 47.8292 25.0255 47.82 24.8075 47.767C21.2749 46.5945 17.5215 45.9318 14.7532 43.145C14.7385 43.0378 14.7385 42.9292 14.7532 42.8221C16.8252 43.2299 18.8972 43.6887 20.9692 44.0456C22.0775 44.3304 23.2275 44.4167 24.3659 44.3005C26.9984 43.8417 29.5969 43.128 32.4332 42.4652Z" fill="#B7B7B8"/>
<path d="M27.2362 108.398C27.3211 108.534 27.2362 108.721 27.2362 108.874L26.9815 108.975C26.174 107.691 25.4807 106.337 24.9095 104.931C23.8904 101.652 21.224 100.819 18.3877 99.9353C16.1459 99.2386 13.972 98.236 11.7811 97.4033C11.584 97.3475 11.4038 97.2437 11.2566 97.1012C11.1094 96.9587 10.9998 96.7819 10.9375 96.5867C10.8753 96.3914 10.8624 96.1838 10.8999 95.9823C10.9375 95.7809 11.0243 95.5918 11.1527 95.4321C12.4435 93.325 13.8361 91.2859 15.1948 89.2297L15.9761 89.1448C17.4706 90.946 18.9992 92.7303 20.4428 94.5655C23.7546 98.6948 24.9264 103.827 27.2362 108.398Z" fill="white"/>
<path d="M26.6074 30.978C25.8432 30.978 24.9091 30.5872 24.7222 30.8591C24.311 31.398 24.1116 32.0691 24.1618 32.7453C24.1618 35.6171 24.1618 38.5229 24.1618 41.7515C21.1047 41.3097 17.742 40.7829 14.3622 40.2731L14.1924 39.6444C19.831 37.9451 24.3826 35.1753 23.958 28.3441C26.0979 28.1572 25.996 29.8055 26.6074 30.978ZM22.905 39.8823C23.2447 39.8823 23.7202 38.8287 23.6693 38.319C23.6183 37.8092 22.7012 37.1465 22.4634 37.2484C21.7539 37.652 21.0977 38.1429 20.5103 38.7098C20.5103 38.9307 20.5103 39.1516 20.6292 39.3725C21.3519 39.6751 22.1223 39.8477 22.905 39.8823Z" fill="#B7B7B8"/>
<path d="M23.7547 38.319C23.7547 38.8288 23.3301 39.8483 22.9904 39.8823C22.2077 39.8477 21.4373 39.6751 20.7146 39.3725C20.7146 39.1516 20.6297 38.9307 20.5957 38.7098C21.1832 38.1429 21.8393 37.652 22.5488 37.2484C22.7017 37.1465 23.6358 37.8942 23.7547 38.319Z" fill="black"/>
<path d="M21.9201 72.2708C23.0779 77.4376 23.5688 82.7316 23.3807 88.0233C23.3157 88.725 23.1438 89.4126 22.8712 90.0624L20.6803 89.5526C20.5104 86.5109 20.4085 83.4861 20.1368 80.4614C19.9418 78.424 19.6356 76.3989 19.2197 74.3949C18.2346 69.518 17.3005 64.607 14.6341 60.2399C12.9357 57.453 11.3732 54.5472 9.53901 51.7434C8.79173 50.5369 7.53494 49.6703 6.82162 48.4638C6.10831 47.2573 5.42896 45.9658 4.7666 44.6914L7.05939 43.6718C7.21294 43.959 7.38307 44.237 7.5689 44.5044C8.94458 46.4416 10.7109 48.1069 11.9847 50.1121C13.8698 53.0859 15.3814 56.3145 17.2156 59.2713C19.8481 63.2986 20.7652 67.8357 21.9201 72.2708Z" fill="#692B40"/>
<path d="M22.633 180.329L21.2064 182.521L19.0664 181.11C18.4656 180.688 18.0043 180.097 17.7417 179.411C16.6402 176.518 15.155 173.786 13.3259 171.288C10.8813 167.488 9.48122 163.109 9.26685 158.595C8.89321 154.533 8.60449 150.438 8.63846 146.377C8.63846 141.772 9.13099 137.15 9.35177 132.545C9.52161 129.486 9.52161 126.41 9.77636 123.351C10.133 118.729 10.6086 114.107 11.1351 109.485L13.5637 109.723C13.275 112.731 12.9523 115.739 12.7655 118.763C12.5107 122.604 12.3749 126.478 12.1711 130.336C11.9333 134.499 11.4917 138.645 11.4577 142.808C11.4577 147.753 11.6106 152.698 11.9163 157.643C12.0142 162.295 13.5774 166.796 16.383 170.507C17.8532 172.569 19.1161 174.772 20.1534 177.083C20.7526 178.321 21.5961 179.425 22.633 180.329Z" fill="#692B40"/>
<path d="M17.691 23.994C17.9368 26.4717 17.8912 28.9698 17.5551 31.4369C17.3504 32.6492 16.7986 33.7761 15.9666 34.681C15.1346 35.5858 14.0581 36.2298 12.8676 36.5348C10.3371 37.0785 7.77255 37.6903 5.25897 38.234C5.0577 38.2826 4.84806 38.2852 4.64568 38.2414C4.4433 38.1977 4.2534 38.1088 4.09014 37.9813C3.92688 37.8539 3.79447 37.6913 3.70278 37.5056C3.6111 37.3198 3.56249 37.1158 3.56061 36.9086C3.55141 36.7898 3.55141 36.6705 3.56061 36.5517C3.56061 33.1532 3.56061 29.8395 3.56061 26.475C3.56061 25.9312 4.10408 25.0136 4.51169 24.9286C5.44013 24.7247 6.37423 24.5378 7.31399 24.3678C9.14474 24.0034 10.9926 23.7312 12.8507 23.5522C13.2235 23.5182 13.5987 23.5182 13.9716 23.5522C15.1265 23.5352 16.4002 23.7731 17.691 23.994ZM14.2943 32.2695C14.8839 31.6472 15.2557 30.8502 15.3537 29.9982C15.4518 29.1463 15.2707 28.2856 14.8377 27.5455C14.6901 27.1725 14.4597 26.8379 14.1641 26.5669C13.8684 26.296 13.5151 26.0956 13.1308 25.9811C12.7466 25.8666 12.3413 25.8408 11.9456 25.9058C11.55 25.9707 11.1742 26.1246 10.8466 26.356C10.2894 26.4897 9.72067 26.5694 9.14822 26.5939C7.82957 26.856 6.53451 27.2254 5.27595 27.6984C4.99736 27.7918 4.74556 27.9514 4.54211 28.1635C4.33867 28.3756 4.18965 28.6338 4.10784 28.9162C4.02602 29.1985 4.01384 29.4965 4.07235 29.7846C4.13085 30.0727 4.2583 30.3422 4.44376 30.5702C5.1695 31.7182 6.17194 32.6653 7.35899 33.3245C8.54604 33.9837 9.87963 34.3338 11.2372 34.3427C12.3313 33.7696 13.3569 33.0741 14.2943 32.2695Z" fill="#DFBDBC"/>
<path d="M14.838 27.4945C15.2833 28.2399 15.4713 29.1111 15.3731 29.974C15.2749 30.8368 14.8959 31.6434 14.2945 32.2695C13.3342 33.0665 12.2857 33.7507 11.1695 34.3087C9.81193 34.2998 8.47835 33.9497 7.2913 33.2905C6.10425 32.6313 5.1018 31.6842 4.37606 30.5363C4.19817 30.3075 4.07754 30.0394 4.02421 29.7545C3.97089 29.4696 3.98642 29.176 4.06952 28.8983C4.15261 28.6206 4.30087 28.3668 4.50191 28.1581C4.70295 27.9494 4.95096 27.7918 5.22524 27.6984C6.4838 27.2254 7.77886 26.856 9.09751 26.5939C9.66996 26.5694 10.2387 26.4897 10.7959 26.356C11.1212 26.1134 11.4979 25.9488 11.8969 25.875C12.2958 25.8011 12.7064 25.8199 13.097 25.9299C13.4876 26.0399 13.8477 26.2382 14.1495 26.5095C14.4514 26.7807 14.6869 27.1178 14.838 27.4945ZM8.87673 31.0121C8.87673 29.9075 9.02958 29.1938 9.1145 28.1742L6.29521 28.871L8.87673 31.0121Z" fill="#692B40"/>
<path d="M14.0225 21.1392L13.8867 23.4672C13.5138 23.4332 13.1386 23.4332 12.7657 23.4672C10.9077 23.6462 9.05982 23.9184 7.22907 24.2828L6.77051 21.9038L7.14415 21.8189C8.84917 21.4125 10.5897 21.1734 12.3411 21.1052C12.9016 21.0882 13.4621 21.1052 14.0225 21.1392Z" fill="#692B40"/>
<path d="M9.11421 28.1743C9.11421 29.1938 8.96135 29.8735 8.87644 31.0121L6.29492 28.871L9.11421 28.1743Z" fill="white"/>
<path d="M6.77083 21.9039L7.22939 24.2829C6.30095 24.4528 5.36685 24.6397 4.42708 24.8436C4.01948 24.8436 3.49298 25.8462 3.476 26.39C3.39108 29.7886 3.476 33.1022 3.476 36.4668C3.46681 36.5855 3.46681 36.7048 3.476 36.8236L0.962422 37.3674C0.644609 36.3413 0.456328 35.2795 0.401961 34.2067C0.401961 30.9101 -0.0735807 27.4096 0.86052 24.3848C1.11059 23.5782 1.18088 22.7265 1.06645 21.8898C0.952006 21.0531 0.65562 20.2516 0.198158 19.5418C0.0909478 19.3397 0.0256462 19.118 0.00616963 18.89C-0.0133069 18.662 0.0134429 18.4324 0.0848145 18.215C0.156186 17.9976 0.270709 17.7968 0.421515 17.6248C0.57232 17.4528 0.756301 17.313 0.962422 17.2138L4.05344 15.5145L5.07246 17.2138C4.24026 17.6726 3.13633 18.8111 3.20426 19.5248C3.3741 21.649 4.69882 22.2947 6.77083 21.9039Z" fill="#692B40"/>
</svg>
