<svg width="25" height="23" viewBox="0 0 25 23" fill="none" xmlns="http://www.w3.org/2000/svg">
<path d="M20.9584 6.66667H4.04175C2.03592 6.66667 0.416748 8.28583 0.416748 10.2917V17.5417H5.25008V22.375H19.7501V17.5417H24.5834V10.2917C24.5834 8.28583 22.9643 6.66667 20.9584 6.66667ZM17.3334 19.9583H7.66675V13.9167H17.3334V19.9583ZM20.9584 11.5C20.2938 11.5 19.7501 10.9563 19.7501 10.2917C19.7501 9.62708 20.2938 9.08333 20.9584 9.08333C21.623 9.08333 22.1668 9.62708 22.1668 10.2917C22.1668 10.9563 21.623 11.5 20.9584 11.5ZM19.7501 0.625H5.25008V5.45833H19.7501V0.625Z" fill="white"/>
</svg>
