<svg width="27" height="28" viewBox="0 0 27 28" fill="none" xmlns="http://www.w3.org/2000/svg">
<path d="M18.9688 3.83594H5.84375C4.62969 3.83594 3.65625 4.85547 3.65625 6.10156V21.9609C3.65625 23.207 4.62969 24.2266 5.84375 24.2266H21.1563C22.3594 24.2266 23.3438 23.207 23.3438 21.9609V8.36719L18.9688 3.83594ZM13.5 21.9609C11.6844 21.9609 10.2188 20.443 10.2188 18.5625C10.2188 16.682 11.6844 15.1641 13.5 15.1641C15.3156 15.1641 16.7813 16.682 16.7813 18.5625C16.7813 20.443 15.3156 21.9609 13.5 21.9609ZM16.7813 10.6328H5.84375V6.10156H16.7813V10.6328Z" fill="white"/>
</svg>
