<svg width="23" height="23" viewBox="0 0 23 23" fill="none" xmlns="http://www.w3.org/2000/svg">
<path d="M17.4803 6.17523H17.1452C17.1452 5.6683 16.7334 5.25732 16.2257 5.25732C15.7179 5.25732 15.3058 5.6683 15.3058 6.17523H14.1562C14.1562 5.6683 13.7444 5.25732 13.2366 5.25732C12.7289 5.25732 12.3168 5.6683 12.3168 6.17523H11.2821C11.2821 5.6683 10.8704 5.25732 10.3626 5.25732C9.85439 5.25732 9.44278 5.6683 9.44278 6.17523H8.40811C8.40811 5.6683 7.99601 5.25732 7.48827 5.25732C6.98053 5.25732 6.56876 5.6683 6.56876 6.17523H6.17684C5.66893 6.17523 5.25732 6.58622 5.25732 7.09315V17.4823C5.25732 17.9892 5.66909 18.4002 6.17684 18.4002H17.4803C17.9882 18.4002 18.4002 17.989 18.4002 17.4823V7.09315C18.4002 6.58622 17.9882 6.17523 17.4803 6.17523ZM16.5607 16.5644H7.09667V10.7651H16.5607V16.5644Z" fill="#B7B7B8"/>
</svg>
