<svg width="18" height="18" viewBox="0 0 18 18" fill="none" xmlns="http://www.w3.org/2000/svg">
<path d="M2.24561 8.68359C2.24561 7.45898 2.54883 6.32666 3.15527 5.28662C3.76172 4.24658 4.5835 3.4248 5.62061 2.82129C6.65771 2.21777 7.78564 1.91602 9.00439 1.91602C9.91846 1.91602 10.7915 2.09473 11.6235 2.45215C12.4556 2.80957 13.1733 3.29004 13.7769 3.89355C14.3804 4.49707 14.8608 5.21631 15.2183 6.05127C15.5757 6.88623 15.7544 7.76367 15.7544 8.68359C15.7544 9.59766 15.5757 10.4722 15.2183 11.3071C14.8608 12.1421 14.3804 12.8599 13.7769 13.4604C13.1733 14.061 12.4556 14.5386 11.6235 14.8931C10.7915 15.2476 9.91846 15.4248 9.00439 15.4248C8.08447 15.4248 7.20703 15.2461 6.37207 14.8887C5.53711 14.5312 4.81787 14.0508 4.21436 13.4473C3.61084 12.8438 3.13184 12.1274 2.77734 11.2983C2.42285 10.4692 2.24561 9.59766 2.24561 8.68359ZM3.73096 8.68359C3.73096 10.1074 4.24951 11.3438 5.28662 12.3926C6.32373 13.4297 7.56299 13.9482 9.00439 13.9482C9.95361 13.9482 10.8325 13.7124 11.6411 13.2407C12.4497 12.769 13.0913 12.1289 13.5659 11.3203C14.0405 10.5117 14.2778 9.63281 14.2778 8.68359C14.2778 7.73438 14.0405 6.854 13.5659 6.04248C13.0913 5.23096 12.4497 4.58936 11.6411 4.11768C10.8325 3.646 9.95361 3.41016 9.00439 3.41016C8.05518 3.41016 7.17627 3.646 6.36768 4.11768C5.55908 4.58936 4.91748 5.23096 4.44287 6.04248C3.96826 6.854 3.73096 7.73438 3.73096 8.68359ZM8.48584 8.68359V4.68457C8.48584 4.54395 8.53418 4.42529 8.63086 4.32861C8.72754 4.23193 8.84619 4.18359 8.98682 4.18359C9.12744 4.18359 9.24609 4.23193 9.34277 4.32861C9.43945 4.42529 9.48779 4.54395 9.48779 4.68457V8.37598L11.6411 9.63281C11.7583 9.70312 11.8345 9.8042 11.8696 9.93604C11.9048 10.0679 11.8872 10.1924 11.8169 10.3096C11.7231 10.4795 11.5796 10.5645 11.3862 10.5645C11.2866 10.5645 11.2017 10.541 11.1313 10.4941L8.8374 9.1582C8.73779 9.12891 8.6543 9.07031 8.58691 8.98242C8.51953 8.89453 8.48584 8.79492 8.48584 8.68359Z" fill="#B7B7B8"/>
</svg>
