<svg width="18" height="23" viewBox="0 0 18 23" fill="none" xmlns="http://www.w3.org/2000/svg">
<path fill-rule="evenodd" clip-rule="evenodd" d="M6.05105 0.0927296C5.92532 0.187971 5.92181 0.377082 5.88944 8.81801L5.85633 17.446L4.6315 17.4803C3.45049 17.5133 3.3958 17.5211 3.10409 17.6988C2.60535 18.0024 2.31424 18.5472 2.31424 19.1769V19.4687H6.31979H10.3253V19.1769C10.3253 18.5472 10.0342 18.0024 9.53548 17.6988C9.24377 17.5211 9.18908 17.5133 8.00807 17.4803L6.78324 17.446V13.7776V10.1092L12.2549 10.0749C17.5176 10.0419 17.732 10.0356 17.866 9.91002C18.0931 9.69712 18.04 9.46783 17.6417 8.94294C17.4416 8.6793 17.2257 8.38644 17.162 8.29216C17.0982 8.19788 16.8202 7.82761 16.5443 7.46935C15.6039 6.24822 15.2872 5.79519 15.3174 5.7138C15.3341 5.66902 15.8935 4.91176 16.5606 4.031C17.2278 3.15025 17.8258 2.34581 17.8895 2.24343C18.0484 1.98822 18.0349 1.80247 17.8429 1.60369L17.6804 1.43536H12.2152H6.75013V0.822156C6.75013 0.266207 6.73636 0.198942 6.60295 0.102192C6.41982 -0.0306928 6.21862 -0.0341212 6.05105 0.0927296ZM0.190635 20.7887C0.0686814 21.0743 0.0314729 21.3046 0.0103527 21.9039C-0.0136144 22.5826 -0.002823 22.6766 0.11688 22.8296L0.250089 23H6.31211H12.3741L12.5249 22.8435C12.6618 22.7014 12.6754 22.6255 12.6718 22.0206C12.6681 21.3921 12.579 20.9553 12.3735 20.5577C12.309 20.4329 12.1128 20.4287 6.32561 20.4287H0.344303L0.190635 20.7887Z" fill="#F79221"/>
</svg>
