<svg width="167" height="84" viewBox="0 0 167 84" fill="none" xmlns="http://www.w3.org/2000/svg">
<path d="M131.19 42.6193C131.395 42.7071 131.424 42.8975 131.38 43.1025C131.337 43.3222 131.249 43.454 131.015 43.4686C130.546 43.4833 130.063 43.5565 129.595 43.5126C128.175 43.3954 126.77 43.1611 125.409 42.7364C123.799 42.2531 122.146 41.8577 120.565 41.272C119.116 40.7448 117.667 40.1736 116.409 39.2071C115.75 38.6946 115.018 38.2992 114.345 37.8013C113.877 37.4498 113.438 37.0544 113.043 36.6297C112.15 35.6778 111.286 34.6967 110.408 33.7302C109.808 33.0712 109.194 32.4268 108.594 31.7678C108.286 31.431 108.008 31.0649 107.686 30.7574C107.247 30.318 106.764 29.908 106.296 29.4979C106.267 29.4687 106.237 29.4394 106.208 29.4247C105.52 29.0733 105.023 28.4582 104.349 28.0774C104.057 27.9164 103.735 27.7699 103.427 27.6381C102.418 27.2134 101.408 26.7741 100.369 26.408C99.8564 26.2323 99.2856 26.2323 98.7587 26.0858C97.6172 25.7636 96.4464 25.5 95.2609 25.3829C94.2365 25.2804 93.2998 24.841 92.3046 24.6214C91.4265 24.4164 90.5338 24.226 89.6557 24.021C89.3922 23.9624 89.1434 23.9038 88.88 23.8159C87.6946 23.4498 86.4652 23.362 85.2359 23.3913C83.9919 23.4205 82.7771 23.2741 81.5478 23.0984C80.816 22.9812 80.0843 22.9666 79.3379 22.908C78.9574 22.8787 78.5769 22.8641 78.1963 22.8201C77.3475 22.703 76.4987 22.6883 75.6645 22.908C75.1815 23.0398 74.6693 23.0984 74.1717 23.1862C74.1717 23.2009 74.1863 23.2155 74.1863 23.2448C75.0937 23.3034 76.0011 23.3913 76.9085 23.4352C77.3475 23.4645 77.7719 23.4352 78.211 23.4352C79.8355 23.4206 81.4161 23.6695 83.0113 23.977C84.0504 24.1821 85.1188 24.2406 86.1579 24.4164C87.5043 24.6507 88.8361 24.9289 90.1679 25.1925C90.5777 25.2657 90.9875 25.339 91.3972 25.3682C92.3778 25.4415 93.2998 25.7197 94.2218 25.9833C95.3048 26.3055 96.4025 26.5837 97.5001 26.8913C97.5879 26.9205 97.6904 26.9352 97.7635 26.9791C98.7295 27.4038 99.71 27.8138 100.661 28.2678C101.203 28.5314 101.7 28.8682 102.3 29.2051C102.359 29.1025 102.447 28.9561 102.535 28.8097C102.696 28.4875 102.886 28.3996 103.208 28.59C103.413 28.7071 103.632 28.8536 103.779 29.044C104.13 29.4979 103.998 29.9812 103.486 30.2741C103.34 30.362 103.193 30.4498 103.076 30.567C102.549 31.0795 102.081 31.6653 101.495 32.1046C101.115 32.3975 100.749 32.8222 100.193 32.8222C99.6368 33.2762 98.9343 33.1883 98.2904 33.3055C97.8367 33.3933 97.3538 33.3787 96.8854 33.4226C96.1683 33.4812 95.4658 33.5691 94.7487 33.6276C94.4853 33.6423 94.2218 33.613 93.9584 33.5984C92.9047 33.5544 91.8656 33.7448 90.8265 33.8912C90.285 33.9645 89.7288 33.8766 89.1873 33.9352C88.3385 34.0377 87.5043 33.8619 86.6555 33.9645C85.4554 34.0963 84.226 34.0523 83.0259 34.1402C82.3381 34.1988 81.6795 34.0816 81.0063 34.023C80.6697 33.9937 80.3331 34.0377 79.9965 34.0084C79.6599 33.9791 79.3232 33.9645 79.0013 33.8766C78.4451 33.7302 77.889 33.613 77.3036 33.5691C76.3523 33.4958 75.401 33.3933 74.479 33.1004C74.0692 32.9686 73.6302 32.9979 73.1911 32.9394C72.4594 32.8368 71.7276 32.749 70.9958 32.6318C70.3373 32.5147 69.6641 32.3975 69.0055 32.2511C68.0103 32.0314 67.0297 31.7825 66.0492 31.5189C64.8637 31.1967 63.6783 30.8892 62.5075 30.4938C61.6733 30.2155 60.8537 29.8494 60.0634 29.4394C59.0389 28.9122 58.7023 27.8724 58.4243 26.8327C58.395 26.7009 58.4682 26.5398 58.5121 26.3933C58.5413 26.2762 58.5852 26.1737 58.6145 26.0712C58.6292 26.0419 58.5999 25.9979 58.5852 25.954C58.2925 25.8661 58.0291 25.9979 57.7803 26.1151C56.9022 26.5251 56.0241 26.9205 55.1753 27.3745C54.8094 27.5649 54.5167 27.8871 54.1947 28.1507C54.1215 28.2092 54.063 28.2971 53.9898 28.3557C52.5263 29.2929 51.3262 30.523 50.053 31.6653C49.2041 32.4268 48.3846 33.2176 47.5503 33.9791C47.1845 34.3013 46.7747 34.5795 46.4088 34.9163C45.7063 35.5607 44.8575 35.9854 44.0965 36.5272C43.4232 37.0105 42.6329 37.2301 41.8719 37.4937C41.3743 37.6548 40.8767 37.8452 40.2913 38.1527C40.3645 38.1674 40.4377 38.182 40.5108 38.2113C42.0036 38.9435 43.1598 40.0858 44.3013 41.2573C44.638 41.5941 44.9746 41.9163 45.3258 42.2385C45.5746 42.4582 46.0283 42.3703 46.2039 42.0774C46.7601 41.1841 47.2869 40.2615 47.8577 39.3829C48.1211 38.9728 48.4724 38.6214 48.7943 38.2406C49.5554 37.3034 50.3603 36.4101 50.975 35.3557C51.1945 34.9896 51.5457 34.6967 51.8677 34.4038C52.1897 34.1109 52.8044 34.0963 53.141 34.3599C53.2288 34.4331 53.302 34.5649 53.3166 34.682C53.4776 35.6778 53.5947 36.6737 53.7849 37.6548C53.9313 38.3724 53.8727 39.1339 54.2679 39.8808C54.6484 39.4268 54.9996 38.9875 55.3802 38.5774C56.0387 37.8745 56.7412 37.2155 57.3852 36.4979C57.7657 36.0586 58.0584 35.546 58.395 35.0628C58.5267 34.8724 58.6438 34.682 58.8048 34.5209C59.2731 34.0523 59.9902 34.2573 60.1658 34.9017C60.2097 35.0481 60.239 35.1946 60.239 35.3557C60.2097 36.7469 60.1658 38.1381 60.1366 39.5293C60.1366 39.8661 60.1951 40.2029 60.2098 40.5398C60.2244 40.7448 60.1658 40.9498 60.1658 41.1548C60.1805 41.931 60.2097 42.7071 60.2244 43.4833C60.2244 43.6004 60.2683 43.7029 60.2829 43.864C60.3854 43.7908 60.4878 43.7615 60.5317 43.7029C61.2488 42.7218 61.9367 41.7406 62.6538 40.7448C62.9026 40.408 63.166 40.0858 63.4148 39.749C63.6783 39.3829 64.0881 39.3829 64.4393 39.4268C64.732 39.4561 64.9223 39.7197 65.054 40.0272C65.4491 40.9498 65.4784 41.9456 65.5808 42.9268C65.6101 43.205 65.6101 43.4979 65.6394 43.8494C66.1516 43.5565 66.5907 43.249 67.0297 42.9414C67.4981 42.6046 67.9517 42.2239 68.5371 42.0774C69.0347 41.9603 69.3128 42.0335 69.5177 42.4874C69.6787 42.8243 69.7958 43.1904 69.9275 43.5418C70.1031 44.0397 70.2348 44.5523 70.4104 45.0502C70.5275 45.3724 70.6153 45.431 70.9227 45.2845C71.9325 44.772 72.3716 45.2845 72.8984 46.09C72.957 46.1778 72.9862 46.295 73.0301 46.3828C73.074 46.4121 73.1179 46.4268 73.1472 46.4414C74.3034 46.6318 75.4449 46.8368 76.6011 47.0125C77.2304 47.1151 77.8597 47.2322 78.5037 47.3054C79.8794 47.4519 81.138 47.9644 82.3381 48.6088C83.0698 49.0042 83.7284 49.5314 84.3577 50.0586C84.7675 50.3954 85.1334 50.7908 85.4407 51.2301C86.3628 52.5335 86.8896 54.0125 87.197 55.5795C87.2409 55.7845 87.2701 55.9895 87.314 56.1945C87.3872 56.5899 87.475 56.9121 87.9873 56.9414C88.2068 56.956 88.4263 57.1903 88.719 57.3661C88.5141 57.5857 88.3678 57.7615 88.2068 57.8933C87.7677 58.2301 87.3287 58.5669 86.875 58.8598C86.3335 59.2113 85.7774 59.5188 85.2359 59.841C84.9724 60.0021 84.7236 60.1631 84.4602 60.3096C84.0358 60.5439 83.5821 60.6611 83.0991 60.6757C82.9089 60.6757 82.704 60.6903 82.543 60.7636C81.299 61.3054 80.0111 61.774 78.8988 62.5941C77.8597 63.3702 76.6889 63.546 75.4449 63.3556C74.6107 63.2238 73.7912 63.2385 72.957 63.2385C72.2398 63.2385 71.5081 63.1213 70.8056 63.1506C70.1324 63.1799 69.4738 63.1652 68.8298 63.0481C68.4201 62.9749 68.0396 62.8138 67.6444 62.682C66.7078 62.3891 65.7418 62.1841 64.8637 61.6862C63.7661 61.0418 62.7709 60.2803 61.8343 59.4163C61.5562 59.1527 61.2781 58.9037 60.9854 58.6548C60.4293 58.1862 59.9463 57.659 59.7122 56.9414C59.6829 56.8535 59.6243 56.7657 59.5804 56.6924C59.5512 56.6485 59.5073 56.6192 59.4341 56.5606C59.3024 56.6339 59.156 56.6778 59.0389 56.7657C58.3218 57.3221 57.4876 57.4393 56.6241 57.4393C55.8778 57.4393 55.146 57.4247 54.3996 57.4247C53.1117 57.4247 51.8384 57.615 50.6091 58.0251C50.1261 58.1862 49.6139 58.2155 49.1017 58.1862C48.0333 58.1129 46.9503 58.0397 45.8819 58.1422C45.4136 58.1862 44.9307 58.1569 44.4623 58.0836C44.2282 58.0544 44.0086 57.864 43.7745 57.7468C43.6574 57.6883 43.555 57.5857 43.4379 57.5565C42.0622 57.1318 40.7304 56.5899 39.3986 56.0481C38.7254 55.7699 37.9936 55.5795 37.3204 55.3012C35.8715 54.7155 34.408 54.1297 33.003 53.456C31.6712 52.8263 30.4858 51.9623 29.7979 50.6004C29.4759 49.9707 29.315 49.2531 29.0515 48.5795C28.4661 46.9979 28.4661 45.387 28.7881 43.7615C28.9491 42.9561 28.9344 42.1506 28.832 41.3452C28.8027 41.0816 28.8613 40.8766 28.993 40.6569C29.9296 39.1339 31.2761 38.2406 33.0176 37.8159C34.1446 37.5377 35.2715 37.2741 36.4276 37.1716C36.5447 37.1569 36.6618 37.1423 36.7642 37.1862C37.3204 37.4645 37.8912 37.3619 38.4766 37.2887C39.3839 37.1716 40.262 36.9373 41.0962 36.5711C41.4914 36.3954 41.9305 36.2929 42.311 36.0879C42.911 35.7657 43.4964 35.4142 44.0525 35.0188C45.0038 34.3306 45.9258 33.5984 46.8332 32.8515C47.1552 32.5879 47.4333 32.2804 47.726 31.9875C48.8382 30.9331 49.9212 29.8494 51.0628 28.8243C51.7506 28.2092 52.497 27.6674 53.2288 27.0963C53.4922 26.8913 53.741 26.6277 54.0337 26.4666C54.5752 26.159 55.146 25.9247 55.7021 25.6465C55.9948 25.5 56.2583 25.295 56.551 25.1925C57.5169 24.8557 58.4828 24.5189 59.478 24.2553C60.4732 23.9917 61.483 23.8599 62.4928 23.6695C63.6344 23.4645 64.7613 23.2595 65.9028 23.0691C67.8932 22.7323 69.8982 22.3954 71.9032 22.0733C72.2691 22.0147 72.6643 22.0293 73.0301 21.9854C73.718 21.8975 74.4205 21.839 75.1083 21.6779C76.206 21.4289 77.289 21.5168 78.3866 21.5461C79.1037 21.5754 79.8208 21.5607 80.538 21.6047C81.0648 21.6339 81.5917 21.6925 82.1039 21.8097C83.4065 22.1026 84.709 22.1319 86.0408 22.1172C86.4506 22.1172 86.875 22.0586 87.2848 22.1026C87.8409 22.1758 88.397 22.2636 88.9239 22.454C89.48 22.659 90.0655 22.6883 90.6216 22.8055C90.9875 22.8787 91.3533 22.9666 91.7192 23.0544C92.129 23.1423 92.5388 23.2155 92.9339 23.3327C93.373 23.4645 93.7974 23.6549 94.2511 23.772C94.5731 23.8599 94.9097 23.8892 95.2463 23.9477C95.9195 24.0649 96.6074 24.1381 97.2659 24.2846C97.5879 24.3578 97.9245 24.2553 98.2465 24.4603C98.5246 24.636 98.8904 24.68 99.2124 24.7678C100.237 25.0461 101.261 25.3097 102.271 25.6172C102.783 25.7783 103.281 25.9687 103.749 26.2323C104.247 26.4959 104.803 26.6569 105.286 26.9352C105.696 27.1695 106.032 27.5063 106.398 27.7992C107.247 28.4728 108.14 29.0586 108.857 29.8933C109.486 30.6256 110.16 31.3285 110.833 32.0168C111.096 32.2804 111.345 32.544 111.564 32.8515C112.691 34.3599 114.052 35.6486 115.487 36.864C115.867 37.1862 116.336 37.4205 116.76 37.6988C117.111 37.9331 117.433 38.182 117.784 38.387C118.282 38.6946 118.78 39.0021 119.321 39.2511C120.594 39.8368 121.912 40.364 123.273 40.6276C124.517 40.8619 125.658 41.4038 126.873 41.6527C127.941 41.8724 129.039 42.0042 130.122 42.2092C130.502 42.2971 130.839 42.4582 131.19 42.6193ZM100.954 30.3034C100.998 30.2741 101.027 30.2302 101.071 30.2009C100.881 29.864 100.778 29.4247 100.091 29.4833C100.427 29.8055 100.691 30.0544 100.954 30.3034ZM99.388 31.5189C99.5051 31.4896 99.6076 31.4017 99.7832 31.3138C99.5198 30.9917 99.3002 30.6841 99.0368 30.4352C98.5099 29.9519 97.9538 29.4833 97.3977 29.044C97.0318 28.7511 96.6074 28.5314 96.1976 28.2825C95.9781 28.1507 95.7439 27.9896 95.5097 27.9017C94.7194 27.5795 93.9145 27.3452 93.1096 27.1109C92.8461 27.0377 92.5827 26.9498 92.3046 26.862C92.29 26.8913 92.2754 26.9205 92.2607 26.9498C92.4363 27.0523 92.5973 27.1548 92.7583 27.2574C93.0949 27.4624 93.4608 27.6381 93.7681 27.8871C94.4999 28.5168 95.217 29.1611 95.9195 29.8348C96.3586 30.2448 96.7537 30.6988 96.9879 31.2699C97.1489 31.636 97.3977 31.8557 97.8221 31.7971C98.3489 31.7239 98.8758 31.6214 99.388 31.5189ZM94.4267 31.9728C94.8658 31.9728 95.2902 31.9728 95.861 31.9728C95.7439 31.7532 95.7146 31.5921 95.6122 31.4896C94.9243 30.8013 94.2804 30.0837 93.534 29.4687C92.8315 28.8975 92.0266 28.4728 91.2655 27.9749C91.207 27.931 91.1192 27.931 91.0606 27.9164C90.885 27.8578 90.7094 27.8138 90.5338 27.7406C89.7727 27.3892 89.0264 27.0084 88.1775 26.9498C87.5189 26.9059 86.8604 26.8766 86.2018 26.818C84.5041 26.6862 82.8064 26.5398 81.1087 26.408C80.7136 26.3787 80.3184 26.408 79.9087 26.4226C79.572 26.4373 79.2354 26.4812 78.8842 26.5105C77.3036 26.5984 75.6937 26.5984 74.1278 26.7595C72.2837 26.9498 70.4251 27.0523 68.625 27.4917C67.8932 27.6674 67.1614 27.7992 66.4297 28.0042C65.6248 28.2239 64.9954 28.7657 64.3076 29.1904C64.2051 29.249 64.1173 29.3369 63.971 29.4687C65.1125 29.7908 66.1809 30.0984 67.2346 30.4059C67.6444 30.523 67.9664 30.4645 68.303 30.2155C69.0933 29.6151 70.0007 29.2197 70.9227 28.8682C72.0642 28.4289 73.2789 28.341 74.479 28.18C75.5767 28.0335 76.6743 27.9896 77.7573 27.8431C79.1476 27.6674 80.538 27.4917 81.9429 27.5063C82.4405 27.521 82.9235 27.4477 83.4211 27.4624C84.1529 27.477 84.9139 27.4331 85.631 27.5502C86.6408 27.7113 87.636 27.9896 88.6312 28.2385C89.5093 28.4582 90.4167 28.6193 91.207 29.1025C91.5143 29.2929 91.7924 29.5565 92.129 29.659C92.8315 29.8933 93.3584 30.3034 93.7535 30.9038C93.973 31.2699 94.1926 31.6214 94.4267 31.9728ZM92.8315 32.0168C92.6412 31.5481 92.3046 31.3431 91.9827 31.1527C91.69 30.977 91.3533 30.8745 91.0753 30.6695C90.3728 30.1569 89.5532 29.9958 88.7483 29.7762C87.8995 29.5419 87.0213 29.3515 86.1579 29.1758C85.5871 29.0586 85.0017 28.9122 84.4163 28.9122C82.9967 28.9122 81.5771 28.9415 80.1575 29.0293C78.7378 29.1172 77.3329 29.2783 75.9279 29.4394C74.8303 29.5712 73.7619 29.7615 72.6643 29.908C72.1374 29.9812 71.6105 30.0105 71.1861 30.3912C71.1422 30.4352 71.0398 30.4059 70.9812 30.4352C70.7178 30.5816 70.3812 30.6256 70.2202 30.9917C70.3373 31.0356 70.4251 31.0795 70.5129 31.0942C71.23 31.1967 71.9325 31.2845 72.6496 31.3871C74.0546 31.6067 75.4449 31.8264 76.8499 32.0461C77.1865 32.1046 77.5378 32.1193 77.8597 32.1779C79.3379 32.4561 80.816 32.6172 82.3235 32.6025C83.1138 32.6025 83.9187 32.5293 84.709 32.4854C86.5676 32.3682 88.4263 32.544 90.2703 32.3243C91.1192 32.2218 91.9387 32.1193 92.8315 32.0168ZM85.5871 58.1715C86.0408 57.8786 86.0993 57.6883 85.953 57.1757C85.8359 56.7803 85.7042 56.3703 85.6456 55.9602C85.47 54.7887 85.1041 53.6757 84.5626 52.6213C84.0797 51.6987 83.465 50.8494 82.6162 50.2196C81.7381 49.5607 80.7575 49.092 79.7184 48.7406C78.4598 48.3159 77.1426 48.2427 75.8401 48.0376C74.6693 47.8473 73.4838 47.7008 72.2984 47.5251C72.0057 47.4812 71.6983 47.3933 71.4056 47.364C71.0544 47.3201 70.7031 47.3201 70.3373 47.3054C70.1763 47.3054 70.0007 47.3201 69.8397 47.3054C69.6787 47.2908 69.5177 47.2469 69.3567 47.2029C68.9762 47.1004 68.6103 47.2469 68.2444 47.3201C67.7615 47.4226 67.2932 47.4958 66.8102 47.613C66.0638 47.8033 65.3321 48.0523 64.571 48.2134C64.1173 48.3013 63.7222 48.4916 63.327 48.7259C63.049 48.887 62.9904 49.0774 63.0782 49.3849C63.3124 50.2489 63.5173 51.113 63.7222 51.977C63.7515 52.1234 63.7807 52.2991 63.7222 52.4163C63.4295 52.9728 63.166 53.5732 62.5806 53.8514C62.1562 54.0565 61.8343 54.364 61.4976 54.6569C61.1318 54.9791 60.8391 55.3745 60.5171 55.7406C60.9708 56.4728 61.3952 57.1318 62.0099 57.659C62.9026 58.4205 63.7954 59.1673 64.6881 59.9435C65.3467 60.5146 66.0784 60.9247 66.898 61.1882C67.3517 61.3347 67.8054 61.4372 68.2591 61.5836C69.0347 61.8326 69.8104 62.023 70.6446 61.9937C71.4495 61.9498 72.2691 61.979 73.074 61.979C73.6009 61.979 74.1131 62.023 74.6546 61.9351C75.123 61.8619 75.6352 62.0523 76.1328 62.1548C76.7475 62.2719 77.3036 62.1841 77.8012 61.818C78.65 61.2029 79.572 60.7489 80.538 60.3242C80.9185 60.1631 81.3136 60.046 81.6941 59.8996C82.0015 59.7824 82.2942 59.5334 82.6162 59.5042C83.3186 59.4456 83.9041 59.1234 84.5041 58.7866C84.87 58.5962 85.2358 58.3912 85.5871 58.1715ZM80.1136 25.0461C80.1136 25.0021 80.1135 24.9728 80.1282 24.9289C79.8355 24.885 79.5428 24.8118 79.2354 24.8118C78.6647 24.7971 78.1085 24.841 77.5378 24.8118C76.5865 24.7678 75.6498 24.636 74.6985 24.6653C72.8984 24.7093 71.0983 24.6507 69.2982 24.9143C68.0249 25.1046 66.7663 25.3975 65.5516 25.7929C65.0833 25.9394 64.6588 26.1883 64.2051 26.3933C63.6197 26.6569 63.0197 26.8913 62.4489 27.1841C61.8928 27.477 61.3367 27.8138 60.883 28.3996C61.3659 28.6193 61.805 28.8097 62.2148 28.9854C62.4489 28.7218 62.5953 28.4875 62.8002 28.341C64.132 27.4185 65.493 26.5691 67.1322 26.3201C68.3615 26.1297 69.5909 25.8662 70.8202 25.7051C72.2984 25.5147 73.7912 25.4122 75.284 25.2804C76.2499 25.1925 77.2012 25.1046 78.1671 25.0461C78.8403 25.0168 79.4842 25.0461 80.1136 25.0461ZM72.9277 23.2741C72.9277 23.2448 72.9423 23.2009 72.9423 23.1716C72.8545 23.157 72.7521 23.1423 72.6643 23.113C72.6496 23.157 72.635 23.2009 72.635 23.2448C72.7374 23.2595 72.8399 23.2595 72.9277 23.2741ZM69.0933 46.09C68.8006 45.2113 68.625 44.3619 68.2005 43.5272C67.7908 43.8201 67.381 44.0397 67.059 44.3473C66.6639 44.728 66.3272 45.1527 65.976 45.5774C65.7126 45.9142 65.2589 46.1046 64.8784 46.0021C64.4686 45.8849 64.2344 45.6213 64.1905 45.1966C64.1759 45.0209 64.1466 44.8598 64.132 44.6841C64.1173 44.1569 64.1466 43.6151 64.1027 43.0879C64.0588 42.5314 63.9417 41.9749 63.8539 41.4184C63.81 41.4038 63.7661 41.4038 63.7222 41.3891C62.6246 42.8828 61.6294 44.4498 60.3122 45.8264C61.0732 46.5 61.6001 47.3347 62.3026 47.8912C64.5564 47.0418 66.7809 46.4707 69.0933 46.09ZM64.0442 24.7239C64.0295 24.68 64.0149 24.6507 64.0003 24.6067C63.2685 24.7678 62.5367 24.9143 61.805 25.1046C61.0586 25.2804 60.2829 25.3243 59.5512 25.5879C59.7414 25.9687 59.7853 26.2615 59.6536 26.6277C59.478 27.1109 59.5073 27.2427 59.6975 27.4917C59.8 27.3452 59.8731 27.1402 60.0341 27.0084C60.7659 26.4373 61.4976 25.8661 62.3758 25.5147C62.9319 25.2657 63.488 24.9875 64.0442 24.7239ZM61.8196 53.0753C62.1562 52.9142 62.2587 52.636 62.1562 52.2699C62.0099 51.6841 61.8782 51.0837 61.7318 50.4979C61.483 49.5021 61.0732 48.5941 60.3415 47.8326C59.2146 46.6904 58.1901 45.431 56.7559 44.6402C56.0387 44.2448 55.3362 43.8054 54.5752 43.5565C53.8727 43.3222 53.0971 43.2636 52.3507 43.1904C51.4433 43.1025 50.5506 42.9707 49.6871 42.6925C48.97 42.4582 48.2821 42.59 47.5943 42.8536C47.0088 43.0732 46.4381 43.3222 45.838 43.454C45.0624 43.6297 44.3745 43.4247 43.9062 42.7071C43.8184 42.5607 43.672 42.4582 43.555 42.341C43.0135 41.8138 42.4427 41.3159 41.9451 40.7594C41.1987 39.9247 40.3499 39.1632 39.2815 38.885C37.8619 38.5042 36.3984 38.0063 34.8763 38.4896C34.6421 38.5628 34.3641 38.4603 34.1006 38.431C33.9836 38.4163 33.8665 38.4017 33.764 38.4163C32.564 38.6946 31.4956 39.1925 30.7199 40.2322C30.2809 40.818 30.1492 41.4477 30.1784 42.1506C30.1784 42.3264 30.1931 42.5021 30.1784 42.6632C30.076 43.7029 29.9735 44.728 29.8711 45.7678C29.8857 45.7678 29.9004 45.7678 29.915 45.7824C29.9296 46.0167 29.915 46.2657 29.9735 46.5C30.2662 47.4958 30.5589 48.5063 30.8809 49.4874C30.9687 49.751 31.1151 50 31.2761 50.2343C32.2274 51.5523 33.486 52.4456 35.008 52.9874C35.6666 53.2217 36.2813 53.5439 36.9252 53.8222C37.6277 54.115 38.3156 54.4372 39.0181 54.7008C40.1157 55.1109 41.228 55.477 42.3256 55.8724C42.9549 56.092 43.5403 56.4142 44.1843 56.5753C45.0185 56.795 45.9112 56.751 46.7308 57.0293C46.8186 57.0585 46.921 57.0732 47.0089 57.0732C47.6235 57.0878 48.2528 57.0586 48.8675 57.1464C49.5993 57.2636 50.3164 57.1464 51.0042 56.956C51.8677 56.7364 52.6873 56.4142 53.6093 56.4435C54.3118 56.4581 54.9996 56.3556 55.7021 56.341C56.0826 56.3263 56.4485 56.3703 56.829 56.3996C57.8242 56.4874 58.5121 55.887 59.1999 55.3305C60.0927 54.5837 60.7366 53.5878 61.8196 53.0753ZM58.7462 44.3619C58.717 43.0439 58.6877 41.8431 58.6731 40.6423C58.6584 39.4268 58.6438 38.2113 58.6292 37.0105C57.9559 37.3473 57.5022 37.8745 57.0486 38.4163C56.5656 38.9875 56.068 39.5732 55.6436 40.1883C55.2777 40.7008 54.9265 41.2134 54.4289 41.5942C53.9605 41.9456 53.3605 41.887 53.141 41.3598C52.9214 40.818 52.7166 40.2615 52.5995 39.6904C52.4092 38.7239 52.2775 37.7573 52.1311 36.7762C52.1019 36.5858 52.1311 36.3515 51.897 36.2783C51.2677 37.0983 50.6969 37.9331 50.0091 38.6653C49.3505 39.3829 48.809 40.1737 48.2967 40.9937C48.2089 41.1402 48.1358 41.3159 48.0187 41.5502C48.5455 41.5502 48.9553 41.5063 49.3651 41.5649C49.9651 41.6527 50.5359 41.8431 51.136 41.931C52.1751 42.0921 53.2288 42.2239 54.2825 42.3703C55.0728 42.4875 55.8338 42.6778 56.5363 43.1025C57.2095 43.4979 57.912 43.8787 58.7462 44.3619Z" fill="#4D3826"/>
<g filter="url(#filter0_d)">
<path d="M162.919 14.3265C162.919 15.0001 162.539 15.5273 161.88 15.7031C161.661 15.7616 161.573 15.8641 161.558 16.0985C161.456 17.7825 161.353 19.4666 161.236 21.1361C161.178 22.0587 161.105 22.9959 161.017 23.9185C160.914 25.2072 160.783 26.4813 160.68 27.77C160.549 29.3808 160.475 30.9771 160.329 32.588C160.183 34.1842 160.022 35.7804 159.7 37.362C159.524 38.1967 159.451 39.0461 159.319 39.8955C159.261 40.203 159.158 40.5105 159.07 40.8181C159.026 40.9791 158.953 41.1402 158.924 41.3013C158.88 41.5796 158.734 41.7407 158.514 41.931C158.163 42.2386 157.856 42.6193 157.622 43.0147C157.314 43.5126 156.934 43.8934 156.436 44.2009C156.129 44.3913 155.851 44.6109 155.777 45.0063C155.763 45.1088 155.646 45.1821 155.587 45.2846C155.426 45.6068 155.207 45.8996 155.119 46.2365C154.87 47.1298 154.358 47.7888 153.553 48.2134C153.48 48.2574 153.421 48.2867 153.363 48.3306C152.807 48.8871 152.075 49.136 151.328 49.2825C150.48 49.4436 149.601 49.5461 148.797 49.0335C148.562 48.8871 148.372 48.726 148.27 48.4624C148.153 48.1842 148.006 47.9206 147.874 47.6423C147.45 46.7783 146.718 46.2657 145.884 45.8557C145.504 45.6653 145.167 45.3725 144.801 45.1381C144.26 44.7867 143.703 44.4645 143.162 44.1277C142.386 43.6591 141.611 43.1904 140.835 42.7072C140.513 42.5022 140.206 42.2971 139.869 42.0921C139.459 41.8432 139.035 41.6381 138.654 41.3599C138.274 41.0817 137.908 40.7741 137.586 40.4373C137.396 40.2323 137.205 40.1005 136.942 40.0126C135.815 39.6465 135.244 38.7679 134.996 37.6842C134.776 36.6884 135.361 35.9854 136.137 35.5168C136.649 35.2093 136.781 34.8432 136.752 34.316C136.737 33.9059 136.796 33.4813 136.796 33.0712C136.796 32.4122 136.796 31.7386 136.781 31.0796C136.766 30.6695 136.737 30.2449 136.708 29.8495C136.635 29.8348 136.591 29.8202 136.576 29.8348C136.122 30.4059 135.464 30.8013 135.098 31.4603C135.054 31.5336 135.01 31.5921 134.952 31.6361C134.571 31.8704 134.542 32.1779 134.688 32.5733C134.732 32.7051 134.703 32.8662 134.688 33.0126C134.644 34.2281 133.927 35.0775 133.122 35.8829C133.034 35.9562 132.947 36.0294 132.873 36.1172C132.069 37.0398 131.132 36.8934 130.342 36.3369C129.873 36.0147 129.478 35.6047 129.244 35.0775C128.249 34.7992 127.371 34.3453 126.522 33.8181C125.775 33.3641 125 32.9687 124.224 32.5733C123.39 32.134 122.541 31.7239 121.692 31.2993C121.326 31.1235 120.931 30.9624 120.551 30.8013C120.141 30.6256 119.995 30.362 120.199 30.0106C120.346 29.747 120.317 29.5126 120.302 29.249C120.17 27.8285 119.819 26.4373 119.834 25.0168C119.834 24.6214 119.746 24.226 119.702 23.8307C119.555 22.5859 119.424 21.3558 119.248 20.111C119.116 19.1298 118.897 18.1633 118.794 17.1821C118.663 15.747 118.619 14.3118 118.516 12.8621C118.487 12.3788 118.37 11.8955 118.326 11.4123C118.224 10.2261 118.121 9.02525 118.033 7.83906C117.99 7.26793 118.004 6.66751 117.668 6.14032C117.624 6.06709 117.609 5.94994 117.638 5.86207C117.814 5.39346 117.697 4.92484 117.653 4.45622C117.609 4.07547 117.741 3.79722 118.048 3.57756C118.414 3.29932 118.853 3.18216 119.292 3.06501C119.336 3.05036 119.365 3.06501 119.409 3.05036C120.39 2.64032 121.458 2.53781 122.38 1.98133C122.746 1.76166 123.112 1.52735 123.507 1.33698C123.946 1.11731 124.4 0.926937 124.839 0.736561C124.868 0.721916 124.912 0.707272 124.941 0.692627C125.673 0.487607 126.39 0.238653 127.136 0.106855C128.307 -0.0981658 129.463 -0.0395877 130.561 0.560829C131.103 0.853716 131.717 1.04409 132.303 1.23447C133.517 1.62987 134.644 2.18635 135.771 2.77212C135.932 2.85999 136.108 2.94785 136.283 2.99179C136.957 3.15287 137.557 3.48969 138.127 3.84116C138.552 4.09011 138.991 4.39764 139.24 4.79304C139.503 5.20308 139.547 5.75956 139.664 6.25747C139.679 6.3014 139.65 6.38927 139.62 6.41856C139.24 6.79931 139.284 7.37044 138.918 7.88299C139.562 7.67797 140.074 7.51688 140.601 7.35579C142.138 6.90182 143.689 6.46249 145.226 6.02316C145.899 5.83278 146.557 5.59848 147.245 5.42275C148.24 5.15915 149.25 5.0127 150.275 5.11521C150.816 5.17379 151.328 5.4081 151.841 5.55454C152.089 5.62776 152.338 5.70099 152.587 5.77421C152.719 5.81814 152.85 5.84743 152.968 5.89136C153.655 6.18425 154.373 6.46249 155.046 6.79931C155.734 7.15077 156.378 7.60475 157.065 7.95621C157.929 8.41018 158.865 8.747 159.7 9.25955C160.431 9.71353 161.28 10.0211 161.88 10.6801C162.158 10.9876 162.407 11.3244 162.612 11.6905C162.876 12.1445 163.022 12.6424 162.919 13.1989C162.832 13.5943 162.919 13.975 162.919 14.3265ZM160.9 14.7219C161.163 14.5608 161.28 14.3704 161.134 14.0482C160.783 14.019 160.519 14.2093 160.241 14.3558C159.451 14.7805 158.734 15.3516 157.87 15.6884C157.417 15.8641 156.963 16.0838 156.553 16.3474C155.763 16.86 154.899 17.1675 154.036 17.5189C153.421 17.7679 153.319 17.8558 153.377 18.5148C153.392 18.7637 153.465 19.0127 153.538 19.3202C153.86 19.1591 154.094 19.042 154.314 18.9102C154.768 18.6466 155.207 18.3683 155.66 18.1047C156.451 17.6361 157.27 17.1821 158.046 16.6989C158.544 16.3913 158.997 16.0106 159.48 15.6884C159.948 15.3369 160.417 15.0294 160.9 14.7219ZM160.944 12.3349C161.163 12.1298 161.149 11.8809 160.958 11.6759C160.783 11.4855 160.578 11.2951 160.344 11.178C159.275 10.5922 158.207 10.0357 157.139 9.46457C156.729 9.24491 156.304 9.0106 155.895 8.77629C155.441 8.5127 155.002 8.20516 154.519 7.97086C153.933 7.69261 153.333 7.47295 152.719 7.25328C152.075 7.01898 151.431 6.78467 150.787 6.59429C149.821 6.3014 148.826 6.37463 147.86 6.59429C146.499 6.88718 145.138 7.25328 143.791 7.61939C143.045 7.82441 142.299 8.04408 141.567 8.26374C141.216 8.36625 140.894 8.52734 140.542 8.58591C139.489 8.73236 138.698 9.30349 137.981 10.0943C138.054 10.1529 138.084 10.1821 138.113 10.2114C138.932 10.6215 139.767 10.9729 140.542 11.4269C141.333 11.8955 142.225 12.1445 142.972 12.7156C143.528 13.1403 144.186 13.4918 144.874 13.77C145.767 14.1215 146.616 14.5754 147.494 14.9855C147.567 15.0148 147.64 15.0441 147.684 15.1026C148.065 15.542 148.592 15.7031 149.104 15.8349C150.128 16.1131 151.109 16.4792 152.089 16.8453C152.206 16.8892 152.353 16.9039 152.47 16.8453C153.319 16.4939 154.182 16.1277 155.016 15.7323C155.587 15.4687 156.129 15.1612 156.67 14.8683C157.124 14.634 157.592 14.4144 158.031 14.1654C158.778 13.7554 159.524 13.3307 160.241 12.906C160.505 12.7449 160.724 12.5399 160.944 12.3349ZM159.773 18.5294C159.802 18.1194 159.875 17.68 159.7 17.2261C159.553 17.2993 159.422 17.3286 159.319 17.4018C158.792 17.724 158.265 18.0754 157.724 18.383C157.051 18.7637 156.363 19.1298 155.675 19.4959C154.724 20.0231 153.772 20.5796 152.807 21.1068C152.631 21.1947 152.528 21.2825 152.528 21.4876C152.528 21.6633 152.514 21.8244 152.514 22.0001C152.558 24.2407 152.587 26.4666 152.631 28.7072C152.631 29.1026 152.602 29.498 152.602 29.8934C152.616 30.8599 152.704 31.8265 152.675 32.793C152.616 35.1946 152.777 37.567 153.011 39.9394C153.055 40.3787 153.202 40.5105 153.626 40.657C153.904 40.7595 154.197 40.862 154.431 41.0524C154.987 41.4917 155.499 41.975 155.441 42.7804C155.441 42.8097 155.47 42.839 155.529 42.9415C155.631 42.9122 155.748 42.8976 155.807 42.8536C156.202 42.4436 156.67 42.1214 156.875 41.5503C156.948 41.3599 157.08 41.1842 157.182 41.0084C157.285 40.8181 157.417 40.613 157.446 40.408C157.665 39.134 157.885 37.8746 158.075 36.6005C158.192 35.7804 158.265 34.9457 158.353 34.111C158.426 33.3934 158.5 32.6758 158.573 31.9582C158.646 31.2993 158.719 30.6403 158.822 29.9813C158.968 29.0001 158.763 27.975 159.056 27.0085C159.07 26.9645 159.07 26.9352 159.07 26.8913C159.114 26.247 159.173 25.6026 159.217 24.9729C159.305 23.9185 159.392 22.8641 159.495 21.8097C159.583 20.7114 159.7 19.6277 159.773 18.5294ZM151.68 19.4081C151.767 18.588 151.753 18.6173 151.094 18.3097C150.714 18.134 150.333 18.1194 149.953 18.0315C148.372 17.6654 146.909 16.9771 145.474 16.2595C145.357 16.201 145.211 16.1717 145.079 16.1277C145.065 16.1717 145.05 16.2302 145.021 16.2742C147.157 17.475 149.309 18.6905 151.68 19.4081ZM151.123 40.2323C151.123 39.6758 151.138 39.134 151.123 38.5775C151.065 37.1131 150.963 35.6633 150.933 34.1988C150.889 31.8704 150.904 29.5273 150.889 27.1988C150.875 25.2804 150.86 23.362 150.831 21.4436C150.802 20.3014 150.714 20.3892 149.85 20.111C148.416 19.6277 147.128 18.8662 145.796 18.2072C144.874 17.7533 143.982 17.2554 143.06 16.8307C141.786 16.2449 140.498 15.6884 139.21 15.1466C138.962 15.0441 138.669 15.0001 138.318 14.9123C138.318 15.4248 138.245 15.8202 138.332 16.201C138.508 17.0064 138.508 17.8265 138.537 18.6319C138.567 19.1591 138.669 19.6863 138.61 20.2135C138.493 21.5022 138.567 22.7909 138.552 24.0796C138.552 24.226 138.567 24.3871 138.552 24.5336C138.508 25.3097 138.449 26.0859 138.435 26.862C138.42 27.4478 138.479 28.0336 138.479 28.6193C138.479 29.4834 138.449 30.362 138.449 31.226C138.449 31.5043 138.493 31.7972 138.493 32.0754C138.479 32.7783 138.435 33.4813 138.449 34.1842C138.464 35.1507 138.552 36.1172 138.552 37.0838C138.552 37.8013 138.654 38.475 138.874 39.1486C138.991 39.5147 139.181 39.793 139.518 39.9687C139.898 40.1737 140.279 40.3934 140.645 40.613C141.098 40.8913 141.523 41.1988 141.977 41.4771C143.528 42.4143 145.094 43.3515 146.66 44.2888C146.923 44.4499 147.201 44.6109 147.465 44.772C148.592 42.3557 149.133 41.6821 151.123 40.2323ZM144.625 16.0985C144.64 16.0692 144.64 16.0545 144.655 16.0252C142.299 14.8098 139.957 13.6089 137.527 12.3642C137.542 12.7303 137.498 13.0085 137.791 13.1842C138.376 13.5211 138.947 13.9018 139.635 14.0336C139.796 14.0629 139.957 14.1361 140.103 14.2093C141.42 14.7512 142.679 15.4541 144.055 15.8934C144.26 15.952 144.435 16.0252 144.625 16.0985ZM137.966 6.85789C137.923 6.81395 137.879 6.78467 137.849 6.74073C137.688 6.84324 137.542 6.93111 137.381 7.03362C136.752 7.42902 136.137 7.86835 135.405 8.1173C134.805 8.32232 134.249 8.64449 133.678 8.95202C133.269 9.17169 132.888 9.47922 132.478 9.68424C131.878 9.96248 131.688 10.4604 131.615 11.1487C132.01 10.9583 132.347 10.7972 132.683 10.6215C133.869 9.96248 135.069 9.31813 136.24 8.6152C136.766 8.29303 137.22 7.8537 137.674 7.42901C137.82 7.29722 137.879 7.04826 137.966 6.85789ZM137.835 5.43739C137.527 5.17379 137.366 4.98341 137.162 4.8809C136.679 4.61731 136.181 4.41228 135.683 4.17798C134.893 3.81187 134.103 3.43112 133.313 3.0943C132.449 2.71354 131.571 2.37672 130.693 2.01062C130.181 1.8056 129.698 1.55664 129.171 1.38091C128.6 1.17589 128.015 1.00016 127.4 1.17589C127.078 1.2784 126.756 1.36627 126.434 1.46878C125.307 1.8056 124.195 2.15706 123.17 2.77212C122.746 3.03572 122.248 3.2261 121.765 3.3579C121.209 3.50434 120.741 3.70936 120.448 4.30978C120.638 4.383 120.799 4.42693 120.946 4.50015C121.56 4.79304 122.175 5.10057 122.775 5.4081C123.17 5.61312 123.639 5.75956 123.931 6.06709C124.297 6.44785 124.751 6.62358 125.205 6.84324C125.819 7.13613 126.434 7.41437 127.005 7.76584C127.385 8.00014 127.78 8.13194 128.19 8.29303C128.541 8.43947 128.893 8.57127 129.229 8.73236C129.537 8.8788 129.844 9.02525 130.122 9.21562C130.576 9.49387 130.971 9.39135 131.395 9.12776C132.215 8.62985 133.064 8.16123 133.913 7.69261C134.352 7.45831 134.835 7.28257 135.259 7.03362C135.991 6.60893 136.708 6.14032 137.44 5.70099C137.542 5.61312 137.659 5.55454 137.835 5.43739ZM136.884 21.9708C136.898 21.1361 136.913 20.3014 136.869 19.4666C136.81 18.2219 136.693 16.9771 136.591 15.7177C136.562 15.3809 136.547 15.0441 136.532 14.7072C136.503 14.2972 136.503 13.9018 136.181 13.5503C135.976 13.3307 135.859 12.9792 135.83 12.6717C135.771 12.1445 135.8 11.6173 135.815 11.0754C135.83 10.724 135.991 10.4604 136.357 10.3579C136.401 10.3432 136.43 10.2847 136.488 10.2261C136.386 10.1089 136.298 9.99177 136.181 9.85997C135.581 10.2114 134.981 10.5336 134.396 10.8704C133.898 11.1487 133.4 11.4123 132.903 11.6905C132.405 11.9688 131.922 12.247 131.425 12.5252C131.22 12.6424 131.088 12.8035 131.088 13.0671C131.088 13.5357 131 14.019 131.044 14.4729C131.117 15.2637 131.161 16.0399 131.073 16.8307C130.956 17.9143 131.029 19.0273 131.015 20.1256C131.015 20.4332 131.015 20.7261 131.029 21.0336C131.088 22.0148 131.147 22.9959 131.19 23.9771C131.249 25.2219 131.278 26.4813 131.337 27.726C131.366 28.2239 131.395 28.7365 131.586 29.2783C132.727 29.1319 133.4 29.908 134.205 30.4206C134.717 29.8934 135.244 29.3808 135.742 28.8244C136.005 28.5315 136.181 28.1654 136.43 27.8578C136.62 27.6235 136.723 27.4185 136.708 27.0963C136.679 26.6863 136.752 26.2616 136.752 25.8516C136.81 24.5922 136.854 23.2888 136.884 21.9708ZM130.503 11.6173C130.59 10.9729 130.4 10.6215 129.844 10.3725C129.434 10.1821 129.01 9.99177 128.585 9.85997C127.4 9.49386 126.317 8.92274 125.234 8.33696C124.239 7.79512 123.273 7.1947 122.263 6.68215C121.37 6.22818 120.434 5.84743 119.526 5.45203C119.409 5.39345 119.277 5.39346 119.102 5.34952C119.102 5.77421 119.16 5.92065 119.365 6.0378C119.877 6.31605 120.39 6.57964 120.902 6.85789C121.312 7.0922 121.692 7.41437 122.131 7.54617C122.907 7.78048 123.58 8.20516 124.239 8.62985C124.707 8.93738 125.19 9.15704 125.673 9.39135C126.288 9.66959 126.932 9.90391 127.561 10.1675C127.941 10.3286 128.322 10.5043 128.688 10.6947C129.054 10.8851 129.39 11.1194 129.742 11.3098C129.976 11.4416 130.239 11.5148 130.503 11.6173ZM129.654 31.1528C129.873 30.8013 129.917 30.4792 129.888 30.0838C129.771 28.7951 129.683 27.5064 129.61 26.2177C129.566 25.6319 129.595 25.0461 129.537 24.4604C129.405 22.7616 129.449 21.0482 129.537 19.3495C129.595 18.3097 129.683 17.27 129.61 16.2303C129.581 15.6884 129.566 15.1319 129.551 14.5901C129.522 13.9897 129.493 13.3893 129.493 12.7888C129.493 12.5252 129.405 12.3495 129.185 12.2324C128.702 11.9688 128.234 11.6759 127.737 11.4416C126.683 10.9437 125.585 10.4897 124.531 9.96248C123.668 9.5378 122.834 9.05453 121.97 8.60056C121.4 8.30767 120.814 8.02943 120.243 7.75119C120.097 7.67797 119.936 7.64868 119.731 7.57546C119.687 7.79512 119.643 7.91228 119.658 8.01479C119.687 8.73236 119.702 9.46458 119.76 10.1821C119.804 10.7826 119.921 11.383 119.98 11.9834C120.097 13.4625 120.156 14.9416 120.317 16.406C120.521 18.1926 120.799 19.9792 121.048 21.7512C121.195 22.8202 121.326 23.8892 121.458 24.9729C121.648 26.452 121.809 27.9457 122 29.4394C122.043 29.7762 122.204 30.0398 122.526 30.2009C123.258 30.5817 123.975 31.0064 124.707 31.3871C125.38 31.7386 126.068 32.0461 126.741 32.3976C127.268 32.6612 127.766 32.9834 128.293 33.2323C128.644 33.408 128.717 33.3202 128.863 32.9541C129.083 32.3536 129.317 31.7093 129.654 31.1528Z" fill="#29353A"/>
<path d="M161.12 14.0482C161.266 14.3704 161.149 14.5607 160.885 14.7218C160.402 15.0294 159.934 15.3369 159.466 15.6591C158.983 15.9959 158.529 16.362 158.032 16.6695C157.256 17.1528 156.436 17.6068 155.646 18.0754C155.192 18.339 154.753 18.6172 154.3 18.8808C154.065 19.0126 153.831 19.1298 153.524 19.2909C153.465 18.9833 153.392 18.7344 153.363 18.4854C153.304 17.8264 153.407 17.7386 154.022 17.4896C154.885 17.1528 155.748 16.8306 156.539 16.3181C156.949 16.0545 157.402 15.8348 157.856 15.6591C158.719 15.3369 159.422 14.7511 160.227 14.3264C160.52 14.2093 160.783 14.0189 161.12 14.0482Z" fill="#FFF31A"/>
<path d="M160.958 11.6759C161.148 11.881 161.163 12.1299 160.944 12.3349C160.724 12.54 160.504 12.7596 160.256 12.9061C159.524 13.3454 158.792 13.7554 158.046 14.1655C157.607 14.4144 157.138 14.6194 156.685 14.8684C156.129 15.1466 155.587 15.4688 155.031 15.7324C154.182 16.1278 153.333 16.4793 152.484 16.8454C152.382 16.8893 152.221 16.8747 152.104 16.8454C151.123 16.4793 150.143 16.0985 149.118 15.8349C148.606 15.7031 148.065 15.542 147.699 15.1027C147.655 15.0441 147.567 15.0148 147.508 14.9856C146.645 14.5755 145.782 14.1215 144.889 13.7701C144.201 13.4918 143.542 13.1404 142.986 12.7157C142.225 12.1446 141.347 11.8956 140.557 11.427C139.781 10.973 138.932 10.6069 138.127 10.2115C138.098 10.1969 138.069 10.1676 137.996 10.0944C138.713 9.30356 139.503 8.73243 140.557 8.58599C140.908 8.54205 141.245 8.36632 141.581 8.26381C142.328 8.04415 143.059 7.80984 143.806 7.61946C145.152 7.268 146.513 6.90189 147.874 6.59436C148.84 6.38934 149.835 6.31612 150.801 6.59436C151.445 6.78474 152.089 7.01905 152.733 7.25336C153.333 7.47302 153.948 7.69268 154.533 7.97093C155.016 8.19059 155.441 8.51277 155.909 8.77636C156.319 9.01067 156.743 9.23034 157.153 9.46464C158.221 10.0358 159.29 10.5923 160.358 11.178C160.578 11.2952 160.783 11.4856 160.958 11.6759ZM153.319 13.9458C154.006 13.6529 154.08 13.5211 153.963 12.7889C153.904 12.4667 153.772 12.2031 153.523 12.0274C153.158 11.7638 152.777 11.5149 152.397 11.2659C151.782 10.8412 151.167 10.4019 150.553 9.96255C150.245 9.74289 149.879 9.5818 149.645 9.30356C149.162 8.76172 148.591 8.80565 147.977 8.92281C147.582 8.99603 147.201 9.08389 146.821 9.17176C146.66 9.21569 146.469 9.23034 146.367 9.34749C145.781 9.93326 145.825 10.563 146.499 11.0169C147.86 11.9395 149.235 12.8328 150.596 13.7701C150.757 13.8726 150.875 14.063 150.992 14.2387C151.065 14.3558 151.109 14.5169 151.197 14.7512C151.475 14.6927 151.723 14.6634 151.943 14.5755C152.397 14.3705 152.836 14.1362 153.319 13.9458Z" fill="#FFF31A"/>
<path d="M159.7 17.2262C159.876 17.6802 159.788 18.1195 159.773 18.5295C159.715 19.6279 159.583 20.7262 159.495 21.8099C159.407 22.8643 159.305 23.9187 159.217 24.973C159.159 25.6174 159.115 26.2617 159.071 26.8914C159.071 26.9354 159.071 26.9647 159.056 27.0086C158.778 27.9898 158.968 29.0002 158.822 29.9814C158.719 30.6404 158.646 31.2994 158.573 31.9584C158.5 32.676 158.427 33.3935 158.354 34.1111C158.266 34.9458 158.193 35.7659 158.076 36.6006C157.885 37.8747 157.68 39.1487 157.446 40.4082C157.402 40.6132 157.271 40.8182 157.183 41.0086C157.08 41.199 156.949 41.36 156.875 41.5504C156.671 42.1215 156.188 42.4437 155.807 42.8538C155.749 42.9123 155.646 42.9123 155.529 42.9416C155.47 42.8391 155.441 42.8098 155.441 42.7805C155.5 41.9751 154.987 41.4918 154.431 41.0525C154.197 40.8621 153.904 40.7596 153.626 40.6571C153.202 40.5107 153.056 40.3789 153.012 39.9395C152.778 37.5672 152.602 35.1801 152.675 32.7931C152.704 31.8266 152.617 30.8601 152.602 29.8935C152.602 29.4981 152.646 29.1027 152.631 28.7073C152.602 26.4668 152.558 24.2408 152.514 22.0002C152.514 21.8245 152.529 21.6634 152.529 21.4877C152.529 21.2827 152.631 21.1948 152.807 21.1069C153.773 20.5797 154.724 20.0379 155.675 19.4961C156.349 19.1153 157.036 18.7639 157.724 18.3831C158.266 18.0756 158.778 17.7241 159.32 17.4019C159.422 17.3287 159.554 17.2848 159.7 17.2262Z" fill="#295E1B"/>
<path d="M153.948 12.7888C154.08 13.521 154.006 13.6528 153.304 13.9457C152.836 14.136 152.382 14.3704 151.914 14.5607C151.694 14.6486 151.445 14.6779 151.167 14.7365C151.079 14.5021 151.035 14.3557 150.962 14.2239C150.845 14.0628 150.728 13.8724 150.567 13.7553C149.206 12.8327 147.83 11.9247 146.469 11.0022C145.796 10.5482 145.752 9.90383 146.338 9.3327C146.44 9.23019 146.63 9.20091 146.791 9.15697C147.172 9.06911 147.567 8.98124 147.947 8.90802C148.548 8.79086 149.133 8.74693 149.616 9.28877C149.865 9.56701 150.216 9.7281 150.523 9.94777C151.138 10.3871 151.753 10.8264 152.367 11.2511C152.733 11.5147 153.128 11.749 153.494 12.0126C153.772 12.2176 153.904 12.4812 153.948 12.7888ZM152.353 12.9352C152.221 12.7888 152.104 12.6423 151.958 12.5398C151.27 12.0419 150.582 11.544 149.879 11.0754C149.396 10.7532 148.899 10.4603 148.416 10.1235C148.123 9.91847 147.947 10.0503 147.713 10.2553C148.196 10.5482 148.504 10.9875 149.016 11.1779C149.25 11.2658 149.426 11.4854 149.631 11.6611C149.835 11.8222 149.996 12.0858 150.231 12.1444C150.772 12.2909 151.167 12.5984 151.592 12.9206C151.797 13.0963 152.045 13.1549 152.353 12.9352Z" fill="#37474F"/>
<path d="M151.972 12.54C152.119 12.6425 152.221 12.7889 152.367 12.9354C152.06 13.155 151.811 13.0965 151.592 12.9207C151.182 12.5986 150.772 12.2764 150.231 12.1446C149.996 12.086 149.835 11.8224 149.631 11.6613C149.426 11.5002 149.25 11.2659 149.016 11.1781C148.504 10.9877 148.196 10.5484 147.713 10.2555C147.948 10.0505 148.123 9.91865 148.416 10.1237C148.899 10.4605 149.396 10.7534 149.879 11.0756C150.582 11.5588 151.284 12.0421 151.972 12.54Z" fill="#FFF31A"/>
<path d="M151.094 18.3243C151.753 18.6319 151.767 18.6026 151.68 19.4227C149.294 18.7051 147.157 17.4896 145.021 16.2888C145.035 16.2448 145.05 16.1863 145.079 16.1423C145.211 16.1863 145.357 16.2156 145.474 16.2741C146.908 17.0063 148.372 17.68 149.953 18.0461C150.333 18.1193 150.714 18.1486 151.094 18.3243Z" fill="#FFF31A"/>
<path d="M151.123 38.5775C151.138 39.1193 151.123 39.6758 151.123 40.2323C149.133 41.682 148.592 42.3557 147.45 44.7866C147.172 44.6256 146.908 44.4645 146.645 44.3034C145.079 43.3661 143.528 42.4289 141.962 41.4917C141.508 41.2134 141.084 40.9059 140.63 40.6277C140.264 40.408 139.884 40.1883 139.503 39.9833C139.166 39.7929 138.976 39.5293 138.859 39.1632C138.64 38.4896 138.537 37.8013 138.537 37.0984C138.537 36.1319 138.449 35.1653 138.435 34.1988C138.42 33.4959 138.479 32.7929 138.479 32.09C138.479 31.8118 138.435 31.5189 138.435 31.2407C138.435 30.3766 138.464 29.498 138.464 28.634C138.464 28.0482 138.42 27.4624 138.42 26.8766C138.435 26.1005 138.493 25.3243 138.537 24.5482C138.552 24.4018 138.537 24.2407 138.537 24.0942C138.552 22.8055 138.479 21.5168 138.596 20.2281C138.64 19.7156 138.537 19.1737 138.523 18.6465C138.493 17.8265 138.479 17.021 138.318 16.2156C138.23 15.8348 138.303 15.4248 138.303 14.9269C138.654 15.0147 138.932 15.044 139.196 15.1612C140.484 15.703 141.772 16.2595 143.045 16.8453C143.967 17.27 144.874 17.7679 145.782 18.2219C147.128 18.8808 148.401 19.6424 149.836 20.1256C150.699 20.4185 150.787 20.3306 150.816 21.4582C150.86 23.3767 150.86 25.2951 150.875 27.2135C150.889 29.5419 150.875 31.885 150.918 34.2134C150.962 35.6632 151.065 37.1277 151.123 38.5775Z" fill="#295E1B"/>
<path d="M144.655 16.0252C144.64 16.0545 144.64 16.0691 144.625 16.0984C144.435 16.0252 144.259 15.952 144.069 15.8934C142.708 15.4541 141.449 14.7512 140.118 14.2093C139.957 14.1507 139.81 14.0775 139.649 14.0336C138.961 13.9018 138.391 13.521 137.805 13.1842C137.513 13.0085 137.542 12.7302 137.542 12.3641C139.957 13.6089 142.298 14.8097 144.655 16.0252Z" fill="#FFF31A"/>
<path d="M137.849 6.74072C137.893 6.78466 137.937 6.81394 137.966 6.85788C137.864 7.04825 137.805 7.2972 137.659 7.429C137.205 7.85369 136.737 8.29302 136.225 8.61519C135.069 9.31812 133.854 9.96247 132.668 10.6215C132.346 10.7972 132.01 10.9436 131.6 11.1487C131.673 10.4604 131.864 9.96247 132.464 9.68423C132.888 9.47921 133.254 9.18632 133.664 8.95201C134.234 8.64448 134.791 8.32231 135.391 8.11729C136.122 7.86833 136.722 7.44365 137.366 7.03361C137.542 6.9311 137.688 6.84323 137.849 6.74072Z" fill="#FF2222"/>
<path d="M137.162 4.88096C137.366 4.98347 137.527 5.18849 137.835 5.43744C137.645 5.5546 137.527 5.61317 137.425 5.67175C136.693 6.12573 135.991 6.5797 135.244 7.00439C134.805 7.25334 134.337 7.42907 133.898 7.66338C133.049 8.132 132.2 8.60062 131.381 9.09852C130.956 9.36212 130.561 9.46463 130.107 9.18639C129.815 9.01066 129.522 8.84957 129.215 8.70313C128.878 8.54204 128.527 8.3956 128.176 8.2638C127.78 8.10271 127.371 7.97091 126.99 7.7366C126.419 7.38514 125.79 7.1069 125.19 6.81401C124.736 6.59435 124.297 6.43326 123.917 6.03786C123.624 5.73033 123.156 5.58389 122.761 5.37887C122.161 5.07134 121.546 4.7638 120.931 4.47092C120.785 4.3977 120.624 4.35376 120.434 4.28054C120.726 3.68012 121.195 3.4751 121.751 3.32866C122.234 3.21151 122.731 3.00649 123.156 2.74289C124.18 2.12783 125.292 1.77636 126.419 1.43954C126.741 1.33703 127.063 1.23452 127.385 1.14666C128 0.970926 128.585 1.14666 129.156 1.35168C129.668 1.54205 130.166 1.77636 130.678 1.98138C131.556 2.34749 132.434 2.68431 133.298 3.06507C134.088 3.41653 134.878 3.78264 135.669 4.14874C136.181 4.41234 136.679 4.61736 137.162 4.88096ZM132.815 6.41861C133.181 5.97928 133.181 5.71568 132.698 5.45209C132.376 5.27636 132.025 5.1592 131.761 4.93954C131.059 4.36841 130.21 4.06088 129.42 3.65084C128.907 3.38724 128.38 3.13829 127.927 2.75753C127.693 2.56716 127.444 2.52322 127.18 2.65502C126.624 2.91862 126.156 3.29937 125.746 3.76799C125.41 4.14874 125.556 4.6613 126.024 4.82238C127.151 5.20314 128.132 5.86213 129.098 6.50648C129.654 6.87259 130.239 7.06296 130.898 7.07761C131.6 7.03367 132.288 7.03367 132.815 6.41861Z" fill="#FF2222"/>
<path d="M136.869 19.4667C136.913 20.3014 136.898 21.1361 136.883 21.9709C136.854 23.2742 136.825 24.5922 136.781 25.8955C136.766 26.3056 136.693 26.7303 136.737 27.1403C136.766 27.4625 136.649 27.6675 136.459 27.9018C136.21 28.2093 136.035 28.5754 135.771 28.8683C135.288 29.4102 134.761 29.9227 134.234 30.4646C133.43 29.9374 132.756 29.1759 131.615 29.3223C131.41 28.7951 131.395 28.2826 131.366 27.77C131.293 26.5252 131.278 25.2658 131.22 24.0211C131.176 23.0399 131.103 22.0587 131.059 21.0775C131.044 20.77 131.044 20.4771 131.044 20.1696C131.059 19.0713 130.985 17.973 131.103 16.8746C131.19 16.0692 131.146 15.293 131.073 14.5169C131.029 14.0483 131.117 13.5797 131.117 13.111C131.117 12.8474 131.234 12.6864 131.454 12.5692C131.951 12.291 132.434 12.0127 132.932 11.7345C133.43 11.4562 133.927 11.1926 134.425 10.9144C135.01 10.5776 135.61 10.2554 136.21 9.90393C136.327 10.0357 136.415 10.1529 136.518 10.27C136.459 10.3286 136.43 10.3872 136.386 10.4018C136.02 10.5044 135.859 10.7679 135.844 11.1194C135.83 11.6466 135.8 12.1884 135.859 12.7156C135.888 13.0232 136.005 13.3746 136.21 13.5943C136.532 13.9458 136.532 14.3412 136.561 14.7512C136.576 15.088 136.605 15.4248 136.62 15.7617C136.679 16.9771 136.81 18.2219 136.869 19.4667Z" fill="#295E1B"/>
<path d="M132.698 5.45201C133.195 5.71561 133.195 5.97921 132.815 6.41854C132.288 7.0336 131.6 7.0336 130.898 7.06289C130.239 7.06289 129.668 6.87251 129.097 6.49176C128.117 5.84741 127.136 5.18842 126.024 4.80766C125.556 4.64658 125.409 4.13403 125.746 3.75327C126.141 3.2993 126.624 2.9039 127.18 2.64031C127.429 2.52315 127.678 2.55244 127.927 2.74282C128.38 3.12357 128.907 3.35788 129.419 3.63612C130.21 4.04616 131.044 4.36833 131.761 4.92482C132.024 5.15913 132.376 5.29093 132.698 5.45201ZM130.224 5.86206C130.502 5.97921 130.678 5.93528 130.883 5.7449C129.741 5.15913 128.658 4.588 127.561 4.04616C127.414 3.97294 127.224 3.95829 127.063 3.91436C127.048 3.95829 127.019 4.00223 127.005 4.04616C127.18 4.14867 127.341 4.25118 127.517 4.35369C127.824 4.52942 128.19 4.64658 128.453 4.86624C129.01 5.29093 129.595 5.58382 130.224 5.86206Z" fill="#37474F"/>
<path d="M130.883 5.74484C130.678 5.93522 130.503 5.97915 130.225 5.862C129.595 5.58376 129.01 5.29087 128.483 4.85154C128.22 4.63187 127.854 4.51472 127.546 4.33899C127.371 4.23648 127.195 4.13397 127.034 4.03146C127.049 3.98752 127.078 3.94359 127.093 3.89966C127.254 3.94359 127.444 3.95823 127.59 4.03146C128.659 4.58794 129.742 5.14442 130.883 5.74484Z" fill="#FF2222"/>
<path d="M129.859 10.3871C130.415 10.6361 130.591 10.9876 130.517 11.6319C130.254 11.5294 129.991 11.4415 129.742 11.3244C129.376 11.134 129.039 10.8997 128.688 10.7093C128.322 10.5189 127.942 10.3432 127.561 10.1821C126.932 9.91852 126.303 9.68421 125.673 9.40597C125.19 9.1863 124.693 8.952 124.239 8.64447C123.58 8.21978 122.907 7.79509 122.132 7.56078C121.692 7.42898 121.312 7.09217 120.902 6.8725C120.39 6.59426 119.878 6.33066 119.365 6.05242C119.161 5.93527 119.102 5.78882 119.102 5.36414C119.278 5.40807 119.409 5.42271 119.526 5.46665C120.448 5.87669 121.385 6.2428 122.263 6.69677C123.273 7.20932 124.239 7.82438 125.234 8.35158C126.317 8.93735 127.4 9.50848 128.586 9.87459C129.025 10.0064 129.434 10.1968 129.859 10.3871Z" fill="#FF2222"/>
<path d="M129.888 30.0983C129.917 30.4937 129.874 30.8012 129.654 31.1673C129.317 31.7238 129.083 32.3535 128.834 32.9686C128.688 33.3347 128.615 33.4225 128.264 33.2468C127.737 32.9832 127.239 32.6757 126.712 32.4121C126.039 32.0606 125.351 31.7531 124.678 31.4016C123.946 31.0209 123.229 30.6108 122.497 30.2154C122.175 30.0543 122.014 29.7907 121.971 29.4539C121.795 27.9749 121.619 26.4811 121.429 24.9874C121.297 23.9184 121.166 22.8347 121.019 21.7657C120.77 19.9791 120.492 18.2071 120.287 16.4205C120.127 14.9561 120.068 13.477 119.951 11.9979C119.907 11.3975 119.79 10.7971 119.731 10.1967C119.673 9.47908 119.658 8.74687 119.629 8.0293C119.629 7.91214 119.673 7.80963 119.702 7.58997C119.922 7.66319 120.083 7.70712 120.214 7.7657C120.8 8.04394 121.385 8.32218 121.941 8.61507C122.805 9.0544 123.639 9.5523 124.502 9.97699C125.556 10.4895 126.639 10.9435 127.708 11.4561C128.205 11.6904 128.673 11.9833 129.156 12.2469C129.376 12.364 129.464 12.5544 129.464 12.8033C129.464 13.4038 129.493 14.0042 129.522 14.6046C129.537 15.1611 129.552 15.7029 129.581 16.2448C129.654 17.2845 129.552 18.3242 129.508 19.364C129.42 21.0627 129.376 22.7761 129.508 24.4749C129.552 25.0606 129.537 25.6464 129.581 26.2322C129.683 27.5209 129.771 28.8096 129.888 30.0983Z" fill="#295E1B"/>
</g>
<path d="M101.057 30.2009C101.013 30.2302 100.984 30.2741 100.94 30.3034C100.677 30.0545 100.413 29.8055 100.076 29.4833C100.779 29.4101 100.867 29.8641 101.057 30.2009Z" fill="#66442C"/>
<path d="M99.7832 31.3286C99.6076 31.4164 99.5051 31.5043 99.3881 31.5336C98.8758 31.6361 98.349 31.724 97.8221 31.8118C97.3977 31.8704 97.1342 31.6508 96.9879 31.2846C96.7391 30.7135 96.3439 30.2595 95.9195 29.8495C95.217 29.1905 94.4999 28.5315 93.7682 27.9018C93.4755 27.6529 93.0949 27.4771 92.7583 27.2721C92.5973 27.1696 92.4217 27.0671 92.2607 26.9646C92.2754 26.9353 92.29 26.906 92.3046 26.8767C92.5681 26.9646 92.8315 27.0524 93.1096 27.1257C93.9145 27.36 94.7341 27.5943 95.5097 27.9165C95.7585 28.019 95.9781 28.1654 96.1976 28.2972C96.6074 28.5462 97.0172 28.7658 97.3977 29.0587C97.9684 29.498 98.5099 29.9667 99.0368 30.4499C99.3149 30.6842 99.5198 31.0064 99.7832 31.3286Z" fill="#66442C"/>
<path d="M95.8617 31.9729C95.3055 31.9729 94.8665 31.9729 94.4274 31.9729C94.1933 31.6214 93.9737 31.27 93.7396 30.9185C93.3298 30.3327 92.8029 29.908 92.1151 29.6737C91.7785 29.5566 91.5004 29.3076 91.193 29.1172C90.4027 28.634 89.4954 28.4729 88.6173 28.2532C87.6221 28.0043 86.6269 27.726 85.6171 27.5649C84.8853 27.4478 84.1389 27.4771 83.4071 27.4771C82.9096 27.4771 82.4266 27.5357 81.929 27.521C80.524 27.5064 79.1337 27.6821 77.7433 27.8578C76.6457 27.9896 75.5481 28.0482 74.4651 28.1947C73.265 28.3557 72.0503 28.4436 70.9087 28.8829C69.9867 29.2344 69.0793 29.6444 68.289 30.2302C67.9524 30.4792 67.6305 30.5377 67.2207 30.4206C66.1669 30.0984 65.0986 29.8055 63.957 29.4833C64.1034 29.3516 64.1912 29.2637 64.2936 29.2051C64.9815 28.7804 65.6254 28.2386 66.4157 28.0189C67.1475 27.8285 67.8792 27.6821 68.611 27.5064C70.4258 27.067 72.2698 26.9645 74.1138 26.7742C75.6944 26.6131 77.2897 26.5984 78.8703 26.5252C79.2069 26.5106 79.5435 26.452 79.8947 26.4373C80.2899 26.4227 80.6996 26.3934 81.0948 26.4227C82.7925 26.5545 84.4901 26.7009 86.1878 26.8327C86.8464 26.8913 87.505 26.9206 88.1636 26.9645C89.0124 27.0231 89.7588 27.4039 90.5198 27.7553C90.6808 27.8285 90.8711 27.8725 91.0467 27.9311C91.1199 27.9457 91.193 27.9603 91.2516 27.9896C92.0126 28.4729 92.8175 28.9122 93.52 29.4833C94.2664 30.0838 94.9104 30.816 95.5982 31.5043C95.7007 31.5921 95.7446 31.7386 95.8617 31.9729Z" fill="#473629"/>
<path d="M91.9827 31.1529C92.3047 31.3433 92.6266 31.5483 92.8315 32.0169C91.9388 32.1195 91.1192 32.222 90.285 32.3245C88.4264 32.5441 86.5677 32.3684 84.7237 32.4856C83.9334 32.5295 83.1284 32.6027 82.3381 32.6027C80.8307 32.6174 79.3526 32.4563 77.8744 32.178C77.5378 32.1195 77.2012 32.1048 76.8646 32.0462C75.4596 31.8266 74.0693 31.6069 72.6643 31.3872C71.9472 31.2847 71.2447 31.1969 70.5276 31.0944C70.4398 31.0797 70.3519 31.0358 70.2349 30.9918C70.3958 30.6257 70.7325 30.5818 70.9959 30.4354C71.0544 30.4061 71.1569 30.4354 71.2008 30.3914C71.6252 30.0107 72.1521 29.9814 72.6789 29.9082C73.7619 29.7617 74.8449 29.5713 75.9426 29.4395C77.3475 29.2785 78.7671 29.1174 80.1721 29.0295C81.5917 28.9416 83.0113 28.9124 84.431 28.9124C85.0164 28.9124 85.5871 29.0588 86.1725 29.1759C87.036 29.3517 87.9141 29.5421 88.763 29.7764C89.5679 29.996 90.3875 30.1571 91.0899 30.6697C91.3534 30.8747 91.69 30.9772 91.9827 31.1529Z" fill="#1E160F"/>
<path d="M85.953 57.161C86.0993 57.6735 86.0554 57.8639 85.5871 58.1568C85.2359 58.3765 84.87 58.5815 84.5041 58.7865C83.9187 59.1233 83.3333 59.4455 82.6162 59.5041C82.3088 59.5334 82.0161 59.7677 81.6942 59.8995C81.3136 60.0459 80.9185 60.1631 80.538 60.3242C79.5867 60.7342 78.65 61.2028 77.8012 61.8179C77.289 62.184 76.7328 62.2719 76.1328 62.1547C75.6352 62.0668 75.123 61.8618 74.6546 61.935C74.1131 62.0229 73.6009 61.9643 73.074 61.979C72.2691 61.979 71.4495 61.9643 70.6446 61.9936C69.8104 62.0376 69.0347 61.8472 68.2591 61.5836C67.8054 61.4371 67.3517 61.3346 66.898 61.1882C66.0784 60.9246 65.3321 60.5292 64.6881 59.9434C63.81 59.1673 62.9026 58.4204 62.0099 57.6589C61.3952 57.1317 60.9708 56.4581 60.5171 55.7405C60.8391 55.3744 61.1318 54.979 61.4976 54.6568C61.8343 54.3639 62.1562 54.0564 62.5806 53.8514C63.166 53.5731 63.4441 52.9581 63.7222 52.4162C63.7807 52.2991 63.7515 52.1233 63.7222 51.9769C63.5173 51.1129 63.327 50.2342 63.0782 49.3849C62.9904 49.0773 63.049 48.887 63.327 48.7259C63.7222 48.5062 64.1173 48.3158 64.571 48.2133C65.3321 48.0522 66.0638 47.8033 66.8102 47.6129C67.2785 47.4957 67.7615 47.4079 68.2444 47.32C68.6103 47.2468 68.9762 47.1003 69.3567 47.2029C69.5177 47.2468 69.6787 47.2907 69.8397 47.3054C70.0007 47.32 70.1763 47.3054 70.3373 47.3054C70.6885 47.32 71.0544 47.32 71.4056 47.3639C71.713 47.3932 72.0057 47.4811 72.2984 47.525C73.4838 47.7008 74.6546 47.8472 75.8401 48.0376C77.128 48.2426 78.4598 48.3158 79.7184 48.7405C80.7575 49.092 81.7381 49.5606 82.6162 50.2196C83.465 50.8493 84.0797 51.6987 84.5626 52.6213C85.1041 53.661 85.47 54.7886 85.6456 55.9602C85.6895 56.3702 85.8359 56.7656 85.953 57.161Z" fill="#A3A3A3"/>
<path d="M80.1285 24.929C80.1285 24.973 80.1285 25.0023 80.1139 25.0462C79.47 25.0462 78.826 25.0169 78.1967 25.0462C77.2308 25.1048 76.2795 25.1926 75.3136 25.2805C73.8208 25.4123 72.328 25.5148 70.8499 25.7052C69.6059 25.8516 68.3912 26.1299 67.1618 26.3202C65.5227 26.5692 64.147 27.4186 62.8298 28.3412C62.6249 28.4876 62.4786 28.7219 62.2444 28.9855C61.8346 28.8098 61.4102 28.6194 60.9126 28.3997C61.3809 27.8286 61.9224 27.4771 62.4786 27.1843C63.0493 26.8914 63.6494 26.6571 64.2348 26.3935C64.6738 26.1884 65.1129 25.9541 65.5812 25.793C66.7959 25.383 68.0546 25.0901 69.3278 24.9144C71.1133 24.6508 72.928 24.7094 74.7282 24.6654C75.6795 24.6508 76.6161 24.7826 77.5674 24.8119C78.1382 24.8265 78.6943 24.7972 79.2651 24.8119C79.5431 24.8119 79.8358 24.8851 80.1285 24.929Z" fill="#66442C"/>
<path d="M72.9569 23.1716C72.9569 23.2155 72.9423 23.2448 72.9423 23.2741C72.8398 23.2595 72.7373 23.2448 72.6494 23.2302C72.6641 23.1863 72.6787 23.1423 72.6787 23.0984C72.7666 23.1277 72.8544 23.157 72.9569 23.1716Z" fill="#4D3826"/>
<path d="M68.2009 43.5272C68.6399 44.362 68.8009 45.2113 69.0936 46.09C66.7813 46.4708 64.5567 47.0565 62.3322 47.9205C61.6151 47.3641 61.1028 46.5293 60.3418 45.8557C61.659 44.4791 62.6395 42.8975 63.7518 41.4185C63.7957 41.4331 63.8396 41.4331 63.8835 41.4477C63.9713 42.0042 64.0884 42.5607 64.1323 43.1172C64.1762 43.6444 64.1469 44.1716 64.1616 44.7134C64.1616 44.8892 64.1908 45.0502 64.2201 45.226C64.264 45.6507 64.5128 45.9289 64.908 46.0314C65.2885 46.1339 65.7422 45.9289 66.0056 45.6067C66.3568 45.182 66.6935 44.7427 67.0886 44.3766C67.3813 44.0398 67.7911 43.8201 68.2009 43.5272Z" fill="#0BB20F"/>
<path d="M64.0004 24.6068C64.0151 24.6507 64.0297 24.68 64.0443 24.724C63.4882 24.9876 62.9321 25.2658 62.3759 25.5001C61.5125 25.8662 60.7661 26.4227 60.0343 26.9938C59.888 27.111 59.8148 27.316 59.6977 27.4771C59.5221 27.2281 59.4782 27.111 59.6538 26.6131C59.7855 26.2616 59.7416 25.9541 59.5514 25.5733C60.2831 25.3097 61.0588 25.2804 61.8052 25.0901C62.5369 24.929 63.2833 24.7679 64.0004 24.6068Z" fill="#4D3826"/>
<path d="M62.1562 52.27C62.2587 52.6361 62.1562 52.929 61.8196 53.0754C60.7366 53.5733 60.0927 54.5838 59.1999 55.316C58.5267 55.8725 57.8242 56.4729 56.829 56.385C56.4485 56.3557 56.0826 56.3118 55.7021 56.3264C54.9996 56.3411 54.3118 56.4436 53.6093 56.429C52.6873 56.4143 51.8677 56.7218 51.0042 56.9415C50.3164 57.1172 49.5993 57.2344 48.8675 57.1319C48.2675 57.044 47.6382 57.0733 47.0089 57.0587C46.921 57.0587 46.8186 57.044 46.7308 57.0147C45.8966 56.7365 45.0185 56.7804 44.1843 56.5608C43.555 56.3997 42.9549 56.0775 42.3256 55.8578C41.228 55.4624 40.1157 55.0963 39.0181 54.6863C38.3009 54.4227 37.6131 54.1152 36.9252 53.8076C36.2813 53.5294 35.6666 53.2072 35.008 52.9729C33.4713 52.4311 32.2274 51.5378 31.2761 50.2198C31.1151 50.0001 30.9687 49.7365 30.8809 49.4729C30.5589 48.4771 30.2662 47.4813 29.9735 46.4855C29.915 46.2658 29.9296 46.0169 29.915 45.7679C29.9004 45.7679 29.8857 45.7679 29.8711 45.7532C29.9735 44.7135 30.076 43.6884 30.1784 42.6487C30.1931 42.4729 30.1784 42.3118 30.1784 42.1361C30.1492 41.4332 30.2809 40.8181 30.7199 40.2177C31.4956 39.1779 32.564 38.68 33.764 38.4018C33.8665 38.3725 33.9836 38.4018 34.1007 38.4164C34.3641 38.4311 34.6421 38.5482 34.8763 38.475C36.3984 38.0064 37.8619 38.4897 39.2815 38.8704C40.3499 39.1487 41.1987 39.9102 41.9451 40.7449C42.4427 41.3014 43.0281 41.7993 43.555 42.3265C43.672 42.4436 43.8184 42.5608 43.9062 42.6926C44.3745 43.4102 45.0624 43.6152 45.838 43.4394C46.4381 43.3076 47.0235 43.0587 47.5943 42.839C48.2821 42.5754 48.97 42.4436 49.6871 42.6779C50.5506 42.9708 51.4433 43.088 52.3507 43.1759C53.0971 43.2491 53.8727 43.3076 54.5752 43.542C55.3363 43.8056 56.0387 44.2302 56.7559 44.6256C58.1901 45.4164 59.2146 46.6758 60.3415 47.8181C61.0732 48.565 61.483 49.4729 61.7318 50.4834C61.8782 51.0838 62.0099 51.6842 62.1562 52.27Z" fill="#A3A3A3"/>
<path d="M58.6734 40.6423C58.6881 41.8432 58.7173 43.044 58.7466 44.362C57.9124 43.8787 57.2099 43.4833 56.5367 43.0733C55.8342 42.6486 55.0732 42.4582 54.2829 42.3411C53.2292 42.1946 52.1754 42.0628 51.1363 41.9017C50.5363 41.7992 49.9655 41.6235 49.3655 41.5356C48.9557 41.477 48.5459 41.521 48.019 41.521C48.1361 41.272 48.1947 41.1109 48.2971 40.9645C48.8093 40.1444 49.3362 39.3536 50.0094 38.636C50.6973 37.9038 51.2534 37.0691 51.8974 36.249C52.1315 36.3222 52.1023 36.5419 52.1315 36.7469C52.2779 37.7135 52.4096 38.6946 52.5998 39.6611C52.7169 40.2323 52.9072 40.7888 53.1413 41.3306C53.3609 41.8578 53.9609 41.9164 54.4292 41.5649C54.9268 41.1988 55.2927 40.6862 55.644 40.1591C56.0684 39.544 56.566 38.9582 57.0489 38.3871C57.5026 37.8599 57.9563 37.3181 58.6295 36.9812C58.6442 38.226 58.6588 39.4415 58.6734 40.6423Z" fill="#0BB20F"/>
<path d="M38.8572 12.2324C39.2816 12.6424 39.2962 12.9792 38.6816 13.3014C38.3889 13.4625 38.2571 13.6529 38.2279 13.9604C38.1693 14.5169 38.0961 15.088 38.0522 15.6445C37.9352 17.2847 37.8327 18.9395 37.7303 20.5797C37.6864 21.1801 37.6717 21.7951 37.6425 22.3955C37.6425 22.4102 37.6278 22.4395 37.6425 22.4541C37.9937 23.4499 37.2766 23.9625 36.6912 24.5043C36.1497 25.0022 35.5496 25.4269 35.0813 25.9981C34.774 26.3642 34.3349 26.6278 33.9837 26.9646C33.1495 27.7261 32.3153 28.4876 31.4811 29.2784C30.6615 30.0692 29.8566 30.8746 29.037 31.6508C27.632 32.998 26.227 34.36 24.7928 35.6779C24.5147 35.9415 24.544 36.2198 24.5586 36.498C24.6465 37.6696 24.6465 38.8411 24.5879 40.0127C24.5001 41.521 24.5147 43.044 24.4708 44.5524C24.4123 46.1633 24.3537 47.7595 24.2659 49.3704C24.1928 50.6152 24.1342 51.8599 23.9732 53.1047C23.783 54.5984 23.8415 56.0921 23.7976 57.5859C23.7683 58.611 23.7244 59.6214 23.6952 60.6465C23.6659 61.3641 23.6366 62.0817 23.6074 62.7992C23.6074 62.9017 23.6366 63.0189 23.6513 63.1068C23.9879 63.2093 24.0171 62.931 24.1342 62.7846C24.2952 62.5942 24.4123 62.4038 24.705 62.3599C25.2758 62.2574 25.5831 62.5063 25.5538 63.0921C25.5246 63.7218 25.4953 64.3369 25.4514 64.9666C25.4075 65.6842 25.3636 66.4017 25.3197 67.1193C25.305 67.295 25.3197 67.4854 25.3197 67.749C25.4807 67.6611 25.5831 67.6319 25.6416 67.5733C26.2417 66.9729 26.8417 66.3578 27.4564 65.772C28.437 64.8348 29.4321 63.8976 30.442 62.975C30.603 62.8285 30.8225 62.7114 31.0274 62.6821C31.4957 62.6089 31.7152 62.8578 31.7299 63.3411C31.7445 64.6151 31.2762 65.7427 30.7932 66.885C30.3249 67.998 29.8858 69.1256 29.4321 70.2532C29.2126 70.8097 28.9638 71.3808 28.7589 71.9373C28.6126 72.3327 28.6126 72.4205 28.9638 72.6549C29.7395 73.2113 30.1639 74.0314 30.5151 74.8515C30.9103 75.7887 31.203 76.7846 31.4518 77.7657C31.6128 78.4101 31.4957 79.0398 31.0566 79.5816C30.5444 80.2113 29.9883 80.7971 29.4175 81.3682C28.7882 82.0126 28.1003 82.5691 27.3393 83.023C26.5637 83.4916 25.7295 83.8578 24.7928 83.8578C24.1489 83.8578 23.5195 84.1214 22.8756 83.931C22.2756 83.7552 21.6902 83.7992 21.0755 83.8724C20.8999 83.8871 20.695 83.8285 20.534 83.7699C20.0803 83.6088 19.6266 83.5356 19.1436 83.5063C18.3826 83.477 17.6509 83.3891 16.9191 83.1109C16.2459 82.8619 15.558 83.067 14.9433 83.3745C14.0506 83.8138 13.1579 83.9603 12.1919 83.6381C12.1334 83.6235 12.0895 83.5942 12.031 83.5795C10.6406 83.3599 9.74787 82.3933 8.86976 81.4122C8.02092 80.4749 7.71359 79.2887 7.43552 78.1025C7.31844 77.6046 7.3038 77.0774 7.33307 76.5795C7.34771 76.272 7.46479 75.9498 7.62578 75.6716C7.91848 75.1444 8.25508 74.6318 8.62096 74.1486C8.85513 73.8557 9.13319 73.5775 9.45517 73.4017C10.5967 72.8159 11.8114 72.3913 13.0554 72.0691C13.8896 71.8641 14.7531 71.8933 15.5873 71.7469C15.7044 71.7323 15.8068 71.703 15.9532 71.6883C15.8361 71.3076 15.7483 70.9561 15.6312 70.59C15.397 69.8871 15.1336 69.1988 14.8994 68.4959C14.7531 68.0712 14.636 67.6319 14.5043 67.2072C14.314 66.636 14.1091 66.0649 13.9189 65.4938C13.8164 65.2009 13.7725 64.8934 13.9921 64.6298C14.2262 64.3662 14.5482 64.3808 14.8409 64.4833C15.1775 64.6151 15.4995 64.7909 15.7922 64.9812C16.3922 65.3766 16.9484 65.816 17.446 66.3578C18.1924 67.1632 18.968 67.9247 19.8315 68.8034C19.8608 68.2908 19.9925 67.9101 19.89 67.5879C19.729 67.0754 19.7876 66.5775 19.7583 66.0796C19.6705 64.5126 19.6412 62.9457 19.8022 61.3787C19.9193 60.2218 20.0071 59.0503 20.1096 57.8934C20.1827 57.0294 20.2852 56.1653 20.3584 55.3013C20.4315 54.2909 20.5193 53.2804 20.534 52.2553C20.5486 51.4059 20.5047 50.5712 20.4901 49.7219C20.4901 49.7072 20.4901 49.6779 20.4901 49.6633C20.5193 48.8725 20.534 48.0817 20.5925 47.2909C20.6218 46.8955 20.6511 46.5147 20.5925 46.1193C20.534 45.7825 20.5925 45.4164 20.5925 45.065C20.6218 44.2009 20.6657 43.3369 20.695 42.4729C20.7096 41.975 20.6803 41.4917 20.6803 40.9938C20.6803 40.7302 20.7096 40.4666 20.7096 40.203C20.7096 40.0859 20.6511 39.9687 20.6071 39.7637C20.1242 40.2909 19.6412 40.6863 19.3339 41.2281C19.3193 41.2574 19.3046 41.3014 19.2754 41.3307C18.8363 41.7114 18.3972 42.1068 17.9436 42.4583C17.6362 42.7072 17.2557 42.6047 16.9045 42.5168C15.9824 42.2972 15.119 41.8871 14.2555 41.4917C13.2896 41.0524 12.3383 40.5691 11.3577 40.1738C10.5674 39.8516 9.74787 39.6319 8.9283 39.3683C7.42088 38.8851 5.91346 38.3725 4.44995 37.7428C3.68892 37.4206 3.0157 36.9959 2.32785 36.542C1.72781 36.1466 1.53755 35.6047 1.52292 34.9604C1.50828 33.4959 1.50828 32.0462 1.50828 30.5817C1.50828 29.2784 1.52292 27.9604 1.55219 26.657C1.56682 26.1445 1.61073 25.6319 1.62536 25.1194C1.64 24.0064 1.62536 22.8935 1.62536 21.7073C1.65464 21.7512 1.64 21.7073 1.61073 21.6926C0.981417 21.429 0.908242 21.2826 1.06923 20.6089C1.18631 20.155 1.24485 19.6717 1.40584 19.2324C1.55219 18.8516 1.74245 18.4562 1.99124 18.1341C2.56201 17.4018 3.19132 16.7282 3.87918 16.0985C4.96218 15.1027 6.19153 14.3558 7.45015 13.609C7.90384 13.3307 8.31363 12.9939 8.76731 12.7157C9.64542 12.1885 10.5235 11.6759 11.4163 11.178C12.2944 10.6801 13.1432 10.1529 14.0652 9.74286C15.3824 9.15708 16.5093 8.29307 17.7387 7.59014C18.6899 7.0483 19.6851 6.57968 20.6803 6.09642C21.6609 5.61316 22.6561 5.15919 23.6513 4.69057C24.2659 4.39768 24.866 4.06086 25.4953 3.81191C25.9636 3.62153 26.4905 3.56295 26.9881 3.4458C27.0466 3.43115 27.1052 3.43115 27.1637 3.4458C27.9394 3.65082 28.7443 3.50438 29.52 3.78262C30.1785 4.01693 30.881 4.13408 31.5396 4.35375C32.4763 4.69056 33.3105 5.17383 34.0276 5.8914C34.5984 6.46253 35.2569 6.96043 35.8131 7.56085C36.3838 8.16127 36.9253 8.80562 37.4083 9.47926C37.6864 9.87465 37.8474 10.3579 38.0522 10.8119C38.2279 11.3684 38.4474 11.837 38.8572 12.2324ZM37.0863 12.95C37.2912 12.8035 37.3059 12.6571 37.1741 12.4228C36.9107 12.0127 36.6326 11.588 36.4863 11.1194C36.1643 10.1529 35.5204 9.40604 34.8618 8.70311C34.2617 8.05876 33.53 7.51692 32.9299 6.87257C32.3006 6.21358 31.5396 5.81818 30.7054 5.56923C29.9444 5.33492 29.1541 5.21776 28.393 5.01274C27.1783 4.67592 26.0807 4.95416 25.027 5.58387C24.866 5.68638 24.705 5.80353 24.544 5.87675C23.1683 6.5211 21.8072 7.16546 20.4315 7.80981C20.0949 7.97089 19.7437 8.10269 19.3924 8.26378C19.2022 8.35165 19.0119 8.42487 18.8363 8.51273C18.2948 8.77633 17.7679 9.02528 17.3142 9.46461C16.7727 9.99181 16.1142 10.3579 15.3678 10.5922C14.6946 10.8119 14.0213 11.1194 13.4506 11.5295C12.792 11.9981 12.148 12.496 11.3724 12.7596C10.4796 13.0671 9.73323 13.5943 8.98684 14.1508C8.85513 14.2533 8.75268 14.4144 8.57706 14.6194C8.97221 14.6487 9.26491 14.6633 9.57225 14.7073C10.6992 14.8684 11.7675 15.2784 12.8359 15.6445C13.1286 15.747 13.4067 15.9374 13.6555 16.1278C14.2701 16.5818 14.8994 17.0357 15.4556 17.5776C15.9239 18.0169 16.2898 18.5148 16.6849 19.0127C16.9776 19.3935 17.1825 19.8474 17.4021 20.2868C18.2216 22.0002 18.7924 23.7721 18.6899 25.7052C18.6753 25.9248 18.7339 26.1298 18.7631 26.4667C19.1729 26.1738 19.4949 25.9541 19.8022 25.7052C21.2657 24.5483 22.7292 23.3767 24.2074 22.2052C24.5147 21.9562 24.8367 21.7219 25.1587 21.4876C25.7002 21.0776 26.271 20.6968 26.7978 20.2868C28.1296 19.247 29.4029 18.1487 30.7786 17.1675C32.3299 16.0546 33.969 15.0587 35.5643 14.0044C36.0619 13.6675 36.5741 13.3161 37.0863 12.95ZM36.8229 15.3809C36.8375 15.1905 36.8229 14.9855 36.8083 14.7219C36.618 14.8098 36.5156 14.8537 36.4277 14.9123C35.2862 15.6152 34.291 16.5232 33.0909 17.1382C32.4763 17.4604 31.9201 17.8997 31.3493 18.3098C30.6469 18.8077 29.9444 19.3202 29.2565 19.8621C28.2028 20.6675 27.1783 21.5022 26.1246 22.3077C24.8806 23.2596 23.6074 24.1968 22.3634 25.1487C21.617 25.7198 20.8999 26.3349 20.1535 26.9353C19.6998 27.3014 19.2461 27.6529 19.0266 28.2386C18.968 28.429 18.7339 28.5755 18.5436 28.678C18.368 28.7805 18.1631 28.8098 17.9436 28.883C17.9289 28.9855 17.8996 29.1026 17.8996 29.2198C17.8996 30.4939 17.885 31.7679 17.885 33.0273C17.885 33.3641 17.9582 33.701 17.9289 34.0524C17.8704 35.0922 17.7826 36.1319 17.6948 37.157C17.5777 38.3725 17.8411 39.5587 17.8265 40.7742C17.8265 40.8181 17.8704 40.8767 17.9143 40.9499C18.0021 40.8913 18.0899 40.862 18.1484 40.8035C18.368 40.5691 18.5729 40.3202 18.7924 40.0859C19.7729 39.0901 20.7681 38.0943 21.7487 37.0984C22.5244 36.3077 23.2854 35.5169 24.061 34.7407C24.705 34.0964 25.3636 33.4813 26.0222 32.8369C26.3588 32.5001 26.6661 32.1487 27.0027 31.8118C27.954 30.8893 28.9199 29.9813 29.8712 29.0587C31.364 27.6089 32.8568 26.1591 34.3496 24.7094C34.452 24.6068 34.5837 24.5043 34.7008 24.4165C35.1545 24.0504 35.6228 23.6842 36.0911 23.3328C36.3107 23.1717 36.3985 22.9667 36.3985 22.6884C36.3985 22.1612 36.3985 21.634 36.4277 21.1068C36.5595 19.2031 36.7058 17.2847 36.8229 15.3809ZM29.3151 79.6109C30.0761 79.0984 30.1054 78.3515 29.9151 77.59C29.6956 76.726 29.4029 75.8766 29.0663 75.0565C28.8906 74.6172 28.5394 74.2364 28.2467 73.7971C28.1003 73.8996 28.0564 73.9289 28.0125 73.9728C27.7052 74.2364 27.3686 74.1779 27.0612 74.0314C26.7539 73.8703 26.8125 73.5774 26.8856 73.2846C26.9881 72.8892 26.871 72.7281 26.4466 72.6549C25.8319 72.5523 25.2172 72.4352 24.6025 72.3913C23.9293 72.3327 23.2415 72.2887 22.5683 72.3473C21.6316 72.4352 20.7681 72.772 19.9339 73.1821C19.5827 73.3578 19.1875 73.4603 18.807 73.5628C18.3241 73.68 17.8704 73.6067 17.4606 73.3431C17.1386 73.1381 16.8166 72.9477 16.48 72.772C16.2898 72.6695 16.0556 72.5377 15.8507 72.567C15.1921 72.6109 14.5336 72.6988 13.8896 72.8306C12.8066 73.0356 11.7822 73.431 10.7577 73.8557C10.304 74.0461 9.83568 74.2511 9.52834 74.6611C9.10392 75.2176 8.72341 75.8034 8.3429 76.3892C8.25509 76.521 8.24045 76.726 8.26972 76.8724C8.45998 77.8975 8.67951 78.908 9.19174 79.8306C9.48444 80.3724 9.86495 80.8703 10.2162 81.3682C10.304 81.4854 10.4211 81.5879 10.5528 81.6758C10.904 81.9394 11.226 82.2615 11.6065 82.4373C12.2212 82.7155 12.8505 83.0084 13.553 82.6862C13.7872 82.5691 14.0213 82.408 14.2701 82.364C15.2068 82.1737 16.1581 82.0126 17.1093 81.8515C17.3435 81.8075 17.5338 81.8808 17.724 82.0712C17.8557 82.2029 18.0753 82.2762 18.2655 82.3201C19.0266 82.5251 19.8022 82.4373 20.5925 82.4519C20.7681 82.4519 21.0023 82.4958 21.0901 82.613C21.2657 82.818 21.4706 82.8473 21.6902 82.8473C21.8804 82.8473 22.0707 82.8327 22.2609 82.8766C22.861 83.0084 23.4464 83.0084 24.061 82.9645C24.8513 82.9059 25.5392 82.6569 26.2124 82.2908C27.3686 81.6611 28.276 80.7532 29.1833 79.8306C29.2126 79.7281 29.2565 79.6548 29.3151 79.6109ZM29.637 66.2846C29.7541 66.0356 29.9005 65.7574 29.798 65.362C29.3004 65.8452 28.8614 66.2699 28.4223 66.68C27.31 67.7051 26.227 68.7741 25.2758 69.9457C24.9977 70.2825 24.5586 70.3703 24.0903 70.18C23.7391 70.0335 23.7683 69.6967 23.7391 69.4038C23.7391 69.3452 23.7537 69.2867 23.7537 69.2281C23.8415 68.5252 23.9293 67.8369 23.9879 67.1339C24.0464 66.5189 24.061 65.9038 24.0903 65.2888C24.061 65.2741 24.0171 65.2448 23.9879 65.2302C23.7537 65.5084 23.4903 65.7867 23.3 66.0942C23.0512 66.475 22.861 66.885 22.6268 67.2657C22.0268 68.2323 21.4267 69.1842 20.812 70.1507C20.7389 70.2532 20.6364 70.3557 20.534 70.4143C20.1388 70.6193 19.3632 70.4582 19.0997 70.1653C18.4704 69.4917 17.8411 68.8034 17.1825 68.1444C16.6996 67.6465 16.1873 67.1632 15.6897 66.6653C15.6166 66.6068 15.5288 66.5775 15.3531 66.4896C15.4409 66.7678 15.4848 66.9436 15.558 67.1193C15.7044 67.4708 15.8654 67.8076 16.0263 68.1444C16.4361 68.9938 16.4508 69.9749 16.9191 70.8097C17.1679 71.249 17.3289 71.7469 17.5191 72.2155C17.6069 72.4352 17.7679 72.5084 17.9582 72.4938C18.1484 72.4791 18.3387 72.4498 18.5143 72.3766C19.1144 72.157 19.729 71.9666 20.3144 71.703C21.0169 71.3808 21.7633 71.2636 22.5097 71.1904C23.1244 71.1318 23.7537 71.1904 24.383 71.2197C24.8367 71.249 25.2904 71.3076 25.7295 71.3662C26.2856 71.4394 26.8417 71.5419 27.4125 71.6444C27.5003 71.454 27.5881 71.3076 27.6467 71.1465C28.2174 69.5063 28.8614 67.8662 29.637 66.2846ZM23.139 40.5399C23.1537 39.9102 23.1829 39.2951 23.1683 38.6654C23.1683 38.2993 23.1098 37.9332 23.0951 37.5817C23.0512 37.5671 23.0219 37.5524 22.978 37.5378C22.7292 37.8014 22.4512 38.0503 22.2317 38.3432C22.1585 38.4457 22.1438 38.6507 22.1731 38.7825C22.3487 39.3976 22.1146 39.998 22.1731 40.6131C22.217 41.1549 22.0707 41.6968 22.056 42.2386C22.0414 43.0733 22.0853 43.9081 22.0853 44.7428C22.0853 45.2993 22.1438 45.8557 22.1438 46.4122C22.1438 47.5398 22.0268 48.6821 21.9975 49.8097C21.9682 50.952 22.0121 52.0942 21.9536 53.2218C21.895 54.5252 21.7633 55.8285 21.6462 57.1172C21.5584 58.1277 21.4267 59.1528 21.3243 60.1632C21.3096 60.295 21.3096 60.4268 21.3096 60.5586C21.3096 60.8369 21.295 61.1298 21.295 61.408C21.2804 62.4185 21.0755 63.3996 21.1779 64.4101C21.2511 65.1423 21.2511 65.8745 21.295 66.6068C21.5877 66.2114 21.9975 65.9185 21.9829 65.362C21.9682 64.6005 22.056 63.8536 22.0853 63.0921C22.1292 62.0084 22.1585 60.9394 22.2024 59.8557C22.217 59.3725 22.3048 58.8746 22.3195 58.3913C22.3341 57.5859 22.2609 56.7658 22.3048 55.9603C22.378 54.3641 22.5244 52.7825 22.6122 51.1863C22.7146 49.6926 22.8171 48.1988 22.8902 46.7051C22.9488 45.3871 22.978 44.0545 23.0366 42.7365C23.0659 42.0189 23.1244 41.2721 23.139 40.5399ZM17.0508 26.657C17.2118 24.4604 16.6557 22.4102 15.6897 20.4625C15.3824 19.8474 14.9433 19.3202 14.5336 18.793C13.9043 17.9876 13.1579 17.3286 12.2505 16.8893C11.8261 16.6843 11.3724 16.5525 10.9187 16.406C9.19174 15.8349 7.49406 15.6445 5.81102 16.5671C5.78175 16.5818 5.73784 16.5818 5.70857 16.5964C4.91827 16.9771 4.08407 17.2993 3.52793 18.0608C3.08888 18.6612 2.64982 19.247 2.54738 20.0232C2.48884 20.4479 2.50347 20.5064 2.89862 20.6529C3.35231 20.8286 3.806 21.019 4.25969 21.2094C4.66948 21.3851 5.07926 21.5608 5.48904 21.7219C6.32325 22.0734 7.17208 22.3955 8.00629 22.747C8.82586 23.0985 9.63079 23.4499 10.4504 23.8014C11.0065 24.0357 11.5919 24.2261 12.1188 24.519C12.953 24.9583 13.875 25.1926 14.6799 25.7198C15.3824 26.1591 16.202 26.4227 17.0069 26.7596C17.0215 26.7303 17.0508 26.6863 17.0508 26.657ZM16.5971 34.0378C16.5971 32.4123 16.5825 30.7721 16.5825 29.1466C16.5825 28.224 16.5679 28.224 15.8068 27.7554C15.7483 27.7114 15.6751 27.6821 15.6019 27.6529C14.314 27.0378 13.0408 26.4081 11.7529 25.837C10.304 25.1926 8.82586 24.6068 7.37698 23.9771C6.08908 23.4207 4.81583 22.8495 3.52793 22.2784C3.14742 22.1027 2.98643 22.2345 2.98643 22.6738C2.98643 23.7721 2.9718 24.8704 2.94253 25.9541C2.92789 26.9646 2.86935 27.975 2.86935 29.0001C2.86935 29.7031 2.92789 30.3913 2.92789 31.0943C2.92789 31.6654 2.86935 32.2365 2.88399 32.793C2.89862 33.3495 2.82545 33.8913 2.91326 34.4478C2.98643 34.9897 3.17669 35.3704 3.60111 35.6633C4.43531 36.2491 5.35733 36.7031 6.30861 37.0545C7.61114 37.5524 8.95757 37.9625 10.2747 38.4018C11.0358 38.6507 11.8114 38.8558 12.5432 39.1487C13.6555 39.6026 14.7238 40.1298 15.8215 40.6131C15.9971 40.7009 16.202 40.7449 16.4361 40.8181C16.4508 40.6277 16.48 40.5252 16.4654 40.4227C16.3922 38.7972 16.363 37.157 16.5386 35.5315C16.5679 35.0336 16.5971 34.5357 16.5971 34.0378Z" fill="#29353A"/>
<path d="M37.1742 12.4227C37.3206 12.657 37.2913 12.8181 37.0864 12.9499C36.5742 13.316 36.0619 13.6675 35.5351 14.019C33.9398 15.0733 32.3007 16.0692 30.7494 17.1821C29.3737 18.1633 28.1004 19.2616 26.7686 20.3014C26.2417 20.7261 25.671 21.1068 25.1295 21.5022C24.8075 21.7365 24.4855 21.9708 24.1782 22.2198C22.7147 23.3767 21.2512 24.5482 19.773 25.7198C19.4657 25.9541 19.1437 26.1737 18.7339 26.4813C18.7046 26.1445 18.6461 25.9394 18.6607 25.7198C18.7632 23.7867 18.1924 22.0148 17.3728 20.3014C17.168 19.862 16.9631 19.4081 16.6557 19.0273C16.2752 18.5294 15.8947 18.0315 15.4264 17.5922C14.8556 17.0503 14.2409 16.611 13.6262 16.1424C13.3775 15.952 13.0994 15.7616 12.8067 15.6591C11.7383 15.293 10.6699 14.883 9.54304 14.7219C9.25034 14.678 8.943 14.6633 8.54785 14.634C8.72347 14.429 8.81128 14.2679 8.95764 14.1654C9.70403 13.6089 10.4504 13.0817 11.3432 12.7742C12.1188 12.5106 12.7481 12.0127 13.4214 11.5441C13.9921 11.134 14.6653 10.8265 15.3386 10.6068C16.085 10.3725 16.7435 10.0064 17.285 9.47922C17.7387 9.03989 18.2656 8.77629 18.8071 8.52734C18.9973 8.43947 19.1876 8.35161 19.3632 8.27839C19.7145 8.13194 20.0511 7.9855 20.4023 7.82441C21.778 7.18006 23.1537 6.53571 24.5148 5.89136C24.6904 5.80349 24.8368 5.70098 24.9978 5.59847C26.0369 4.96877 27.1345 4.69053 28.3638 5.02735C29.1249 5.24701 29.9152 5.36416 30.6762 5.58383C31.5104 5.83278 32.2714 6.22818 32.9007 6.88718C33.5154 7.53153 34.2325 8.07337 34.8326 8.71772C35.4912 9.43529 36.1351 10.1675 36.4571 11.134C36.6327 11.588 36.9108 12.0127 37.1742 12.4227Z" fill="#4343A8"/>
<path d="M36.8088 14.7219C36.8088 14.9855 36.838 15.1905 36.8234 15.3809C36.7063 17.2847 36.56 19.2031 36.4575 21.1068C36.4282 21.634 36.4429 22.1612 36.4282 22.6884C36.4282 22.952 36.3258 23.1571 36.1209 23.3328C35.6526 23.6842 35.1989 24.0504 34.7306 24.4165C34.6135 24.5043 34.4964 24.6068 34.3793 24.7093C32.8865 26.1591 31.3938 27.6089 29.901 29.0587C28.9497 29.9813 27.9838 30.8892 27.0325 31.8118C26.6959 32.134 26.3885 32.5001 26.0519 32.8369C25.408 33.4813 24.7348 34.0964 24.0908 34.7407C23.3152 35.5169 22.5541 36.3223 21.7785 37.0984C20.7979 38.0943 19.8027 39.0901 18.8222 40.0859C18.6026 40.3202 18.3977 40.5691 18.1782 40.8035C18.1197 40.862 18.0319 40.8913 17.9441 40.9499C17.9001 40.862 17.8562 40.8181 17.8562 40.7742C17.8709 39.5733 17.6221 38.3725 17.7245 37.157C17.8123 36.1173 17.9001 35.0775 17.9587 34.0524C17.9733 33.7156 17.9148 33.3788 17.9148 33.0273C17.9148 31.7533 17.9148 30.4792 17.9294 29.2198C17.9294 29.1026 17.9587 29.0001 17.9733 28.883C18.1928 28.8098 18.3977 28.7805 18.5734 28.678C18.7636 28.5608 18.9978 28.4144 19.0563 28.2386C19.2612 27.6529 19.7149 27.3014 20.1832 26.9353C20.915 26.3495 21.6321 25.7344 22.3931 25.1487C23.6371 24.1968 24.9104 23.2596 26.1544 22.3077C27.2081 21.5022 28.2326 20.6675 29.2863 19.8621C29.9741 19.3349 30.6766 18.8223 31.3791 18.3098C31.9499 17.8997 32.506 17.4604 33.1207 17.1382C34.3208 16.5232 35.316 15.6152 36.4575 14.9123C36.5161 14.8537 36.6185 14.8098 36.8088 14.7219Z" fill="#6891D8"/>
<path d="M29.9154 77.6047C30.1203 78.3662 30.0764 79.113 29.3153 79.6256C29.2568 79.6695 29.2275 79.7427 29.169 79.8013C28.2616 80.7239 27.3542 81.6319 26.198 82.2616C25.5248 82.6277 24.837 82.8913 24.0467 82.9352C23.432 82.9791 22.8466 82.9791 22.2466 82.8473C22.0709 82.8034 21.866 82.8327 21.6758 82.818C21.4416 82.818 21.2514 82.7887 21.0757 82.5837C20.9733 82.4666 20.7391 82.4226 20.5782 82.4226C19.8025 82.408 19.0268 82.4959 18.2512 82.2908C18.0609 82.2469 17.8414 82.1737 17.7097 82.0419C17.5194 81.8515 17.3291 81.7929 17.095 81.8222C16.1437 81.9833 15.1924 82.1444 14.2558 82.3348C14.007 82.3787 13.7728 82.5544 13.5386 82.657C12.8362 82.9791 12.1922 82.6862 11.5922 82.408C11.2117 82.2323 10.8897 81.9101 10.5384 81.6465C10.4214 81.5586 10.2896 81.4561 10.2018 81.339C9.85059 80.8264 9.47007 80.3285 9.17737 79.8013C8.66514 78.8787 8.44561 77.8683 8.25536 76.8432C8.22609 76.6821 8.25536 76.4917 8.32853 76.3599C8.70905 75.7741 9.08956 75.1884 9.51398 74.6319C9.82132 74.2218 10.2896 74.0168 10.7433 73.8264C11.7532 73.4017 12.7776 73.0063 13.8753 72.8013C14.5192 72.6842 15.1778 72.5963 15.8364 72.5377C16.0413 72.5231 16.2754 72.6549 16.4657 72.7428C16.8023 72.9185 17.1243 73.1089 17.4462 73.3139C17.8707 73.5921 18.3243 73.6653 18.7927 73.5335C19.1732 73.431 19.5683 73.3285 19.9196 73.1528C20.7684 72.7428 21.6319 72.4059 22.5539 72.3181C23.2271 72.2595 23.915 72.3034 24.5882 72.362C25.2029 72.4059 25.8322 72.5231 26.4322 72.6256C26.8566 72.6988 26.9737 72.8746 26.8713 73.2553C26.7835 73.5628 26.7395 73.8411 27.0469 74.0022C27.3542 74.1633 27.6908 74.2218 27.9982 73.9436C28.0421 73.8996 28.086 73.885 28.2323 73.7679C28.5397 74.2218 28.8763 74.5879 29.0519 75.0273C29.4031 75.8913 29.6812 76.7406 29.9154 77.6047Z" fill="#A3A3A3"/>
<path d="M29.7984 65.3619C29.8862 65.7573 29.7545 66.0355 29.6374 66.2845C28.8764 67.8661 28.2325 69.5063 27.6617 71.1757C27.6031 71.3368 27.5153 71.4832 27.4275 71.6736C26.8568 71.5711 26.3006 71.4832 25.7445 71.3954C25.2908 71.3222 24.8517 71.2636 24.3981 71.2489C23.7687 71.2196 23.1394 71.1611 22.5248 71.2196C21.7784 71.2929 21.032 71.4247 20.3295 71.7322C19.7441 71.9958 19.1294 72.1862 18.5294 72.4058C18.3537 72.4644 18.1635 72.5083 17.9732 72.523C17.783 72.5376 17.6073 72.4644 17.5342 72.2447C17.3439 71.7615 17.1829 71.2782 16.9341 70.8389C16.4804 70.0042 16.4512 69.023 16.0414 68.1736C15.8804 67.8368 15.7194 67.5 15.5731 67.1485C15.4999 66.9728 15.456 66.7971 15.3682 66.5188C15.5292 66.6067 15.6316 66.636 15.7048 66.6945C16.2024 67.1778 16.7146 67.6611 17.1976 68.1736C17.8415 68.8326 18.4855 69.5209 19.1148 70.1945C19.3782 70.4728 20.1539 70.6339 20.549 70.4435C20.6661 70.3849 20.7685 70.2824 20.8271 70.1799C21.4417 69.228 22.0418 68.2615 22.6418 67.295C22.876 66.9142 23.0663 66.4895 23.315 66.1234C23.5199 65.8159 23.7687 65.5523 24.0029 65.2594C24.0322 65.274 24.0761 65.3033 24.1053 65.318C24.0761 65.933 24.0614 66.5481 24.0029 67.1632C23.9444 67.8661 23.8419 68.5544 23.7687 69.2573C23.7687 69.3159 23.7541 69.3745 23.7541 69.433C23.7834 69.7259 23.7541 70.0627 24.1053 70.2092C24.5737 70.3996 25.0127 70.3263 25.2908 69.9749C26.2421 68.7887 27.3251 67.7343 28.4374 66.7092C28.8618 66.2699 29.2862 65.8452 29.7984 65.3619Z" fill="#0BB20F"/>
<path d="M23.183 38.6655C23.183 39.2952 23.1684 39.9102 23.1537 40.5399C23.1245 41.2721 23.0806 42.019 23.0513 42.7512C22.9928 44.0692 22.9781 45.4018 22.9049 46.7198C22.8318 48.2136 22.7293 49.7073 22.6269 51.201C22.5244 52.7972 22.3927 54.3788 22.3195 55.975C22.2756 56.7805 22.3488 57.5859 22.3342 58.406C22.3342 58.9039 22.2464 59.3872 22.2171 59.8704C22.1732 60.9541 22.1439 62.0231 22.1 63.1068C22.0707 63.8683 21.9829 64.6152 21.9976 65.3767C21.9976 65.9332 21.5878 66.2261 21.3097 66.6215C21.2658 65.8892 21.2658 65.157 21.1926 64.4248C21.0902 63.4144 21.2951 62.4185 21.3097 61.4227C21.3097 61.1445 21.3244 60.8516 21.3244 60.5734C21.3244 60.4416 21.3243 60.3098 21.339 60.178C21.4414 59.1675 21.5585 58.1424 21.661 57.1319C21.778 55.8286 21.9098 54.5253 21.9683 53.2366C22.0268 52.0943 21.9683 50.9667 22.0122 49.8244C22.0415 48.6822 22.1732 47.5546 22.1586 46.4269C22.1586 45.8705 22.1 45.314 22.1 44.7575C22.1 43.9228 22.0561 43.088 22.0707 42.2533C22.0854 41.7115 22.2317 41.155 22.1878 40.6278C22.1293 40.0127 22.3634 39.4123 22.1878 38.7973C22.1439 38.6655 22.1586 38.4604 22.2464 38.3579C22.4659 38.065 22.744 37.8161 22.9928 37.5525C23.0367 37.5671 23.0659 37.5818 23.1098 37.5964C23.1245 37.9332 23.183 38.2994 23.183 38.6655Z" fill="#2A287F"/>
<path d="M15.6906 20.4625C16.6565 22.4249 17.198 24.4604 17.0517 26.6571C17.0517 26.6864 17.0224 26.7303 17.0078 26.7596C16.2028 26.4081 15.3833 26.1592 14.6808 25.7198C13.8758 25.2073 12.9538 24.973 12.1196 24.519C11.5928 24.2261 11.0074 24.0504 10.4512 23.8014C9.63166 23.45 8.82672 23.0985 8.00715 22.747C7.17295 22.3956 6.32411 22.0588 5.48991 21.7219C5.08012 21.5462 4.67034 21.3705 4.26056 21.2094C3.80687 21.019 3.35318 20.8286 2.89949 20.6529C2.51897 20.5065 2.4897 20.4332 2.54824 20.0232C2.63605 19.247 3.08975 18.6613 3.5288 18.0609C4.0703 17.2994 4.9045 16.9772 5.70944 16.5964C5.73871 16.5818 5.78261 16.5818 5.81188 16.5671C7.48029 15.6445 9.1926 15.8349 10.9195 16.406C11.3732 16.5525 11.8269 16.6843 12.2513 16.8893C13.1587 17.3433 13.9051 17.9876 14.5344 18.7931C14.9442 19.3203 15.3833 19.8475 15.6906 20.4625Z" fill="#20207F"/>
<path d="M16.5822 29.1465C16.5969 30.772 16.5969 32.4122 16.5969 34.0377C16.5969 34.5356 16.5676 35.0189 16.5091 35.5168C16.3334 37.1423 16.3627 38.7678 16.4359 40.408C16.4359 40.5105 16.4213 40.6276 16.4066 40.8034C16.1725 40.7302 15.9822 40.6862 15.7919 40.5984C14.6943 40.1151 13.6259 39.5879 12.5137 39.1339C11.7819 38.841 11.0063 38.636 10.2452 38.3871C8.92807 37.9477 7.58163 37.5377 6.2791 37.0398C5.32782 36.6737 4.4058 36.2343 3.5716 35.6486C3.14718 35.341 2.95693 34.9603 2.88375 34.4331C2.81057 33.8766 2.88375 33.3348 2.85448 32.7783C2.83984 32.2072 2.89839 31.636 2.89839 31.0795C2.89839 30.3766 2.83984 29.6883 2.83984 28.9854C2.85448 27.975 2.89838 26.9645 2.91302 25.9394C2.92765 24.8411 2.95693 23.7427 2.95693 22.6591C2.95693 22.2197 3.11791 22.0879 3.49843 22.2637C4.78632 22.8348 6.05958 23.4059 7.34747 23.9624C8.81098 24.5921 10.2745 25.1779 11.7234 25.8222C13.0259 26.408 14.2992 27.0377 15.5724 27.6381C15.6456 27.6674 15.7041 27.6967 15.7773 27.7406C16.5676 28.2239 16.5822 28.2239 16.5822 29.1465ZM12.2649 36.7176C12.5429 36.6297 12.6747 36.3808 12.6454 36.0879C12.6161 35.7511 12.4698 35.6046 12.1332 35.5168C11.7673 35.4143 11.416 35.2971 11.0502 35.18C10.816 35.1067 10.7575 34.9456 10.7867 34.6967C10.9038 33.613 10.8599 32.5 11.138 31.431C11.1672 31.3285 11.1672 31.2113 11.1819 31.0942C11.1965 29.9519 11.1965 28.8097 11.1965 27.6528C11.1965 27.477 11.1526 27.316 11.1526 27.1402C11.138 26.8473 10.9624 26.7302 10.6989 26.7448C10.494 26.7448 10.2891 26.8034 10.0989 26.8766C9.74763 27.0084 9.39639 27.1549 9.05978 27.3306C8.37193 27.7114 7.68408 28.1068 7.01086 28.5314C6.63035 28.7657 6.64498 29.1172 7.04013 29.3222C7.21575 29.4101 7.49382 29.454 7.68408 29.3808C8.03532 29.2637 8.3573 29.0586 8.67927 28.8683C9.01588 28.6632 9.32322 28.4289 9.733 28.1507C9.79154 28.3996 9.85008 28.5461 9.85008 28.7072C9.85008 29.4101 9.82081 30.113 9.80617 30.816C9.80617 31.0356 9.89399 31.2992 9.82081 31.4896C9.51347 32.2511 9.4842 33.0272 9.49884 33.818C9.51347 34.477 9.35249 34.5795 8.72317 34.3013C8.24021 34.0963 7.84506 34.3013 7.42065 34.477C7.14258 34.5942 7.11331 34.8139 7.05477 35.0628C7.15721 35.1507 7.23039 35.2385 7.3182 35.2971C7.39138 35.3557 7.47919 35.385 7.567 35.4143C8.85489 35.9122 10.1281 36.4394 11.4746 36.7762C11.7819 36.8641 12.0161 36.8055 12.2649 36.7176ZM9.42566 31.7385C9.4403 31.5775 9.4403 31.4164 9.45493 31.2553C9.41103 31.2553 9.36712 31.2553 9.33785 31.2553C9.35249 31.4164 9.35249 31.5775 9.36712 31.7239C9.38176 31.7385 9.41103 31.7385 9.42566 31.7385Z" fill="#6891D8"/>
<path d="M12.6459 36.0881C12.6751 36.381 12.5434 36.6153 12.2654 36.7178C12.0166 36.8056 11.7824 36.8642 11.4751 36.791C10.1286 36.4542 8.85536 35.927 7.56747 35.4291C7.47966 35.3998 7.39185 35.3559 7.31867 35.3119C7.23086 35.2533 7.15769 35.1655 7.05524 35.0776C7.11378 34.8287 7.14305 34.609 7.42112 34.4918C7.84554 34.3161 8.24069 34.1111 8.72365 34.3161C9.35296 34.5944 9.51394 34.4918 9.49931 33.8329C9.47004 33.0274 9.51395 32.2513 9.82128 31.5044C9.89446 31.314 9.80665 31.0651 9.80665 30.8308C9.82128 30.1278 9.85055 29.4249 9.85055 28.722C9.85055 28.5755 9.79201 28.4145 9.73347 28.1655C9.32369 28.4437 9.01635 28.678 8.67974 28.8831C8.35777 29.0734 8.0358 29.2785 7.68455 29.3956C7.49429 29.4688 7.23086 29.4249 7.04061 29.337C6.64546 29.132 6.63082 28.7952 7.01133 28.5463C7.68455 28.1216 8.3724 27.7262 9.06025 27.3454C9.39686 27.155 9.74811 27.0232 10.0994 26.8914C10.2896 26.8182 10.5091 26.7743 10.6994 26.7596C10.9482 26.7596 11.1384 26.8622 11.1531 27.155C11.1677 27.3308 11.197 27.4919 11.197 27.6676C11.197 28.8098 11.1824 29.9521 11.1824 31.109C11.1824 31.2262 11.1677 31.3433 11.1384 31.4458C10.8604 32.5149 10.9043 33.6278 10.7872 34.7115C10.7579 34.9605 10.8165 35.1216 11.0506 35.1948C11.4019 35.3119 11.7678 35.4291 12.1336 35.5316C12.4702 35.6048 12.6166 35.7513 12.6459 36.0881Z" fill="black"/>
<path d="M9.45553 31.27C9.44089 31.4311 9.44089 31.5922 9.42624 31.7533C9.4116 31.7533 9.38231 31.7533 9.36767 31.7533C9.35302 31.5922 9.35302 31.4311 9.33838 31.2847C9.38231 31.27 9.42625 31.27 9.45553 31.27Z" fill="black"/>
<defs>
<filter id="filter0_d" x="113.623" y="0" width="53.3293" height="57.4137" filterUnits="userSpaceOnUse" color-interpolation-filters="sRGB">
<feFlood flood-opacity="0" result="BackgroundImageFix"/>
<feColorMatrix in="SourceAlpha" type="matrix" values="0 0 0 0 0 0 0 0 0 0 0 0 0 0 0 0 0 0 127 0"/>
<feOffset dy="4"/>
<feGaussianBlur stdDeviation="2"/>
<feColorMatrix type="matrix" values="0 0 0 0 0 0 0 0 0 0 0 0 0 0 0 0 0 0 0.25 0"/>
<feBlend mode="normal" in2="BackgroundImageFix" result="effect1_dropShadow"/>
<feBlend mode="normal" in="SourceGraphic" in2="effect1_dropShadow" result="shape"/>
</filter>
</defs>
</svg>
