<svg width="93" height="116" viewBox="0 0 93 116" fill="none" xmlns="http://www.w3.org/2000/svg">
<path d="M87.0643 48.8144C87.7822 49.1497 88.1044 49.7972 88.123 50.6003C88.1399 51.4905 88.0801 52.3808 88.123 53.2665C88.2307 55.506 88.3992 57.7465 88.499 59.9865C88.5988 62.2265 88.6845 64.4147 88.6952 66.6266C88.7015 67.747 88.5228 68.8644 88.4366 69.9833C88.1882 72.7651 87.7784 75.5303 87.2095 78.2649C86.9313 79.4827 86.5733 80.681 86.1376 81.852C85.463 83.8555 84.8078 85.871 84.0357 87.8391C83.0727 90.2926 82.0227 92.7098 80.9647 95.1251C80.6226 95.9056 80.1364 96.625 79.7208 97.3738C78.9628 98.745 78.2346 100.127 77.4467 101.487C76.7124 102.743 75.553 103.544 74.3104 104.25C73.7894 104.542 73.2982 104.884 72.8442 105.272C71.9594 106.007 70.9989 106.647 69.9788 107.179C67.9217 108.327 65.9172 109.547 63.8219 110.639C62.2241 111.489 60.4756 112.019 58.6744 112.201C56.4647 112.404 54.2402 112.508 52.0183 112.536C50.8783 112.549 49.7348 112.322 48.5965 112.169C46.2038 111.886 43.8727 111.22 41.6932 110.195C41.0837 109.899 40.4527 109.635 39.8641 109.298C37.1134 107.717 34.2417 106.294 31.7255 104.324C30.3294 103.234 29.0668 101.974 27.6756 100.879C26.5264 99.9301 25.5267 98.8143 24.71 97.5688C24.1204 96.6459 23.5808 95.692 23.0937 94.7113C22.6994 93.9765 22.3124 93.2332 21.9719 92.4736C21.4623 91.3327 20.9828 90.1686 20.5176 89.0194C19.9334 87.5646 19.3028 86.1262 18.822 84.6378C17.9976 82.0294 17.433 79.346 17.1363 76.6267L16.3385 76.1282C16.2434 76.0646 16.1339 76.0259 16.0199 76.0156C15.9059 76.0054 15.7912 76.0239 15.6862 76.0695C15.5813 76.1151 15.4895 76.1864 15.4193 76.2767C15.3492 76.367 15.3029 76.4734 15.2847 76.5863C15.2591 76.712 15.2661 76.8513 15.2403 76.9744C15.2355 77.0404 15.2151 77.1043 15.1808 77.1609C15.1464 77.2175 15.0991 77.2651 15.0428 77.2999C14.9864 77.3347 14.9226 77.3556 14.8565 77.361C14.7905 77.3664 14.7241 77.3561 14.6629 77.3309C14.0889 77.2045 13.9443 76.9851 13.9549 76.3383C13.9566 76.172 13.9238 75.8894 13.8419 75.8503C13.1755 75.5721 12.9743 74.9927 12.8479 74.3131C12.585 74.2709 12.3185 74.2558 12.0525 74.268C11.8547 74.2994 11.6745 74.3997 11.5439 74.5512C11.0147 75.2235 10.8635 75.2524 10.0384 74.703C10.2283 74.318 10.4036 73.9129 10.6256 73.5336C10.8475 73.1543 10.6776 72.9893 10.3731 72.8628C9.79635 72.6206 9.21757 72.3864 8.62838 72.1926C8.46124 72.1452 8.28238 72.1623 8.12725 72.2405C7.89063 72.3703 7.69883 72.6895 7.47278 72.7052C7.16525 72.7265 6.84543 72.5324 6.45639 72.4064C6.63261 72.2091 6.7946 71.9996 6.94114 71.7794C7.03656 71.6056 7.09777 71.4152 7.12146 71.2184C7.16922 70.8406 7.17683 70.455 7.20482 70.0206C6.75071 69.6037 6.49864 69.5869 6.00649 69.9929C5.40922 70.4826 5.27126 70.4737 4.5663 69.829L5.65215 68.7674C5.41701 68.309 5.58938 67.8619 5.90678 67.4496C6.85555 66.2393 7.81537 65.0361 8.75081 63.824C9.43382 62.9328 10.0861 62.0173 10.7385 61.1044C11.5463 59.9935 12.3356 58.8444 13.1447 57.7149C13.8275 56.7266 14.3322 55.6269 14.6361 54.4653C14.9767 53.3376 15.3888 52.2326 15.87 51.1571C16.3644 49.9835 16.9347 48.839 17.4425 47.6672C17.5903 47.3095 17.6895 46.9336 17.7374 46.5496C18.1848 43.288 18.6487 40.0358 19.6152 36.8727C20.5096 33.986 21.675 31.19 23.0957 28.5219C24.0458 26.7208 24.9846 24.9099 25.9814 23.1345C26.4889 22.2264 27.1282 21.3909 27.6823 20.5059C29.5602 17.4985 31.8599 14.8206 34.2921 12.2653C35.3162 11.2185 36.4394 10.2734 37.6461 9.44303C39.4615 8.16208 41.3382 6.96392 43.2337 5.80928C45.6828 4.34274 48.3212 3.21754 51.0756 2.46495C52.2534 2.11959 53.464 2.20973 54.6661 2.21606C55.0043 2.21899 55.345 2.25603 55.6853 2.2509C57.1967 2.22262 58.6541 2.55937 60.0829 2.97723C61.4308 3.37168 62.7615 3.86226 64.0776 4.36969C64.7001 4.63605 65.2983 4.95545 65.8658 5.32436C67.5505 6.38133 69.1557 7.55957 70.6687 8.8497C72.1761 10.0981 73.3144 11.6596 74.4082 13.2663C75.1677 14.3925 75.9151 15.5353 76.9345 16.4484C77.1289 16.6248 77.1706 16.9594 77.3289 17.1858C77.7872 17.8529 78.2757 18.4995 78.7364 19.1638C79.0646 19.6315 79.3829 20.1079 79.6809 20.5962C80.8998 22.5978 82.1368 24.5928 83.3228 26.6151C84.5173 28.6463 85.3644 30.8622 85.8294 33.1716C85.9627 33.8375 86.1117 34.4996 86.2502 35.1652C86.2913 35.3139 86.2912 35.471 86.2499 35.6197C86.2085 35.7684 86.1276 35.9032 86.0156 36.0095C85.8197 36.2083 85.6724 36.4496 85.5854 36.7145C85.4984 36.9795 85.474 37.261 85.514 37.537C85.7029 39.3093 86.2199 41.014 86.4681 42.7664C86.6439 44.0069 86.7804 45.2527 86.9117 46.499C86.9773 47.2539 87.0085 48.0087 87.0643 48.8144ZM86.9424 51.8557C86.9373 51.5923 86.906 51.3308 86.8878 51.0683C86.7167 51.1743 86.5782 51.3253 86.4875 51.5048C86.0448 52.2423 85.6187 52.9918 85.1506 53.7073C84.8397 54.1912 84.4987 54.6552 84.1298 55.0967C83.6034 55.7781 83.0303 56.4223 82.4147 57.0247C81.714 57.6614 81.1665 57.6123 80.4751 56.9719C80.0547 56.5843 79.6981 56.1265 79.292 55.7168C78.4409 54.8686 77.5905 54.0309 76.7731 53.212C75.6747 53.9395 74.651 54.5643 73.6885 55.2719C73.1722 55.6686 72.7123 56.1334 72.3211 56.6536C71.5067 57.707 70.7816 58.828 69.9645 59.8815C68.4905 61.7822 67.0602 63.7037 65.8857 65.8105C65.5382 66.3641 65.155 66.8946 64.7386 67.3985C64.3229 67.9548 63.8669 68.5006 63.4929 69.0883C63.259 69.4967 63.0694 69.9289 62.9273 70.3775C62.3269 72.0411 61.6809 73.6946 61.1778 75.3909C60.9446 76.1798 60.6303 76.9031 59.991 77.3192C59.4266 77.6748 59.3578 78.091 59.3733 78.62C59.4016 79.4092 59.4536 80.1968 59.4913 80.9695C59.5557 82.3179 59.5884 83.6659 59.7713 85.0088C59.9051 85.842 59.719 86.6951 59.2502 87.3973C59.1937 87.498 59.111 87.5815 59.0108 87.6391C58.9107 87.6967 58.7968 87.7261 58.6812 87.7242C58.1306 87.7439 57.7269 87.3684 57.5498 86.6423C57.086 84.7519 57.0202 82.8128 56.8368 80.8898C56.758 80.0592 56.6294 79.2321 56.5244 78.4034C56.5198 78.2462 56.4636 78.0948 56.3645 77.9726C56.2654 77.8503 56.1288 77.764 55.9757 77.7268C55.5748 77.6032 55.2089 77.3868 54.9077 77.0951C54.6066 76.8034 54.3788 76.4447 54.243 76.0483C53.9256 75.2791 53.6724 74.4844 53.3552 73.7179C52.5312 71.7364 51.5821 69.819 50.2646 68.1091C49.5134 67.1406 48.7743 66.1554 47.9537 65.2523C46.754 63.9483 45.4801 62.7153 44.2385 61.4538C43.6444 61.6848 43.5027 62.2696 43.1674 62.691C42.4395 63.6197 41.8058 64.613 41.0603 65.5165C40.3721 66.3392 39.6321 67.1172 38.8448 67.8458C38.3314 68.3271 37.8878 68.3288 37.4217 68.0051C36.7584 67.5421 36.1096 67.0596 35.4559 66.5828C34.1476 65.6242 32.7464 64.7989 31.2733 64.1194C30.5723 63.7988 30.3361 63.8205 29.9258 64.4159C29.2753 65.3577 28.3771 66.0397 27.5611 66.803C27.0654 67.2278 26.5079 67.5751 25.9078 67.8327C25.2926 68.1391 24.9201 67.9856 24.4698 67.4709C24.1227 67.028 23.6272 66.7252 23.0743 66.6182C22.9748 66.7834 22.8823 66.9348 22.7954 67.0912C22.1209 68.2957 21.4963 69.5336 20.7582 70.6977C20.1739 71.686 19.7885 72.7788 19.6237 73.9146C19.505 74.7341 19.2903 75.5367 18.984 76.3061C18.8827 76.569 18.8631 76.8561 18.9275 77.1302C19.0953 77.8359 19.1186 77.829 18.3787 78.2047C18.6954 79.5726 18.9983 80.8939 19.304 82.2177C19.676 83.7743 20.3234 85.2273 20.8759 86.7213C22.1519 90.0929 23.6977 93.3565 25.4982 96.4803C26.062 97.5152 26.8001 98.4454 27.6802 99.2301C28.9417 100.321 30.2348 101.374 31.4741 102.488C32.8139 103.696 34.3057 104.725 35.9119 105.548C37.5824 106.405 39.225 107.317 40.8913 108.191C41.7688 108.657 42.649 109.124 43.5625 109.501C45.9471 110.488 48.4617 110.986 51.0105 111.255C52.3407 111.395 53.6728 111.295 55.0056 111.282C57.5049 111.256 59.9622 110.967 62.2923 109.985C62.7756 109.794 63.2481 109.576 63.7076 109.333C65.1618 108.518 66.61 107.692 68.043 106.839C69.4099 106.021 70.753 105.166 72.1078 104.326C72.314 104.167 72.5353 104.028 72.7683 103.911C73.8242 103.521 74.6657 102.822 75.4639 102.068C75.7933 101.775 76.0826 101.44 76.3245 101.072C76.7497 100.386 77.1059 99.6569 77.4979 98.9494C78.0454 97.9699 78.6338 97.0087 79.1428 96.0082C79.6066 95.0794 80.0038 94.1025 80.4374 93.1573C81.5742 90.7171 82.577 88.2168 83.4414 85.6677C84.1768 83.4357 85.0389 81.2424 85.6613 78.9814C86.1274 77.1612 86.4783 75.3136 86.7119 73.4495C87.0977 70.7855 87.452 68.1237 87.4094 65.413C87.3875 64.0299 87.3047 62.6459 87.2486 61.2652C87.1745 59.3583 87.0901 57.4548 87.0294 55.5497C86.967 54.3066 86.9665 53.0803 86.9424 51.8557ZM85.8421 49.1286C85.7604 46.6157 85.3572 44.1515 84.9397 41.6724C84.7852 40.739 84.5236 39.8235 84.278 38.7566C84.1082 38.9741 84.0465 39.0364 83.9917 39.122C83.2672 40.1005 82.5438 41.0948 81.7707 42.0582C81.2854 42.6773 80.7032 42.6597 80.2033 42.0403C80.082 41.8904 79.9756 41.7264 79.7652 41.4351C78.747 45.7964 76.9434 49.6479 74.6682 53.3263C75.1226 53.0346 75.547 52.6986 75.935 52.3233C76.6196 51.6825 77.1482 51.6881 77.8153 52.3591C78.0016 52.576 78.2037 52.7789 78.42 52.966C79.4414 53.6907 80.3078 54.6115 80.9688 55.6744C81.1417 55.8851 81.3411 56.0724 81.5621 56.232C81.6743 56.147 81.7817 56.0559 81.8839 55.9591C83.3751 54.3854 84.6146 52.5916 85.5587 50.6409C85.7741 50.167 85.8713 49.6481 85.8421 49.1286ZM84.5408 36.0326C84.7549 35.6225 84.8361 35.1561 84.7732 34.6979C84.3069 31.5871 83.201 28.6064 81.5252 25.9433C81.0602 25.216 80.6584 24.45 80.2035 23.7168C79.0885 21.919 78.0239 20.0861 76.8209 18.3524C75.2718 16.1232 73.6121 13.9729 71.9871 11.7911C71.7745 11.5052 71.5495 11.2307 71.2713 10.8755C71.1779 11.2189 71.0655 11.5568 70.9347 11.8878C70.7507 12.2898 70.5327 12.6755 70.2831 13.0406C70.0426 13.3817 69.3893 13.4823 68.9807 13.3023C68.572 13.1223 68.3872 12.7422 68.4665 12.2092C68.6546 11.1256 68.6671 10.0188 68.5034 8.93123C68.4885 8.77898 68.4401 8.6319 68.3616 8.50055C68.2831 8.36921 68.1764 8.25685 68.0493 8.17154C66.9827 7.4543 65.9414 6.71949 64.8637 6.03203C64.4168 5.7638 63.9429 5.54298 63.45 5.37315C62.5688 5.04392 61.6676 4.76882 60.7866 4.44222C59.4382 3.9412 58.0331 3.60812 56.6031 3.45052C55.5882 3.34738 54.5683 3.30098 53.5483 3.31152C52.9199 3.30073 52.2927 3.37079 51.6823 3.51999C49.2024 4.17632 46.8187 5.15274 44.5916 6.42457C43.7335 6.92446 42.8695 7.41422 42.0574 7.96632C40.327 9.14116 38.5967 10.316 36.9088 11.5327C35.4831 12.5678 34.3651 13.927 33.2036 15.2311C31.6003 16.9852 30.1408 18.8652 28.8393 20.853C27.735 22.562 26.6391 24.2783 25.6174 26.0369C24.9379 27.2075 24.4206 28.4697 23.7851 29.6662C22.7466 31.623 21.8423 33.6479 21.0782 35.7269C20.9451 36.0922 20.8175 36.4623 20.6926 36.8323C20.4393 37.4867 20.2211 38.1542 20.0389 38.8318C19.6762 40.4577 19.3648 42.0986 19.0584 43.7364C18.941 44.33 18.8772 44.9331 18.7815 45.5331C19.0331 45.4756 19.2609 45.3419 19.4337 45.1504C20.415 44.067 21.3965 42.9863 22.3768 41.8872C23.1406 41.0193 23.4258 40.9415 24.4829 41.4089C24.627 41.471 24.7669 41.5423 24.9018 41.6225C26.4097 42.5728 27.9071 43.5239 29.1289 44.8422C29.3445 45.0458 29.5747 45.2334 29.8175 45.4037C29.9059 45.3322 29.9888 45.2542 30.0654 45.1703C31.5555 43.136 33.1553 41.1842 34.8578 39.3236C35.2947 38.845 35.8663 38.8608 36.4152 39.2737C37.2705 39.9159 38.1622 40.5108 39.0511 41.1032C39.5489 41.4424 40.0678 41.75 40.6045 42.024C41.6491 42.5397 42.4667 43.3612 43.4123 44.0104C44.4106 44.6954 44.6109 44.6894 45.4948 43.8396C46.27 43.0976 47.0056 42.3161 47.7896 41.5866C48.9334 40.5236 50.2406 39.6445 51.2693 38.4445C51.653 37.9985 52.3165 37.9684 52.7614 38.5573C52.9448 38.81 53.1477 39.0481 53.368 39.2695C54.7452 40.5823 56.135 41.8863 57.5151 43.2016C57.9731 43.6366 58.135 43.686 58.64 43.237C59.276 42.6923 59.8785 42.1098 60.4444 41.4927C61.352 40.4883 62.3772 39.5812 63.0909 38.4083C63.4586 37.8078 63.8568 37.2264 64.2631 36.6497C64.7203 36.0062 65.4298 35.8779 65.9946 36.4057C66.7176 37.0835 67.403 37.8001 68.0476 38.5525C68.5305 39.1177 68.9239 39.763 69.3842 40.422C69.6445 40.1772 69.8672 39.9982 70.0533 39.7875C71.3228 38.3651 72.5894 36.9393 73.8531 35.5103C74.2182 35.0999 74.5608 34.67 74.9514 34.2843C75.3942 33.8527 75.9277 33.9292 76.28 34.4005C77.0116 35.3546 77.733 36.312 78.5025 37.2397C79.3309 38.2513 80.0441 39.3517 80.6288 40.5207C80.7617 40.7484 80.9092 40.9672 81.0704 41.1758C81.2677 40.9353 81.4105 40.7857 81.5282 40.6166C82.5805 39.109 83.8033 37.7373 84.5457 36.027L84.5408 36.0326ZM78.3459 41.4965C78.5017 40.924 78.6143 40.3386 78.789 39.5828L75.5224 35.3972C74.599 36.4396 73.72 37.3998 72.8774 38.3892C71.9787 39.4457 71.0909 40.5068 70.0055 41.3837C69.4502 41.831 69.071 41.8098 68.5749 41.2824C68.3673 41.0476 68.1793 40.796 68.0131 40.5302C67.2313 39.3871 66.4898 38.2148 65.2907 37.2615L64.8673 37.8974C64.4303 38.6093 63.9542 39.2965 63.4411 39.9558C62.5048 41.0413 61.5101 42.0834 60.4895 43.0956C59.9631 43.6026 59.3887 44.0575 58.7745 44.454C58.0449 44.9397 57.6611 44.8898 57.028 44.2902C55.8716 43.1915 54.7457 42.0749 53.5911 40.9629C53.0259 40.4298 52.5203 39.8425 51.939 39.4951C51.1633 40.1159 50.47 40.6677 49.7824 41.2269C49.511 41.4309 49.2511 41.6497 49.0038 41.8822C48.1909 42.6902 47.3982 43.5231 46.5795 44.3235C46.2306 44.6748 45.8494 44.9926 45.441 45.2727C44.5469 45.8622 44.0226 45.8431 43.1502 45.2206C41.9192 44.3407 40.7001 43.4415 39.4499 42.5893C38.5434 41.9717 37.5893 41.4287 36.6688 40.8358C36.3478 40.626 36.062 40.3504 35.6996 40.0749C35.3475 40.4448 34.9995 40.759 34.7157 41.1215C33.3556 42.8377 32.0207 44.5732 30.658 46.2896C30.143 46.9371 29.616 47.0686 28.944 46.3662C27.5833 44.9494 26.1846 43.5932 24.4796 42.58C23.6862 42.1076 23.5184 42.0876 22.9089 42.7812C22.0532 43.7345 21.2373 44.7273 20.3134 45.6115C19.6522 46.2455 19.2718 47.0446 18.8563 47.7933C18.1704 49.1138 17.5591 50.4716 17.0253 51.8603C16.4988 53.0276 16.0798 54.2404 15.7737 55.4836C15.6066 56.1683 15.3108 56.8153 14.9022 57.39C13.3603 59.6067 11.7763 61.8263 10.1767 64.01C9.31547 65.1879 8.38472 66.3152 7.4847 67.4668C7.24205 67.7763 6.99958 68.0885 7.09986 68.5826C7.28829 68.6469 7.48353 68.6891 7.6817 68.7085C7.78588 68.6977 7.89116 68.7078 7.99142 68.738C8.09167 68.7683 8.18491 68.8181 8.2657 68.8846C8.34649 68.9512 8.41322 69.0331 8.46203 69.1256C8.51084 69.2181 8.54074 69.3194 8.55001 69.4236C8.60082 69.7047 8.63461 69.9886 8.65119 70.2737C8.66938 70.5362 8.66247 70.7793 8.66507 71.0455C9.49883 71.3384 10.2664 71.7045 11.0752 71.8673C11.7958 72.0126 12.1998 72.3168 12.3129 73.0342C12.3151 73.0657 12.3956 73.0839 12.467 73.1238C12.6508 73.044 12.8392 72.9755 13.0312 72.9185C13.7453 72.7424 14.0548 72.9399 14.1944 73.6581C14.2235 73.8116 14.2162 73.973 14.2558 74.1259C14.4376 75.0337 14.8796 75.2377 15.6912 74.7912C16.3477 74.4318 16.8029 74.5216 17.2683 75.1012C17.4186 75.2885 17.5789 75.4673 17.803 75.7287C17.9504 75.4547 18.103 75.2938 18.1003 75.1411C18.0906 74.0868 18.4439 73.0866 18.7286 72.0884C18.8803 71.4565 19.1229 70.8499 19.4489 70.2874C20.4015 68.7893 21.1806 67.1899 22.0046 65.6269C22.656 64.3739 23.4707 63.2125 24.4274 62.173C24.904 61.6573 25.4003 61.1588 25.8884 60.6555C25.9796 60.5622 26.0854 60.4124 26.1857 60.4108C26.8424 60.3969 27.239 59.871 27.7766 59.6253C28.3142 59.3797 28.6869 59.3829 28.8358 59.6653C28.9848 59.9477 28.763 60.2532 28.2638 60.5568C27.8614 60.794 27.4816 61.0675 27.1293 61.3739C26.6641 61.7885 26.2649 62.2777 25.7972 62.6925C24.9064 63.4821 24.338 64.5026 23.6476 65.4788C24.1986 65.8071 24.7158 66.0667 25.1844 66.3876C25.789 66.8045 25.9185 66.843 26.465 66.3832C27.5908 65.4401 28.6364 64.4077 29.3634 63.1231C29.6363 62.64 30.0996 62.6949 30.4686 62.4927C30.7687 62.3268 30.9022 62.6525 31.1066 62.7807C31.3157 62.8898 31.5323 62.9841 31.7547 63.0628C32.1701 63.2101 32.5749 63.3856 32.9664 63.588C34.7413 64.657 36.5022 65.7507 38.3256 66.8717C39.4185 66.1024 40.0779 64.8699 40.869 63.747C41.66 62.6241 42.6548 61.582 43.1722 60.2829L41.5074 58.365C41.2518 58.0689 41.0181 57.7449 40.7354 57.477C39.2535 56.0633 38.0713 54.4021 36.8215 52.793C36.425 52.293 36.0993 51.709 35.7547 51.158C35.4812 50.7181 35.2333 50.2658 34.9649 49.8229C34.1525 48.492 33.3377 47.164 32.5204 45.8387C33.3134 45.3143 33.5106 45.3402 33.967 45.9811C34.0134 46.0446 34.0535 46.1125 34.0867 46.1838C35.1509 48.3147 36.6224 50.188 37.952 52.1476C38.6407 53.1641 39.3926 54.1363 40.2033 55.0586C41.774 56.838 43.4042 58.5632 45.0121 60.3083C45.6489 60.9973 46.288 61.6835 46.9421 62.3555C47.5961 63.0275 48.2949 63.6595 48.929 64.3487C49.4402 64.904 49.8572 65.5476 50.3706 66.0948C51.9096 67.7604 53.0288 69.695 53.9751 71.726C54.4809 72.8117 54.8455 73.9574 55.2639 75.0782C55.6189 76.0083 56.2393 76.6141 57.268 76.7089C57.5547 76.7339 57.8427 76.7404 58.1303 76.7282C59.1998 76.6884 59.55 76.4057 59.8865 75.3934C60.4781 73.6408 61.0536 71.8841 61.7017 70.146C62.0497 69.2226 62.4155 68.2901 63.1055 67.5381C63.9297 66.6253 64.6436 65.619 65.2324 64.5398C65.4222 64.1964 65.6301 63.8633 65.8552 63.542C66.6564 62.4131 67.4605 61.2866 68.2782 60.1671C69.2648 58.817 70.2874 57.4908 71.2572 56.1261C72.133 54.8918 73.0684 53.6798 73.7819 52.3513C74.8041 50.4475 76.0689 48.6536 76.6561 46.5321C76.6921 46.4381 76.7352 46.3469 76.7851 46.2594C77.4888 44.7153 77.9054 43.1041 78.3456 41.4913L78.3459 41.4965ZM58.2867 78.3367C58.2723 78.1293 58.3053 77.8818 57.9909 77.8798C57.6765 77.8779 57.6628 78.1003 57.684 78.3679C57.8293 80.0061 57.9402 81.644 58.0986 83.2813C58.1724 84.041 58.325 84.7952 58.4437 85.5544L58.685 85.4929C58.5812 84.5665 58.4302 83.646 58.3844 82.7182C58.3229 81.2588 58.3193 79.7981 58.2867 78.3367Z" fill="#4D3826"/>
<path d="M86.8635 51.0182C86.8816 51.2806 86.8996 51.5431 86.9177 51.8056C86.9413 53.0303 86.9412 54.2566 86.9789 55.4936C87.0388 57.3988 87.1223 59.3024 87.1955 61.2093C87.2509 62.59 87.333 63.9742 87.3543 65.3573C87.395 68.0577 87.0403 70.7303 86.6533 73.3946C86.4188 75.259 86.0671 77.1069 85.6002 78.9274C84.9768 81.1888 84.1137 83.3826 83.3774 85.6151C82.5119 88.1648 81.508 90.6656 80.3702 93.1065C79.9365 94.0572 79.5491 95.0284 79.0744 95.9582C78.5649 96.959 77.9761 97.9205 77.4283 98.9003C77.0359 99.6081 76.6794 100.337 76.254 101.024C76.0119 101.392 75.7224 101.727 75.3929 102.02C74.5945 102.774 73.7526 103.474 72.6967 103.864C72.4636 103.981 72.2423 104.12 72.036 104.28C70.681 105.12 69.3375 105.976 67.9704 106.794C66.537 107.649 65.0886 108.475 63.6341 109.291C63.1745 109.534 62.7019 109.752 62.2186 109.944C59.8882 110.927 57.4309 111.217 54.9318 111.244C53.599 111.257 52.2565 111.359 50.9369 111.219C48.3884 110.951 45.8664 110.455 43.4902 109.468C42.5769 109.091 41.6965 108.617 40.8198 108.159C39.154 107.286 37.5119 106.375 35.8419 105.518C34.2362 104.696 32.7449 103.668 31.4057 102.46C30.167 101.346 28.8797 100.294 27.6135 99.2036C26.7339 98.4194 25.9962 97.4895 25.4329 96.4548C23.634 93.3315 22.0898 90.0684 20.8154 86.6972C20.2636 85.2034 19.609 83.7511 19.2456 82.194C18.9405 80.8703 18.6383 79.549 18.3222 78.1812C19.0622 77.8052 19.0389 77.8121 18.8715 77.1064C18.8072 76.8323 18.827 76.5451 18.9283 76.2822C19.235 75.5126 19.45 74.7098 19.5691 73.8903C19.7344 72.7543 20.1203 71.6613 20.705 70.6726C21.4436 69.5082 22.0687 68.2698 22.7437 67.0649C22.8307 66.9085 22.9232 66.757 23.0228 66.5919C23.5756 66.6986 24.071 67.0012 24.4178 67.4439C24.8679 67.9585 25.2393 68.0987 25.8556 67.8051C26.4558 67.5472 27.0134 67.1997 27.5092 66.7746C28.3255 66.0108 29.2245 65.3363 29.8748 64.3863C30.2854 63.7906 30.5216 63.7689 31.2224 64.0892C32.6926 64.7695 34.0907 65.5952 35.3959 66.5539C36.0497 67.0358 36.6983 67.518 37.361 67.9755C37.8269 68.299 38.2705 68.2971 38.784 67.8155C39.5716 67.0865 40.3119 66.3081 41.0004 65.4851C41.7463 64.5812 42.3857 63.5871 43.1088 62.6584C43.4363 62.2374 43.5861 61.652 44.1803 61.4206C45.4212 62.6817 46.6945 63.9141 47.8935 65.2177C48.7242 66.1197 49.4628 67.1046 50.203 68.0736C51.5197 69.783 52.4677 71.7001 53.2908 73.6814C53.6079 74.4504 53.8631 75.2423 54.1775 76.0115C54.3132 76.4079 54.5408 76.7665 54.8417 77.0581C55.1427 77.3497 55.5085 77.566 55.9094 77.6893C56.0624 77.7265 56.1989 77.8128 56.298 77.935C56.3971 78.0572 56.4532 78.2085 56.4577 78.3658C56.5623 79.1945 56.6906 80.0216 56.7689 80.8521C56.9464 82.7782 57.0165 84.717 57.4793 86.6047C57.6587 87.3306 58.0622 87.7059 58.6102 87.6862C58.7257 87.688 58.8396 87.6585 58.9398 87.6009C59.04 87.5433 59.1227 87.4597 59.1792 87.359C59.6484 86.6565 59.8348 85.8033 59.7014 84.9701C59.5217 83.627 59.4897 82.279 59.4232 80.9307C59.3848 80.1421 59.3332 79.3546 59.3063 78.5811C59.2912 78.0546 59.3601 77.6358 59.9245 77.2799C60.5751 76.8706 60.8905 76.1576 61.1122 75.3509C61.616 73.6543 62.2627 72.0004 62.8639 70.3365C63.0061 69.8878 63.1959 69.4554 63.4301 69.0469C63.8042 68.459 64.261 67.9208 64.6764 67.3564C65.0931 66.8523 65.4764 66.3216 65.8241 65.7678C66.9995 63.6603 68.4517 61.7366 69.9054 59.8365C70.7229 58.7826 71.4485 57.6612 72.2633 56.6074C72.6547 56.087 73.1148 55.6219 73.6313 55.225C74.5937 54.5117 75.6176 53.8864 76.7166 53.1636C77.5786 53.9843 78.4288 54.8243 79.2793 55.6695C79.6851 56.079 80.0415 56.5368 80.4617 56.9241C81.1528 57.5642 81.7002 57.6131 82.4011 56.976C83.0169 56.3734 83.5903 55.7289 84.117 55.0471C84.4861 54.6055 84.8273 54.1413 85.1384 53.6572C85.6167 52.9328 86.0326 52.1838 86.4762 51.454C86.5635 51.2764 86.6973 51.1258 86.8635 51.0182ZM82.1242 65.7644C82.1594 65.7244 82.1835 65.6758 82.1942 65.6235C82.2048 65.5712 82.2015 65.5171 82.1847 65.4665C82.1678 65.416 82.138 65.3707 82.0982 65.3352C82.0584 65.2998 82.0099 65.2754 81.9577 65.2644C81.7481 65.1988 81.5223 65.2061 81.3172 65.285C81.112 65.364 80.9397 65.51 80.8282 65.6993C80.6568 66.0488 80.5511 66.4307 80.3959 66.7844C80.1177 67.4235 79.8232 68.0559 79.5184 68.7313C80.2116 69.2104 80.7669 69.2586 81.1074 68.7945C81.5964 68.1768 81.8914 67.4284 81.9549 66.6439C81.9546 66.3327 81.9113 66.0483 82.1242 65.7644ZM77.7014 90.0568C77.8621 89.7305 77.9969 89.3922 78.1045 89.0449C77.5812 88.5408 77.0965 88.6748 76.6658 88.9396C75.7751 89.4945 75.0455 90.2729 74.55 91.1971C74.4414 91.4044 74.3762 91.6314 74.3583 91.8645C74.3155 92.3554 74.5299 92.5937 75.0164 92.6388C75.2876 92.6872 75.5672 92.6571 75.8221 92.5519C76.0769 92.4467 76.2963 92.2709 76.4545 92.0453C76.89 91.3899 77.3122 90.7327 77.7014 90.0568ZM60.0721 106.847C60.2511 106.186 59.6189 105.251 59.0179 105.307C58.5446 105.333 58.0983 105.536 57.7684 105.876C56.9579 106.724 56.1342 107.573 55.2597 108.488C55.5125 108.901 55.8711 108.891 56.2708 108.713C56.597 108.578 56.9475 108.511 57.3005 108.517C58.2235 108.501 59.103 108.121 59.7473 107.461C59.904 107.289 60.0158 107.082 60.0728 106.858L60.0721 106.847ZM50.3253 91.5978C50.845 91.4746 51.0272 91.206 50.8655 90.6978C50.6342 89.986 50.3797 89.2811 50.0957 88.4544C49.7642 88.4353 49.4031 88.4078 49.0356 88.4017C48.8857 88.3889 48.7349 88.4143 48.5974 88.4754C48.4598 88.5365 48.34 88.6315 48.2491 88.7513C48.1582 88.8712 48.0991 89.0121 48.0775 89.1608C48.0558 89.3096 48.0723 89.4614 48.1253 89.602C48.2798 90.0723 48.4881 90.5232 48.746 90.9459C49.1594 91.6185 49.5896 91.7679 50.3253 91.5978ZM33.9986 100.879C34.4659 100.762 34.8435 100.493 34.747 100.241C34.6046 99.9175 34.4054 99.6223 34.1588 99.3693C33.4986 98.6796 32.7763 98.0469 32.1334 97.3402C31.3963 96.5318 30.7165 95.672 30.0143 94.8323C29.974 94.772 29.9222 94.7204 29.8618 94.6804C29.8014 94.6404 29.7337 94.6127 29.6625 94.599C29.5913 94.5854 29.518 94.5859 29.447 94.6007C29.376 94.6155 29.3087 94.6442 29.2488 94.6852C28.9621 94.8556 28.7468 95.0657 28.8868 95.4489C29.0307 95.7851 29.1574 96.1284 29.2666 96.4774C29.7456 98.2558 30.9569 99.4319 32.4838 100.32C32.9703 100.548 33.4762 100.734 33.9956 100.873L33.9986 100.879ZM30.309 79.2067C30.7599 79.1198 30.8611 78.7858 30.6743 78.3742C30.5466 78.093 30.4242 77.8114 30.2811 77.497C30.1708 77.4617 30.0554 77.4448 29.9396 77.447C29.532 77.5104 29.1279 77.595 28.729 77.7003C28.392 77.7924 28.5313 78.1281 28.4382 78.3482C28.3927 78.4543 28.2002 78.4967 27.9306 78.6474C28.2565 78.9168 28.6407 79.1071 29.0528 79.2032C29.465 79.2994 29.8939 79.2989 30.306 79.2016L30.309 79.2067Z" fill="#FFFDE1"/>
<path d="M84.9155 41.6364C85.3313 44.1076 85.7346 46.5901 85.8145 49.0927C85.8458 49.6114 85.751 50.1301 85.5383 50.6046C84.591 52.5566 83.3481 54.3513 81.8534 55.9254C81.7512 56.0222 81.6437 56.1134 81.5315 56.1984C81.3106 56.039 81.1112 55.8517 80.9385 55.6411C80.2781 54.5784 79.412 53.658 78.391 52.9337C78.1749 52.7467 77.9729 52.5439 77.7867 52.3271C77.1199 51.6562 76.5913 51.6509 75.9066 52.2921C75.5184 52.6676 75.0939 53.0038 74.6393 53.2957C76.916 49.616 78.7318 45.7628 79.7414 41.4014C79.9516 41.6927 80.058 41.8567 80.1793 42.0065C80.6781 42.6152 81.2584 42.6432 81.7465 42.0237C82.5095 41.0606 83.2312 40.074 83.9687 39.0863C84.0243 39.0112 84.0853 38.9383 84.2552 38.7208C84.503 39.7874 84.7641 40.7028 84.9155 41.6364Z" fill="#E5AD83"/>
<path d="M84.7535 34.6666C84.8162 35.1247 84.7348 35.5912 84.5206 36.0015C83.7827 37.7118 82.5593 39.0842 81.5218 40.586C81.404 40.7551 81.2611 40.9049 81.0638 41.1454C80.9027 40.9369 80.7553 40.7181 80.6226 40.4905C80.0383 39.3217 79.3257 38.2215 78.4978 37.2103C77.7367 36.2823 77.0079 35.3257 76.2767 34.3719C75.9142 33.9014 75.3808 33.8252 74.9483 34.2563C74.5574 34.6396 74.2122 35.0725 73.8495 35.4828C72.5815 36.9093 71.3143 38.3357 70.048 39.7621C69.8618 39.9729 69.6391 40.1519 69.3787 40.3969C68.9134 39.7384 68.5256 39.0929 68.043 38.5279C67.3987 37.7758 66.7137 37.0594 65.9911 36.3819C65.4266 35.8543 64.7171 35.9829 64.2596 36.6267C63.853 37.2036 63.4547 37.7853 63.0867 38.3859C62.3751 39.559 61.3469 40.4668 60.4389 41.4717C59.8728 42.0891 59.2701 42.6719 58.6338 43.217C58.1362 43.6605 57.9668 43.6169 57.509 43.182C56.13 41.8726 54.7409 40.5691 53.364 39.2516C53.1438 39.0303 52.9411 38.7923 52.7577 38.5396C52.3131 37.9509 51.6628 37.9804 51.2658 38.4275C50.2312 39.6258 48.9237 40.5056 47.7849 41.5714C47.0006 42.3013 46.2647 43.0832 45.4892 43.8256C44.6051 44.6785 44.4054 44.6924 43.4068 43.9973C42.4615 43.3486 41.6451 42.5378 40.6 42.0121C40.0635 41.7383 39.5448 41.431 39.0471 41.0919C38.1586 40.4999 37.2667 39.8975 36.4123 39.2635C35.8557 38.8514 35.2921 38.8353 34.8549 39.3141C33.1336 41.178 31.5156 43.1346 30.0082 45.1749C29.9315 45.2588 29.8486 45.3369 29.7602 45.4084C29.5174 45.2383 29.2874 45.0507 29.0718 44.8473C27.8506 43.5268 26.3535 42.5737 24.8465 41.6292C24.7117 41.5491 24.5718 41.4778 24.4277 41.4158C23.3718 40.962 23.0805 41.0272 22.3215 41.8951C21.3566 42.9936 20.3589 44.0759 19.3771 45.1598C19.2043 45.3515 18.9765 45.4853 18.7248 45.5429C18.8155 44.9432 18.8849 44.3397 19.0025 43.746C19.3175 42.1073 19.6297 40.4662 19.9852 38.8406C20.1677 38.1628 20.3862 37.4952 20.6398 36.8406C20.7649 36.4706 20.8925 36.1004 21.0258 35.735C21.7908 33.6555 22.696 31.6301 23.7354 29.6727C24.3713 28.4758 24.8869 27.2187 25.5691 26.0424C26.5915 24.2831 27.6882 22.5662 28.7932 20.8566C30.0955 18.8682 31.5558 16.9874 33.1598 15.2324C34.3323 13.9269 35.4509 12.5671 36.8665 11.5321C38.554 10.304 40.285 9.13096 42.0163 7.96314C42.8392 7.4099 43.7034 6.91972 44.551 6.42014C46.7786 5.14722 49.1626 4.16965 51.6426 3.51215C52.2531 3.36267 52.8803 3.29231 53.5086 3.30282C54.5289 3.28733 55.5493 3.32883 56.5649 3.42713C57.9948 3.58409 59.3996 3.91655 60.7477 4.41699C61.6285 4.74322 62.5295 5.01792 63.4104 5.34677C63.9033 5.51638 64.377 5.73701 64.8238 6.00506C65.9011 6.69207 66.943 7.43957 68.0091 8.15637C68.1362 8.24163 68.2428 8.35395 68.3212 8.48527C68.3997 8.61658 68.448 8.76365 68.4628 8.9159C68.626 10.0034 68.6131 11.1103 68.4244 12.1941C68.3449 12.7271 68.5185 13.1001 68.9381 13.2871C69.3577 13.474 69.9868 13.3668 70.2405 13.0247C70.4903 12.6595 70.7085 12.2737 70.8927 11.8716C71.0236 11.5405 71.1361 11.2025 71.2297 10.8591C71.5182 11.2134 71.7326 11.4886 71.945 11.7744C73.561 13.9561 75.2276 16.1053 76.7755 18.3339C77.9776 20.0671 79.0414 21.8997 80.1555 23.6971C80.6101 24.4302 81.0114 25.196 81.4761 25.9231C83.1611 28.5799 84.277 31.5568 84.7535 34.6666ZM72.8157 29.1357C73.2303 28.7138 73.2252 28.7168 72.881 28.0525C72.8132 27.8853 72.7598 27.7125 72.7214 27.5362C72.4872 27.49 72.2462 27.4909 72.0123 27.539C71.7784 27.587 71.5564 27.6811 71.3594 27.8158C70.7077 28.2859 70.7485 28.9556 71.4646 29.3434C71.6847 29.4471 71.9309 29.4827 72.1716 29.4457C72.4124 29.4087 72.6366 29.3008 72.8157 29.1357ZM53.576 26.9495C53.3478 26.0134 52.6337 25.6149 51.7279 25.9998C50.5991 26.4821 49.3112 26.725 48.5214 27.951C48.6943 28.928 49.14 29.2634 50.1351 29.1017C50.4126 29.0363 50.6839 28.9468 50.9459 28.8341C52.0127 28.4485 52.6989 27.5593 53.576 26.9495ZM49.5506 10.3727C49.4651 9.8987 49.3617 9.39428 49.2844 8.88539C49.2265 8.50439 49.121 8.16099 48.6852 8.08327C48.4756 8.05854 48.2639 8.10696 48.0859 8.22033C47.9079 8.3337 47.7746 8.50503 47.7086 8.70525C47.5463 9.19632 47.4308 9.70152 47.3635 10.2141C47.3398 10.3041 47.3383 10.3983 47.359 10.4889C47.3797 10.5795 47.4221 10.6638 47.4825 10.7344C47.5428 10.8051 47.6195 10.8601 47.7058 10.8947C47.7921 10.9294 47.8856 10.9427 47.9782 10.9334C48.2339 10.9147 48.4844 10.8508 48.7179 10.7447C48.976 10.6581 49.2101 10.5284 49.5506 10.3727ZM35.0194 24.2515C35.2416 24.1411 35.4908 24.0788 35.4092 23.776C35.3668 23.5245 35.2595 23.2884 35.098 23.0909C34.4456 22.4771 33.7541 21.9082 33.0772 21.3199L32.5845 21.4149C32.4296 21.433 32.2762 21.4631 32.1259 21.5049C31.6419 21.6864 31.4921 21.8893 31.6584 22.3867C31.8414 22.9787 32.1014 23.544 32.4318 24.0681C32.9284 24.7983 33.6297 25.0105 34.3391 24.7262C34.5889 24.635 34.7719 24.3769 35.0194 24.2515Z" fill="#FFFDE1"/>
<path d="M81.9575 65.2645C82.0098 65.2754 82.0582 65.2999 82.0981 65.3353C82.1379 65.3708 82.1677 65.4161 82.1846 65.4667C82.2014 65.5172 82.2047 65.5714 82.1941 65.6236C82.1834 65.6759 82.1593 65.7245 82.124 65.7646C81.9108 66.0432 81.9545 66.3329 81.9447 66.6501C81.8811 67.4347 81.5861 68.1832 81.097 68.8009C80.7671 69.2644 80.2119 69.2187 79.5079 68.7377C79.8127 68.0623 80.1072 67.4298 80.3854 66.7906C80.5403 66.4316 80.6461 66.0497 80.8178 65.7054C80.9288 65.5129 81.1025 65.3641 81.3099 65.2839C81.5173 65.2037 81.7459 65.1968 81.9575 65.2645Z" fill="#4D3826"/>
<path d="M78.768 39.5438C78.5929 40.2997 78.4799 40.8825 78.3241 41.4578C77.8884 43.0706 77.4581 44.683 76.763 46.211C76.7132 46.2986 76.67 46.3897 76.6339 46.4838C76.0458 48.6057 74.7908 50.3996 73.7573 52.3046C73.0433 53.6336 72.1073 54.8461 71.231 56.0808C70.2686 57.4456 69.2376 58.7729 68.2504 60.1235C67.4317 61.2355 66.6277 62.3703 65.826 63.4996C65.6008 63.8211 65.3927 64.1543 65.2028 64.4978C64.6138 65.5783 63.8995 66.5859 63.0749 67.4999C62.3872 68.252 62.0209 69.1848 61.6699 70.1086C61.0207 71.8418 60.4449 73.6042 59.8525 75.3571C59.5129 76.3698 59.1626 76.6527 58.0958 76.6929C57.8082 76.7051 57.5202 76.6988 57.2335 76.6739C56.2049 76.5795 55.5849 75.974 55.2303 75.0441C54.8019 73.9241 54.4378 72.7785 53.9431 71.6922C53.0109 69.6606 51.8795 67.7273 50.3414 66.0623C49.8306 65.5098 49.4139 64.8664 48.9007 64.3167C48.2669 63.6278 47.5686 62.9987 46.9148 62.3243C46.2609 61.65 45.6223 60.9666 44.9859 60.2779C43.3796 58.5438 41.7497 56.8115 40.1798 55.0301C39.3695 54.108 38.6181 53.1361 37.93 52.1199C36.6013 50.1607 35.1308 48.288 34.0676 46.1574C34.0345 46.0861 33.9944 46.0183 33.948 45.9548C33.4919 45.3141 33.2947 45.2883 32.5016 45.813C33.3165 47.1381 34.1306 48.4659 34.9441 49.7964C35.2123 50.2392 35.46 50.6914 35.7332 51.1312C36.0775 51.6821 36.4021 52.2528 36.7992 52.7658C38.0482 54.3744 39.2288 56.0247 40.7107 57.4483C40.9933 57.7161 41.2269 58.04 41.4823 58.336L43.1461 60.2533C42.6281 61.5527 41.6448 62.576 40.8414 63.7187C40.038 64.8613 39.39 66.0749 38.2968 66.8447C36.474 65.7245 34.7111 64.6317 32.9394 63.5633C32.5481 63.361 32.1434 63.1857 31.728 63.0386C31.5057 62.9599 31.2892 62.8657 31.0801 62.7568C30.8758 62.6286 30.7425 62.303 30.4423 62.469C30.0733 62.6714 29.61 62.6167 29.3369 63.0999C28.6093 64.385 27.5633 65.4179 26.4372 66.3616C25.8905 66.8217 25.7611 66.7832 25.1566 66.3665C24.6882 66.0458 24.1791 65.786 23.6204 65.4584C24.308 64.4741 24.8794 63.4532 25.7711 62.671C26.239 62.2559 26.6384 61.7665 27.1037 61.3516C27.4562 61.045 27.836 60.7713 28.2385 60.534C28.7461 60.2348 28.9577 59.9326 28.8109 59.6422C28.6642 59.3518 28.2793 59.3628 27.7518 59.6027C27.2243 59.8426 26.8172 60.3747 26.1606 60.3889C26.0607 60.3959 25.9545 60.5404 25.8632 60.6338C25.3697 61.1377 24.8758 61.6363 24.4016 62.152C23.4445 63.192 22.6293 64.3539 21.9774 65.6073C21.1533 67.1786 20.384 68.7778 19.4197 70.2692C19.0881 70.8305 18.8399 71.4368 18.6827 72.0692C18.3976 73.0675 18.0432 74.0575 18.0531 75.1223C18.0636 75.2745 17.9027 75.4308 17.7555 75.7101C17.5315 75.4488 17.3713 75.2701 17.2211 75.0827C16.756 74.5033 16.3009 74.4138 15.6443 74.7734C14.8325 75.2204 14.3907 75.0165 14.2093 74.1088C14.1803 73.9552 14.1876 73.7938 14.1481 73.6409C14.0088 72.9228 13.6994 72.7255 12.9853 72.9019C12.7933 72.9589 12.6048 73.0276 12.4211 73.1074C12.3497 73.0676 12.2718 73.0493 12.267 73.0179C12.1546 72.3058 11.7505 71.9991 11.03 71.8515C10.2264 71.6887 9.45388 71.3233 8.6203 71.0307C8.618 70.7671 8.62358 70.503 8.60677 70.2589C8.59032 69.9737 8.55667 69.6899 8.50598 69.4088C8.49677 69.3046 8.46691 69.2033 8.41815 69.1108C8.36939 69.0183 8.30269 68.9364 8.22194 68.8699C8.14118 68.8034 8.04798 68.7536 7.94774 68.7234C7.84751 68.6932 7.74224 68.6832 7.63806 68.694C7.43991 68.6747 7.2447 68.6326 7.05631 68.5684C6.96415 68.0738 7.19922 67.7673 7.44164 67.4523C8.34004 66.3084 9.27178 65.1884 10.1301 63.9997C11.7331 61.8123 13.3165 59.6078 14.8584 57.3772C15.2672 56.8022 15.5632 56.1551 15.7307 55.4702C16.0374 54.2268 16.4568 53.0137 16.9839 51.8461C17.5183 50.4571 18.1301 49.0989 18.8165 47.7781C19.2324 47.0291 19.6132 46.2298 20.2746 45.5955C21.1988 44.7108 22.0151 43.7176 22.8712 42.7638C23.4941 42.0689 23.6619 42.0889 24.4419 42.5619C26.1464 43.5744 27.5444 44.93 28.9043 46.3463C29.5759 47.0484 30.103 46.9167 30.6182 46.2689C31.9816 44.5518 33.3172 42.8155 34.678 41.0986C34.9646 40.7358 35.3127 40.4214 35.6623 40.0515C36.0253 40.3374 36.3103 40.6023 36.6311 40.812C37.5513 41.4045 38.5051 41.9472 39.4112 42.5644C40.661 43.416 41.8796 44.3147 43.1101 45.1941C43.9822 45.8163 44.5073 45.8482 45.4007 45.2453C45.8092 44.9649 46.1905 44.6469 46.5396 44.2955C47.3586 43.4946 48.1517 42.6613 48.9649 41.8529C49.2123 41.6202 49.4723 41.4013 49.7437 41.1972C50.4317 40.6402 51.1252 40.0881 51.901 39.4643C52.4828 39.8219 52.996 40.4085 53.5522 40.9315C54.7056 42.0325 55.8316 43.1592 56.9874 44.2574C57.6203 44.8567 58.004 44.9065 58.7338 44.4204C59.3481 44.0236 59.9227 43.5684 60.4493 43.0611C61.4676 42.0485 62.4628 41.0059 63.4022 39.9197C63.9155 39.2602 64.3919 38.5728 64.8291 37.8607L65.2663 37.2288C66.4649 38.1817 67.2058 39.3537 67.987 40.4965C68.1532 40.7622 68.341 41.0137 68.5485 41.2485C69.0444 41.7757 69.4235 41.7967 69.979 41.3491C71.0655 40.4821 71.9582 39.4097 72.8521 38.3531C73.695 37.3633 74.5665 36.4032 75.4982 35.3597L78.768 39.5438ZM68.6881 57.4662C68.0393 57.1343 67.9065 57.162 67.5498 57.6195C67.3435 57.8844 67.1068 58.1277 66.8921 58.3853C66.3629 59.0236 65.8199 59.6522 65.3161 60.3124C65.2057 60.5416 65.1334 60.7871 65.102 61.0394C65.6093 61.157 65.9691 61.2822 66.3054 60.8341C66.8082 60.1446 67.3569 59.4895 67.9478 58.8734C68.3227 58.4835 68.5794 57.9956 68.6881 57.4662ZM58.7497 75.4499C58.9228 74.7811 59.0262 74.0961 59.1545 73.4278C58.453 73.2131 58.2729 73.2441 58.1325 73.66C57.886 74.3597 57.7818 75.1013 57.8258 75.8414C58.3153 76.0077 58.6438 75.8687 58.7497 75.4499ZM57.2331 76.1702C57.4095 75.2797 57.0109 74.5532 56.5985 73.8568C56.5209 73.7277 56.1206 73.7055 55.8999 73.7604C55.6403 73.826 55.6073 74.1132 55.6949 74.3497C55.8544 74.7869 56.0603 75.2077 56.2136 75.6321C56.367 76.0566 56.6384 76.2777 57.2335 76.1755L57.2331 76.1702ZM47.2866 62.1243C47.7979 62.7612 48.4227 62.707 48.8829 61.9101L46.7912 59.4557C46.4435 59.0474 46.1477 59.0469 45.6732 59.2515C45.2806 59.4186 45.1985 59.7989 45.5408 60.0519C46.2922 60.6087 46.7233 61.4226 47.2896 62.1294L47.2866 62.1243Z" fill="#E5AD83"/>
<path d="M78.1042 89.0451C77.9965 89.3925 77.8617 89.7308 77.701 90.0571C77.3118 90.7331 76.8895 91.3903 76.4532 92.0353C76.2951 92.261 76.0756 92.4368 75.8208 92.5419C75.5659 92.6471 75.2863 92.6773 75.015 92.6289C74.5286 92.5837 74.3141 92.3454 74.3569 91.8545C74.3748 91.6214 74.44 91.3943 74.5486 91.187C75.0442 90.2627 75.7738 89.4843 76.6646 88.9293C77.0961 88.675 77.5808 88.541 78.1042 89.0451Z" fill="#4D3826"/>
<path d="M72.8863 28.0471C73.2305 28.7115 73.2356 28.7085 72.8209 29.1304C72.6419 29.2964 72.4174 29.4052 72.1761 29.4427C71.9349 29.4802 71.688 29.4448 71.4672 29.3409C70.7538 28.9529 70.7129 28.2831 71.362 27.8132C71.5591 27.6784 71.7811 27.5843 72.015 27.5363C72.2489 27.4883 72.49 27.4873 72.7241 27.5335C72.7635 27.709 72.8177 27.8808 72.8863 28.0471Z" fill="#4D3826"/>
<path d="M67.5492 57.6197C67.906 57.1622 68.0441 57.1341 68.6876 57.4664C68.5762 57.9925 68.3184 58.4768 67.9439 58.8635C67.353 59.4796 66.8043 60.1347 66.3014 60.8244C65.9651 61.2725 65.6045 61.1368 65.0979 61.0297C65.1293 60.7774 65.2016 60.5318 65.312 60.3026C65.8159 59.6423 66.3589 59.0136 66.8881 58.3753C67.1062 58.128 67.343 57.8847 67.5492 57.6197Z" fill="#4D3826"/>
<path d="M59.1548 73.4333C59.0265 74.1016 58.9231 74.7867 58.7499 75.4555C58.6437 75.8691 58.3143 75.995 57.826 75.8471C57.782 75.1069 57.8862 74.3652 58.1328 73.6655C58.2732 73.2495 58.454 73.229 59.1548 73.4333Z" fill="#4D3826"/>
<path d="M57.9643 77.8574C58.2682 77.8599 58.2452 78.1015 58.2599 78.3141C58.2918 79.7756 58.2947 81.2365 58.3661 82.6952C58.4115 83.623 58.562 84.5435 58.6654 85.4699L58.4241 85.5315C58.3058 84.7723 58.1535 84.0181 58.08 83.2584C57.9224 81.6211 57.8122 79.9831 57.6678 78.3449C57.6362 78.0781 57.6234 77.8548 57.9643 77.8574Z" fill="#FF8888"/>
<path d="M59.0172 105.317C59.6182 105.262 60.2504 106.197 60.0714 106.858C60.0155 107.087 59.9029 107.298 59.7439 107.471C59.0984 108.128 58.2199 108.504 57.2991 108.518C56.947 108.512 56.5974 108.578 56.272 108.713C55.8723 108.891 55.5138 108.901 55.2609 108.488C56.1359 107.581 56.9598 106.735 57.7696 105.876C58.1007 105.541 58.546 105.341 59.0172 105.317Z" fill="#4D3826"/>
<path d="M56.5993 73.8621C57.0117 74.5586 57.4104 75.2851 57.234 76.1758C56.6388 76.278 56.3666 76.0833 56.2153 75.6508C56.064 75.2182 55.8551 74.7923 55.6965 74.3682C55.6089 74.1316 55.6393 73.8447 55.9015 73.7789C56.1213 73.7108 56.5217 73.733 56.5993 73.8621Z" fill="#4D3826"/>
<path d="M51.7285 25.9997C52.6342 25.6148 53.3483 26.0133 53.5765 26.9494C52.6994 27.5592 52.0138 28.4563 50.9464 28.834C50.6845 28.9467 50.4132 29.0362 50.1356 29.1016C49.1379 29.2635 48.6956 28.9384 48.5219 27.9509C49.3117 26.7248 50.5944 26.4824 51.7285 25.9997Z" fill="#4D3826"/>
<path d="M49.2858 8.88526C49.3631 9.39419 49.4665 9.89866 49.552 10.3727C49.2114 10.5284 48.9695 10.6587 48.7143 10.7503C48.4817 10.8531 48.2329 10.9142 47.9793 10.9309C47.8864 10.9405 47.7927 10.9276 47.706 10.8932C47.6193 10.8587 47.5424 10.8038 47.4817 10.7331C47.421 10.6624 47.3783 10.578 47.3575 10.4872C47.3366 10.3964 47.3381 10.3018 47.3619 10.2117C47.4292 9.69901 47.5447 9.19377 47.707 8.70266C47.7735 8.50287 47.9071 8.33209 48.0851 8.21921C48.2631 8.10634 48.4746 8.05831 48.6839 8.08324C49.1224 8.16078 49.2279 8.50421 49.2858 8.88526Z" fill="#4D3826"/>
<path d="M50.8624 90.6929C51.0247 91.2091 50.8524 91.4691 50.3222 91.5931C49.5894 91.7682 49.1592 91.6189 48.7427 90.9411C48.4848 90.5184 48.2765 90.0674 48.1219 89.597C48.0689 89.4564 48.0525 89.3046 48.0741 89.1559C48.0958 89.0071 48.1548 88.8662 48.2458 88.7463C48.3367 88.6265 48.4565 88.5315 48.5941 88.4704C48.7316 88.4092 48.8824 88.3839 49.0324 88.3967C49.3947 88.4031 49.7558 88.4307 50.0925 88.4494C50.3766 89.2762 50.632 89.9942 50.8624 90.6929Z" fill="#4D3826"/>
<path d="M48.8859 61.9155C48.4257 62.7125 47.8008 62.7666 47.2895 62.1297C46.7126 61.4236 46.2925 60.6168 45.5326 60.0526C45.1903 59.7995 45.2724 59.4193 45.665 59.2521C46.1396 59.0475 46.4433 59.0475 46.7831 59.4563L48.8859 61.9155Z" fill="#4D3826"/>
<path d="M35.4107 23.7761C35.4923 24.079 35.2431 24.1412 35.0209 24.2517C34.7987 24.3621 34.5904 24.6352 34.3384 24.7345C33.6284 25.0109 32.9271 24.7987 32.431 24.0763C32.1005 23.5521 31.8405 22.9868 31.6575 22.3948C31.4886 21.8975 31.6383 21.6945 32.125 21.5129C32.2754 21.4711 32.4287 21.441 32.5837 21.4228L33.0739 21.3306C33.7509 21.919 34.4425 22.4879 35.0949 23.1018C35.2564 23.2957 35.3652 23.5279 35.4107 23.7761Z" fill="#4D3826"/>
<path d="M34.7326 100.236C34.84 100.493 34.4621 100.756 33.9842 100.874C33.4591 100.733 32.9477 100.546 32.4561 100.314C30.9292 99.4258 29.7179 98.2497 29.2389 96.4713C29.1298 96.1223 29.003 95.779 28.8591 95.4429C28.7139 95.06 28.9344 94.8495 29.2211 94.6792C29.281 94.6382 29.3484 94.6095 29.4194 94.5947C29.4904 94.5799 29.5636 94.5793 29.6348 94.593C29.706 94.6066 29.7738 94.6343 29.8341 94.6743C29.8945 94.7144 29.9463 94.766 29.9866 94.8262C30.6888 95.6659 31.3687 96.5257 32.1057 97.3341C32.7486 98.0408 33.4709 98.6735 34.1311 99.3633C34.3827 99.6157 34.5865 99.9115 34.7326 100.236Z" fill="#4D3826"/>
<path d="M30.6632 78.3699C30.85 78.7815 30.7489 79.1156 30.2979 79.2025C29.8862 79.2974 29.4583 79.2959 29.0474 79.1983C28.6366 79.1007 28.254 78.9096 27.9296 78.6398C28.1836 78.4928 28.3814 78.45 28.4372 78.3406C28.5304 78.1204 28.3989 77.7841 28.7281 77.6925C29.127 77.5872 29.5311 77.5027 29.9388 77.4393C30.0546 77.4371 30.17 77.454 30.2803 77.4893C30.421 77.8065 30.5434 78.0881 30.6632 78.3699Z" fill="#4D3826"/>
</svg>
