<svg width="115" height="111" viewBox="0 0 115 111" fill="none" xmlns="http://www.w3.org/2000/svg">
<g clip-path="url(#clip0)">
<path d="M114.42 91.8368C111.169 91.7755 111.396 92.6266 110.601 95.0143L107.443 93.6061C107.339 94.3653 107.259 94.8919 107.149 95.6755C105.023 94.3715 103.123 93.1592 101.736 91.2368C99.989 88.8184 98.1745 86.4613 96.3722 84.0919C94.2644 81.3184 91.4479 79.3592 88.6497 77.3572C87.9777 76.8796 87.2751 76.4633 86.4197 75.9123V75.8204C86.7008 75.5204 86.9696 75.2082 87.2323 74.8959C89.8024 76.4394 92.1989 78.2561 94.3805 80.3143C96.3826 82.2525 98.2581 84.318 99.9951 86.498C101.034 87.7592 101.749 89.2898 102.726 90.6061C103.385 91.4561 104.144 92.2229 104.987 92.8898C105.598 93.3735 106.349 93.5816 107.009 92.6755C106.838 92.4061 106.667 92.149 106.526 91.8735C106.386 91.598 106.276 91.2612 106.105 90.8572C107.192 90.7286 107.43 91.4694 107.828 91.9837C109.147 93.6306 109.984 93.5143 110.882 91.5245L109.471 89.6878C110.992 89.3327 111.689 91.5245 113.008 90.398C112.526 89.7857 112.104 89.2347 111.67 88.6776C111.75 88.5735 111.835 88.4755 111.915 88.3653L113.29 88.6592C113.351 88.5735 113.412 88.4817 113.479 88.3959C113.07 87.9306 112.709 87.4286 112.257 87.0123C109.101 84.1081 107.068 80.1822 106.514 75.9245C106.271 74.2277 105.901 72.5516 105.408 70.9102C104.895 69.2204 104.461 67.3959 103.478 66.0123C101.818 63.7735 99.9941 61.6616 98.0218 59.6939C95.7062 57.2449 93.1708 55.0347 90.898 52.5674C88.4802 49.9327 86.8962 46.6388 86.3464 43.1021C86.0167 41.118 85.8816 39.1064 85.9432 37.0959C86.3174 36.2731 86.7588 35.4827 87.2628 34.7327C87.1072 36.2109 87.0501 37.6979 87.0918 39.1837C87.2323 43.9776 88.5764 48.3061 91.9794 51.8204C94.3194 54.2204 96.7204 56.5592 99.0298 58.9898C100.655 60.6857 102.201 62.449 103.728 64.2306C105.402 66.1776 105.94 68.6265 106.514 71.0327C107.058 73.3163 107.547 75.6123 108.005 77.9143C108.543 80.544 109.869 82.9468 111.805 84.8021C112.917 85.9041 113.858 87.1898 114.976 88.5123C113.705 89.4674 114.249 90.6674 114.42 91.8368Z" fill="#36464E"/>
<path d="M113.473 88.4142C113.406 88.5 113.345 88.5918 113.283 88.6775L111.909 88.3836C111.829 88.4938 111.744 88.5918 111.664 88.6959C112.098 89.253 112.52 89.804 113.002 90.4163C111.683 91.5428 110.986 89.351 109.465 89.7061L110.876 91.5428C109.96 93.5326 109.123 93.6489 107.821 92.002C107.424 91.5061 107.211 90.7775 106.099 90.8755C106.27 91.2857 106.374 91.5979 106.52 91.8918C106.667 92.1857 106.832 92.4244 107.003 92.6938C106.343 93.5999 105.579 93.3918 104.981 92.9081C104.138 92.2412 103.379 91.4744 102.72 90.6244C101.742 89.3081 101.028 87.7775 99.989 86.5163C98.252 84.3363 96.3765 82.2708 94.3744 80.3326C92.1928 78.2744 89.7963 76.4577 87.2262 74.9142C92.6881 68.2408 93.3968 58.4755 91.289 57.202C89.0713 55.8734 86.8596 50.1061 85.0879 45.2265C84.0431 42.3428 85.0023 39.202 85.9615 37.1204C85.9 39.1308 86.035 41.1424 86.3648 43.1265C86.9145 46.6632 88.4985 49.9572 90.9164 52.5918C93.1891 55.0408 95.7246 57.2877 98.0401 59.7183C100.012 61.686 101.836 63.7979 103.496 66.0367C104.48 67.4387 104.913 69.2632 105.427 70.9346C105.92 72.576 106.289 74.2522 106.532 75.9489C107.086 80.2066 109.12 84.1325 112.275 87.0367C112.703 87.4469 113.063 87.9489 113.473 88.4142Z" fill="#BBBABA"/>
<path d="M94.5271 8.57143C96.36 7.95918 97.6552 7.23061 99.4147 7.7449L98.0462 10.849C98.9382 11.6204 98.5777 12.551 97.9057 13.3959C97.4162 14.0607 96.8433 14.6595 96.2011 15.1776C94.3509 16.6283 92.8479 18.4754 91.8023 20.5837C89.3994 24.9683 87.8643 29.7768 87.2812 34.7449C86.7771 35.4949 86.3358 36.2854 85.9615 37.1082C86.175 32.4554 87.2654 27.8851 89.1752 23.6388C90.7881 19.8857 92.7615 16.3469 96.195 13.8735C96.6682 13.4039 97.0789 12.875 97.4169 12.3C95.8895 12.1469 95.1747 13.8857 93.7512 13.0714C94.7654 11.4061 97.3314 11.149 97.4536 8.66939C95.972 8.96886 94.5981 9.66252 93.4763 10.6776C93.0364 11.051 92.5904 11.6694 91.7167 10.8857C92.737 9.43469 93.7695 8.01429 94.7715 6.55714C95.3113 5.78629 95.7776 4.96637 96.1645 4.10816C96.2683 3.85714 95.9384 3.29388 95.6513 3.06122C95.5107 2.93878 94.8815 3.12245 94.7226 3.34898C93.5312 4.97143 91.8756 6.26939 91.2463 8.29592C91.0691 8.85306 90.7331 9.33061 89.7861 8.8653C90.1527 7.23673 90.5192 5.58367 90.8797 3.92449C91.0324 3.22653 91.4051 2.47347 90.452 1.76939C90.1229 2.13944 89.8436 2.5511 89.6211 2.99388C89.1568 4.56735 88.7964 6.17143 88.3992 7.75714C88.2343 8.36939 88.6558 9.39796 87.6478 9.44694C86.6397 9.49592 86.8902 8.42449 86.658 7.84286C86.3525 7.07755 86.2487 6.23877 85.986 5.46122C85.7879 4.97548 85.5509 4.5066 85.2773 4.05918C84.3346 6.60624 84.1687 9.37663 84.8007 12.0184C83.1817 14.149 81.5932 16.2 80.0475 18.2939C79.4915 19.0531 78.8256 19.898 79.6259 20.8592C80.4263 21.8204 79.9681 22.451 79.5648 23.3082C79.0516 24.3796 78.7278 25.5306 78.2757 26.6327C78.0558 27.1653 77.8297 27.6918 77.5914 28.2184L76.9438 27.9367C77.0721 27.6612 77.1882 27.3918 77.2921 27.1102C77.903 25.4816 78.3124 23.7796 78.905 21.802C78.6362 21.1469 77.9397 20.2653 77.9764 19.4082C78.0313 17.9388 77.3043 17.0694 76.4184 16.1388C75.728 15.398 75.1598 14.5469 74.4878 13.7816C74.1663 13.3239 73.7494 12.9416 73.2659 12.6612C71.8485 12.098 71.0298 10.8245 69.8629 10.0286C68.6959 9.23265 67.1258 9.15918 65.7389 8.73673C65.4396 8.65102 65.1952 8.39388 64.9019 8.29592C63.9144 7.89372 62.8918 7.58423 61.8472 7.37143C59.4705 7.04082 57.3994 8.22245 55.2977 9.03061C54.8152 9.21487 54.3474 9.43593 53.8986 9.69184L53.7337 9.25102C53.4689 9.5898 53.2368 9.91429 53.0372 10.2245C50.8683 11.7184 49.2981 13.898 47.8929 16.1633C47.1222 17.3913 45.9144 18.2799 44.5144 18.649C40.3232 20.0143 36.8591 22.1755 35.2034 26.449C35.0496 26.9327 34.7585 27.3611 34.3658 27.6819C33.973 28.0026 33.4956 28.2018 32.9918 28.2551C31.4248 28.4694 29.8847 28.8491 28.3974 29.3878C26.2835 30.202 24.2612 31.3224 23.0882 33.3306C22.7949 33.4347 22.4772 33.551 22.1962 33.6918L21.8052 33.502L21.8846 33.3429C23.1065 30.9245 25.2876 29.6082 27.6581 28.6531C29.1416 28.1113 30.6772 27.7255 32.2403 27.502C33.2972 27.3245 33.9937 26.9571 34.287 25.8735C34.7853 24.1394 35.8314 22.6141 37.2684 21.5265C39.5473 19.6898 41.8445 17.8531 44.8076 17.302C45.8096 17.1122 46.2739 16.4755 46.7627 15.6918C48.7849 12.4837 51.1249 9.56939 54.7051 7.98367C56.3772 7.25914 58.1059 6.67349 59.8738 6.23265C61.8044 5.73673 63.6006 6.37959 65.3724 7.21224C66.5943 7.82449 67.9934 8.08163 69.2825 8.58367C69.9953 8.76382 70.647 9.13161 71.1703 9.64898C71.7767 10.4531 72.5808 11.086 73.5042 11.4857C74.5249 11.9937 75.3652 12.8037 75.9113 13.8061C76.7483 15.1837 77.9702 16.3408 79.1616 17.7551C80.2797 16.1633 81.0922 14.6082 82.2775 13.4204C82.745 13.0302 83.0897 12.5126 83.2697 11.9302C83.4497 11.3477 83.4573 10.7255 83.2917 10.1388C82.8648 7.74968 83.1517 5.28747 84.1164 3.06122C84.2131 2.82753 84.3361 2.60569 84.483 2.4C84.5441 2.31429 84.6969 2.29592 84.9168 2.20408C86.1387 2.90204 86.8046 4.07143 87.3606 5.96939C88.2526 3.06122 88.8513 0.428571 92.0894 0V4.66531C92.7676 3.87551 93.3113 2.97551 94.0506 2.47347C94.7898 1.97143 95.9201 1.83673 96.7754 1.53673C98.3945 4.48775 96.1095 6.19592 94.5271 8.57143Z" fill="#36464E"/>
<path d="M93.7634 13.0348C95.1747 13.849 95.8895 12.1103 97.4291 12.2633C97.0911 12.8383 96.6804 13.3672 96.2072 13.8368C92.7737 16.2858 90.8003 19.849 89.1874 23.6021C87.2776 27.8485 86.1872 32.4187 85.9737 37.0715C85.0145 39.1531 84.0553 42.2939 85.1001 45.1776C86.8718 50.0756 89.0835 55.8246 91.3013 57.1531C93.4091 58.4266 92.7004 68.1735 87.2384 74.8654C86.939 74.6817 86.6275 74.5103 86.3342 74.3388C86.0351 74.7831 85.6889 75.1937 85.3017 75.5633C84.7835 76.5738 84.0289 77.4435 83.1023 78.098C82.1378 78.7643 81.0522 79.2345 79.907 79.4817L79.8336 79.3715C79.3839 79.567 78.915 79.7147 78.4346 79.8123C78.4648 80.1358 78.5409 80.4532 78.6606 80.7552L79.1249 81.9797C75.8136 82.4205 60.7474 81.545 59.4217 78.8878C58.0959 76.2307 56.764 74.8899 49.237 67.7939C43.9217 62.7858 37.4823 62.9756 34.1465 63.5082C32.5371 62.9514 30.8808 62.5416 29.1977 62.2837C26.8163 61.8805 24.4091 61.6493 21.9946 61.5919C18.4083 61.4694 15.7751 63.0307 14.4126 66.4899C14.3155 66.724 14.1947 66.9477 14.0522 67.1572C13.966 67.245 13.8672 67.3193 13.7589 67.3776C12.9586 66.2817 12.9586 66.2817 14.2416 63.3674C13.8841 63.3854 13.5325 63.4662 13.2029 63.6062C12.201 64.3837 11.2357 65.2103 10.2581 66.0184C9.93165 66.2819 9.58658 66.5213 9.22562 66.7348C8.5128 67.1788 7.68099 67.3925 6.84289 67.347C6.77569 66.0307 7.77765 65.5103 8.67576 64.898C9.25005 64.5123 9.89767 64.2858 10.5086 63.9184C10.8464 63.6125 11.1441 63.2648 11.3945 62.8837C11.0248 62.7816 10.6358 62.7712 10.2611 62.8533C9.88648 62.9355 9.53738 63.1077 9.24395 63.3552C8.07091 64.1082 6.93454 64.9103 5.74928 65.6511C4.89395 66.1899 4.08138 66.2633 3.48264 65.0756C3.837 63.9368 4.82674 63.398 5.84093 62.8837C7.06284 62.2715 8.33973 61.6592 9.56164 60.9797C10.0636 60.6647 10.5415 60.3127 10.9913 59.9266C10.9363 59.7735 10.8752 59.6143 10.8141 59.4674C10.1069 59.5026 9.40278 59.5844 8.70631 59.7123C7.56993 60.0001 6.48854 60.3674 5.38271 60.6123C4.82247 60.7931 4.22834 60.843 3.64588 60.7581C3.06341 60.6732 2.50808 60.4558 2.02246 60.1225C4.39356 58.459 7.2599 57.6556 10.1482 57.845C9.07899 56.2103 6.84289 56.1429 6.15251 53.8776C7.49997 54.0765 8.83276 54.3649 10.142 54.7409C11.8504 55.4444 13.7208 55.6565 15.5429 55.3531C17.9012 54.9246 20.3572 54.7409 22.5872 53.9082C25.0982 53.0021 26.9677 53.9082 28.8861 55.1756C29.7878 55.8738 30.7371 56.508 31.7271 57.0735C32.7067 57.6344 33.8072 57.9495 34.9346 57.9919C36.908 57.8694 38.9669 58.6592 40.8731 57.5939C41.3618 57.3184 41.8567 57.0613 42.321 56.7552C42.6529 56.4524 43.0061 56.1742 43.378 55.9225C44.9543 55.1756 46.0906 54.0858 46.3472 52.5735C49.402 51.8939 52.2918 51.4103 55.0655 50.5899C57.5628 49.8352 59.8678 48.5487 61.8227 46.8184C62.9285 45.8572 63.9733 44.847 65.0608 43.8674C66.7681 42.4424 68.1284 40.6458 69.0381 38.6143C69.2173 38.0841 69.5413 37.6149 69.9733 37.2599C70.4053 36.905 70.9279 36.6785 71.4819 36.6062C73.6752 36.1348 75.3309 34.7695 75.7036 32.3205C75.8767 31.7249 76.123 31.1532 76.4367 30.6184C76.785 29.8286 77.1454 29.0388 77.4937 28.2429C77.732 27.7164 77.958 27.1899 78.178 26.6572C78.6301 25.5552 78.9539 24.4041 79.4671 23.3327C79.8703 22.4939 80.2613 21.7837 79.5282 20.8837C78.795 19.9837 79.3938 19.0776 79.9497 18.3184C81.4955 16.2246 83.0839 14.1735 84.703 12.0429C84.071 9.40118 84.2368 6.6308 85.1795 4.08374C85.4531 4.53116 85.6901 5.00003 85.8882 5.48578C86.1509 6.26333 86.2548 7.10211 86.5603 7.86741C86.7924 8.44905 86.6091 9.51435 87.55 9.4715C88.4909 9.42864 88.161 8.38782 88.3015 7.7817C88.7292 6.19599 89.0896 4.5919 89.5234 3.01843C89.7458 2.57566 90.0252 2.16399 90.3543 1.79395C91.3074 2.49803 90.9347 3.25109 90.782 3.94905C90.4215 5.60823 90.0549 7.26129 89.6884 8.88986C90.6353 9.35517 90.9714 8.88986 91.1485 8.32048C91.7595 6.29394 93.4335 4.99599 94.6249 3.37354C94.7837 3.14701 95.413 2.96333 95.5535 3.08578C95.8407 3.31843 96.1645 3.8817 96.0667 4.13272C95.6799 4.99092 95.2135 5.81085 94.6737 6.5817C93.6962 8.03884 92.6637 9.45925 91.619 10.9103C92.4926 11.6939 92.9386 11.0756 93.3785 10.7021C94.5081 9.66692 95.898 8.95993 97.3986 8.65721C97.3436 11.1123 94.7776 11.3695 93.7634 13.0348Z" fill="white"/>
<path d="M90.122 100.837C91.5333 102.355 91.9548 103.941 91.1239 105.937H88.8756C88.6068 106.947 88.3624 107.896 88.1058 108.851C85.8331 107.969 85.7048 108.031 85.2404 110.075C84.434 109.892 83.5847 109.463 82.8516 109.598C82.1185 109.733 81.4159 110.48 80.6094 111.031C78.9415 110.057 78.1656 108.269 77.8968 106.322C77.243 101.976 74.9397 99.2143 70.9013 97.3653C65.8905 95.0575 61.8013 91.1258 59.2932 86.2041C56.8188 81.3918 53.2814 77.4245 49.7317 73.4694C49.3767 73.1073 48.9637 72.8072 48.5098 72.5816C44.0743 70.1326 39.6632 67.6286 35.1605 65.2959C34.1177 64.7574 33.0141 64.3463 31.8735 64.0714C32.605 63.8441 33.3525 63.6721 34.1096 63.5571C34.9441 63.857 35.7514 64.2278 36.5229 64.6653C39.2172 66.202 42.0215 67.5612 44.7341 69.0428C46.4448 69.9735 48.4487 70.6714 49.7501 72.0184C52.6837 75.0859 55.4318 78.3264 57.9796 81.7224C59.6598 83.9265 60.7228 86.6204 62.3785 88.8245C64.9406 92.33 68.3798 95.0964 72.3493 96.8449C75.9112 98.4061 77.8479 101.131 78.5993 104.902C78.7907 105.963 79.0665 107.007 79.4241 108.024C79.8946 109.353 80.5483 109.439 81.8191 108.459C81.3303 106.188 81.3303 106.188 81.8557 105.453C82.1429 106.102 82.4239 106.678 82.6255 107.222C82.9188 108.031 83.3526 108.612 84.2996 108.349C85.2465 108.086 85.1366 107.382 85.0633 106.641C84.9899 105.9 84.605 105.22 85.2465 104.229C85.6742 105.196 85.9491 105.943 86.334 106.622C86.4868 106.892 87.0427 107.235 87.1405 107.18C87.4521 106.953 87.8248 106.567 87.8187 106.218C87.7324 105.66 87.5764 105.115 87.3543 104.596C87.1772 103.984 86.8595 103.322 87.4826 102.618C87.94 103.272 88.4509 103.886 89.01 104.455C89.1817 104.564 89.3777 104.628 89.5804 104.642C89.7831 104.656 89.986 104.619 90.1708 104.535C90.3026 104.387 90.3948 104.209 90.4386 104.016C90.4824 103.823 90.4765 103.623 90.4213 103.433C89.9998 102.588 89.401 101.829 88.9184 101.014C88.285 100.073 87.7448 99.0726 87.3055 98.0265C86.5534 95.995 85.458 94.1083 84.0674 92.449C83.2035 91.3579 82.479 90.1629 81.9107 88.8918C80.9088 86.6265 79.9984 84.3184 79.0942 82.0102L78.6299 80.7857C78.5102 80.4838 78.4341 80.1663 78.4038 79.8428C78.8843 79.7453 79.3532 79.5975 79.8029 79.402L79.8763 79.5122C81.0214 79.265 82.1071 78.7949 83.0715 78.1286C83.9982 77.474 84.7528 76.6043 85.271 75.5939C85.6582 75.2242 86.0044 74.8137 86.3035 74.3694C86.609 74.5408 86.9144 74.7122 87.2077 74.8959C86.945 75.2143 86.6762 75.5081 86.3951 75.8204V75.9122C85.7022 77.1092 84.7641 78.1454 83.6426 78.9527C82.5211 79.76 81.2416 80.32 79.8885 80.5959C80.1695 82.3959 80.9332 83.9265 81.5136 85.4939C82.5832 88.2793 84.0774 90.8817 85.943 93.2082C87 94.5857 87.5804 96.3367 88.3868 97.8979C88.955 98.8959 89.3705 100.029 90.122 100.837Z" fill="#36464E"/>
<path d="M90.4211 103.414C90.4762 103.604 90.4822 103.805 90.4384 103.998C90.3945 104.191 90.3024 104.369 90.1706 104.516C89.9857 104.601 89.7828 104.638 89.5801 104.624C89.3774 104.61 89.1814 104.546 89.0098 104.437C88.4506 103.868 87.9397 103.254 87.4824 102.6C86.8714 103.304 87.1769 103.947 87.3541 104.578C87.5761 105.097 87.7321 105.642 87.8184 106.2C87.8184 106.531 87.4518 106.935 87.1403 107.161C87.0425 107.229 86.4865 106.874 86.3338 106.604C85.9489 105.925 85.674 105.178 85.2463 104.21C84.6353 105.202 85.0019 105.931 85.063 106.623C85.1241 107.314 85.1852 108.08 84.2993 108.331C83.4134 108.582 82.9186 108.012 82.6253 107.204C82.4237 106.635 82.1426 106.084 81.8555 105.435C81.3301 106.169 81.3301 106.169 81.8188 108.441C80.548 109.42 79.8943 109.335 79.4239 108.006C79.0662 106.989 78.7904 105.945 78.5991 104.884C77.8721 101.125 75.9109 98.3878 72.349 96.8266C68.3796 95.0781 64.9403 92.3117 62.3783 88.8062C60.7226 86.5776 59.6595 83.9082 57.9794 81.7042C55.4315 78.3081 52.6834 75.0676 49.7498 72.0001C48.4485 70.6531 46.4446 69.9552 44.7339 69.0246C42.0029 67.5429 39.2353 66.1838 36.5226 64.647C35.7512 64.2095 34.9438 63.8387 34.1094 63.5389C37.4452 62.9878 43.8846 62.798 49.2 67.8246C56.733 74.9266 58.0405 76.2613 59.3907 78.9246C60.7409 81.5878 75.7582 82.4572 79.094 82.0409C79.9982 84.3491 80.9268 86.6572 81.9105 88.9225C82.481 90.1829 83.2054 91.3675 84.0672 92.4491C85.4575 94.1005 86.5548 95.9788 87.3113 98.0021C87.7507 99.0482 88.2909 100.049 88.9242 100.99C89.4069 101.81 90.0056 102.569 90.4211 103.414Z" fill="#BBBABA"/>
<path d="M77.8907 19.4142C77.8541 20.2714 78.5506 21.153 78.8194 21.8081C78.2084 23.7857 77.8052 25.4816 77.2065 27.1163C77.1026 27.3979 76.9865 27.6673 76.8582 27.9428C76.4733 28.7448 75.9907 29.5163 75.5874 30.3122C75.2261 30.8893 74.931 31.5055 74.7076 32.1489C74.0967 34.6959 73.0703 35.5836 70.1866 35.8224C70.5532 29.9387 68.8547 25.0346 63.7288 21.6183C61.1322 19.8979 59.0244 18.8816 57.3993 18.8877L53.8008 9.70403C54.2496 9.44813 54.7173 9.22707 55.1999 9.04281C57.3016 8.23465 59.3727 7.05301 61.7493 7.38363C62.7939 7.59642 63.8165 7.90591 64.8041 8.30811C65.0973 8.40607 65.3417 8.66322 65.6411 8.74893C67.028 9.17138 68.6225 9.26934 69.765 10.0408C70.9075 10.8122 71.7506 12.1102 73.168 12.6734C73.6515 12.9538 74.0685 13.3361 74.39 13.7938C75.062 14.5591 75.6119 15.4102 76.3206 16.151C77.2187 17.0755 77.9457 17.9448 77.8907 19.4142Z" fill="white"/>
<path d="M76.8579 27.943L77.5055 28.2246C77.1573 29.0205 76.7968 29.8103 76.4486 30.6001C76.1348 31.1349 75.8886 31.7066 75.7154 32.3022C75.3428 34.7879 73.6871 36.1348 71.4937 36.5879C70.9398 36.6602 70.4171 36.8867 69.9852 37.2416C69.5532 37.5966 69.2292 38.0658 69.0499 38.5961C68.1315 40.6306 66.7605 42.4275 65.0421 43.8491C63.9546 44.8287 62.9098 45.8389 61.804 46.8001C59.8491 48.5304 57.5441 49.8169 55.0468 50.5716C52.2731 51.392 49.4016 51.8756 46.3285 52.5552C46.0719 54.0491 44.9355 55.1573 43.3593 55.9042C42.992 56.1524 42.6429 56.4266 42.3146 56.7246C41.8502 57.0307 41.3554 57.2879 40.8666 57.5634C38.9604 58.6287 36.9015 57.8389 34.9281 57.9614C33.8007 57.9189 32.7002 57.6038 31.7206 57.043C30.7306 56.4775 29.7813 55.8433 28.8797 55.145C26.9674 53.8777 25.0978 52.9899 22.6052 53.8777C20.3752 54.6858 17.9191 54.894 15.5608 55.3226C13.7388 55.6259 11.8684 55.4139 10.16 54.7103C8.84399 54.3439 7.50507 54.0657 6.15214 53.8777L6.10938 53.0512C7.3844 52.9211 8.67185 53.1039 9.86064 53.5838C13.2514 55.1205 16.5811 54.245 19.8986 53.6205C21.4243 53.2544 22.9294 52.8068 24.4075 52.2797C24.3158 51.9124 24.328 51.6675 24.2181 51.5695C22.4524 50.6022 21.9759 48.5083 20.4363 47.2838C19.8925 46.8675 19.642 45.8634 19.5748 45.0981C19.2112 41.0868 19.9864 37.0543 21.8109 33.4654L22.2019 33.6552C22.5013 33.5144 22.8129 33.3981 23.0939 33.294C23.0389 33.3797 22.9901 33.4654 22.9412 33.5573C21.1275 37.0053 20.3387 40.9022 20.6684 44.7858C20.7295 45.6185 20.8395 46.4022 21.7865 46.794C22.1619 47.0101 22.4511 47.3497 22.6052 47.7552C23.4238 49.7267 25.3239 50.8165 26.4481 52.5185C26.5655 52.6738 26.7309 52.7858 26.9185 52.8369C28.7208 53.3818 30.0588 54.6736 31.5801 55.6899C33.1014 56.7063 34.7326 57.2818 36.6143 56.8471C37.1188 56.7888 37.6296 56.8199 38.1234 56.9389C38.7758 57.0341 39.441 56.9872 40.0737 56.8012C40.7063 56.6152 41.2914 56.2947 41.7891 55.8614C42.4001 55.3838 43.011 54.9736 43.622 54.5144C44.0413 54.2359 44.4232 53.9047 44.7584 53.5287C45.5098 52.5307 45.3693 51.9981 44.1841 51.5144C43.7617 51.3814 43.3526 51.2092 42.9622 51.0001C40.2068 49.0654 37.4636 47.094 35.2886 44.5042C33.8026 42.6758 32.7273 40.5479 32.136 38.2654C31.965 37.6532 31.6228 36.8879 32.5026 36.294C32.6859 36.5328 32.7837 36.6797 32.7837 36.6797C32.8506 36.8402 32.9037 37.0061 32.9425 37.1756C33.6023 39.8512 34.5432 42.4348 36.6571 44.3144C38.9591 46.3834 41.3654 48.3329 43.8664 50.1552C44.5284 50.6056 45.2749 50.9166 46.0604 51.0692C46.846 51.2218 47.6543 51.2129 48.4363 51.043C51.8158 50.4997 55.0959 49.4556 58.1688 47.945C60.6126 46.6532 62.4089 44.5409 64.5044 42.8083C66.111 41.4492 67.3682 39.7232 68.1702 37.7756C70.0519 33.3552 69.0988 29.2593 66.2945 25.6409C64.2112 22.9471 61.3214 21.1716 58.1077 19.9777C57.564 19.7756 57.063 19.4634 56.3115 19.0899H56.3482C56.7606 19.2469 57.1831 19.3758 57.6129 19.4756L57.4296 18.9062C59.0547 18.9062 61.1625 19.9165 63.7591 21.6369C68.885 25.0532 70.5834 29.9573 70.2169 35.8409C73.1006 35.6083 74.1392 34.7205 74.7379 32.1675C74.9613 31.524 75.2564 30.9079 75.6177 30.3307C75.9904 29.5165 76.473 28.7756 76.8579 27.943Z" fill="#36464E"/>
<path d="M66.301 25.6409C69.1052 29.2593 70.0583 33.3552 68.1766 37.7756C67.3746 39.7232 66.1174 41.4492 64.5108 42.8083C62.4153 44.5409 60.6374 46.6532 58.1753 47.945C55.1023 49.4556 51.8223 50.4996 48.4427 51.043C47.6607 51.2128 46.8524 51.2217 46.0668 51.0691C45.2813 50.9165 44.5348 50.6056 43.8728 50.1552C41.3697 48.333 38.9614 46.3835 36.6574 44.3144C34.5496 42.4348 33.6027 39.8511 32.955 37.1511C32.9163 36.9816 32.8631 36.8157 32.7962 36.6552C32.7473 36.5144 32.6923 36.3736 32.6312 36.196L32.5152 36.2695C31.556 35.045 28.1957 31.4572 23.0942 33.3001C24.2612 31.2919 26.2712 30.1715 28.3973 29.3879C29.8847 28.8492 31.4247 28.4695 32.9917 28.2552C33.4945 28.2008 33.9706 28.0011 34.3622 27.6804C34.7537 27.3597 35.0439 26.932 35.1973 26.4491C36.8529 22.1634 40.3171 20.0144 44.4104 18.6552C45.8105 18.2861 47.0183 17.3975 47.789 16.1695C49.1942 13.9103 50.7644 11.7246 52.9333 10.2307C49.3714 15.7409 53.9658 18.1899 56.3485 19.0777H56.3118C57.0633 19.4511 57.5338 19.7634 58.1081 19.9654C61.3278 21.1715 64.2176 22.947 66.301 25.6409ZM62.5619 38.2654C63.2706 37.7266 64.4681 38.7736 64.633 37.2185C63.1423 37.047 62.0365 35.743 60.4419 35.5593C60.1853 36.5572 60.8451 37.6287 59.7943 37.9654C58.4658 36.745 57.075 35.5945 55.6276 34.5185C53.0066 32.7552 51.8152 33.0613 49.8357 35.5103C49.513 35.814 49.3087 36.2229 49.2595 36.6638C49.2102 37.1047 49.3192 37.5487 49.5669 37.9164C50.7155 39.8756 51.8335 41.847 53.0738 44.0389L51.4486 44.0817C51.5831 45.6674 51.7114 47.1736 51.8458 48.7409C53.1532 48.1654 52.5423 46.7328 53.1532 45.9613C54.4179 46.1083 55.597 46.3287 56.8189 46.3654C60.4847 46.4756 62.2625 44.9511 62.678 40.9532C62.6795 40.4472 62.6448 39.9419 62.5741 39.4409C62.5497 39.0123 62.5619 38.5715 62.5619 38.2654ZM57.601 29.694C58.1325 28.3838 58.6885 27.0797 59.4338 25.3348C58.7495 25.6654 58.2669 25.7266 58.1203 25.9838C56.8312 28.2797 55.8292 30.6613 56.4218 33.4348C57.4299 32.3879 57.1122 30.9368 57.601 29.7185V29.694ZM47.5141 40.3287C48.0762 40.3287 48.681 40.2552 48.791 39.2266C46.1883 38.6144 43.8117 39.3552 41.4595 40.3654C40.8486 40.6409 40.1704 40.8491 40.3354 41.7919C40.6042 41.7919 40.8241 41.9083 40.9463 41.8409C42.9746 40.7934 45.233 40.2734 47.5141 40.3287Z" fill="#BBBABA"/>
<path d="M64.6329 37.2183C64.4679 38.7734 63.2705 37.7265 62.5617 38.2652C62.5617 38.5897 62.5617 39.0122 62.5617 39.4408C62.6324 39.9417 62.6671 40.4471 62.6656 40.953C62.2502 44.951 60.4662 46.4632 56.8066 46.3652C55.6152 46.3285 54.4299 46.1081 53.1408 45.9612C52.5299 46.7326 53.1408 48.1652 51.8151 48.7163C51.6806 47.1489 51.5523 45.655 51.4179 44.0571L53.0431 43.9836C51.8212 41.8224 50.6848 39.851 49.5362 37.8612C49.3069 37.4951 49.2114 37.0607 49.266 36.632C49.3206 36.2032 49.5219 35.8068 49.8356 35.5101C51.8151 33.0612 53.0064 32.7795 55.6274 34.5428C57.0741 35.6089 58.4649 36.7492 59.7941 37.9591C60.845 37.6224 60.1851 36.551 60.4417 35.553C62.0363 35.7428 63.1422 37.0469 64.6329 37.2183ZM56.5805 45.2387C60.7594 45.2877 62.69 42.1775 61.0405 38.0938C60.845 39.251 60.8572 40.1693 60.5212 40.9346C60.1055 41.8341 59.5486 42.6609 58.8716 43.3836C58.1577 44.0614 57.3917 44.6817 56.5805 45.2387ZM57.0754 43.402C58.3019 42.6745 59.2439 41.5492 59.7452 40.2122C58.4511 38.3543 56.8175 36.7589 54.9309 35.5101C54.2835 35.1214 53.5682 34.8596 52.8231 34.7387C51.7051 34.5367 50.0127 36.404 50.5443 37.3224C51.683 39.355 52.963 41.3047 54.375 43.1571C55.1142 44.1489 55.9818 44.0816 57.0754 43.402Z" fill="#36464E"/>
<path d="M61.0405 38.094C62.6718 42.196 60.7595 45.2879 56.5806 45.2389C57.3911 44.6877 58.1571 44.0736 58.8717 43.4022C59.5486 42.6795 60.1056 41.8526 60.5212 40.9532C60.8573 40.1695 60.845 39.2511 61.0405 38.094Z" fill="#D32D59"/>
<path d="M59.745 40.2123C59.2436 41.5493 58.3017 42.6746 57.0752 43.4021C55.9815 44.0756 55.114 44.149 54.3564 43.1572C52.9503 41.3003 51.6764 39.3465 50.5441 37.3103C50.0125 36.3919 51.7049 34.5246 52.8229 34.7266C53.5688 34.8512 54.2842 35.1172 54.9307 35.5103C56.8173 36.759 58.4509 38.3544 59.745 40.2123Z" fill="#36464E"/>
<path d="M59.4153 25.3591C58.6883 27.104 58.1323 28.4204 57.5824 29.7183C57.0326 31.0163 57.3808 32.3877 56.3605 33.4591C55.7496 30.6857 56.7699 28.304 58.059 26.0081C58.2484 25.751 58.731 25.7142 59.4153 25.3591Z" fill="#36464E"/>
<path d="M57.4295 18.9062L57.6494 19.4634C57.2197 19.3635 56.7972 19.2347 56.3848 19.0776C56.7204 18.96 57.074 18.902 57.4295 18.9062Z" fill="white"/>
<path d="M53.8007 9.698L57.3992 18.8817C57.0437 18.8774 56.6901 18.9355 56.3545 19.0531C53.9718 18.1837 49.3774 15.698 52.9393 10.2062C53.2161 10.0197 53.5037 9.85005 53.8007 9.698Z" fill="white"/>
<path d="M53.6359 9.25708L53.8009 9.6979C53.5033 9.85788 53.2156 10.0358 52.9395 10.2305C53.1431 9.91626 53.3753 9.59177 53.6359 9.25708Z" fill="white"/>
<path d="M48.7907 39.2265C48.6807 40.2551 48.0759 40.3531 47.5138 40.3286C45.2389 40.2764 42.9872 40.7963 40.9644 41.8408C40.83 41.9082 40.61 41.8408 40.3534 41.7918C40.1885 40.849 40.8605 40.6408 41.4776 40.3653C43.8114 39.3551 46.1881 38.6265 48.7907 39.2265Z" fill="#36464E"/>
<path d="M44.1782 51.4898C45.3329 51.9735 45.504 52.5061 44.7525 53.5041C44.4174 53.88 44.0354 54.2113 43.6161 54.4898C43.0052 54.949 42.3942 55.3592 41.7833 55.8367C41.2856 56.27 40.7004 56.5906 40.0678 56.7766C39.4352 56.9626 38.7699 57.0095 38.1175 56.9143C37.6209 56.8116 37.1101 56.7971 36.6085 56.8714C34.7267 57.3061 33.1077 56.7245 31.5742 55.7143C30.0407 54.7041 28.7149 53.4061 26.9187 52.8612C26.7311 52.8101 26.5657 52.6982 26.4483 52.5429C25.3241 50.8163 23.4241 49.751 22.6054 47.7551C22.4535 47.3418 22.1616 46.9951 21.7806 46.7755C20.8336 46.3837 20.7237 45.6 20.6626 44.7673C20.3328 40.8837 21.1216 36.9867 22.9353 33.5388C22.9842 33.4469 23.0331 33.3612 23.088 33.2755C28.1895 31.4388 31.5498 35.0265 32.509 36.2449C31.6292 36.8571 31.9713 37.6224 32.1424 38.2163C32.7337 40.4988 33.8089 42.6267 35.2949 44.4551C37.4882 47.0449 40.1826 49.0163 42.9685 50.951C43.3542 51.1678 43.7592 51.3482 44.1782 51.4898Z" fill="white"/>
<path d="M29.1671 62.3082C30.8502 62.5661 32.5065 62.9759 34.1159 63.5327C33.3587 63.6477 32.6112 63.8197 31.8798 64.047C31.4216 63.9307 30.9572 63.8389 30.4929 63.7593C27.629 63.2481 24.7387 62.8986 21.8357 62.7123C18.7809 62.5348 16.4165 63.7287 15.4879 66.998C15.3359 67.4853 15.0599 67.9244 14.6871 68.2722C14.3143 68.6201 13.8575 68.8646 13.3617 68.9817C12.1398 68.3205 12.4148 67.0348 12.1398 66.098L9.62271 67.4511L9.22559 66.7348C9.58713 66.5154 9.93222 66.2698 10.2581 66.0001C11.2356 65.1919 12.2009 64.3654 13.2029 63.5878C13.5325 63.4479 13.884 63.3671 14.2415 63.3491C12.9585 66.2634 12.9585 66.2634 13.7589 67.3593C13.8671 67.301 13.966 67.2267 14.0521 67.1389C14.1947 66.9293 14.3155 66.7057 14.4126 66.4715C15.775 63.0246 18.4082 61.4634 21.9945 61.5736C24.3998 61.6465 26.7968 61.8921 29.1671 62.3082Z" fill="#36464E"/>
<path d="M32.6249 36.1958C32.686 36.3734 32.741 36.5142 32.7898 36.655C32.7898 36.655 32.6921 36.508 32.5088 36.2693L32.6249 36.1958Z" fill="black"/>
<path d="M10.7833 59.4674C10.8444 59.6143 10.9055 59.7735 10.9605 59.9265C10.5107 60.3126 10.0328 60.6646 9.53089 60.9796C8.30898 61.6469 7.05042 62.2531 5.81018 62.8837C4.79599 63.398 3.80625 63.9367 3.45189 65.0755C4.06285 66.2571 4.8632 66.1898 5.71854 65.651C6.90379 64.9102 8.04016 64.1082 9.2132 63.3551C9.50663 63.1076 9.85573 62.9354 10.2304 62.8533C10.605 62.7711 10.994 62.7816 11.3638 62.8837C11.1133 63.2647 10.8156 63.6124 10.4779 63.9184C9.89747 64.2918 9.21931 64.5306 8.64501 64.898C7.77745 65.5102 6.77549 66.0122 6.81214 67.3469C7.65024 67.3925 8.48205 67.1788 9.19487 66.7347L9.57977 67.4571L6.11566 69.2939C5.87127 68.3755 5.70021 67.7327 5.5047 66.9429H2.44382C1.83286 64.3163 3.45189 63.0857 5.40084 61.8674C3.51148 61.908 1.64601 61.4386 0 60.5082C2.08526 58.8093 4.53688 57.6207 7.16039 57.0367C5.81629 55.898 4.9304 54.8082 4.56383 53.198C5.08314 53.1367 5.60245 53.0816 6.10344 53.051L6.15231 53.8776C6.84269 56.1551 9.07879 56.2225 10.148 57.8816C7.2597 57.6923 4.39336 58.4957 2.02226 60.1592C2.50788 60.4925 3.06321 60.7099 3.64567 60.7948C4.22814 60.8797 4.82226 60.8298 5.38251 60.649C6.48834 60.3796 7.56973 59.9816 8.67556 59.7245C9.37176 59.5925 10.0759 59.5066 10.7833 59.4674Z" fill="#36464E"/>
<path d="M63.0104 30.309C64.2851 28.6382 64.6709 26.7876 63.8721 26.1756C63.0733 25.5635 61.3924 26.4219 60.1177 28.0927C58.8429 29.7635 58.4571 31.6141 59.2559 32.2261C60.0547 32.8381 61.7356 31.9798 63.0104 30.309Z" fill="#EF8AA1"/>
<path d="M62.8243 31.402C62.7928 31.4409 62.7532 31.4723 62.7082 31.4939C62.619 31.5389 62.5157 31.5468 62.4207 31.5158C62.3257 31.4848 62.2468 31.4176 62.2011 31.3286L60.2582 27.4286C60.2362 27.3848 60.223 27.337 60.2193 27.2881C60.2156 27.2391 60.2217 27.1899 60.237 27.1433C60.2523 27.0967 60.2766 27.0536 60.3086 27.0164C60.3405 26.9792 60.3795 26.9487 60.4232 26.9265C60.4669 26.9044 60.5146 26.8912 60.5634 26.8875C60.6123 26.8839 60.6613 26.8899 60.7079 26.9052C60.7544 26.9206 60.7974 26.945 60.8345 26.977C60.8717 27.009 60.9021 27.048 60.9242 27.0919L62.8731 30.9918C62.9054 31.0576 62.9179 31.1314 62.9093 31.2042C62.9006 31.277 62.8711 31.3457 62.8243 31.402Z" fill="#EA5971"/>
<path d="M61.23 32.945C61.1957 32.9945 61.1495 33.0346 61.0956 33.0613C61.0524 33.0845 61.005 33.0988 60.9562 33.1033C60.9074 33.1079 60.8582 33.1026 60.8115 33.0877C60.7648 33.0729 60.7216 33.0488 60.6843 33.0169C60.647 32.985 60.6165 32.946 60.5946 32.9021L58.7617 29.345C58.7347 29.3012 58.7171 29.2524 58.7098 29.2015C58.7025 29.1506 58.7058 29.0988 58.7195 29.0492C58.7332 28.9996 58.7569 28.9535 58.7892 28.9135C58.8215 28.8736 58.8616 28.8407 58.9072 28.8171C58.9527 28.7934 59.0027 28.7794 59.0538 28.776C59.105 28.7725 59.1564 28.7797 59.2047 28.7971C59.2529 28.8145 59.2971 28.8416 59.3344 28.8769C59.3718 28.9122 59.4014 28.9548 59.4215 29.0021L61.2544 32.5592C61.2858 32.6197 61.3002 32.6875 61.2959 32.7555C61.2915 32.8235 61.2688 32.889 61.23 32.945Z" fill="#EA5971"/>
<path d="M64.3456 29.2162C64.3126 29.26 64.2682 29.2939 64.2173 29.3142C64.1733 29.3358 64.1254 29.3484 64.0765 29.3511C64.0276 29.3538 63.9786 29.3467 63.9325 29.3302C63.8863 29.3136 63.844 29.288 63.8079 29.2547C63.7718 29.2215 63.7428 29.1813 63.7224 29.1366L62.1034 25.7142C62.0617 25.6232 62.0576 25.5194 62.0919 25.4254C62.1262 25.3313 62.1962 25.2547 62.2867 25.2122C62.3759 25.1702 62.478 25.1653 62.5707 25.1986C62.6634 25.2319 62.7392 25.3006 62.7816 25.3897L64.4006 28.8183C64.4302 28.883 64.4408 28.9548 64.4311 29.0253C64.4213 29.0958 64.3917 29.1621 64.3456 29.2162Z" fill="#EA5971"/>
<path d="M44.6894 45.6632C46.6074 44.8094 47.8314 43.3708 47.4232 42.4499C47.0151 41.529 45.1293 41.4746 43.2112 42.3284C41.2932 43.1822 40.0692 44.6208 40.4774 45.5417C40.8855 46.4625 42.7713 46.517 44.6894 45.6632Z" fill="#EF8AA1"/>
<path d="M43.9885 46.5307C43.9383 46.5429 43.886 46.5429 43.8358 46.5307C43.7868 46.5291 43.7387 46.5179 43.694 46.4977C43.6494 46.4774 43.6092 46.4486 43.5758 46.4127C43.5423 46.3769 43.5162 46.3348 43.4989 46.2889C43.4817 46.243 43.4737 46.1941 43.4753 46.145L43.6342 41.7858C43.6342 41.7368 43.6438 41.6882 43.6625 41.6429C43.6812 41.5976 43.7087 41.5564 43.7433 41.5217C43.7779 41.4871 43.819 41.4596 43.8642 41.4408C43.9094 41.422 43.9579 41.4124 44.0068 41.4124C44.0558 41.4124 44.1042 41.422 44.1495 41.4408C44.1947 41.4596 44.2358 41.4871 44.2704 41.5217C44.305 41.5564 44.3324 41.5976 44.3512 41.6429C44.3699 41.6882 44.3795 41.7368 44.3795 41.7858L44.2268 46.1389C44.2352 46.2213 44.2164 46.3042 44.1734 46.375C44.1304 46.4457 44.0655 46.5004 43.9885 46.5307Z" fill="#EA5971"/>
<path d="M41.8751 47.1428C41.8269 47.1545 41.7766 47.1545 41.7284 47.1428C41.6795 47.142 41.6312 47.1316 41.5863 47.1121C41.5414 47.0925 41.5007 47.0644 41.4667 47.0291C41.4326 46.9939 41.4059 46.9522 41.3879 46.9066C41.3699 46.861 41.3611 46.8123 41.3619 46.7632L41.4657 42.7591C41.4665 42.7104 41.477 42.6622 41.4965 42.6176C41.5161 42.5729 41.5443 42.5326 41.5796 42.4989C41.6148 42.4653 41.6564 42.4391 41.7019 42.4217C41.7474 42.4044 41.7959 42.3963 41.8445 42.3979C41.8935 42.3987 41.9418 42.4092 41.9867 42.4287C42.0316 42.4482 42.0722 42.4764 42.1063 42.5116C42.1403 42.5469 42.1671 42.5885 42.1851 42.6341C42.2031 42.6797 42.2119 42.7285 42.2111 42.7775L42.1133 46.7816C42.1151 46.859 42.0932 46.935 42.0506 46.9996C42.0081 47.0641 41.9468 47.1141 41.8751 47.1428Z" fill="#EA5971"/>
<path d="M46.3899 45.3429C46.3394 45.3522 46.2876 45.3522 46.2372 45.3429C46.1377 45.3366 46.0448 45.2913 45.9785 45.2168C45.9122 45.1423 45.8778 45.0446 45.8828 44.9449L46.1027 41.1613C46.1084 41.0622 46.1531 40.9695 46.227 40.9034C46.3009 40.8374 46.398 40.8035 46.4968 40.8092C46.5957 40.8149 46.6882 40.8597 46.7541 40.9337C46.82 41.0078 46.8538 41.1051 46.8481 41.2041L46.6282 44.9878C46.6295 45.0643 46.6074 45.1394 46.5648 45.2029C46.5222 45.2664 46.4611 45.3153 46.3899 45.3429Z" fill="#EA5971"/>
</g>
<defs>
<clipPath id="clip0">
<rect width="115" height="111" fill="white"/>
</clipPath>
</defs>
</svg>
