<svg width="297" height="231" viewBox="0 0 297 231" fill="none" xmlns="http://www.w3.org/2000/svg">
<g clip-path="url(#clip0)">
<path d="M290.392 131.343C293.993 131.504 295.436 132.352 297 134.954C295.527 137.194 292.964 137.143 290.896 137.164C283.652 137.285 276.399 137.224 269.165 136.901C261.034 136.548 252.933 135.893 244.811 135.247C235.953 134.591 227.085 133.825 218.217 133.229C214.932 132.86 211.622 132.763 208.32 132.937C206.943 133.079 205.588 133.387 204.285 133.855L203.871 132.634C205.927 131.864 207.785 130.644 209.309 129.063C210.262 128.17 210.962 127.041 211.338 125.79C211.713 124.539 211.751 123.211 211.448 121.941L210.439 120.872C214.081 117.563 217.804 114.335 221.537 111.137C223.28 109.888 225.261 109.009 227.358 108.555C230.889 107.546 231.817 106.769 231.988 103.077C231.983 101.809 232.251 100.554 232.773 99.3987C233.295 98.243 234.06 97.213 235.015 96.3787C236.729 94.7985 237.806 92.6455 238.042 90.326C238.199 88.9318 238.435 87.5476 238.748 86.1799C239.444 83.6882 240.544 80.9847 242.995 80.1273C245.971 79.1185 246.768 77.0202 246.839 74.6698C246.91 72.3193 248.372 69.9083 245.971 67.689C244.923 66.4415 244.307 64.8876 244.216 63.2605C244.194 62.3733 243.973 61.5024 243.567 60.7128C243.162 59.9233 242.584 59.2355 241.875 58.7008C240.992 58.0999 240.274 57.2855 239.789 56.3332C239.304 55.3809 239.067 54.3216 239.101 53.2534C239.115 52.226 238.802 51.2207 238.207 50.3829C237.613 49.545 236.767 48.9181 235.792 48.5929C233.582 47.5841 231.363 46.6762 229.224 45.5665C228.407 45.1529 227.297 44.3964 227.206 43.6801C226.924 41.6626 225.643 40.8354 224.059 40.2402C221.93 39.4332 219.761 38.7472 217.602 38.0209C216.099 37.5064 214.162 37.4358 214.787 34.8937C214.868 34.5507 214.182 33.8042 213.698 33.5823C212.55 33.0423 211.345 32.6328 210.106 32.3616C205.889 31.4739 201.632 30.7072 197.405 29.8094C196.476 29.6178 195.054 29.2445 194.812 28.5989C194.045 26.5813 192.441 26.5813 190.776 26.43C186.206 26.1173 181.636 25.9357 177.086 25.5423C175.623 25.4212 173.555 25.2699 172.919 24.3318C172.652 23.8503 172.247 23.4596 171.757 23.2098C171.266 22.96 170.712 22.8624 170.165 22.9296L169.963 21.4971C170.659 21.4164 171.356 21.3357 172.042 21.2953C172.728 21.255 173.948 21.5173 174.059 21.9208C174.846 24.3318 176.783 23.666 178.448 23.7971C183.391 24.1804 188.325 24.5335 193.258 24.9875C193.958 24.9608 194.653 25.1216 195.27 25.4533C195.887 25.7849 196.405 26.2753 196.769 26.8739C197.213 27.6204 198.645 27.8827 199.685 28.1752C204.477 29.3958 209.339 30.3743 214.081 31.7564C216.744 32.523 216.805 32.977 217.309 35.62C219.7 36.5783 222.051 37.4963 224.372 38.4647C226.5 39.3424 228.558 40.2604 229.224 42.8832C229.375 43.5086 230.536 43.892 231.302 44.3257C233.431 45.4556 235.58 46.535 237.749 47.5942C238.761 48.0086 239.615 48.7346 240.186 49.667C240.758 50.5993 241.017 51.6895 240.927 52.7793C240.842 53.7313 241.019 54.6883 241.439 55.547C241.859 56.4057 242.505 57.1335 243.308 57.6517C244.138 58.2464 244.825 59.0186 245.318 59.912C245.812 60.8054 246.101 61.7977 246.163 62.8166C246.353 64.5703 247 66.2433 248.04 67.6689C250.057 70.2412 249.593 72.8741 248.998 75.6483C248.403 78.4224 247.525 80.8132 244.186 81.8119C241.865 82.508 241.401 85.1913 240.856 87.4106C240.312 89.63 240.372 92.2629 239.131 93.9778C236.367 97.8212 233.946 101.614 233.552 106.497C233.429 107.34 233.016 108.114 232.385 108.686C231.754 109.259 230.943 109.594 230.092 109.634C224.039 110.32 220.336 114.617 215.968 118.612C216.581 119.078 217.261 119.449 217.985 119.712C233.266 122.402 248.547 125.025 263.828 127.58C265.412 127.853 266.936 128.428 268.439 126.935C268.963 126.43 270.689 126.682 271.597 127.136C277.498 130.132 283.854 131.06 290.392 131.343ZM290.553 135.176C291.562 135.176 292.833 135.489 293.459 133.734C292.054 133.432 290.632 133.213 289.201 133.078C283.088 133.095 277.047 131.766 271.506 129.184C271.066 128.997 270.589 128.914 270.111 128.94C269.634 128.966 269.168 129.101 268.752 129.335C267.44 130.425 266.209 130.122 264.827 129.86C262.587 129.426 260.327 129.103 258.078 128.71C245.299 126.484 232.55 124.255 219.832 122.022C218.248 121.749 216.644 121.548 215.019 121.306C213.698 124.493 212.517 127.358 211.236 130.385C212.003 130.496 212.719 130.647 213.425 130.697C221.022 131.182 228.629 131.615 236.216 132.16C238.879 132.352 241.512 132.896 244.165 133.108C252.236 133.703 260.358 134.369 268.479 134.732C275.824 135.176 283.188 135.176 290.553 135.176Z" fill="#692B40"/>
<path d="M293.449 133.774C292.823 135.529 291.512 135.237 290.543 135.216C283.188 135.146 275.824 135.146 268.469 134.823C260.348 134.46 252.247 133.814 244.155 133.199C241.502 132.987 238.869 132.442 236.206 132.251C228.619 131.706 221.012 131.242 213.415 130.788C212.709 130.738 211.993 130.586 211.226 130.475C212.507 127.449 213.688 124.534 215.009 121.396C216.634 121.638 218.238 121.84 219.822 122.112C232.601 124.332 245.349 126.561 258.068 128.801C260.317 129.194 262.577 129.517 264.817 129.951C266.199 130.213 267.43 130.516 268.742 129.426C269.158 129.192 269.624 129.057 270.101 129.03C270.578 129.004 271.056 129.088 271.496 129.275C277.037 131.853 283.079 133.179 289.191 133.159C290.621 133.28 292.043 133.486 293.449 133.774Z" fill="#B7B7B8"/>
<path d="M246.042 67.7496C248.443 69.9689 246.991 72.4706 246.91 74.7303C246.829 76.99 246.042 79.2093 243.066 80.1878C240.615 80.9948 239.515 83.6983 238.819 86.2405C238.506 87.6082 238.27 88.9924 238.113 90.3865C237.877 92.706 236.8 94.8591 235.086 96.4392C234.131 97.2736 233.366 98.3035 232.844 99.4592C232.322 100.615 232.054 101.869 232.059 103.137C231.888 106.83 230.96 107.586 227.429 108.615C225.332 109.07 223.351 109.948 221.608 111.198C217.885 114.395 214.162 117.624 210.51 120.932C207.867 123.323 205.244 125.764 202.671 128.246C199.811 130.96 197.898 134.521 197.213 138.404C196.395 142.11 195.125 145.702 193.43 149.097C191.937 152.376 190.686 152.699 187.377 151.286C186.648 150.918 185.843 150.727 185.026 150.727C184.209 150.727 183.404 150.918 182.675 151.286C181.321 151.923 179.805 152.138 178.327 151.902C175.301 151.307 173.162 151.347 170.408 153.566C168.565 155.031 166.433 156.09 164.153 156.673C162.096 157.22 159.976 157.495 157.847 157.49C156.152 153.97 154.135 150.429 152.692 146.686C148.596 136.155 145.236 125.321 140.686 115.001C135.874 104.106 130.678 93.3221 123.455 83.7286C118.955 77.7264 114.859 71.4518 110.43 65.3991C107.747 61.7171 104.801 58.257 101.774 54.4438C111.942 45.1986 122.828 36.7757 134.331 29.2546C134.532 30.3441 134.653 30.9998 134.855 32.0287C138.336 30.5055 141.615 28.9318 144.994 27.6305C149.131 26.0265 153.338 24.6041 157.545 23.212C158.377 22.881 159.3 22.8596 160.147 23.1515C163.174 24.7857 166.059 23.9484 169.036 23.1515C169.414 23.0561 169.798 22.982 170.186 22.9296C170.732 22.8624 171.286 22.96 171.777 23.2098C172.268 23.4597 172.673 23.8503 172.94 24.3318C173.575 25.2699 175.644 25.4213 177.106 25.5423C181.656 25.9357 186.186 26.1173 190.797 26.43C192.421 26.541 194.025 26.5511 194.832 28.5989C195.074 29.2445 196.497 29.6077 197.425 29.8094C201.652 30.7072 205.91 31.4739 210.127 32.3616C211.366 32.6329 212.57 33.0423 213.718 33.5823C214.202 33.8042 214.888 34.591 214.808 34.8937C214.182 37.4358 216.119 37.5064 217.622 38.0209C219.781 38.7472 221.951 39.4332 224.079 40.2402C225.663 40.8354 226.944 41.6828 227.227 43.6801C227.318 44.3964 228.427 45.1529 229.245 45.5665C231.383 46.6762 233.603 47.5841 235.812 48.5929C236.783 48.9216 237.625 49.55 238.216 50.3875C238.807 51.225 239.117 52.2285 239.101 53.2534C239.067 54.34 239.312 55.4172 239.814 56.3817C240.316 57.3462 241.057 58.1656 241.966 58.7614C242.675 59.296 243.253 59.9838 243.659 60.7734C244.064 61.5629 244.286 62.4338 244.307 63.321C244.392 64.9458 245.001 66.4994 246.042 67.7496Z" fill="#C57D7D"/>
<path d="M211.478 121.901C211.782 123.171 211.743 124.499 211.368 125.75C210.992 127 210.292 128.13 209.34 129.023C207.816 130.603 205.958 131.823 203.902 132.594C203.074 132.839 202.221 132.988 201.359 133.038C203.7 127.822 208.835 126.329 211.478 121.901Z" fill="#966060"/>
<path d="M210.51 120.831L211.519 121.901C208.865 126.329 203.74 127.822 201.43 132.997C202.292 132.948 203.145 132.799 203.972 132.553L204.386 133.774C203.196 134.167 202.025 134.652 200.875 135.096C200.27 135.328 199.866 136.467 199.624 137.254C197.957 142.322 197.229 147.652 197.475 152.981C197.919 163.14 198.05 173.318 198.161 183.477C198.161 188.298 197.869 193.141 197.748 197.963C197.748 198.699 197.596 199.859 197.98 200.121C201.168 202.24 199.998 205.337 199.786 208.091C199.231 214.275 198.484 220.438 197.677 226.602C197.502 227.841 197.02 229.016 196.275 230.022C195.195 231.464 193.843 231.202 193.087 229.507C192.747 228.684 192.519 227.819 192.411 226.935C190.827 216 189.334 205.044 187.71 194.109C185.974 182.427 184.168 170.756 182.363 159.084C182.258 157.94 181.983 156.818 181.545 155.755C181.116 154.909 180.401 154.241 179.528 153.869C178.226 153.408 176.869 153.123 175.492 153.022C174.768 152.911 174.028 153.061 173.404 153.445C170.828 155.544 167.821 157.049 164.596 157.854L164.223 156.552C166.504 155.968 168.635 154.91 170.478 153.445C173.232 151.226 175.422 151.186 178.398 151.781C179.876 152.017 181.391 151.802 182.746 151.165C183.475 150.797 184.28 150.606 185.097 150.606C185.913 150.606 186.718 150.797 187.447 151.165C190.777 152.578 192.027 152.255 193.5 148.976C195.195 145.581 196.466 141.989 197.284 138.283C197.947 134.405 199.835 130.842 202.671 128.115C205.244 125.663 207.826 123.222 210.51 120.831ZM195.619 227.843C196.376 219.248 197.062 211.48 197.748 203.632C197.341 203.552 196.93 203.494 196.517 203.46C196.063 203.46 195.609 203.46 195.054 203.46C196.981 185.706 194.973 168.264 195.357 149.743C192.209 153.849 189.152 154.424 185.44 152.568C183.846 151.761 182.685 152.951 183.19 154.747C184.678 160.52 185.75 166.393 186.398 172.319C188.688 189.297 191.341 206.235 193.914 223.162C193.938 224.87 194.539 226.52 195.619 227.843Z" fill="#692B40"/>
<path d="M197.738 203.632C197.052 211.48 196.366 219.248 195.609 227.843C194.527 226.517 193.925 224.863 193.904 223.152C191.332 206.224 188.678 189.287 186.388 172.309C185.74 166.383 184.668 160.51 183.18 154.736C182.675 152.941 183.836 151.71 185.43 152.557C189.142 154.414 192.199 153.839 195.347 149.733C194.963 168.254 196.971 185.696 195.044 203.45C195.599 203.45 196.053 203.45 196.507 203.45C196.92 203.488 197.331 203.548 197.738 203.632Z" fill="#B7B7B8"/>
<path d="M169.984 21.4971L170.185 22.9295C169.798 22.9819 169.414 23.056 169.035 23.1514C166.009 23.908 163.154 24.7453 160.147 23.1514C159.3 22.8595 158.377 22.881 157.544 23.212C153.337 24.6041 149.13 26.0265 144.994 27.6304C141.614 28.9317 138.335 30.5054 134.855 32.0287C134.653 31.0199 134.532 30.344 134.33 29.2546C122.824 36.749 111.931 45.1448 101.754 54.363C104.781 58.1762 107.726 61.6363 110.41 65.3184C114.839 71.371 118.935 77.6456 123.435 83.6478C130.658 93.2817 135.854 104.065 140.666 114.92C145.216 125.24 148.575 136.104 152.671 146.606C154.114 150.358 156.132 153.889 157.827 157.41C159.955 157.414 162.075 157.139 164.132 156.593L164.505 157.894C163.436 158.186 162.357 158.449 161.277 158.671C159.925 158.948 158.724 159.717 157.907 160.829C156.764 162.332 155.404 163.658 153.872 164.764C149.262 167.699 144.58 170.544 139.748 173.157C137.415 174.463 134.888 175.386 132.262 175.89C127.66 176.797 123.21 178.353 119.046 180.511C115.48 182.196 111.764 183.547 107.948 184.546C104.498 185.484 100.886 185.746 97.6277 183.587C97.0803 183.359 96.4956 183.232 95.9026 183.214C95.6201 183.497 95.3477 183.628 95.267 183.84C94.9643 184.616 94.6819 185.302 94.4095 185.928L93.1585 185.615C93.433 184.803 93.544 183.944 93.4851 183.089C93.4262 182.234 93.1986 181.399 92.8155 180.632C91.1004 176.597 89.4559 172.309 86.9338 168.728C80.6788 159.841 76.0885 150.035 71.0845 140.482C64.7286 128.377 59.5935 115.646 54.0044 103.158C52.481 99.7782 50.1001 97.1049 47.7797 94.2602C47.3535 93.7922 46.8564 93.3939 46.3067 93.0799C43.1086 91.254 39.9408 89.3676 36.6822 87.6628C34.3991 86.4143 31.8572 85.7133 29.2569 85.615C30.5166 90.1292 32.2797 94.4876 34.5131 98.608C36.773 103.148 40.4553 106.497 43.714 110.199C44.6907 111.206 45.4083 112.436 45.8054 113.782C46.2026 115.128 46.2673 116.55 45.994 117.926C44.2386 119.217 42.8161 118.935 41.2322 117.513C37.8424 114.557 36.773 110.542 35.7641 106.416C35.5393 105.195 35.149 104.011 34.6039 102.895C31.3804 97.5541 28.9377 91.7792 27.3502 85.7461C27.1003 85.1525 26.76 84.6012 26.3413 84.1119C26.0127 84.8329 25.973 85.6524 26.2303 86.4018C27.784 92.4545 29.61 98.3962 30.8711 104.489C32.8888 114.184 34.4324 123.979 36.3593 133.744C37.0958 137.436 37.8222 141.138 38.6999 144.84L37.1563 145.203C35.1991 137.133 33.3193 129.023 31.5168 120.872C30.0842 114.426 29.499 107.758 28.127 101.332C27.1181 96.5098 25.5947 91.7887 24.3034 87.0172C23.6577 84.6465 22.6993 82.7601 19.6929 82.982C19.0371 83.0426 18.3309 82.4171 17.433 81.9733C19.5315 77.0706 23.688 74.811 28.9341 75.9206C27.4611 72.8943 26.2908 70.1403 24.8986 67.5377C22.3865 62.978 19.9552 58.3275 17.0194 54.0503C14.6313 50.6094 11.8705 47.4428 8.78703 44.6081C5.33901 41.5555 2.69244 37.7037 1.0793 33.3905C-0.000190258 30.2633 -0.60551 26.6923 0.917878 23.3633C2.63295 19.5804 4.46908 15.858 6.44646 11.722C6.31531 11.5102 5.50822 10.8242 5.4376 10.0676C5.30644 8.49391 5.04414 6.50662 5.76043 5.37678C7.59579 2.7479 10.2946 0.845365 13.3875 0C12.7922 1.33159 12.5097 2.01756 12.1667 2.67326C11.4303 4.06537 10.8855 5.46757 11.8439 6.98074C12.8023 8.49391 14.245 8.55443 15.8794 8.31233C20.9237 7.57592 25.0499 9.58339 28.9946 12.4181C30.9115 13.8102 32.9494 15.0106 35.4009 16.6146C35.5116 17.372 35.7219 18.1114 36.0264 18.8137C39.1438 24.6747 39.5776 30.919 38.8916 37.355C38.0139 45.4253 39.6281 53.0314 42.3318 60.5569C43.1692 62.9074 44.0267 65.2578 45.1264 68.3245C45.6409 66.8113 45.9032 66.0648 46.2664 64.9955C48.7078 65.2376 51.1796 65.4798 53.5908 65.7017C54.307 75.043 59.4624 81.8421 65.0817 88.4698C66.5345 90.1746 68.1083 91.8088 69.9445 93.9071C71.6293 91.0825 73.0316 88.7724 74.4339 86.3615C79.791 77.2825 84.7042 67.9109 91.7057 59.9012C94.4397 56.7639 97.0628 53.5358 101.209 51.952C102.904 51.3064 104.347 49.7933 105.729 48.4919C113.467 41.2489 122.234 35.3778 130.89 29.3252C131.731 28.7478 132.622 28.2481 133.553 27.8322C135.733 26.8234 136.106 26.9747 137.75 28.5787C143.571 26.3795 149.241 24.1905 154.972 22.1225C157.494 21.2146 160.016 20.7506 162.71 22.1225C163.88 22.6874 165.666 22.062 167.159 21.9106C168.107 21.7795 169.045 21.6282 169.984 21.4971ZM154.225 162.191C157.06 160.416 156.808 159.75 155.305 156.492C152.987 151.701 150.916 146.796 149.1 141.794C143.503 125.169 136.282 109.136 127.541 93.9273C121.487 83.436 114.082 73.893 106.859 64.2289C104.518 61.1017 102.006 58.0854 99.3226 54.706C86.5706 66.0548 80.0029 81.247 71.4073 95.0571C74.898 99.405 78.2676 103.511 81.5565 107.677C84.8454 111.843 88.3563 115.929 90.7069 120.862C88.9413 119.546 87.3542 118.006 85.9854 116.282C81.5767 110.875 77.2083 105.417 72.8702 99.9799C67.725 93.7054 61.238 88.5606 57.2933 81.3075C57.2933 81.2369 57.0512 81.3075 56.2844 81.136C57.6666 84.3842 58.9075 87.3702 60.2291 90.3058C60.4861 90.7522 60.8782 91.1054 61.3489 91.3145C64.3755 92.858 66.0099 95.6019 67.6039 98.376C69.5308 101.655 71.2156 105.084 73.0518 108.464C73.5072 109.323 74.0811 110.114 74.7568 110.814C76.3407 112.348 76.3508 112.469 73.9497 114.385C73.4856 113.629 72.9408 112.923 72.5877 112.166C69.7427 106.93 66.928 101.675 64.0628 96.4492C63.4877 95.4405 62.9833 94.1694 61.2077 94.1492C60.6427 98.2751 62.3376 101.776 63.7097 105.246C65.0817 108.716 67.0389 112.247 68.754 115.848C67.0692 116.574 65.8989 116.322 65.1524 114.466C64.0628 111.762 62.8925 109.079 61.6617 106.396C59.7889 102.471 58.853 98.1645 58.9277 93.8163C59.0018 93.1937 58.9503 92.5626 58.7763 91.9602C56.7586 87.2929 54.7039 82.6491 52.6122 78.0289C52.4205 77.5952 51.7849 77.3632 50.7357 76.5763C50.6011 79.336 50.6213 82.101 50.7962 84.8584C51.2401 88.49 51.5528 92.2628 52.8139 95.6321C55.1141 101.685 58.2013 107.394 60.7638 113.346C66.252 126.047 71.6696 138.778 78.8628 150.671C81.2942 154.706 83.1102 159.094 85.7231 162.968C88.5313 166.888 90.8647 171.128 92.6742 175.598C93.9252 178.927 95.3376 181.328 99.3226 182.337C102.168 183.043 104.69 183.497 107.394 182.649C110.097 181.802 112.882 180.632 115.707 179.885C119.439 178.967 121.921 176.677 123.939 173.58C125.654 170.917 127.51 168.335 129.397 165.772C129.923 165.253 130.513 164.802 131.152 164.431L131.758 164.996C129.326 168.496 126.885 172.007 124.09 176.012C127.924 175.083 131.021 174.508 134.018 173.57C141.574 171.22 147.678 166.287 154.225 162.191ZM54.2869 75.8903C53.732 74.7504 53.1771 73.6105 52.6323 72.4706L51.6941 72.9144L53.7118 76.2434L54.2869 75.8903ZM52.1279 67.4368C50.9173 67.3157 50.3019 67.1947 49.6864 67.2048C49.2306 67.2475 48.7786 67.3251 48.3346 67.4368C45.5804 79.643 45.6409 83.3856 48.8995 88.1873C48.5464 80.8838 48.7482 74.0342 52.1279 67.4368ZM44.8136 73.3482C44.8893 72.4764 44.7031 71.6018 44.2789 70.8364C42.8766 67.4469 41.1716 64.1683 40.0114 60.7486C37.5599 53.3643 35.9154 45.8792 36.9848 37.9401C37.6651 33.1367 37.2969 28.2429 35.9053 23.5953C35.5724 22.5361 35.3908 21.4163 33.5446 21.1742C33.9179 23.0707 34.8763 24.937 34.3618 26.2181C33.8473 27.4993 31.9102 28.4274 30.4877 29.5774L33.5749 31.5243C33.2485 33.4197 32.8174 35.2955 32.2835 37.1432C30.7198 41.8138 27.33 44.2752 22.4874 45.0318C19.4608 45.506 16.7268 44.477 14.0533 43.327C11.743 42.3182 11.5412 41.491 12.5905 39.1406C13.216 37.7182 14.6082 36.5682 14.2753 34.4598L7.35444 37.4256L4.79192 34.6515C4.62256 34.9649 4.54242 35.3187 4.5602 35.6744C4.57799 36.0301 4.69304 36.3742 4.89281 36.6691C7.1224 39.2414 9.4327 41.713 11.6724 44.3156C14.0735 47.0897 16.7167 49.6823 18.7344 52.7288C23.6124 60.1497 27.8095 67.9963 31.2746 76.1728C31.5713 76.9786 32.0974 77.68 32.7879 78.1904C36.662 80.5509 40.6067 82.7803 44.975 85.3123C44.1982 81.1158 43.6837 77.2421 44.8136 73.3482ZM44.975 89.4887C44.831 88.8209 44.4776 88.2166 43.9662 87.7637C38.9219 83.3755 33.0704 80.4298 26.987 77.8675C24.0209 76.6267 22.0839 78.4224 19.6626 80.6316C29.1661 82.0439 37.1765 85.3728 44.975 89.529V89.4887ZM44.0368 117.149C44.2789 112.438 41.5146 110.33 38.8311 108.191C38.9759 109.984 39.5183 111.721 40.4188 113.278C41.3192 114.834 42.5552 116.171 44.0368 117.19V117.149ZM31.9809 20.1756L32.6871 19.4593C32.5086 18.7188 32.2012 18.0153 31.7791 17.3812C30.7416 16.45 29.6391 15.5937 28.4801 14.8189C24.2126 11.7321 19.824 9.16979 14.1239 10.2794C11.8237 10.7334 10.0885 9.05882 9.6143 6.66802C9.50411 5.61571 9.44687 4.55852 9.44279 3.50046C8.17162 5.13468 7.06187 6.05267 6.60788 7.20267C5.70999 9.4926 7.95976 10.7132 8.97871 12.2466C3.46022 18.4405 1.11965 25.512 2.66322 31.0502C2.66322 31.1813 3.0365 31.2217 3.55102 31.4436C3.40978 30.2633 3.2988 29.2546 3.12729 27.7111C6.27495 26.3997 9.34191 24.9874 12.5097 23.8677C13.2967 23.5852 14.4468 24.0896 15.3245 24.4629C16.2225 24.9649 17.0675 25.5563 17.8466 26.2282V21.9409C19.7736 21.1742 21.6602 20.4984 23.4963 19.6813C26.3716 18.3799 29.1964 17.4317 31.9809 20.1756ZM25.2215 29.5673C27.7134 28.5585 30.629 28.1247 32.4853 25.855C29.6605 20.115 28.016 18.5514 20.0157 23.6155C20.7908 25.2631 21.6808 26.8542 22.6791 28.3769C23.2037 29.0629 24.6161 29.8296 25.2215 29.5673ZM25.7763 42.0559C28.3388 40.8454 29.1762 39.5643 29.1863 37.0121C25.1508 42.0559 19.824 41.0472 14.5073 40.452C18.0484 43.1353 21.7711 43.9323 25.7763 42.0559ZM28.248 31.1309C25.7965 31.1309 23.7485 31.6958 22.2756 30.9997C20.1973 29.991 19.0573 30.8585 18.0888 32.1598C17.1696 33.6021 16.3764 35.1209 15.7179 36.6993L16.404 37.3248C19.9955 34.8835 24.5253 34.2984 28.248 31.1309ZM28.6617 33.2897C25.282 35.4585 21.5088 36.2252 18.0282 38.7371C24.4144 39.8871 27.3199 38.3335 28.6617 33.2897ZM11.8742 33.8142C17.7558 31.5344 18.0484 29.991 13.3067 26.0164C13.1252 25.8651 12.8225 25.8852 12.3584 25.7743C10.2297 27.237 7.06187 26.7124 4.91299 29.2546C5.64946 30.7677 6.37584 32.2809 7.09214 33.7033C10.1187 32.3414 7.09214 31.1511 7.62683 29.7388C9.45288 29.7388 11.0671 27.3278 13.8213 29.6278L7.87905 34.1673L8.8173 35.1761C9.83625 34.712 10.8451 34.2984 11.8742 33.8445V33.8142Z" fill="#692B40"/>
<path d="M155.305 156.492C156.808 159.75 157.06 160.416 154.225 162.191C147.678 166.287 141.574 171.22 134.048 173.54C131.021 174.478 127.995 175.053 124.121 175.981C126.915 171.946 129.357 168.466 131.788 164.965L131.152 164.431C130.509 164.82 129.919 165.292 129.397 165.833C127.51 168.395 125.654 170.978 123.939 173.641C121.921 176.738 119.439 179.028 115.707 179.946C112.882 180.652 110.178 181.832 107.394 182.71C104.609 183.587 102.148 183.103 99.3227 182.397C95.2872 181.388 93.9253 178.987 92.6743 175.658C90.8764 171.179 88.5532 166.93 85.7535 162.998C83.1405 159.125 81.3245 154.716 78.8932 150.701C71.7 138.808 66.2823 126.077 60.7941 113.377C58.2316 107.425 55.1445 101.695 52.8443 95.6624C51.563 92.2931 51.2502 88.5202 50.8265 84.8886C50.6516 82.1312 50.6314 79.3662 50.766 76.6066C51.7749 77.3934 52.4508 77.6153 52.6425 78.0592C54.7544 82.6794 56.8091 87.3232 58.8067 91.9904C58.9665 92.5852 59.0076 93.2056 58.9277 93.8163C58.8876 98.1429 59.8474 102.42 61.7324 106.315C62.9632 108.958 64.1335 111.641 65.223 114.385C65.9696 116.241 67.1399 116.494 68.8247 115.767C67.0693 112.166 65.1625 108.766 63.7804 105.165C62.3982 101.564 60.7538 98.1944 61.2784 94.0685C63.054 94.0685 63.5584 95.3093 64.1335 96.3685C66.9986 101.594 69.8134 106.85 72.6584 112.085C73.0619 112.842 73.5563 113.548 74.0203 114.305C76.4214 112.388 76.4114 112.287 74.8274 110.734C74.1518 110.034 73.5778 109.243 73.1225 108.383C71.2863 105.044 69.6015 101.614 67.6746 98.2953C66.0806 95.5413 64.4159 92.7975 61.4196 91.2338C60.9489 91.0247 60.5568 90.6715 60.2998 90.2251C58.9782 87.2895 57.7373 84.3035 56.3551 81.0553C57.0916 81.1763 57.2934 81.1562 57.364 81.2268C61.3086 88.4799 67.7956 93.6246 72.8904 99.9396C77.279 105.377 81.6474 110.834 86.0057 116.241C87.3744 117.966 88.9615 119.506 90.7272 120.821C88.3765 115.888 84.8757 111.833 81.5767 107.637C78.2778 103.44 74.9182 99.3646 71.4276 95.0168C80.0231 81.1662 86.5605 65.974 99.3429 54.6656C102.026 58.0451 104.539 61.0613 106.879 64.1885C114.103 73.8526 121.538 83.3553 127.561 93.8869C136.302 109.096 143.524 125.129 149.12 141.753C150.928 146.769 152.993 151.688 155.305 156.492Z" fill="white"/>
<path d="M93.1585 185.615L94.4297 185.908C92.412 190.447 90.7171 191.062 84.7446 190.054C76.9898 188.709 69.282 187.111 61.6214 185.262C59.5566 184.805 57.6259 183.876 55.9805 182.547C54.3352 181.219 53.02 179.527 52.138 177.605C50.6449 174.397 49.4444 170.917 45.5602 169.676C44.0369 166.852 41.888 164.189 41.1111 161.162C39.766 155.836 38.4208 150.489 37.0757 145.123L38.6192 144.76C40.526 152.83 43.0986 160.658 47.8605 167.82C55.8406 170.191 60.2998 172.299 62.5193 175.215L51.5832 171.109C54.0246 179.361 58.9983 183.476 66.8574 184.223C68.4817 184.374 70.0656 184.99 71.6798 185.302C76.7846 186.311 81.8794 187.522 87.0246 188.228C90.1622 188.641 92.3413 187.633 93.1585 185.615Z" fill="#692B40"/>
<path d="M92.8158 180.632C93.199 181.399 93.4266 182.234 93.4855 183.089C93.5443 183.944 93.4333 184.803 93.1588 185.615C92.3416 187.582 90.1322 188.641 87.1056 188.208C81.9604 187.502 76.8656 186.301 71.7608 185.282C70.1466 184.969 68.5627 184.354 66.9384 184.203C59.0793 183.476 54.1056 179.361 51.6642 171.089L62.5498 175.215C60.3303 172.299 55.8711 170.171 47.891 167.82C43.1292 160.658 40.5565 152.81 38.6498 144.76C37.7721 141.098 37.0457 137.396 36.3092 133.663C34.3823 123.938 32.8387 114.143 30.821 104.408C29.5599 98.3558 27.7339 92.3032 26.1802 86.3211C25.9413 85.5684 25.9991 84.7528 26.3416 84.0413C26.7603 84.5306 27.1006 85.0819 27.3505 85.6755C28.938 91.7086 31.3807 97.4835 34.6042 102.825C35.1545 103.946 35.5483 105.137 35.7745 106.366C36.7834 110.461 37.8528 114.436 41.2426 117.462C42.8265 118.854 44.2692 119.167 46.0044 117.876C46.2777 116.499 46.213 115.077 45.8159 113.731C45.4188 112.385 44.7011 111.156 43.7244 110.148C40.4657 106.446 36.7834 103.087 34.5235 98.5576C32.2901 94.4536 30.5237 90.1123 29.2572 85.615C31.8574 85.7272 34.3958 86.4421 36.6724 87.7031C39.931 89.408 43.0989 91.2944 46.297 93.1203C46.8467 93.4342 47.3437 93.8325 47.7699 94.3005C50.0903 97.0948 52.4713 99.8185 53.9946 103.198C59.5838 115.687 64.7189 128.417 71.0747 140.523C76.1191 150.035 80.6691 159.841 86.924 168.769C89.4563 172.309 91.1007 176.536 92.8158 180.632ZM88.4171 181.53C89.6782 180.521 89.6782 180.521 88.7299 178.826C88.4474 179.562 88.1548 180.299 87.943 181.065C87.9127 181.166 88.2456 181.368 88.4171 181.58V181.53ZM76.5428 159.831L77.5517 157.137C75.2918 157.319 75.0396 158.257 75.6146 159.457C75.6651 159.679 76.2099 159.72 76.5428 159.831ZM68.7846 140.876C68.149 140.452 67.6042 139.938 67.463 140.039C67.0131 140.354 66.663 140.791 66.4541 141.299C66.4541 141.421 67.1603 142.127 67.3722 142.056C67.8363 141.915 68.1692 141.421 68.7846 140.876ZM56.6782 119.338C57.1625 118.965 57.6266 118.612 58.1108 118.259C57.9595 118.088 57.7476 117.745 57.677 117.775C57.1431 117.981 56.621 118.217 56.1133 118.481C56.2646 118.763 56.4966 119.036 56.6379 119.338H56.6782ZM51.6339 102.754C50.968 102.351 50.3728 101.846 50.2316 101.957C49.7544 102.389 49.331 102.877 48.9705 103.41C49.3639 103.612 49.828 104.055 50.1408 103.955C50.5948 103.813 50.968 103.309 51.6137 102.754H51.6339Z" fill="white"/>
<path d="M88.7801 178.826C89.7284 180.48 89.7284 180.48 88.4673 181.53C88.2958 181.368 87.9629 181.166 87.9931 181.066C88.1546 180.299 88.4471 179.562 88.7801 178.826Z" fill="#692B40"/>
<path d="M77.5314 157.137L76.5225 159.831C76.1896 159.72 75.6852 159.679 75.5742 159.458C75.0193 158.257 75.2715 157.369 77.5314 157.137Z" fill="#692B40"/>
<path d="M67.463 140.038C67.6042 139.938 68.149 140.452 68.7846 140.876C68.1692 141.42 67.8363 141.885 67.3823 142.056C67.1704 142.127 66.3734 141.42 66.4642 141.299C66.6704 140.793 67.0169 140.355 67.463 140.038Z" fill="#692B40"/>
<path d="M58.0703 118.259C57.5861 118.612 57.122 118.965 56.6377 119.338C56.4561 119.046 56.2644 118.763 56.0728 118.481C56.5805 118.217 57.1026 117.981 57.6365 117.775C57.7071 117.745 57.919 118.088 58.0703 118.259Z" fill="#692B40"/>
<path d="M52.6324 72.4706C53.1772 73.6105 53.7321 74.7504 54.2869 75.8903L53.6715 76.2434L51.6538 72.9144L52.6324 72.4706Z" fill="white"/>
<path d="M50.2113 101.957C50.3525 101.846 50.9477 102.351 51.6136 102.754C50.9679 103.309 50.6047 103.763 50.1205 103.954C49.8077 104.055 49.3437 103.612 48.9502 103.41C49.3107 102.877 49.7341 102.389 50.2113 101.957Z" fill="#692B40"/>
<path d="M49.6868 67.2048C50.3022 67.2048 50.9176 67.3158 52.1282 67.4368C48.7485 74.0343 48.5467 80.8839 48.8998 88.1874C45.6412 83.3856 45.5807 79.6431 48.3349 67.4368C48.7789 67.3252 49.2309 67.2476 49.6868 67.2048Z" fill="white"/>
<path d="M44.2791 70.8363C44.7033 71.6018 44.8894 72.4763 44.8138 73.3482C43.6839 77.242 44.1984 81.1157 44.9752 85.3425C40.6068 82.8105 36.6622 80.5811 32.7881 78.2206C32.0975 77.7102 31.5715 77.0088 31.2748 76.203C27.8103 68.0018 23.6097 60.1315 18.7245 52.6884C16.7572 49.6621 14.0737 47.0493 11.6625 44.2752C9.42278 41.7028 7.11248 39.2313 4.88289 36.6287C4.68311 36.3338 4.56807 35.9897 4.55028 35.634C4.53249 35.2782 4.61264 34.9245 4.782 34.6111L7.35461 37.4256L14.2754 34.4598C14.6487 36.5681 13.2161 37.7181 12.5906 39.1405C11.5818 41.491 11.7432 42.3182 14.0535 43.3269C16.727 44.4769 19.4206 45.5059 22.4876 45.0318C27.3302 44.2752 30.7199 41.8138 32.2837 37.1431C32.805 35.2847 33.2227 33.3988 33.5347 31.494L30.4475 29.547C31.87 28.397 33.797 27.5295 34.3216 26.1878C34.8462 24.8461 33.8777 23.0202 33.5044 21.1439C35.3506 21.386 35.5221 22.5058 35.8652 23.565C37.2567 28.2126 37.625 33.1064 36.9446 37.9098C35.9358 45.8489 37.56 53.334 39.9712 60.7183C41.1718 64.1683 42.8768 67.4468 44.2791 70.8363Z" fill="#C57D7D"/>
<path d="M44.0067 87.7637C44.5181 88.2166 44.8716 88.8209 45.0156 89.4887C37.2171 85.3325 29.2067 82.0036 19.7939 80.6316C22.2152 78.4224 24.1522 76.5965 27.1183 77.8676C33.111 80.4702 38.9725 83.4158 44.0067 87.7637Z" fill="white"/>
<path d="M38.8311 108.232C41.5146 110.37 44.2789 112.479 44.0368 117.19C42.5602 116.175 41.3273 114.845 40.4271 113.296C39.5268 111.747 38.9817 110.017 38.8311 108.232Z" fill="#692B40"/>
<path d="M32.6874 19.4997L31.9811 20.2159C29.1967 17.4317 26.3719 18.38 23.4966 19.6813C21.6605 20.4984 19.7739 21.1743 17.8469 21.9409V26.2282C17.0697 25.5423 16.2246 24.9373 15.3248 24.4225C14.4471 24.0493 13.307 23.5449 12.51 23.8274C9.3422 24.9471 6.27525 26.3594 3.12759 27.6708C3.2991 29.1739 3.41007 30.1927 3.55131 31.4033C3.03679 31.1813 2.70387 31.141 2.66351 31.0099C1.11995 25.4717 3.46052 18.4001 8.97901 12.1962C7.97015 10.6729 5.71029 9.45228 6.60818 7.15226C7.06217 6.0527 8.17192 5.13471 9.44309 3.50049C9.44716 4.55855 9.5044 5.61574 9.6146 6.66805C10.0888 9.07903 11.824 10.7334 14.1242 10.2795C19.8243 9.16982 24.2129 11.7321 28.4804 14.8593C29.6394 15.6341 30.7419 16.4904 31.7794 17.4216C32.2015 18.0557 32.5089 18.7591 32.6874 19.4997Z" fill="#C57D7D"/>
<path d="M32.4857 25.8549C30.6294 28.1247 27.7138 28.5181 25.2219 29.5672C24.6165 29.8295 23.2041 29.0629 22.6795 28.3769C21.6812 26.8541 20.7912 25.2631 20.0161 23.6155C28.0164 18.5514 29.6609 20.115 32.4857 25.8549ZM22.5484 25.6431C25.2219 25.7642 27.5927 27.6607 30.5083 25.29L25.7566 23.5953C26.4022 22.869 26.8764 22.3242 27.3607 21.7997C24.8688 21.9611 23.1234 22.9093 22.5484 25.6431Z" fill="#DFBDBC"/>
<path d="M29.1863 36.9617C29.1863 39.5643 28.3389 40.8455 25.7764 42.0056C21.7409 43.8819 18.0484 43.085 14.5073 40.3512C19.824 41.0472 25.1105 42.0056 29.1863 36.9617Z" fill="#B7B7B8"/>
<path d="M30.5083 25.2901C27.6229 27.6405 25.2218 25.7642 22.5483 25.6431C23.1234 22.9093 24.8687 21.9611 27.3606 21.7997C26.8764 22.3242 26.4022 22.869 25.7565 23.5953L30.5083 25.2901Z" fill="#692B40"/>
<path d="M22.3159 30.9998C23.7889 31.6958 25.8369 31.1309 28.2884 31.1309C24.5253 34.2985 19.9955 34.8836 16.4443 37.3248L15.7583 36.6994C16.4265 35.1199 17.2298 33.6011 18.1594 32.1599C19.0976 30.8585 20.2377 30.0313 22.3159 30.9998Z" fill="#B7B7B8"/>
<path d="M18.0283 38.7674C21.5089 36.2555 25.2821 35.4888 28.6618 33.3199C27.32 38.3336 24.4144 39.8871 18.0283 38.7674Z" fill="#D32D59"/>
<path d="M13.3068 26.0467C18.0485 30.0213 17.7559 31.5647 11.8743 33.8445C10.8654 34.248 9.85653 34.7121 8.84766 35.1458L7.90942 34.1371L13.8516 29.6379C11.0974 27.3379 9.48325 29.7388 7.6572 29.7489C7.06197 31.1914 10.0886 32.3818 7.06197 33.7436C6.37594 32.2809 5.64956 30.8081 4.91309 29.2546C7.06197 26.7125 10.2298 27.237 12.3585 25.8046C12.8226 25.9155 13.1152 25.8954 13.3068 26.0467Z" fill="#DFBDBC"/>
</g>
<defs>
<clipPath id="clip0">
<rect width="297" height="231" fill="white"/>
</clipPath>
</defs>
</svg>
