<svg width="153" height="161" viewBox="0 0 153 161" fill="none" xmlns="http://www.w3.org/2000/svg">
<g clip-path="url(#clip0)">
<path d="M142.005 68.6247C141.954 68.8422 141.907 69.0682 141.864 69.2681L136.378 69.3016L136.354 68.2354L136.413 67.7243L130.72 65.8783C131.341 64.0392 133.315 65.2022 134.218 63.6842L128.856 63.817C129.347 65.1191 129.733 66.4591 130.009 67.824C130.05 69.0097 129.976 70.197 129.788 71.3692L130.145 71.8804L129.323 72.458C128.277 71.7577 127.769 72.1117 126.58 72.6905C126.159 72.9006 125.735 73.1021 125.314 73.2978L124.805 72.0585C124.924 72.0141 125.04 71.9612 125.153 71.9142C128.295 70.5693 129.446 69.477 127.792 65.9618C127.683 65.6092 127.597 65.2501 127.532 64.8865C126.793 62.5995 126.141 61.8886 124.118 62.1337L123.962 60.816C124.505 60.7542 125.045 60.6838 125.585 60.6135C126.188 60.48 126.757 60.2235 127.257 59.8599C128.655 58.9806 129.99 57.9941 131.403 57.143C132.042 56.8498 132.709 56.6226 133.393 56.4648C134.641 58.9931 132.186 60.1015 131.68 62.1063L139.176 62.4522C138.418 64.8511 136.169 64.1002 134.953 65.396C137.006 67.0482 140.038 66.8776 142.005 68.6247ZM128.666 62.9722C129.547 61.8547 130.345 60.8551 131.111 59.848C127.947 60.9492 127.89 61.0432 128.666 62.9722Z" fill="#4D3826"/>
<path d="M136.378 69.3016C136.932 71.3476 139.555 71.5909 139.549 73.9179C137.322 74.4231 135.743 72.7058 133.578 72.4323L133.829 75.8261C133.117 75.6457 132.433 75.3694 131.796 75.0045C131.175 74.4996 130.787 73.7048 130.187 73.153C129.925 72.9063 129.646 72.6786 129.352 72.4714L130.174 71.8938L130.264 72.0201C130.933 69.6933 132.114 70.3285 133.288 70.826C133.945 71.1283 134.632 71.352 135.302 71.6108C135.34 71.529 135.377 71.4471 135.386 71.3519L131.936 68.5687C132.014 68.3992 132.092 68.2297 132.17 68.0602L136.354 68.2354L136.378 69.3016Z" fill="#4D3826"/>
<path d="M135.371 71.3239C135.333 71.4057 135.296 71.4875 135.287 71.5827C134.617 71.324 133.938 71.0827 133.273 70.7979C132.093 70.2978 130.918 69.6653 130.249 71.992L130.159 71.8657L129.802 71.3545C129.99 70.1823 130.064 68.995 130.023 67.8093C129.742 66.452 129.353 65.1199 128.859 63.8257L134.207 63.7078C133.305 65.2258 131.322 64.0803 130.71 65.9018L136.391 67.7425L136.332 68.2536L132.124 68.039C132.046 68.2085 131.968 68.378 131.89 68.5475L135.371 71.3239Z" fill="#4D3826"/>
<path d="M127.798 65.9646C129.452 69.4798 128.301 70.5721 125.159 71.917C125.046 71.964 124.93 72.0169 124.811 72.0613C120.021 74.1071 115.082 75.6807 110.164 77.3629C104.987 79.1316 99.5481 79.3706 94.1659 79.9614C92.7396 80.1198 91.2525 80.1653 89.8893 81.8113L92.4117 82.1358C92.4367 82.296 92.5468 82.5165 92.4868 82.6164C90.9487 85.0105 89.4751 87.4484 87.7966 89.7495C85.5416 92.8902 83.1779 95.9455 81.9045 99.665C81.8668 99.7468 81.8677 99.8676 81.7916 99.9105C79.902 101.506 80.2136 103.802 79.9936 105.874C79.7798 107.969 79.7297 110.077 79.8437 112.178C80.1111 117.222 80.4733 122.274 82.0452 127.118C82.5038 128.348 83.034 129.549 83.6331 130.716C82.0236 132.469 80.6003 133.28 78.492 132.898C77.3262 132.769 76.1478 133.006 75.1201 133.578C74.1727 134.105 73.4543 133.874 72.5546 133.623C69.9975 132.914 68.7871 131.331 68.044 128.716C66.89 124.681 65.0908 120.837 63.6181 116.881C62.6789 114.325 61.84 111.673 60.9169 109.082C60.6255 108.46 60.2888 107.86 59.9094 107.287L58.5784 109.14C53.3377 105.575 48.6844 101.531 46.1514 95.5578C44.8393 92.5069 44.4001 89.1473 44.8829 85.8544C45.2714 83.2008 45.3274 80.5499 45.5123 77.8947C46.4088 65.1083 51.7608 54.4205 60.9097 45.5779C61.3083 45.2597 61.738 44.9828 62.192 44.7514C63.3441 45.1892 62.2712 47.5069 64.4528 47.009C64.4224 44.1627 64.4502 41.3431 64.3603 38.519C64.3659 37.5907 64.1282 36.6781 63.671 35.8726C63.2138 35.0671 62.5531 34.3969 61.7552 33.9293C59.5595 32.5726 57.4731 31.1316 55.2568 29.6663C55.6299 29.0236 56.0223 28.3543 56.4827 27.5677C54.7543 26.2984 52.8115 26.3538 51.1122 26.5849C49.1474 26.8567 47.9632 25.8448 46.6609 24.906C46.2331 24.6101 45.7754 23.6279 45.9541 23.3773C46.1424 23.0884 46.3931 22.8457 46.6875 22.6673C46.982 22.4888 47.3126 22.3792 47.6547 22.3466C48.3989 22.4278 49.138 22.5503 49.8686 22.7133C50.6548 22.8778 51.425 23.1111 52.1702 23.4106C56.6496 25.2582 61.1138 27.1695 65.4964 29.2275C66.2302 29.5907 67.0331 29.7927 67.8519 29.82C68.6707 29.8474 69.4865 29.6995 70.245 29.3861C72.3156 28.6389 74.4332 28.0196 76.5427 27.4177C77.0528 27.2794 77.5569 27.1642 78.055 27.0723C81.9323 26.4125 85.6461 27.4265 89.0727 29.1722C95.7222 32.57 100.242 37.7784 100.629 45.6887C100.622 47.4177 100.457 49.1429 100.134 50.8425C99.8373 52.9292 99.3415 54.9884 99.1219 57.0753C98.9705 58.5847 98.8989 59.9821 96.8643 60.0378C97.8131 62.0673 99.4105 62.6249 101.169 62.8175C102.927 63.01 104.822 63.1806 106.63 63.2047C112.239 63.2704 117.821 63.3946 123.342 62.287C123.639 62.2251 123.913 62.1811 124.158 62.1525C126.181 61.9074 126.834 62.6184 127.573 64.9053C127.627 65.2627 127.702 65.6165 127.798 65.9646ZM71.9985 31.7503C75.0447 36.0401 78.2187 38.1512 80.767 37.3617C78.9475 35.4628 76.4239 34.5431 75.0921 32.2737C77.2926 31.2747 79.674 32.7947 81.6455 31.2514C78.4621 30.3866 75.0834 30.5614 71.9985 31.7503ZM50.3082 24.0413L50.1576 23.3418L47.3354 23.8071C48.7308 25.0649 49.5518 24.9043 50.3082 24.0413Z" fill="#C8A468"/>
<path d="M124.811 72.0613L125.32 73.3007C122.34 74.6918 119.265 75.9049 116.186 77.0377C111.475 78.8537 106.558 80.0704 101.55 80.6593C101.313 80.6847 101.092 80.8735 100.539 81.1572L105.389 83.9756C103.342 85.9587 100.853 85.6848 98.5832 86.6661C99.9219 88.5067 102.584 88.0527 103.87 89.9469C102.407 91.7028 100.147 91.4355 98.4317 92.3602C96.7165 93.285 94.7614 93.9649 92.8613 94.7551L95.2855 100.827C92.508 101.716 90.8366 98.8514 88.265 99.7222C88.45 100.515 88.606 101.295 88.7794 102.083C88.9984 103.14 89.3701 104.217 89.521 105.299C89.5269 105.896 89.4477 106.492 89.2858 107.067C88.6075 107.025 87.9398 106.88 87.3051 106.638C86.03 105.931 84.8579 105.031 83.6097 104.266C83.0267 103.991 82.4188 103.774 81.7943 103.615C80.6526 111.983 81.8251 119.872 83.793 127.702C86.1287 128.111 87.49 125.381 89.8448 126.131C89.4952 128.654 87.138 129.595 85.9395 131.557L90.2057 137.839C87.3398 139.211 86.6099 136.001 84.5557 135.793C84.3847 138.433 87.4315 140.79 85.3548 143.758C82.7772 142.572 82.2552 139.875 80.5522 137.846C79.7217 140.587 81.2789 143.93 77.8792 146.126L74.4043 137.511C72.7344 140.652 73.2645 144.45 69.2726 146.325C69.2589 145.787 69.2537 145.247 69.2172 144.713C69.0046 141.599 68.7902 138.489 68.574 135.382C68.5404 134.743 68.4177 134.112 68.2093 133.508C65.5974 126.557 62.96 119.616 60.297 112.684C60.0771 112.004 59.6258 111.423 59.0218 111.043C58.6436 110.869 58.2654 110.695 57.9091 110.489L58.6195 109.158L59.9506 107.306C60.3299 107.879 60.6666 108.479 60.9581 109.101C61.8811 111.692 62.7079 114.324 63.6592 116.9C65.1203 120.85 66.9195 124.694 68.0851 128.735C68.8336 131.338 70.044 132.921 72.5958 133.642C73.4954 133.893 74.1847 134.11 75.1612 133.597C76.189 133.025 77.3673 132.788 78.5331 132.917C80.6414 133.299 82.0648 132.487 83.6742 130.735C83.0752 129.568 82.545 128.367 82.0863 127.137C80.5144 122.293 80.1522 117.241 79.8849 112.197C79.7708 110.095 79.8209 107.988 80.0347 105.893C80.278 103.831 79.9314 101.519 81.8327 99.9293C81.8972 99.881 81.9079 99.7656 81.9456 99.6838C83.219 95.9643 85.5828 92.909 87.8377 89.7683C89.493 87.4565 90.9666 85.0186 92.5279 82.6352C92.5763 82.53 92.4778 82.3148 92.4528 82.1546L89.9595 81.8435C91.3169 80.1948 92.8098 80.152 94.2361 79.9936C99.6125 79.4001 105.052 79.1611 110.234 77.3951C115.112 75.6942 120.032 74.0838 124.811 72.0613ZM83.0826 138.061C82.9845 135.806 82.9845 135.806 81.0861 134.048C81.3669 136.365 81.4238 136.441 83.0826 138.061ZM78.1153 142.808L78.828 142.668L78.577 134.155L75.0243 134.829L78.1153 142.808ZM100.839 89.8701C99.3433 89.1824 98.4415 88.7677 97.5454 88.3556C96.6494 87.9435 95.7391 87.3479 94.4783 86.6406C96.9455 84.7092 99.8952 85.5913 102.013 84.0515C100.662 83.1116 99.5001 82.2657 98.3056 81.4757C97.9839 81.3083 97.6255 81.2238 97.2627 81.2297C95.8074 81.1906 94.6353 81.5934 93.8532 83.0181C92.6094 85.2784 91.2957 87.5066 89.8983 89.6255C88.2322 92.1448 86.3114 94.4974 84.7357 97.0654C83.8046 98.5844 83.3263 100.375 82.6382 102.056L87.8544 105.198C87.3008 102.401 86.1797 100.179 86.758 97.7263C88.9208 97.1773 90.5893 99.2971 92.9204 98.8113L90.3834 94.1041L100.839 89.8701ZM70.4915 142.601L71.1209 142.643C71.404 141.874 71.7423 141.123 71.9619 140.339C72.2707 139.286 72.5135 138.216 72.689 137.133C72.9466 135.347 72.6432 135.087 70.0827 134.83L70.4915 142.601Z" fill="#4D3826"/>
<path d="M131.114 59.8422C130.327 60.8471 129.547 61.8548 128.669 62.9664C127.89 61.0432 127.947 60.9492 131.114 59.8422Z" fill="#4D3826"/>
<path d="M123.957 60.8278L124.112 62.1454C123.866 62.174 123.593 62.218 123.296 62.2799C117.755 63.3853 112.17 63.2526 106.584 63.1976C104.753 63.1772 102.924 63.0158 101.123 62.8104C99.321 62.6049 97.7669 62.0602 96.8181 60.0307C98.8527 59.975 98.9011 58.5669 99.0757 57.0682C99.3244 54.9946 99.7911 52.9221 100.088 50.8354C100.41 49.1358 100.576 47.4106 100.583 45.6816C100.173 37.7749 95.6532 32.5666 89.0037 29.1688C85.5771 27.423 81.8866 26.4198 77.986 27.0689L77.8159 25.7373C79.0175 25.5464 80.2329 25.4327 81.5127 25.3627C85.1315 25.1576 88.6688 23.8883 92.2605 23.175C93.9053 22.848 95.5426 22.0007 97.5076 22.7556L95.4997 27.1217C99.1429 27.7987 102.866 27.2448 106.735 28.7481L102.094 32.3707L110.417 34.201C109.418 36.2343 107.255 36.1103 106.038 37.5903L113.422 40.9858C112.097 43.5768 109.616 44.5107 107.457 46.0317C109.304 48.3466 112.406 48.421 114.723 50.5415L105.379 56.3134L112.141 58.1341C110.694 59.4724 109.703 60.3694 108.742 61.2797C109.946 61.7272 114.831 61.9559 116.914 61.6886C119.213 61.365 121.588 61.1193 123.957 60.8278ZM100.119 60.9611C104.394 62.042 106.701 61.6865 108.651 58.7173C107.542 58.4621 106.486 58.2598 105.473 57.9639C104.46 57.668 103.206 57.9269 102.573 56.2691L111.538 50.5706C109.001 48.9294 106.309 48.3146 104.276 45.9283L110.805 42.0481L110.759 41.3191L102.148 38.124L107.026 34.9217C104.142 34.1266 101.402 34.1835 99.1995 32.4272C100.14 30.8418 102.417 31.1171 102.985 29.162C99.7667 28.4962 96.5197 29.1343 93.2388 28.1141L95.1525 23.9526L86.1891 25.9696C89.559 27.1182 92.6527 28.9556 95.2749 31.3659C97.4203 33.1746 99.2103 35.3688 100.554 37.8366C101.608 39.8599 102.251 42.0742 102.445 44.3513C102.639 46.6284 102.381 48.9231 101.685 51.1025C100.715 54.4377 101.306 57.7824 100.119 60.9611Z" fill="#4D3826"/>
<path d="M81.0859 134.048C82.9843 135.806 82.9843 135.806 83.0824 138.061C81.4235 136.441 81.3667 136.365 81.0859 134.048Z" fill="#4D3826"/>
<path d="M78.8279 142.668L78.1152 142.808L75.0241 134.829L78.5769 134.155L78.8279 142.668Z" fill="#4D3826"/>
<path d="M97.5332 88.3357C98.4105 88.7887 99.3311 89.1626 100.826 89.8502L90.3398 94.0911L92.8768 98.7983C90.54 99.2814 88.8772 97.1643 86.7145 97.7133C86.1308 100.178 87.2572 102.388 87.8109 105.185L82.5946 102.043C83.2828 100.362 83.761 98.5714 84.6922 97.0524C86.2679 94.4844 88.1887 92.1318 89.8547 89.6125C91.2629 87.4702 92.5654 85.251 93.8097 83.0051C94.5918 81.5804 95.7638 81.1776 97.2191 81.2167C97.582 81.2108 97.9404 81.2953 98.2621 81.4626C99.4566 82.2527 100.618 83.0986 101.97 84.0386C99.8436 85.5958 96.9252 84.7069 94.4347 86.6276C95.7269 87.328 96.6153 87.864 97.5332 88.3357Z" fill="#4D3826"/>
<path d="M71.103 142.635L70.4736 142.593L70.0729 134.804C72.6333 135.061 72.9367 135.321 72.6792 137.107C72.5037 138.19 72.2608 139.261 71.952 140.313C71.7244 141.115 71.3861 141.866 71.103 142.635Z" fill="#4D3826"/>
<path d="M108.651 58.7174C106.701 61.6866 104.395 62.0421 100.119 60.9611C101.301 57.7941 100.716 54.4377 101.702 51.0675C102.397 48.8881 102.655 46.5934 102.461 44.3163C102.267 42.0392 101.624 39.8249 100.57 37.8016L102.165 38.089L110.733 41.2856L110.778 42.0146L104.25 45.8948C106.282 48.2811 108.974 48.8959 111.511 50.5371L102.546 56.2356C103.191 57.8988 104.457 57.6452 105.447 57.9304C106.436 58.2156 107.531 58.4569 108.651 58.7174Z" fill="#4D3826"/>
<path d="M107.026 34.9218L102.149 38.124L100.554 37.8367C99.2104 35.3689 97.4204 33.1747 95.275 31.366C92.6528 28.9557 89.5591 27.1183 86.1892 25.9697L95.1526 23.9527L93.2523 28.085C96.5332 29.1052 99.7802 28.4671 102.999 29.1328C102.431 31.088 100.154 30.8126 99.2131 32.3981C101.415 34.1544 104.155 34.0974 107.026 34.9218Z" fill="#4D3826"/>
<path d="M58.5989 109.156L57.8884 110.486C54.6655 108.742 52.1009 106.21 49.5878 103.582C49.2658 103.334 48.9242 103.113 48.5665 102.921C45.859 104.777 43.2284 106.619 40.5554 108.385C38.8069 109.581 36.9938 110.679 35.1243 111.673C34.0286 112.133 33.1469 112.993 32.6574 114.079C31.9894 115.595 31.2253 117.067 30.3698 118.486C29.5985 119.795 28.6906 119.838 27.8405 118.59C27.1892 117.494 26.6363 116.342 26.1885 115.147C25.9541 114.486 25.7553 113.813 25.593 113.131C24.4624 113.923 23.4167 114.83 22.4728 115.838L21.4346 114.908C22.2765 114.028 23.1685 113.191 23.9513 112.256C24.4824 111.622 24.6705 111.305 24.3792 110.973L25.2489 110.063C25.627 110.421 26.011 110.781 26.4195 111.104C27.0216 111.61 27.7062 112.009 28.4434 112.282C29.1093 112.47 29.81 112.5 30.4907 112.371C31.1713 112.242 31.8135 111.957 32.3668 111.537C36.5134 108.821 40.6846 106.157 44.8339 103.435C45.7925 102.806 46.6938 102.088 47.7093 101.351C45.9696 99.3302 44.6745 96.9632 43.9084 94.404C43.1422 91.8448 42.922 89.1507 43.2621 86.4969L42.7146 86.323C39.9801 88.6059 37.3315 90.9778 34.5038 93.1258L33.6549 93.7763L32.7407 92.5912C35.9499 90.0734 38.9948 87.3455 42.0402 84.6321C42.6702 84.0174 43.0895 83.2183 43.2375 82.3504C43.5748 80.452 43.6873 78.5212 43.8746 76.5963C44.561 69.555 46.3248 62.8534 49.968 56.7399C51.4298 54.4048 53.0116 52.1471 54.7068 49.9761C55.0576 49.5625 55.3132 49.0766 55.4553 48.5531C55.5973 48.0296 55.6223 47.4815 55.5284 46.948C54.8791 42.1979 54.3083 37.4509 53.816 32.707C53.7978 32.1197 53.6175 31.5495 53.295 31.0599C52.9726 30.5703 52.5207 30.1806 51.9897 29.934C49.814 28.7636 47.6926 27.4906 45.6263 26.1438C44.6488 25.5102 43.6146 24.7088 44.0121 23.2772C44.1712 22.6375 44.5412 22.0698 45.062 21.6664C45.5828 21.2631 46.2237 21.048 46.8805 21.0559C47.9671 21.0374 49.0525 21.1262 50.121 21.3211L49.8147 22.7381C49.0842 22.5751 48.3451 22.4526 47.6008 22.3714C47.2616 22.4031 46.9336 22.5106 46.6407 22.6859C46.3479 22.8612 46.0976 23.0999 45.9083 23.3845C45.7355 23.6378 46.1931 24.6201 46.6151 24.9133C47.9255 25.8345 49.1016 26.864 51.0664 26.5921C52.7541 26.3557 54.7202 26.311 56.4369 27.5749C55.9765 28.3616 55.5841 29.0308 55.211 29.6735C57.4564 31.1522 59.5661 32.6039 61.7385 33.9499C62.5343 34.4125 63.1949 35.0763 63.6548 35.8753C64.1146 36.6743 64.3576 37.5807 64.3597 38.5046C64.4725 41.325 64.4245 44.1424 64.4522 46.9945C62.2707 47.4924 63.3436 45.1747 62.1915 44.737C61.7374 44.9684 61.3078 45.2453 60.9091 45.5634C51.7522 54.4236 46.4082 65.0939 45.5269 77.9085C45.342 80.5637 45.2753 83.2379 44.8975 85.8682C44.4128 89.1628 44.8511 92.5246 46.1633 95.5775C48.7026 101.567 53.3581 105.592 58.5989 109.156ZM29.355 117.106C29.8938 116.072 30.3758 115.146 31.0204 113.913L27.4116 113.606C27.9697 115.152 27.6622 116.526 29.355 117.106ZM60.9094 43.3402C61.5363 42.7434 62.4744 42.0064 62.4876 41.3186C62.5535 39.6424 62.668 37.4929 61.7578 36.345C60.3076 34.5169 58.1003 33.2469 55.6247 32.0235C55.4798 37.0904 56.5553 41.5573 57.4073 46.403C58.7538 45.2378 59.8732 44.3365 60.9094 43.3402ZM53.5837 28.7057C53.6751 28.507 53.7692 28.3024 53.8525 28.1212L52.7052 27.9335C52.7047 28.1032 52.6388 28.3844 52.706 28.4224C52.9896 28.5424 53.2833 28.6371 53.5837 28.7057Z" fill="#4D3826"/>
<path d="M80.7673 37.3617C78.2096 38.1256 75.0334 36.0347 71.9989 31.7503C75.0843 30.5538 78.4661 30.3729 81.6539 31.2338C79.6824 32.7771 77.301 31.2571 75.1005 32.2561C76.4243 34.543 78.9478 35.4628 80.7673 37.3617Z" fill="#4D3826"/>
<path d="M47.7212 101.357C46.6824 102.083 45.8044 102.812 44.8457 103.44C40.6992 106.157 36.528 108.82 32.3787 111.543C31.825 111.959 31.1833 112.242 30.5037 112.369C29.8241 112.496 29.1249 112.464 28.4607 112.276C27.7234 112.002 27.0389 111.604 26.4368 111.097C26.0282 110.775 25.6443 110.414 25.2661 110.056C24.7035 109.461 24.0646 108.943 23.3659 108.517C20.3928 106.873 19.0914 104.476 19.555 100.724C25.4536 100.881 29.4466 97.0878 33.6632 93.7588L34.4925 93.1205C37.3201 90.9725 39.9848 88.5655 42.7033 86.3177L43.2507 86.4915C42.9122 89.1488 43.1353 91.8458 43.9056 94.4071C44.6758 96.9683 45.9759 99.3362 47.7212 101.357Z" fill="#C8A468"/>
<path d="M77.8159 25.7374L78.0039 27.0913C77.4942 27.1779 76.9901 27.2931 76.4917 27.4368C74.3822 28.0386 72.2646 28.658 70.194 29.4051C69.4355 29.7198 68.6194 29.8689 67.8001 29.8425C66.9809 29.8162 66.1772 29.615 65.4427 29.2523C61.06 27.1944 56.5958 25.283 52.1164 23.4355C51.3712 23.136 50.6011 22.9027 49.8148 22.7382L50.1211 21.3212L51.2218 21.4875C52.0089 21.7001 52.775 21.9837 53.5108 22.3348C53.6728 19.7752 54.4627 17.4903 51.9763 15.5396C50.6507 14.4981 49.0884 13.3123 48.5304 11.3067C50.4851 10.3363 51.9439 11.9773 53.7067 11.9453L52.8659 4.39286C54.1639 3.70105 54.7108 4.04461 55.2122 5.14615C56.165 7.30494 57.2821 9.39767 58.4505 11.7619C60.5247 9.64267 61.3869 6.90945 63.6473 5.05995C65.0821 7.50414 62.8216 9.53771 63.547 11.6698L67.5791 9.98366C67.9741 12.1904 66.688 13.3621 66.0076 14.6424C65.7105 15.1417 65.5199 15.6971 65.4478 16.2734C65.3757 16.8497 65.4237 17.4343 65.5888 17.9902C66.5322 21.3343 67.4389 24.6969 68.402 28.3049C69.3108 28.0147 70.0468 27.7938 70.7958 27.5293C73.0665 26.6836 75.4199 26.0829 77.8159 25.7374ZM64.3144 27.3527C65.0485 27.6093 65.7962 27.8255 66.5542 28.0004L63.9748 17.5454C62.0194 16.4479 60.4329 16.5255 58.7779 17.917C58.04 18.5406 56.8318 18.6081 55.6391 18.9943C55.6945 19.9133 55.699 20.835 55.6525 21.7549C55.5222 23.1111 56.1496 23.7395 57.3294 24.2396C59.6716 25.2318 61.9713 26.3318 64.3144 27.3527ZM62.2874 15.4665C63.428 15.4387 63.4325 15.4904 63.8167 13.8119L61.1179 14.7446L61.4084 10.8634L58.3089 14.7982L55.6395 9.98055C54.8147 11.8813 57.1935 13.2231 55.977 15.2552L52.0553 13.4517C52.3076 14.3996 52.9112 15.2141 53.7431 15.729C55.566 16.624 57.3911 17.8669 59.4452 15.8376C59.9848 15.2927 61.316 15.4942 62.2874 15.4665Z" fill="#4D3826"/>
<path d="M31.0204 113.913C30.3758 115.146 29.8939 116.072 29.355 117.106C27.6622 116.525 27.9697 115.152 27.4349 113.617L31.0204 113.913Z" fill="#4D3826"/>
<path d="M62.477 41.3421C62.4584 42.0416 61.5257 42.7669 60.8988 43.3637C59.8626 44.36 58.7432 45.2614 57.3793 46.4185C56.5273 41.5728 55.4517 37.1059 55.5967 32.0389C58.0668 33.274 60.2796 34.5324 61.7298 36.3605C62.6681 37.4931 62.5304 39.6319 62.477 41.3421Z" fill="#C8A468"/>
<path d="M66.5539 28.0003C65.804 27.8282 65.0641 27.6156 64.3374 27.3633C61.9885 26.3398 59.6826 25.2227 57.3175 24.2342C56.1726 23.7502 55.5273 23.0994 55.6406 21.7495C55.687 20.8296 55.6826 19.908 55.6272 18.9889C56.8198 18.6027 58.0281 18.5352 58.766 17.9116C60.4102 16.5435 62.0075 16.4425 63.9629 17.54L66.5539 28.0003Z" fill="#C8A468"/>
<path d="M32.7411 92.5912L33.6552 93.7763C29.4467 97.0878 25.4537 100.881 19.5471 100.742C19.0834 104.494 20.3848 106.891 23.358 108.534C24.0566 108.961 24.6956 109.479 25.2581 110.074L24.3885 110.984C23.9913 110.639 23.54 110.362 23.0526 110.164L21.0125 114.6L21.4439 114.919L22.4821 115.85C20.8284 117.468 19.1045 119.04 16.2963 119.307C17.7955 116.399 19.8227 114.336 20.5812 111.308C17.1613 112.107 14.4257 115.005 10.3894 113.206C12.551 110.851 14.7344 108.831 17.1135 106.555C12.8795 105.691 9.15237 104.43 6.14485 101.114C8.8419 99.8478 11.0836 101.488 13.5534 101.037C12.4002 98.7934 9.86651 97.3592 9.41135 94.4096C10.1222 94.3966 10.7069 94.1982 11.0717 94.4014C12.8964 95.4458 14.7135 96.5222 16.437 97.7255C19.3393 99.7683 22.1322 99.5657 25.1441 97.814C27.7933 96.251 30.3317 94.5059 32.7411 92.5912ZM21.1678 109.219C20.4223 108.388 19.9373 107.91 19.3859 107.331C17.1698 108.275 15.268 109.835 13.9061 111.828L14.2001 112.338L21.1678 109.219ZM18.17 105.009C17.5858 102.616 16.04 102.804 14.6093 102.727C13.1787 102.649 11.9441 102.514 10.6101 102.41L10.5159 103.075C12.7694 104.26 15.2416 104.724 18.1521 104.986L18.17 105.009ZM12.4875 97.2546C13.7224 99.1678 15.0908 100.576 17.5437 101.251C16.9835 99.1735 14.9902 97.6833 12.4875 97.2546Z" fill="#4D3826"/>
<path d="M24.3964 110.966C24.6877 111.299 24.4996 111.616 23.9684 112.249C23.1856 113.185 22.2936 114.021 21.4518 114.902L21.0203 114.583L23.0604 110.147C23.5478 110.344 23.9992 110.621 24.3964 110.966Z" fill="#4D3826"/>
<path d="M63.8165 13.8118C63.4323 15.4903 63.4278 15.4387 62.2872 15.4665C61.3158 15.4942 59.9846 15.2927 59.445 15.8376C57.3909 17.8669 55.56 16.6213 53.7429 15.729C52.911 15.214 52.3074 14.3996 52.0551 13.4517L55.9768 15.2552C57.1933 13.223 54.8118 11.8871 55.6393 9.98053L58.3088 14.7981L61.4082 10.8633L61.1178 14.7446L63.8165 13.8118Z" fill="#4D3826"/>
<path d="M19.3859 107.331C19.9314 107.907 20.3999 108.406 21.1624 109.231L14.1884 112.333L13.8944 111.823C15.2602 109.83 17.1662 108.271 19.3859 107.331Z" fill="#4D3826"/>
<path d="M53.8257 28.0876C53.7343 28.2863 53.6402 28.4909 53.5569 28.6721C53.2484 28.5947 52.9475 28.4896 52.6581 28.3579C52.5883 28.3258 52.6569 28.0387 52.6574 27.869L53.8257 28.0876Z" fill="#D32D59"/>
<path d="M14.5795 102.699C16.0102 102.776 17.5586 102.582 18.1402 104.981C15.2297 104.718 12.7575 104.254 10.4915 103.035L10.5857 102.37C11.9259 102.491 13.2581 102.629 14.5795 102.699Z" fill="#4D3826"/>
<path d="M17.5437 101.251C15.0989 100.559 13.7049 99.1598 12.4875 97.2546C14.9902 97.6833 16.9835 99.1735 17.5437 101.251Z" fill="#4D3826"/>
<path d="M50.1576 23.3418L50.3082 24.0413C49.5519 24.9043 48.7308 25.0648 47.318 23.7991L50.1576 23.3418Z" fill="#4D3826"/>
</g>
<defs>
<clipPath id="clip0">
<rect x="52.6445" width="110" height="126" transform="rotate(24.6965 52.6445 0)" fill="white"/>
</clipPath>
</defs>
</svg>
