<svg width="41" height="51" viewBox="0 0 41 51" fill="none" xmlns="http://www.w3.org/2000/svg">
<g clip-path="url(#clip0)">
<path d="M40.8797 22.0545C40.9513 22.2236 40.9648 22.4114 40.9181 22.5889C40.8715 22.7664 40.7673 22.9238 40.6215 23.0368C40.5836 23.0765 40.554 23.1232 40.5344 23.1743C40.5149 23.2254 40.5057 23.2799 40.5074 23.3345C40.5254 23.653 40.4594 23.8882 40.0901 23.9447C39.9629 23.9767 39.8406 24.0258 39.7268 24.0906C39.6125 24.1321 39.5107 24.2017 39.4309 24.2928C39.3511 24.3839 39.2959 24.4935 39.2704 24.6115C39.1263 25.2068 38.6699 25.5313 38.1144 25.7218C37.9793 25.7665 37.8412 25.7962 37.706 25.8379C37.6081 25.8528 37.5174 25.8979 37.4467 25.9669C37.3761 26.0358 37.3292 26.125 37.3127 26.2219C37.2442 26.4078 37.1154 26.5659 36.9464 26.6714C36.7422 26.8262 36.493 26.9155 36.2798 27.0584C36.0697 27.2076 35.8691 27.3696 35.6793 27.5436C35.346 27.8412 35.0338 28.1389 34.6855 28.4128C34.4643 28.5472 34.2357 28.6695 34.0009 28.7789C33.8658 28.8593 33.7006 28.9396 33.6376 29.0766C33.2975 29.7536 32.9968 30.4493 32.7368 31.1603C32.6624 31.508 32.6542 31.8664 32.7128 32.217C32.7432 32.455 32.7151 32.6968 32.631 32.9218C32.5468 33.1467 32.409 33.3482 32.2294 33.5089C32.1348 33.5894 32.0571 33.6877 32.001 33.798C31.9448 33.9084 31.9112 34.0286 31.9021 34.1519C31.8935 34.3607 31.8407 34.5653 31.747 34.7525C31.6534 34.9397 31.5211 35.1053 31.3586 35.2384C31.2924 35.2918 31.2373 35.3575 31.1965 35.4319L30.8362 35.3813C30.893 35.2321 30.9833 35.0977 31.1004 34.9883C31.2428 34.886 31.3589 34.7518 31.4392 34.5966C31.5195 34.4415 31.5619 34.2697 31.5628 34.0953C31.5569 33.9471 31.587 33.7996 31.6508 33.6654C31.7146 33.5312 31.81 33.4142 31.9291 33.3244C32.0766 33.2101 32.1923 33.0606 32.2653 32.8897C32.3383 32.7189 32.3663 32.5325 32.3465 32.348C32.2924 31.8211 32.2144 31.3032 32.4636 30.8001C32.5927 30.5411 32.6978 30.2732 32.8119 30.0083L32.7428 30.0291C32.8652 29.8112 32.9658 29.5819 33.0431 29.3445C33.2229 29.1934 33.3743 29.012 33.4904 28.8087C33.6231 28.5949 33.812 28.421 34.0369 28.3056C34.2201 28.1746 34.4152 28.0615 34.5954 27.9246C35.1959 27.4781 35.6523 26.8887 36.3399 26.5642C36.6792 26.4035 36.9974 26.2189 37.0335 25.7694C37.0335 25.6742 37.2226 25.57 37.3337 25.5075C37.4497 25.475 37.5682 25.4521 37.688 25.439C38.1474 25.2813 38.6639 25.1414 38.793 24.6115C38.8431 24.3767 38.9604 24.1612 39.1308 23.9907C39.3012 23.8202 39.5174 23.7019 39.7538 23.65C40.021 23.5696 40.054 23.4119 40.054 23.1767C40.0441 23.0258 40.0924 22.8768 40.1892 22.76C40.3125 22.6714 40.4014 22.5436 40.4413 22.398C40.4812 22.2523 40.4696 22.0974 40.4083 21.9592C40.3535 21.8192 40.3297 21.6691 40.3385 21.5191C40.3473 21.3692 40.3885 21.2228 40.4594 21.09C40.5324 20.9679 40.5686 20.8276 40.5639 20.6857C40.5591 20.5439 40.5134 20.4063 40.4324 20.2893L40.7146 20.1047C40.7687 20.1881 40.8257 20.2685 40.8767 20.3488C41.132 20.7388 40.9848 21.1287 40.8948 21.5395C40.8497 21.7077 40.8445 21.884 40.8797 22.0545Z" fill="#692B40"/>
<path d="M40.6935 20.0601L40.4113 20.2446C40.3823 20.1979 40.3502 20.1532 40.3152 20.1107C40.1136 19.8765 39.9356 19.6232 39.7838 19.3546C39.739 19.2783 39.7111 19.1935 39.7018 19.1058C39.6925 19.0181 39.702 18.9294 39.7297 18.8456C39.8768 18.6045 39.7687 18.4824 39.6216 18.3306C39.4726 18.1556 39.3132 17.9896 39.1442 17.8335C38.8888 17.6049 38.7185 17.2976 38.6608 16.9613C38.6414 16.8796 38.6531 16.7937 38.6938 16.7202C38.7671 16.6332 38.8211 16.5318 38.8524 16.4228C38.8837 16.3137 38.8915 16.1994 38.8754 16.0871C38.8593 15.9749 38.8195 15.8672 38.7588 15.7712C38.698 15.6751 38.6176 15.5928 38.5227 15.5295C38.1594 15.2318 37.8111 14.8895 37.4598 14.565C37.4077 14.528 37.3641 14.4806 37.3316 14.4259C37.2992 14.3712 37.2786 14.3104 37.2712 14.2473C37.2639 14.1842 37.2699 14.1203 37.2889 14.0597C37.308 13.9991 37.3396 13.9431 37.3817 13.8953C37.4155 13.8642 37.4415 13.8258 37.4579 13.7831C37.4743 13.7404 37.4806 13.6946 37.4762 13.6491C37.4719 13.6036 37.457 13.5598 37.4328 13.5209C37.4086 13.482 37.3757 13.4492 37.3367 13.425C37.0364 13.1779 36.7362 12.9249 36.4359 12.6927C36.0964 12.4268 35.7404 12.1822 35.37 11.9604C35.1893 11.8885 35.0435 11.7503 34.963 11.5745C34.8825 11.3988 34.8734 11.199 34.9376 11.0168C34.9629 10.9395 34.9719 10.8579 34.9642 10.777C34.9564 10.6961 34.9321 10.6177 34.8926 10.5465C34.686 10.3183 34.4333 10.1357 34.1509 10.0107C33.7397 9.88034 33.3192 9.78084 32.8929 9.71299C32.8245 9.70382 32.7588 9.68077 32.6999 9.6453C32.641 9.60982 32.59 9.56267 32.5503 9.5068C32.5106 9.45093 32.4829 9.38753 32.469 9.32057C32.4551 9.25361 32.4553 9.18453 32.4695 9.11764C32.5326 8.93308 32.4695 8.85867 32.3404 8.77234C32.0383 8.56679 31.6717 8.47591 31.3075 8.51634C30.9202 8.54611 30.5569 8.54611 30.3467 8.1383C30.3257 8.10258 30.2596 8.09067 30.2176 8.06686C29.4596 7.67697 28.5985 7.52931 27.7525 7.64416C27.6439 7.66341 27.5319 7.64638 27.4341 7.59574C27.3363 7.54511 27.2582 7.46372 27.212 7.36435C27.1319 7.20641 27.0093 7.07351 26.8577 6.98035C26.4634 6.76801 26.0054 6.70254 25.5666 6.7958C25.0657 6.9317 24.5743 7.09975 24.0954 7.29886C23.723 7.45365 23.4949 7.41198 23.3477 7.04584C23.3148 6.96401 23.2593 6.893 23.1877 6.8409C23.116 6.78879 23.031 6.7577 22.9424 6.75115L22.9664 6.39394C23.1053 6.4202 23.2385 6.47059 23.3597 6.54278C23.4198 6.5785 23.5009 6.60231 23.5339 6.65589C23.702 6.92082 23.8852 6.87617 24.1554 6.78389C24.6896 6.57346 25.2502 6.43626 25.8218 6.37608C26.1499 6.34436 26.4806 6.39668 26.7824 6.52802C27.0842 6.65937 27.3469 6.86535 27.5453 7.12621C27.6163 7.18276 27.7069 7.20948 27.7975 7.20063C28.5728 7.14405 29.3508 7.26631 30.0705 7.55784C30.1183 7.57113 30.1631 7.59336 30.2026 7.62333C30.728 8.09663 31.4036 8.13235 32.0462 8.21867C32.2853 8.27771 32.5034 8.40089 32.6766 8.57469C32.8498 8.74848 32.9713 8.9662 33.028 9.20397C33.028 9.2635 33.1571 9.33494 33.2352 9.34983C33.7366 9.44806 34.2771 9.4808 34.6794 9.81717C34.97 10.0868 35.2225 10.3942 35.43 10.731C35.4499 10.7979 35.4556 10.8681 35.4468 10.9372C35.4381 11.0064 35.415 11.073 35.379 11.1329C35.2649 11.3442 35.2829 11.4484 35.5051 11.5824C36.2768 12.0408 37.0634 12.4754 37.6519 13.1928C37.9762 13.5827 38.0092 13.7494 37.709 14.2555C38.0663 14.5799 38.4506 14.8895 38.7809 15.2497C38.9967 15.484 39.1658 15.7567 39.2793 16.0534C39.3365 16.2693 39.3228 16.4976 39.2403 16.7053C39.1883 16.8404 39.1754 16.9872 39.2029 17.1292C39.2305 17.2712 39.2975 17.4027 39.3964 17.509C39.6428 17.7593 39.8753 18.0226 40.093 18.2979C40.1831 18.3803 40.2403 18.4921 40.2541 18.6129C40.2679 18.7337 40.2374 18.8554 40.1681 18.9557C40.15 19.0137 40.145 19.075 40.1533 19.1351C40.1616 19.1953 40.183 19.2529 40.2161 19.304C40.3572 19.5511 40.5344 19.81 40.6935 20.0601Z" fill="#692B40"/>
<path d="M40.4113 20.2447C40.4924 20.3618 40.538 20.4993 40.5428 20.6412C40.5476 20.7831 40.5114 20.9234 40.4384 21.0455C40.3675 21.1783 40.3263 21.3246 40.3175 21.4746C40.3086 21.6245 40.3325 21.7746 40.3873 21.9147C40.4485 22.0529 40.4602 22.2077 40.4203 22.3534C40.3804 22.4991 40.2914 22.6268 40.1681 22.7154C40.0713 22.8323 40.023 22.9813 40.033 23.1322C40.033 23.3673 40.009 23.5251 39.7328 23.6055C39.4964 23.6574 39.2801 23.7757 39.1098 23.9462C38.9394 24.1166 38.8221 24.3322 38.7719 24.5669C38.6428 25.0998 38.1264 25.2367 37.667 25.3945C37.5472 25.4075 37.4287 25.4304 37.3127 25.4629C37.1896 25.5254 37.0124 25.6296 37.0124 25.7249C36.9764 26.1744 36.6581 26.3589 36.3188 26.5197C35.6313 26.8441 35.1629 27.4335 34.5744 27.88C34.3942 28.017 34.199 28.1301 34.0159 28.2611C33.7879 28.38 33.5977 28.5593 33.4664 28.779C33.3503 28.9823 33.1988 29.1637 33.019 29.3148C32.9418 29.5522 32.8412 29.7815 32.7188 29.9995L32.7878 29.9786C32.6737 30.2435 32.5686 30.5115 32.4395 30.7704C32.1903 31.2735 32.2684 31.7914 32.3224 32.3183C32.3422 32.5028 32.3143 32.6893 32.2413 32.8601C32.1682 33.0309 32.0525 33.1805 31.9051 33.2947C31.786 33.3845 31.6905 33.5015 31.6268 33.6357C31.563 33.77 31.5328 33.9174 31.5388 34.0657C31.5378 34.2401 31.4955 34.4118 31.4152 34.5669C31.3348 34.7221 31.2188 34.8563 31.0764 34.9587C30.9593 35.068 30.8689 35.2024 30.8121 35.3516L30.7851 35.4141C30.695 35.6225 30.611 35.7356 30.3377 35.7296C30.2137 35.7372 30.0894 35.7372 29.9654 35.7296C29.8441 35.7185 29.7279 35.6754 29.6291 35.6046C29.4798 35.4815 29.3375 35.3503 29.2028 35.2117C29.0753 35.0738 28.9322 34.951 28.7764 34.8456C28.6176 34.7782 28.4738 34.6804 28.3533 34.5578C28.2327 34.4352 28.1377 34.2902 28.0738 34.1311C27.8456 33.4852 27.2211 33.3096 26.6566 33.0536C26.3257 32.8875 26.0075 32.6974 25.7048 32.485C25.6063 32.4417 25.5182 32.3782 25.4462 32.2987C25.3743 32.2191 25.3202 32.1254 25.2874 32.0236C25.1986 31.9536 25.1153 31.8769 25.0382 31.7944C24.9992 31.7944 24.9661 31.7944 24.9301 31.7676C24.2141 31.563 23.4505 31.5933 22.7533 31.854C22.1527 32.0534 21.5522 32.2856 20.8887 32.2201C20.7628 32.2096 20.6382 32.1877 20.5164 32.1546C20.3302 32.101 20.2161 32.0504 20.1741 31.8569C20.1754 31.8431 20.1754 31.8291 20.1741 31.8153C20.144 31.2527 20.132 30.6841 20.063 30.1245C19.9639 29.3237 19.8288 28.526 19.6846 27.7431C19.5796 27.1745 19.4414 26.609 19.3063 26.0464C19.2283 25.7189 19.1292 25.3945 19.0361 25.07C18.925 24.6801 18.8379 24.2782 18.6938 23.9002C18.5076 23.4149 18.2734 22.9506 18.0573 22.4773C17.9269 22.2439 17.8145 22.0011 17.721 21.751C17.5538 21.2243 17.2267 20.7616 16.7842 20.4263C16.3018 19.9586 15.882 19.4314 15.5351 18.8576C15.1238 18.2831 14.7604 17.6669 14.3611 17.0894C14.2612 16.9698 14.1539 16.8565 14.0398 16.7501C13.5684 16.2202 13.1391 15.6606 12.6286 15.1635C12.2034 14.7878 11.7573 14.436 11.2925 14.1097C12.1002 12.919 12.9199 11.7075 13.7696 10.4513C13.8777 10.6031 13.9227 10.6746 13.9768 10.749C14.1149 10.9216 14.277 10.8919 14.3701 10.749C14.7664 9.98696 15.472 9.55831 16.1206 9.04631C16.2241 8.95098 16.3415 8.8717 16.4689 8.81115C16.5815 8.77092 16.7046 8.77092 16.8172 8.81115C16.9085 8.87242 17.0186 8.90002 17.1283 8.88914C17.238 8.87827 17.3404 8.8296 17.4177 8.75162C18.104 8.09203 19.0066 7.69901 19.9609 7.64428C19.9995 7.63946 20.0388 7.64281 20.076 7.65409C20.1133 7.66538 20.1477 7.68435 20.1771 7.70976C20.3602 7.936 20.5494 7.89432 20.7776 7.76335C21.2039 7.50139 21.6273 7.23647 22.0687 7.00131C22.2947 6.88231 22.5377 6.79801 22.7893 6.75126C22.8402 6.74535 22.8916 6.74535 22.9424 6.75126C23.0314 6.75806 23.1166 6.7896 23.1883 6.84226C23.26 6.89491 23.3153 6.96655 23.3478 7.04893C23.5039 7.41507 23.7231 7.45674 24.0954 7.30195C24.5743 7.10284 25.0658 6.93479 25.5667 6.79889C26.0055 6.70563 26.4634 6.7711 26.8578 6.98344C27.0093 7.0766 27.1319 7.2095 27.2121 7.36744C27.2582 7.46681 27.3363 7.5482 27.4341 7.59883C27.5319 7.64947 27.6439 7.6665 27.7525 7.64725C28.5981 7.53822 29.4571 7.69106 30.2116 8.08483C30.2537 8.10865 30.3197 8.12055 30.3407 8.15627C30.5509 8.56408 30.9142 8.56408 31.3016 8.53432C31.6657 8.49389 32.0323 8.58476 32.3344 8.79031C32.4515 8.87664 32.5266 8.95106 32.4635 9.13561C32.4493 9.2025 32.4491 9.27158 32.463 9.33854C32.4769 9.4055 32.5046 9.4689 32.5443 9.52477C32.5841 9.58065 32.635 9.6278 32.6939 9.66327C32.7529 9.69875 32.8186 9.72179 32.8869 9.73096C33.3132 9.79881 33.7337 9.89831 34.145 10.0286C34.4274 10.1537 34.6801 10.3362 34.8866 10.5644C34.9261 10.6356 34.9505 10.7141 34.9582 10.795C34.966 10.8759 34.9569 10.9575 34.9317 11.0348C34.8674 11.217 34.8765 11.4168 34.957 11.5925C35.0376 11.7683 35.1833 11.9065 35.364 11.9784C35.7342 12.1983 36.0902 12.4408 36.4299 12.7047C36.7302 12.9369 37.0304 13.1899 37.3307 13.437C37.3681 13.461 37.3996 13.4929 37.423 13.5305C37.4464 13.568 37.4611 13.6103 37.4659 13.6542C37.4708 13.6981 37.4658 13.7425 37.4512 13.7842C37.4367 13.8259 37.4129 13.8639 37.3817 13.8954C37.3401 13.9431 37.3089 13.9989 37.2902 14.0593C37.2715 14.1196 37.2656 14.1831 37.2729 14.2458C37.2802 14.3085 37.3007 14.369 37.3328 14.4235C37.365 14.4779 37.4082 14.5252 37.4598 14.5622C37.8111 14.8866 38.1594 15.2171 38.5227 15.5266C38.6176 15.5899 38.698 15.6722 38.7588 15.7683C38.8196 15.8644 38.8593 15.972 38.8754 16.0842C38.8916 16.1965 38.8837 16.3108 38.8525 16.4199C38.8212 16.529 38.7672 16.6303 38.6939 16.7173C38.6532 16.7909 38.6414 16.8768 38.6608 16.9584C38.7185 17.2948 38.8888 17.602 39.1442 17.8306C39.3174 17.9874 39.4809 18.1544 39.6337 18.3307C39.7808 18.4825 39.8889 18.6046 39.7418 18.8457C39.714 18.9295 39.7045 19.0182 39.7138 19.1059C39.7231 19.1937 39.7511 19.2784 39.7958 19.3547C39.9476 19.6233 40.1256 19.8766 40.3273 20.1108C40.3581 20.1536 40.3862 20.1984 40.4113 20.2447Z" fill="#C57D7D"/>
<path d="M32.3646 49.1338C32.3826 49.1992 32.2625 49.3511 32.1784 49.3808C31.8181 49.5178 31.4728 49.7738 31.0435 49.5565C30.7162 49.3927 30.3769 49.3153 30.1127 49.6904C29.8484 50.0655 29.4431 50.0119 29.0558 49.6487C28.9809 49.5674 28.9107 49.4819 28.8456 49.3927C28.6804 49.5624 28.5243 49.7202 28.3712 49.8809C28.3472 49.9018 28.3261 49.9285 28.3021 49.9494L28.0259 49.616C28.1957 49.4841 28.3508 49.3344 28.4883 49.1695C28.8606 48.7587 29.0648 48.7498 29.341 49.1278C29.6172 49.5058 29.7554 49.5207 30.0796 49.1844C30.163 49.092 30.269 49.0227 30.3874 48.983C30.5058 48.9434 30.6325 48.9348 30.7552 48.9581C30.9164 48.9672 31.0754 49.0003 31.2266 49.0564C31.3319 49.1107 31.4532 49.1264 31.5691 49.1008C31.685 49.0753 31.788 49.01 31.8602 48.9165C31.7611 48.8152 31.668 48.7259 31.5839 48.6188C31.0885 48.0592 30.6471 47.4757 30.6561 46.672C30.6561 46.2523 30.6171 45.8326 30.5931 45.4129C30.548 44.6836 30.482 43.9513 30.4489 43.219V42.9065C30.4219 42.0462 30.4489 41.1859 30.4489 40.3256C30.4489 39.4088 30.5 38.489 30.518 37.5692C30.518 37.0751 30.518 36.5839 30.518 36.1136L29.9415 36.0659L29.9775 35.6849C30.1015 35.6925 30.2259 35.6925 30.3499 35.6849C30.6231 35.6849 30.7072 35.5778 30.7972 35.3694L30.8243 35.3069L31.1846 35.3575C31.0875 35.543 31.0264 35.745 31.0044 35.9528C30.9493 36.4878 30.9242 37.0255 30.9294 37.5632C30.9113 38.5396 30.9083 39.516 30.8993 40.4923C30.8993 40.8436 30.8693 41.1919 30.8813 41.5431C30.9264 42.8588 30.9834 44.1745 31.0344 45.4932C31.0344 45.8594 31.0344 46.2255 31.0765 46.5887C31.1455 47.3269 31.5899 47.8567 32.0703 48.3747C32.228 48.6009 32.3289 48.8611 32.3646 49.1338Z" fill="#692B40"/>
<path d="M31.5839 48.6425C31.668 48.7378 31.7611 48.8271 31.8602 48.9402C31.788 49.0337 31.685 49.099 31.5691 49.1246C31.4532 49.1502 31.3319 49.1344 31.2266 49.0801C31.0754 49.024 30.9164 48.9909 30.7552 48.9819C30.6325 48.9585 30.5058 48.9671 30.3874 49.0068C30.269 49.0464 30.163 49.1158 30.0796 49.2081C29.7554 49.5445 29.6112 49.5058 29.341 49.1515C29.0708 48.7973 28.8606 48.7824 28.4883 49.1932C28.3508 49.3581 28.1957 49.5078 28.0259 49.6397C28.0439 49.601 28.0499 49.5534 28.0679 49.5147C28.0731 49.5018 28.0802 49.4898 28.0889 49.479C28.6024 48.8152 29.0948 48.1335 29.6413 47.4965C30.0031 47.0771 30.1937 46.5388 30.1757 45.9873C30.1757 45.2104 30.2147 44.4334 30.1757 43.6565C30.1757 43.5285 30.1757 43.3975 30.1757 43.2695H30.449C30.482 44.0018 30.548 44.7341 30.5931 45.4634C30.6171 45.8831 30.6591 46.3028 30.6561 46.7225C30.6471 47.4995 31.0885 48.0829 31.5839 48.6425Z" fill="#B7B7B8"/>
<path d="M30.521 36.1374C30.521 36.6077 30.521 37.0989 30.521 37.593C30.503 38.5128 30.4669 39.4326 30.4519 40.3494C30.4339 41.2097 30.4159 42.07 30.4519 42.9303V43.2428H30.1787C30.1457 42.6653 30.0856 42.0908 30.0496 41.5133C30.0286 41.1353 30.0496 40.7572 30.0196 40.3822C29.9375 39.376 29.8484 38.3719 29.7523 37.3697C29.7103 36.9202 29.6472 36.4767 29.5962 36.0421L29.9475 36.0749L30.521 36.1374Z" fill="#B7B7B8"/>
<path d="M30.1906 43.6447C30.2146 44.4216 30.1906 45.1985 30.1906 45.9754C30.2086 46.527 30.018 47.0653 29.6562 47.4846C29.1097 48.1216 28.6173 48.8033 28.1038 49.4671C28.0951 49.4779 28.088 49.49 28.0828 49.5028L27.7826 49.3629C28.0892 48.8349 28.4559 48.3435 28.8755 47.8984C29.1763 47.6118 29.4121 47.265 29.5674 46.8811C29.7227 46.4973 29.7939 46.085 29.7763 45.6718C29.6922 44.1358 29.6652 42.5969 29.5871 41.0609C29.524 39.8047 29.452 38.5485 29.3259 37.3013C29.2399 36.7124 29.1073 36.1312 28.9295 35.5629C28.8275 35.1848 28.4852 35.0538 28.1609 34.902C28.0276 34.8424 27.9208 34.7365 27.8606 34.6044C27.7764 34.324 27.6221 34.0693 27.4122 33.8638C27.2023 33.6582 26.9434 33.5085 26.6596 33.4286C26.3864 33.3363 26.1251 33.2113 25.8009 33.0743C25.5886 33.2556 25.3386 33.3882 25.0688 33.4628C24.7989 33.5374 24.5158 33.5521 24.2395 33.5059L24.2726 33.113C24.693 33.1457 25.1109 33.0238 25.4466 32.7707C25.231 32.6109 24.9996 32.4733 24.756 32.3599C23.9006 32.084 22.9775 32.0944 22.1287 32.3897C21.7679 32.5113 21.3856 32.5579 21.0058 32.5266H20.8887L20.9217 32.2021C21.5763 32.2676 22.1918 32.0354 22.7863 31.836C23.4835 31.5753 24.2471 31.545 24.9632 31.7497C24.9992 31.7497 25.0322 31.7675 25.0712 31.7765C25.1484 31.859 25.2317 31.9356 25.3205 32.0057C25.3532 32.1074 25.4073 32.2012 25.4793 32.2807C25.5512 32.3602 25.6393 32.4238 25.7378 32.4671C26.0406 32.6795 26.3587 32.8695 26.6896 33.0356C27.2541 33.2916 27.8907 33.4672 28.1068 34.1132C28.1708 34.2723 28.2657 34.4172 28.3863 34.5398C28.5069 34.6624 28.6507 34.7602 28.8094 34.8276C28.9653 34.933 29.1083 35.0559 29.2358 35.1937C29.3705 35.3324 29.5129 35.4636 29.6622 35.5867C29.761 35.6574 29.8771 35.7006 29.9985 35.7117L29.9624 36.0927L29.6111 36.06C29.6622 36.4916 29.7252 36.953 29.7673 37.3876C29.8513 38.3957 29.9374 39.3959 30.0255 40.3881C30.0525 40.7632 30.0255 41.1412 30.0555 41.5193C30.0915 42.0968 30.1516 42.6713 30.1846 43.2488C30.1816 43.3857 30.1876 43.5167 30.1906 43.6447Z" fill="#692B40"/>
<path d="M28.026 49.616L28.3022 49.9375C28.1565 50.1127 27.9946 50.2741 27.8188 50.4197C27.7137 50.4971 27.5185 50.4703 27.3774 50.4882C27.3547 50.3582 27.3547 50.2253 27.3774 50.0953C27.4876 49.8406 27.6119 49.5921 27.7497 49.3511L28.05 49.491C28.05 49.5416 28.044 49.5892 28.026 49.616Z" fill="#692B40"/>
<path d="M24.7379 32.3689C24.9816 32.4822 25.213 32.6199 25.4285 32.7796C25.0929 33.0328 24.675 33.1546 24.2545 33.122C24.118 33.1098 23.9825 33.088 23.8492 33.0565C23.7504 33.0338 23.6477 33.0338 23.5489 33.0565C23.0304 33.1925 22.4842 33.1853 21.9696 33.0356C21.7311 33.0017 21.4885 33.0077 21.252 33.0535C20.8917 33.0714 20.5313 33.1309 20.2011 32.8987C20.0964 32.8412 19.9809 32.8057 19.8618 32.7945C19.8182 32.7885 19.7751 32.7795 19.7327 32.7677C20.0829 32.5879 20.4733 32.4988 20.8676 32.5088H20.9847C21.3646 32.5401 21.7468 32.4935 22.1077 32.3718C22.9603 32.0846 23.8846 32.0836 24.7379 32.3689Z" fill="#966060"/>
<path d="M24.2545 33.122L24.2214 33.5149L24.0173 33.4941C23.8007 33.4922 23.5842 33.5022 23.3687 33.5238C22.9304 33.5399 22.4916 33.52 22.0566 33.4643C21.6272 33.3839 21.339 33.4405 21.1318 33.8304C20.7535 34.53 20.3541 35.2206 20.0329 35.9469C19.8321 36.4794 19.6666 37.0243 19.5374 37.5781C19.3483 38.2509 19.1621 38.9236 18.991 39.6023C18.7538 40.5519 18.5586 41.5104 18.2884 42.451C18.0061 43.4482 17.6578 44.4246 17.3456 45.4129C17.2626 45.6796 17.2004 45.9523 17.1594 46.2285C17.1603 46.2779 17.1727 46.3264 17.1957 46.3703C17.2186 46.4142 17.2514 46.4522 17.2915 46.4815C17.4537 46.5946 17.6218 46.6988 17.787 46.8L17.5948 47.0977C17.4833 47.0304 17.3656 46.9736 17.2435 46.928C16.643 46.7524 16.5229 46.547 16.667 45.9606C16.667 45.9129 16.691 45.8653 16.706 45.8177C17.0303 44.8116 17.3816 43.8144 17.6698 42.7993C17.7479 42.5284 17.82 42.2605 17.889 41.9896C17.9581 41.7188 18.0302 41.4479 18.0962 41.177C18.1623 40.9061 18.2313 40.6352 18.3004 40.3643C18.3694 40.0935 18.4355 39.8226 18.5106 39.5517C18.7628 38.6081 19.0871 37.6793 19.3002 36.7268C19.5422 35.6331 20.0049 34.5993 20.6604 33.6876C20.689 33.6299 20.7102 33.5689 20.7235 33.506C20.4601 33.3724 20.1859 33.2609 19.9038 33.1726L19.7957 33.1488L19.8647 32.8035C19.9839 32.8146 20.0994 32.8501 20.204 32.9077C20.5343 33.1398 20.8946 33.0803 21.2549 33.0624C21.4914 33.0167 21.734 33.0106 21.9725 33.0446C22.4872 33.1942 23.0334 33.2015 23.5519 33.0654C23.6507 33.0428 23.7533 33.0428 23.8521 33.0654C23.9847 33.0938 24.1192 33.1127 24.2545 33.122Z" fill="#692B40"/>
<path d="M22.9665 6.37914L22.9425 6.75123C22.8916 6.74532 22.8402 6.74532 22.7893 6.75123C22.5329 6.79464 22.2848 6.87697 22.0537 6.99532C21.6123 7.23048 21.189 7.49541 20.7626 7.75736C20.5494 7.88834 20.3603 7.93001 20.1621 7.70378C20.1327 7.67837 20.0983 7.6594 20.0611 7.64811C20.0238 7.63682 19.9846 7.63348 19.9459 7.63829C19.0006 7.68609 18.1033 8.06597 17.4147 8.70991C17.3375 8.7879 17.2351 8.83656 17.1254 8.84744C17.0156 8.85831 16.9055 8.83072 16.8142 8.76945C16.7017 8.72921 16.5785 8.72921 16.4659 8.76945C16.3385 8.82999 16.2211 8.90927 16.1176 9.00461C15.4691 9.5047 14.7635 9.94525 14.3671 10.7073C14.2891 10.8651 14.1119 10.8948 13.9738 10.7073C13.9198 10.6418 13.8747 10.5704 13.7666 10.4096L13.7456 10.1119C13.8032 10.1019 13.8621 10.1019 13.9198 10.1119C14.1029 10.1566 14.178 10.0494 14.2981 9.94525C14.9556 9.43028 15.6132 8.89149 16.2738 8.36164C16.532 8.15029 16.8052 8.24257 17.0724 8.40033C17.5392 7.95407 18.1078 7.62625 18.7299 7.44481C19.2613 7.30192 19.7928 7.14713 20.3542 7.33764C20.4375 7.35227 20.5233 7.33527 20.5945 7.29002C21.0659 7.04295 21.5162 6.76016 21.9997 6.53691C22.2961 6.3816 22.6355 6.32622 22.9665 6.37914Z" fill="#692B40"/>
<path d="M20.9038 32.1991L20.8708 32.5236C20.4765 32.5137 20.0861 32.6028 19.7358 32.7826C19.7782 32.7944 19.8213 32.8033 19.8649 32.8094L19.7959 33.1547C19.294 33.066 18.7767 33.1412 18.3216 33.369C18.1745 33.4375 18.0934 33.5029 18.1174 33.6667C18.1847 34.0685 18.2268 34.4741 18.2435 34.8812C18.2435 35.8486 18.1655 36.816 18.1895 37.7835C18.2135 38.8521 17.8292 39.8166 17.5199 40.8019C17.3127 41.4657 17.0725 42.1176 16.8684 42.7814C16.6342 43.5256 16.433 44.2698 16.1988 45.0169C16.1596 45.1898 16.0635 45.3448 15.9256 45.4575C15.6756 45.5997 15.4037 45.7002 15.1209 45.7551C14.7381 45.8355 14.3496 45.8863 13.9589 45.907C13.6586 45.9248 13.3584 45.8802 13.0581 45.8772H12.866V45.5438L13.2893 45.523C13.6736 45.4991 14.061 45.4753 14.4453 45.4247C14.8296 45.3741 15.1659 45.4515 15.4542 45.1896C15.5618 45.1101 15.6509 45.0086 15.7154 44.8919C15.8655 44.4603 15.9796 44.0167 16.1147 43.5821C16.379 42.7248 16.6552 41.8675 16.9194 41.0073C17.1326 40.2988 17.3488 39.5933 17.5439 38.8789C17.6105 38.6168 17.6487 38.3483 17.658 38.0782C17.7001 37.078 17.7421 36.0778 17.7511 35.0776C17.7511 34.5924 17.6851 34.1042 17.643 33.5536C17.2767 33.6786 16.9434 33.8006 16.6071 33.9048C15.8715 34.134 15.1419 34.4019 14.3913 34.5656C13.6899 34.7048 12.9637 34.6534 12.2895 34.4168C12.1192 34.3611 11.9457 34.3154 11.77 34.2799L11.8451 33.878C12.1994 33.9435 12.5537 34.012 12.911 34.0596C13.4069 34.1475 13.9138 34.1556 14.4123 34.0834C15.1522 33.9042 15.8819 33.6856 16.5981 33.4285C16.8984 33.3422 17.1686 33.244 17.4479 33.1309C17.8986 33.0145 18.3363 32.853 18.754 32.6486C19.0783 32.4492 19.3545 32.217 19.8019 32.2587C19.7718 32.1158 19.7478 32.0324 19.7358 31.9431C19.7375 31.9263 19.7375 31.9094 19.7358 31.8925L20.1952 31.833C20.2222 32.0235 20.3513 32.0741 20.5375 32.1307C20.6573 32.1644 20.7799 32.1873 20.9038 32.1991Z" fill="#692B40"/>
<path d="M20.7176 33.5119C20.7043 33.5748 20.6831 33.6358 20.6545 33.6935C19.999 34.6052 19.5363 35.639 19.2944 36.7327C19.0812 37.6852 18.7569 38.614 18.5047 39.5576C18.4296 39.8285 18.3636 40.0994 18.2945 40.3703C18.2254 40.6411 18.1564 40.912 18.0903 41.1829C18.0243 41.4538 17.9552 41.7247 17.8832 41.9955C17.8111 42.2664 17.742 42.5343 17.664 42.8052C17.3637 43.8203 17.0244 44.8175 16.7001 45.8236C16.7001 45.8712 16.6731 45.9189 16.6611 45.9665C16.517 46.5618 16.6431 46.7583 17.2376 46.9339C17.3598 46.9795 17.4774 47.0363 17.5889 47.1036L17.6429 47.1304C17.293 47.2793 16.9565 47.4575 16.6371 47.6632C16.3464 47.9244 16.0782 48.2091 15.8354 48.5146C15.8014 48.2675 15.7337 48.0262 15.6342 47.7972C15.5046 47.6583 15.351 47.5434 15.1808 47.4578C15.2003 47.231 15.2003 47.003 15.1808 46.7762C15.1679 46.6412 15.1029 46.5163 14.9994 46.4276C14.896 46.3389 14.762 46.2931 14.6254 46.2999C13.9438 46.2612 13.2652 46.2016 12.5866 46.1451C12.4833 46.1257 12.3826 46.0948 12.2864 46.0528C12.2864 46.0111 12.2864 45.9724 12.3014 45.9308C12.4906 45.9308 12.6827 45.904 12.8719 45.898H13.064C13.3643 45.898 13.6646 45.9457 13.9648 45.9278C14.3555 45.9071 14.744 45.8563 15.1268 45.776C15.4097 45.7211 15.6815 45.6205 15.9315 45.4783C16.0694 45.3656 16.1655 45.2106 16.2047 45.0378C16.4389 44.2965 16.6401 43.5494 16.8743 42.8022C17.0785 42.1384 17.3187 41.4865 17.5258 40.8227C17.8261 39.8374 18.2194 38.873 18.1954 37.8043C18.1714 36.8369 18.2495 35.8694 18.2495 34.902C18.2327 34.495 18.1906 34.0894 18.1234 33.6875C18.0993 33.5119 18.1804 33.4464 18.3275 33.3898C18.7826 33.162 19.2999 33.0868 19.8018 33.1755L19.9099 33.1993C20.1873 33.2815 20.4574 33.386 20.7176 33.5119Z" fill="#B7B7B8"/>
<path d="M20.1861 31.7973C20.1875 31.8112 20.1875 31.8251 20.1861 31.839L19.7267 31.8985C19.6607 31.3925 19.5976 30.8864 19.5376 30.3804C19.4805 29.8535 19.4685 29.3207 19.3724 28.8027C19.2373 28.0794 19.0061 27.3709 18.892 26.6476C18.7191 25.6353 18.4341 24.645 18.0423 23.6947C17.8561 23.2303 17.5559 22.8017 17.4148 22.3373C17.2337 21.7541 16.9098 21.2243 16.472 20.7954C16.1954 20.5332 15.9338 20.2559 15.6883 19.9649C14.7875 18.798 14.0999 17.4704 13.0851 16.369C12.502 15.7505 11.8738 15.1754 11.2055 14.6484C11.0313 14.5085 10.9502 14.5353 10.8842 14.7705C10.656 15.5712 10.5509 16.4166 10.0795 17.1519C10.0435 17.2074 10.0104 17.264 9.98042 17.3215L9.59009 17.0834C9.73721 16.7321 9.89034 16.4136 10.0044 16.0773C10.2026 15.4611 10.3708 14.836 10.5509 14.2138C10.5689 14.1603 10.5839 14.0739 10.623 14.059C11.1064 13.8566 11.2055 13.3476 11.4877 12.9844C11.86 12.5052 12.1453 11.9605 12.4906 11.4604C12.7488 11.0942 13.046 10.7519 13.3253 10.4007C13.3744 10.3295 13.4384 10.2697 13.5131 10.2255C13.5877 10.1813 13.6712 10.1537 13.7576 10.1447L13.7787 10.4423C12.9289 11.6985 12.1092 12.9011 11.3015 14.1007C11.7664 14.427 12.2125 14.7788 12.6377 15.1545C13.1391 15.6516 13.5775 16.2112 14.0489 16.7411C14.163 16.8475 14.2703 16.9608 14.3702 17.0804C14.7695 17.6758 15.1328 18.2711 15.5442 18.8486C15.891 19.4224 16.3108 19.9496 16.7932 20.4173C17.2357 20.7526 17.5629 21.2153 17.73 21.742C17.8236 21.9921 17.936 22.2349 18.0663 22.4683C18.2825 22.9416 18.5167 23.4059 18.7029 23.8912C18.847 24.2692 18.9341 24.6711 19.0452 25.061C19.1382 25.3855 19.2373 25.7099 19.3154 26.0374C19.4505 26.6 19.5886 27.1655 19.6937 27.7341C19.8378 28.5289 19.9729 29.3266 20.072 30.1155C20.1441 30.6662 20.1561 31.2347 20.1861 31.7973Z" fill="#692B40"/>
<path d="M19.8168 32.2647C19.3814 32.223 19.0932 32.4552 18.7689 32.6546C18.349 32.8657 17.9083 33.0333 17.4538 33.1547C17.1746 33.2559 16.8893 33.3542 16.6041 33.4524C15.8878 33.7094 15.1582 33.928 14.4182 34.1073C13.9197 34.1794 13.4128 34.1714 12.9169 34.0835C12.5596 34.0358 12.2053 33.9674 11.851 33.9019C11.3976 33.8155 10.9502 33.7262 10.4849 33.6697C10.0195 33.6131 9.55105 33.7024 9.08566 33.6905C8.81545 33.6649 8.54813 33.6151 8.28697 33.5417C8.06779 33.497 7.8486 33.4316 7.58738 33.3631C7.35861 32.7027 7.16419 32.031 7.00488 31.3508C6.85959 30.4853 6.75938 29.613 6.70462 28.7373C6.62355 27.7788 6.58452 26.8173 6.54249 25.8558C6.51546 25.2605 6.51846 24.6383 6.50345 24.0281C6.50345 23.8495 6.45841 23.6679 6.46442 23.4893C6.46153 23.216 6.49075 22.9433 6.55149 22.6767C6.76167 21.9503 7.00188 21.23 7.23908 20.5126C7.53934 19.6196 7.83959 18.7414 8.13985 17.8544H8.22092C8.314 18.152 8.4281 18.4497 8.49115 18.7474C8.6673 19.5868 8.83144 20.4292 8.98357 21.2746C9.06764 21.736 9.02861 22.1676 8.58123 22.4653C8.39205 22.627 8.25697 22.8419 8.1939 23.0815C8.04076 23.5935 8.25395 23.8882 8.79441 23.9745C9.51202 24.0995 10.3197 23.4804 10.2957 22.766C10.2957 22.5278 10.0825 22.2927 9.96241 22.0545C9.92637 21.9831 9.8423 21.9176 9.8363 21.8432C9.79726 21.2806 9.81528 20.709 9.72821 20.1524C9.62454 19.6478 9.48712 19.1506 9.31685 18.664C9.19675 18.2532 9.06464 17.8454 8.95054 17.4317C8.92237 17.3004 8.90629 17.1669 8.9025 17.0328L8.99558 17.003C9.07365 17.2054 9.15171 17.4079 9.22678 17.5984L9.98342 19.6136C10.0483 19.7476 10.1065 19.8847 10.1576 20.0244C10.4788 21.2746 10.8392 22.5278 11.1634 23.7989C11.3736 24.6175 11.5297 25.4539 11.7129 26.2815C11.7429 26.4154 11.7399 26.6178 11.9591 26.5791C12.1783 26.5404 12.2353 26.3767 12.1873 26.1654C11.9231 25.0074 11.6829 23.8465 11.3976 22.6915C11.1614 21.7311 10.8982 20.7835 10.608 19.8488C10.465 19.3512 10.2688 18.8701 10.0225 18.414C9.91945 18.2514 9.86159 18.0648 9.85473 17.873C9.84788 17.6811 9.89227 17.4909 9.98342 17.3215C10.0134 17.266 10.0465 17.2094 10.0825 17.1519C10.5539 16.4315 10.659 15.5861 10.8872 14.7705C10.9533 14.5353 11.0343 14.5085 11.2085 14.6484C11.8768 15.1754 12.505 15.7505 13.0881 16.369C14.1119 17.4674 14.7815 18.798 15.6913 19.9649C15.9368 20.2559 16.1984 20.5332 16.475 20.7954C16.9117 21.2247 17.2345 21.7544 17.4148 22.3373C17.5559 22.8106 17.8561 23.2303 18.0423 23.6947C18.4341 24.6451 18.7191 25.6353 18.892 26.6476C19.0061 27.3709 19.2373 28.0794 19.3724 28.8028C19.4685 29.3207 19.4805 29.8535 19.5376 30.3804C19.5946 30.9073 19.6607 31.3925 19.7267 31.8985C19.7284 31.9154 19.7284 31.9323 19.7267 31.9491C19.7478 32.0533 19.7718 32.1218 19.8168 32.2647ZM8.40708 32.6487C8.40708 32.604 8.17588 32.3927 8.10682 32.4195C7.96136 32.4927 7.84271 32.6093 7.76753 32.7529C7.74651 32.7886 7.91766 32.9315 8.06779 33.0982C8.2031 32.9661 8.31749 32.8146 8.40708 32.6487ZM7.44626 29.3415C7.57537 29.3594 7.80957 29.3415 7.76453 29.1094C7.74351 29.0052 7.62341 28.9218 7.50931 28.7849L7.17002 29.0826C7.2631 29.1927 7.34717 29.3415 7.44926 29.3534L7.44626 29.3415ZM7.31414 27.1745C7.45827 27.2013 7.67145 27.1447 7.6144 26.9244C7.59038 26.8083 7.46127 26.7131 7.32916 26.5404L6.98987 26.9334C7.09796 27.0227 7.20605 27.1656 7.31715 27.1864L7.31414 27.1745ZM7.31414 24.2156C7.31414 23.9805 7.19704 23.8346 6.97786 23.8644C6.89078 23.8644 6.78569 24.0549 6.75567 24.162C6.70462 24.3793 6.86076 24.4359 7.09195 24.4329C7.22106 24.4895 7.29913 24.4091 7.30514 24.2275L7.31414 24.2156Z" fill="white"/>
<path d="M18.3155 47.1483C18.3906 47.1989 18.4837 47.3715 18.4627 47.3983C18.3876 47.4847 18.2555 47.5978 18.1624 47.5859C17.721 47.5382 17.3607 47.7526 16.9854 47.9044C16.8417 47.9742 16.7164 48.0761 16.6191 48.2021C16.4098 48.4791 16.1863 48.7454 15.9495 48.9998C15.794 49.0904 15.6164 49.1367 15.4361 49.1338C15.406 49.1338 15.325 49.0117 15.319 48.9403C15.2919 48.6843 15.301 48.4253 15.2709 48.1663C15.2529 47.9937 15.1869 47.8508 14.9707 47.952C14.8928 47.9752 14.8118 47.9862 14.7305 47.9848C14.4662 48.0056 14.3311 47.8181 14.4482 47.5859C14.5145 47.4853 14.5747 47.381 14.6284 47.2733C14.6704 47.1572 14.7365 46.9756 14.6884 46.9072C14.5963 46.8 14.4663 46.7318 14.3251 46.7167C13.7486 46.6571 13.1631 46.6393 12.5866 46.5768C12.4294 46.5741 12.2752 46.5338 12.1371 46.4591C11.999 46.3845 11.8813 46.2778 11.794 46.1481C11.7644 46.1 11.7469 46.0456 11.743 45.9894C11.7391 45.9331 11.7489 45.8768 11.7716 45.8252C11.7943 45.7735 11.8291 45.728 11.8733 45.6925C11.9174 45.657 11.9695 45.6326 12.0252 45.6212C12.3044 45.5944 12.5836 45.5855 12.8629 45.5736V45.907C12.6737 45.907 12.4815 45.9278 12.2924 45.9397C12.2924 45.9814 12.2924 46.0201 12.2774 46.0618C12.3736 46.1037 12.4743 46.1347 12.5776 46.1541C13.2562 46.2106 13.9348 46.2702 14.6164 46.3089C14.753 46.3021 14.887 46.3479 14.9904 46.4366C15.0939 46.5253 15.1589 46.6501 15.1718 46.7851C15.1913 47.012 15.1913 47.24 15.1718 47.4668C15.342 47.5524 15.4956 47.6673 15.6252 47.8061C15.7247 48.0352 15.7923 48.2765 15.8264 48.5235C16.0692 48.2181 16.3374 47.9333 16.6281 47.6722C16.9474 47.4665 17.284 47.2882 17.6339 47.1394L17.5799 47.1126L17.7721 46.8149C17.9702 46.9161 18.1504 47.0263 18.3155 47.1483Z" fill="#692B40"/>
<path d="M12.1873 26.1623C12.2353 26.3737 12.1873 26.5344 11.9591 26.5761C11.7309 26.6178 11.7429 26.4154 11.7128 26.2784C11.5297 25.4509 11.3736 24.6144 11.1634 23.7958C10.8391 22.5278 10.4788 21.2746 10.1305 20.0154C10.0794 19.8757 10.0213 19.7386 9.95635 19.6046L9.1997 17.5894C9.12464 17.387 9.04657 17.1845 8.96851 16.994L9.35584 16.7767C9.42655 16.8822 9.50588 16.9818 9.59304 17.0744L9.98337 17.3125C9.89222 17.4819 9.84783 17.6721 9.85468 17.864C9.86154 18.0558 9.9194 18.2425 10.0224 18.405C10.2693 18.864 10.4656 19.348 10.6079 19.8487C10.8962 20.7953 11.1594 21.7469 11.3976 22.7034C11.6828 23.8435 11.923 25.0044 12.1873 26.1623Z" fill="#692B40"/>
<path d="M11.8479 33.89L11.7729 34.2918C11.247 34.1971 10.7154 34.1365 10.1815 34.1103C9.72513 34.0745 9.25973 34.1103 8.80034 34.0835C8.55421 34.0606 8.3096 34.0239 8.06771 33.9733L7.65336 34.4347C7.65336 34.399 7.65336 34.3603 7.62934 34.3216C7.38913 34.2293 7.15193 34.1251 6.90272 34.0507C6.13365 33.8203 5.39791 33.4921 4.71385 33.0744C4.38957 32.8779 4.0683 32.6755 3.75303 32.479L4.00525 32.095C4.03104 32.1155 4.05812 32.1344 4.08632 32.1516C4.7679 32.5594 5.47951 32.9225 6.18811 33.2857C6.47035 33.4286 6.78862 33.5238 7.15193 33.6727C7.07387 33.4286 7.02282 33.2798 6.98079 33.1279C6.71334 32.3798 6.49962 31.6139 6.34124 30.8359C6.19411 29.7226 6.19412 28.5884 6.13707 27.4632C6.07101 26.1386 6.02297 24.814 5.9389 23.4893C5.93408 23.1019 5.85459 22.719 5.7047 22.3611C5.15223 21.2538 4.51868 20.1881 3.96922 19.0867C3.8802 18.9043 3.74363 18.7488 3.57365 18.6363C3.40367 18.5238 3.20645 18.4583 3.00239 18.4467C2.98437 18.4795 2.96035 18.4974 2.96336 18.5122C3.09547 19.3398 3.22458 20.1673 3.3657 20.9889C3.3657 21.0305 3.42575 21.0722 3.4798 21.102L3.30265 21.4771C3.21857 22.0903 3.12249 22.6677 3.06845 23.2393C3.03107 23.5216 3.05357 23.8085 3.1345 24.0817C3.40173 24.8229 3.73502 25.5403 4.01726 26.2755C4.05329 26.3648 4.01726 26.5732 3.9542 26.594C3.80708 26.6417 3.61491 26.6893 3.51583 26.472C3.34891 26.0558 3.15845 25.6494 2.94534 25.2545C2.44391 24.421 2.47394 23.5369 2.58804 22.6231C2.67511 21.9623 3.00239 21.3371 2.74417 20.6227C2.64061 20.2582 2.5673 19.8858 2.52498 19.5094C2.45895 19.5636 2.41517 19.6398 2.40188 19.7238L1.97251 19.6791C2.02355 19.2028 2.11063 18.7325 2.16768 18.2592C2.16768 18.2027 2.09261 18.1074 2.02656 18.0776C1.31495 17.7234 1.20686 17.5716 1.7263 16.8036C1.88243 16.5744 2.02656 16.3333 2.1917 16.107C2.29616 15.961 2.41593 15.8263 2.549 15.7052C2.58804 15.667 2.63523 15.638 2.68708 15.6203C2.73893 15.6027 2.79412 15.5967 2.84859 15.603C2.90305 15.6093 2.9554 15.6276 3.00176 15.6567C3.04813 15.6857 3.08734 15.7246 3.11649 15.7707C3.26061 15.9284 3.41674 16.0683 3.56387 16.235L3.65395 16.1963L4.04128 16.2856C4.02845 16.3256 4.01841 16.3664 4.01125 16.4077C3.99023 16.5208 3.95721 16.6845 4.01125 16.753C4.31054 17.115 4.53959 17.5288 4.68683 17.9734C4.94805 18.667 5.25731 19.3457 5.54856 20.0304C5.67467 20.328 5.80979 20.6078 5.92388 20.8579C6.19712 19.8726 6.44333 18.8784 6.74058 17.899L7.17295 18.027C6.87269 18.9766 6.70455 19.9559 6.42531 20.8996L6.51239 20.9234C6.53123 20.9022 6.54645 20.878 6.55743 20.8519C6.87269 19.9381 7.227 19.0332 7.48822 18.1014C7.64889 17.5475 7.98856 17.0612 8.45504 16.7173C8.73128 16.491 8.98049 16.235 9.27474 15.9642L9.67409 16.1368C9.61495 16.1945 9.55883 16.2551 9.50594 16.3184C9.32579 16.5476 9.26273 16.6161 9.34681 16.7709L8.95948 16.9882L8.8664 17.0179C8.87019 17.1521 8.88627 17.2856 8.91444 17.4168C9.02853 17.8306 9.16065 18.2384 9.28075 18.6492C9.45101 19.1357 9.58843 19.6329 9.6921 20.1375C9.77917 20.6942 9.76116 21.2657 9.80019 21.8283C9.80019 21.9027 9.89027 21.9682 9.9263 22.0397C10.0464 22.2778 10.2536 22.5129 10.2596 22.7511C10.2776 23.4655 9.46991 24.0847 8.7583 23.9596C8.22985 23.8703 8.01667 23.5756 8.15779 23.0666C8.22086 22.827 8.35595 22.6121 8.54512 22.4504C8.9925 22.1349 9.03154 21.7182 8.94746 21.2597C8.79734 20.4144 8.6332 19.5719 8.45504 18.7325C8.39199 18.4348 8.27789 18.1372 8.18481 17.8395H8.10374C7.80349 18.7325 7.50323 19.6255 7.20298 20.4977C6.96577 21.2151 6.72557 21.9355 6.51539 22.6618C6.45465 22.9284 6.42543 23.2011 6.42831 23.4744C6.42831 23.653 6.46435 23.8346 6.46735 24.0132C6.48236 24.6086 6.46735 25.2337 6.50638 25.8409C6.54842 26.8024 6.58745 27.7639 6.66852 28.7224C6.72327 29.5981 6.82349 30.4705 6.96878 31.336C7.12809 32.0161 7.32251 32.6878 7.55127 33.3482C7.8125 33.4167 8.03168 33.4822 8.25087 33.5268C8.51152 33.595 8.77781 33.6398 9.04655 33.6608C9.51195 33.6608 9.98635 33.5834 10.4457 33.6399C10.9051 33.6965 11.4096 33.8037 11.8479 33.89ZM9.72813 22.6707C9.6921 22.6082 9.64706 22.4117 9.54498 22.373C9.47128 22.359 9.39534 22.3613 9.32266 22.3798C9.24997 22.3983 9.18233 22.4326 9.12462 22.4802C8.94168 22.6452 8.78658 22.8381 8.66522 23.0517C8.63494 23.1093 8.62065 23.1738 8.62381 23.2387C8.62698 23.3036 8.64749 23.3664 8.68324 23.4208C8.79404 23.5127 8.93528 23.5604 9.07958 23.5548C9.49693 23.5131 9.68309 23.0875 9.72813 22.6707ZM4.82495 19.5749C4.82495 19.5481 4.82495 19.5154 4.82495 19.4916C4.4166 18.6908 4.20342 17.7919 3.62392 17.0685C3.3687 16.747 3.09847 16.4345 2.83425 16.119L2.70213 16.1338C2.46193 16.494 2.21572 16.8512 1.98752 17.2203C1.96485 17.2485 1.9496 17.2818 1.94314 17.3173C1.93669 17.3528 1.93924 17.3893 1.95055 17.4235C1.96187 17.4578 1.9816 17.4887 2.00798 17.5135C2.03435 17.5383 2.06653 17.5562 2.10162 17.5656C2.48895 17.7175 2.87328 17.8871 3.26962 18.0092C3.77105 18.164 4.24245 18.3068 4.4226 18.8843C4.52359 19.1306 4.64616 19.3677 4.78892 19.5928L4.82495 19.5749Z" fill="#692B40"/>
<path d="M9.6741 15.5801C9.88128 15.7349 9.9113 15.8778 9.73716 16.0683C9.71914 16.0921 9.70113 16.11 9.68311 16.1308L9.28377 15.9582L8.53913 15.3301C7.90847 16.1228 7.44675 17.0343 7.18197 18.0092L6.74961 17.8812C6.80365 17.6996 6.8607 17.515 6.92375 17.3334C7.05774 16.8927 7.06502 16.4236 6.94477 15.979C6.78795 15.1536 6.76262 14.3088 6.86971 13.4756C6.95378 12.6064 7.03185 11.7342 7.16996 10.874C7.28698 10.108 7.45754 9.35113 7.6804 8.60867C7.88537 8.10605 8.12826 7.61946 8.40702 7.15305C8.37099 7.11435 8.30493 7.04291 8.24188 6.96551C8.18305 6.90498 8.1101 6.85974 8.02945 6.83378C7.94881 6.80783 7.86296 6.80195 7.77948 6.81668L7.69541 6.39398L7.78249 6.37612C8.22687 6.28385 8.24188 6.2511 8.25389 5.79566C8.27341 5.62654 8.27341 5.45576 8.25389 5.28664C8.20285 5.03958 8.25389 4.70916 7.9086 4.62283C7.60255 4.54054 7.2917 4.47692 6.9778 4.43232L7.02284 3.97986C7.3231 4.00963 7.62335 4.06321 7.92361 4.09298C8.00167 3.79531 8.06773 3.4768 8.16682 3.17912C8.2659 2.88145 8.24788 2.82192 7.9086 2.82489C7.82718 2.82492 7.74622 2.81288 7.66839 2.78917C6.80065 2.55699 5.9269 2.32778 5.05916 2.07774C5.00632 2.06666 4.95632 2.04499 4.91224 2.01406C4.86815 1.98313 4.8309 1.94359 4.80278 1.89788C4.77467 1.85216 4.75627 1.80123 4.74872 1.74821C4.74118 1.69519 4.74464 1.6412 4.75891 1.58956C4.8197 1.40153 4.89499 1.21842 4.9841 1.04184C4.93089 0.986435 4.86549 0.943954 4.79301 0.917705C4.72053 0.891455 4.64291 0.882145 4.56621 0.890498C4.4895 0.898852 4.41578 0.924644 4.35077 0.965866C4.28577 1.00709 4.23123 1.06263 4.19142 1.12816C4.05629 1.32419 3.9586 1.54313 3.90318 1.77411C3.89522 1.88203 3.85413 1.98495 3.78542 2.06904C3.71671 2.15312 3.62369 2.21433 3.51885 2.24443C3.29928 2.31781 3.08634 2.40942 2.8823 2.51829C2.22174 2.84573 1.55817 3.17912 0.900613 3.51847L0.720459 3.19699C1.12881 2.96182 1.53716 2.73262 1.95151 2.51234C2.36586 2.29206 2.79223 2.14323 3.20058 1.93188C3.31959 1.85419 3.40686 1.73707 3.44679 1.60146C3.62694 1.05375 3.87015 0.565563 4.52771 0.503052C4.74101 0.506007 4.95261 0.541138 5.15524 0.607237C5.33062 0.643501 5.50098 0.700465 5.66268 0.77691C5.7739 0.851972 5.87483 0.941025 5.96293 1.04184C5.86985 1.0984 5.78578 1.16091 5.6897 1.21449C5.60425 1.24326 5.52179 1.28014 5.44349 1.32463C5.38086 1.38635 5.3273 1.45649 5.28436 1.533C5.34476 1.58896 5.41366 1.63516 5.48853 1.66993C6.49439 1.95272 7.50025 2.2355 8.50911 2.50043C8.78234 2.57187 8.83939 2.71476 8.77333 2.96182C8.67425 3.32498 8.56616 3.68517 8.5031 4.05428C8.49689 4.21038 8.53209 4.36537 8.60519 4.50377C8.86944 5.12846 8.89295 5.82765 8.67125 6.4684C8.59918 6.71547 8.62321 6.81668 8.86041 6.84942C9.2027 6.89705 9.22972 6.95658 9.03456 7.2483C8.82123 7.52184 8.62662 7.80924 8.45206 8.10858C8.01181 9.061 7.74352 10.0826 7.65938 11.127C7.55129 12.1778 7.38315 13.2107 7.32009 14.2793C7.32653 14.8777 7.37872 15.4748 7.47623 16.0654C7.70742 15.732 7.9146 15.47 8.07674 15.1902C8.36198 14.7139 8.65323 14.6752 9.05257 15.0652C9.24809 15.2502 9.45572 15.4222 9.6741 15.5801Z" fill="#692B40"/>
<path d="M9.54513 22.379C9.64722 22.4117 9.69226 22.6082 9.72829 22.6766C9.68325 23.0934 9.49709 23.5191 9.07974 23.5458C8.93661 23.5539 8.79549 23.5094 8.6834 23.4208C8.65142 23.3688 8.63302 23.3098 8.62988 23.249C8.62673 23.1881 8.63894 23.1275 8.66538 23.0725C8.78674 22.8589 8.94184 22.666 9.12477 22.501C9.1812 22.4508 9.24825 22.4138 9.32099 22.3927C9.39373 22.3716 9.47032 22.3669 9.54513 22.379Z" fill="#692B40"/>
<path d="M8.53915 15.3301L9.28378 15.9582C8.98353 16.229 8.74032 16.485 8.46409 16.7113C8.00096 17.0566 7.66456 17.5428 7.50627 18.0955C7.24504 19.0272 6.90575 19.9321 6.57547 20.8459C6.56449 20.872 6.54928 20.8962 6.53043 20.9174L6.44336 20.8936C6.7226 19.95 6.90575 18.9706 7.191 18.021C7.45155 17.0427 7.91025 16.1271 8.53915 15.3301Z" fill="white"/>
<path d="M8.12177 32.4314C8.17881 32.4046 8.42202 32.616 8.42202 32.6606C8.33611 32.8258 8.2258 32.9773 8.09474 33.1101C7.94461 32.9434 7.77347 32.8124 7.79449 32.7648C7.86651 32.623 7.98077 32.5066 8.12177 32.4314Z" fill="black"/>
<path d="M8.2539 5.28661C8.27343 5.45573 8.27343 5.62651 8.2539 5.79563C8.2539 6.25107 8.22688 6.28381 7.7825 6.37609L7.69543 6.39395C7.33212 6.46539 6.97181 6.51302 6.70158 6.5547L5.83984 6.47135C5.72638 6.46988 5.61784 6.42515 5.53677 6.34644C5.4557 6.26773 5.40832 6.16108 5.40447 6.04865C5.35343 5.64382 5.3264 5.23601 5.28437 4.83117C5.26635 4.66448 5.33241 4.60197 5.50055 4.58708C5.70957 4.5683 5.91653 4.53145 6.11908 4.47694C6.39716 4.41048 6.6852 4.39534 6.96881 4.43229C7.28271 4.47689 7.59355 4.54051 7.8996 4.6228C8.2509 4.70913 8.20286 5.03954 8.2539 5.28661ZM7.32911 6.05461C7.46145 6.01574 7.57471 5.9299 7.64727 5.8135C7.71982 5.69709 7.74659 5.55827 7.72245 5.42354C7.70434 5.27414 7.62783 5.13774 7.50936 5.04367C7.39089 4.9496 7.23993 4.90537 7.08891 4.92048C6.97948 4.90514 6.86914 4.89719 6.75863 4.89666C6.45389 4.90825 6.15157 4.95521 5.85786 5.03657C5.77303 5.07044 5.69827 5.12509 5.64055 5.19542C5.58284 5.26574 5.54407 5.34943 5.52787 5.43866C5.51167 5.52788 5.51857 5.61972 5.54793 5.70558C5.57728 5.79144 5.62813 5.86851 5.69572 5.92958C5.94193 6.22726 6.24219 6.22726 6.57247 6.22726C6.82864 6.18833 7.08155 6.13062 7.32911 6.05461Z" fill="#DFBDBC"/>
<path d="M8.24182 6.96551C8.30487 7.0429 8.37093 7.11435 8.40696 7.15304C8.1291 7.62051 7.88721 8.10809 7.68334 8.61164C7.46048 9.3541 7.28993 10.111 7.17291 10.8769C7.03179 11.7372 6.95372 12.6094 6.87265 13.4786C6.76489 14.3107 6.78921 15.1544 6.94471 15.979C7.06668 16.4264 7.05939 16.8988 6.9237 17.3424C6.86064 17.5239 6.80359 17.7085 6.74955 17.8901C6.44929 18.8694 6.20608 19.8636 5.93285 20.8489C5.81875 20.5989 5.68364 20.3131 5.55753 20.0214C5.25727 19.3368 4.95702 18.6581 4.69579 17.9645C4.54856 17.5198 4.3195 17.106 4.02022 16.744C3.96317 16.6756 3.9962 16.5119 4.02022 16.3987C4.02738 16.3574 4.03741 16.3166 4.05024 16.2767C4.09845 16.1629 4.12883 16.0424 4.14032 15.9195C4.17357 14.9925 4.08679 14.0652 3.8821 13.1601C3.67793 12.3831 3.51579 11.5884 3.0654 10.8888C2.73212 10.3709 2.46489 9.8053 2.14061 9.28438C1.91542 8.93312 1.60315 8.6414 1.35995 8.30206C1.32709 8.25521 1.29702 8.20651 1.26987 8.1562C1.1888 8.00141 1.12575 7.83174 1.04468 7.66206C1.13462 7.61303 1.23898 7.59662 1.33982 7.61563C1.44065 7.63465 1.53165 7.68791 1.59715 7.76625C2.34307 8.55883 3.31156 9.11149 4.37752 9.35284C4.76485 9.44512 5.00806 9.20698 5.26028 8.99861C5.74969 8.58782 6.23311 8.16811 6.70451 7.73648C6.94242 7.51757 7.15952 7.27743 7.35306 7.01909C7.46316 6.89703 7.61754 6.82318 7.78243 6.8137C7.86569 6.79985 7.9511 6.80645 8.03119 6.83291C8.11127 6.85938 8.1836 6.90491 8.24182 6.96551Z" fill="#C57D7D"/>
<path d="M7.89659 2.82494C8.23588 2.82494 8.2629 2.86959 8.15481 3.17917C8.04672 3.48875 7.98967 3.77452 7.9116 4.09303C7.62936 4.06326 7.32911 4.00968 7.01084 3.97991C6.84832 3.96208 6.68493 3.95314 6.52142 3.95312C6.06009 3.97273 5.60166 4.03552 5.15225 4.14065C4.79795 4.21507 4.70787 4.43833 4.80695 4.87293C4.82577 4.97132 4.8388 5.07071 4.84599 5.1706C4.62594 5.09241 4.41215 4.99788 4.20644 4.88781C4.01128 4.76577 3.90619 4.74791 3.84613 5.00688C3.82812 5.07832 3.74705 5.1319 3.69601 5.19441L3.60293 5.16762V4.64967C3.60293 4.352 3.48583 4.2627 3.20659 4.25377C2.92735 4.24484 2.72318 4.21805 2.48297 4.20614C2.38389 4.20614 2.2848 4.20614 2.18271 4.20614C1.87308 4.2181 1.56536 4.25997 1.26393 4.33116L1.20088 4.34009C0.834564 4.40856 0.600364 4.29544 0.579346 3.92335C0.579346 3.79833 0.762502 3.59889 0.909628 3.51852C1.55818 3.17917 2.22175 2.84578 2.88531 2.51834C3.08935 2.40947 3.30229 2.31786 3.52186 2.24448C3.62614 2.21386 3.71851 2.15243 3.78665 2.06839C3.85479 1.98435 3.89544 1.88171 3.90318 1.77416C3.95492 1.54399 4.04852 1.3251 4.17942 1.12821C4.21923 1.06268 4.27376 1.00714 4.33877 0.965914C4.40378 0.924691 4.4775 0.898899 4.55421 0.890546C4.63091 0.882192 4.70853 0.891503 4.78101 0.917752C4.85349 0.944002 4.91888 0.986482 4.9721 1.04189C4.88298 1.21847 4.8077 1.40158 4.7469 1.5896C4.73264 1.64125 4.72918 1.69524 4.73672 1.74826C4.74427 1.80128 4.76266 1.85221 4.79078 1.89792C4.8189 1.94364 4.85614 1.98318 4.90023 2.01411C4.94432 2.04504 4.99432 2.06671 5.04716 2.07779C5.9149 2.32783 6.78865 2.55704 7.65639 2.78922C7.73421 2.81293 7.81518 2.82497 7.89659 2.82494Z" fill="#C57D7D"/>
<path d="M7.69549 6.39396L7.77956 6.81666C7.61468 6.82614 7.46029 6.89999 7.3502 7.02205C7.15666 7.28039 6.93956 7.52053 6.70164 7.73944C6.23024 8.17106 5.74683 8.59078 5.25741 9.00157C5.0052 9.20994 4.76199 9.44808 4.37466 9.3558C3.3087 9.11445 2.34021 8.56179 1.59428 7.76921C1.52878 7.69087 1.43779 7.63761 1.33695 7.61859C1.23612 7.59958 1.13175 7.61599 1.04181 7.66502C1.12288 7.8347 1.18594 8.00437 1.26701 8.15916L0.861659 8.33776C0.744559 8.11451 0.630462 7.88828 0.510359 7.668C0.450308 7.55786 0.309188 7.48047 0.273157 7.37033C0.237126 7.26019 0.204098 7.15005 0.174072 7.04884L0.618452 6.96252C0.618786 6.9988 0.627378 7.03455 0.643587 7.06709C0.659797 7.09962 0.683206 7.12811 0.712069 7.15043C0.740932 7.17275 0.774504 7.18833 0.810283 7.19599C0.846062 7.20366 0.883125 7.20321 0.918708 7.1947C1.36909 7.10838 1.81948 7.00121 2.26386 6.89703C2.47432 6.8436 2.66463 6.7308 2.81172 6.57229C2.95881 6.41379 3.05637 6.21638 3.09256 6.00401C3.15198 5.57184 3.16005 5.13424 3.11658 4.70021C2.88839 4.67342 2.6632 4.61984 2.44401 4.60793L2.46803 4.20012C2.70824 4.20012 2.95144 4.24179 3.19165 4.24775C3.43185 4.2537 3.603 4.36979 3.603 4.6496V5.16755L3.70809 5.19137C3.75913 5.12886 3.8402 5.07527 3.85822 5.00383C3.91527 4.74486 4.02336 4.76272 4.21852 4.88476C4.42423 4.99484 4.63802 5.08937 4.85807 5.16755C4.85088 5.06766 4.83785 4.96827 4.81904 4.86988C4.71995 4.45016 4.81904 4.21202 5.16433 4.13761C5.61374 4.03248 6.07217 3.96969 6.5335 3.95007C6.69701 3.95009 6.8604 3.95904 7.02292 3.97686L6.97788 4.42933C6.69427 4.39237 6.40623 4.40751 6.12815 4.47398C5.92561 4.52848 5.71865 4.56533 5.50963 4.58412C5.34148 4.58412 5.27543 4.66151 5.29344 4.82821C5.33548 5.23304 5.3625 5.64085 5.41355 6.04569C5.41729 6.15661 5.46341 6.26198 5.54257 6.34046C5.62174 6.41894 5.72802 6.46467 5.83991 6.46838L6.70164 6.55173C6.97188 6.51303 7.33218 6.4535 7.69549 6.39396ZM5.43757 7.47749L6.09212 7.22744C5.14331 6.87917 5.10428 6.75117 4.71695 6.26001C4.74397 6.60829 4.76499 6.91787 4.78 7.12624L5.43757 7.47749ZM4.61787 8.83487C4.98718 8.5372 5.35049 8.23953 5.73782 7.94186C5.23639 8.05795 4.777 8.18297 4.3116 8.26632C4.11034 8.28668 3.90704 8.27156 3.71109 8.22167C3.34478 8.15916 2.97847 8.07879 2.61215 8.00734C2.60956 8.02611 2.60956 8.04514 2.61215 8.0639C3.10157 8.55208 3.76514 8.65925 4.38967 8.87357C4.4284 8.88241 4.46851 8.88355 4.50768 8.8769C4.54685 8.87026 4.58431 8.85597 4.61787 8.83487ZM4.37466 5.90578C4.4197 5.85815 4.57283 5.90578 4.70794 5.92662C4.59985 5.72122 4.61787 5.43248 4.23354 5.46522C4.3056 6.65591 3.50391 7.13517 2.50706 7.44474L2.53709 7.55488C3.1376 7.64419 3.73811 7.73646 4.26957 7.81386C4.26957 7.24828 4.26957 6.73926 4.26957 6.2362C4.26314 6.11799 4.30051 6.00154 4.37466 5.90876V5.90578Z" fill="#692B40"/>
<path d="M7.7676 29.1213C7.81264 29.3624 7.57844 29.3714 7.44933 29.3535C7.32022 29.3357 7.26317 29.1928 7.1731 29.1035L7.51239 28.8058C7.62648 28.9338 7.74658 29.0171 7.7676 29.1213Z" fill="black"/>
<path d="M7.72249 5.4236C7.74663 5.55833 7.71986 5.69715 7.64731 5.81355C7.57475 5.92996 7.46149 6.01579 7.32915 6.05466C7.08022 6.12579 6.82631 6.17852 6.5695 6.21243C6.23922 6.21243 5.93897 6.21243 5.69276 5.91476C5.62517 5.85369 5.57432 5.77662 5.54496 5.69076C5.51561 5.6049 5.50871 5.51305 5.52491 5.42383C5.54111 5.3346 5.57988 5.25091 5.63759 5.18059C5.6953 5.11027 5.77007 5.05561 5.85489 5.02174C6.14861 4.94038 6.45093 4.89343 6.75566 4.88184C6.86617 4.88236 6.97652 4.89032 7.08595 4.90565C7.16211 4.89785 7.23909 4.90509 7.31241 4.92695C7.38574 4.94881 7.45397 4.98487 7.51316 5.03303C7.57235 5.08119 7.62133 5.14051 7.65726 5.20754C7.69319 5.27458 7.71536 5.34802 7.72249 5.4236ZM6.02004 5.34918C6.02004 5.58732 6.14314 5.7302 6.4404 5.71532C6.27225 5.5635 6.59953 5.25095 6.23622 5.19141C6.17317 5.18248 6.02304 5.28965 6.02004 5.34918Z" fill="#692B40"/>
<path d="M7.62949 26.9362C7.67453 27.1565 7.46135 27.2131 7.32923 27.1863C7.19712 27.1595 7.11005 27.0226 7.00195 26.9333L7.35626 26.5522C7.47636 26.7249 7.60547 26.8202 7.62949 26.9362Z" fill="black"/>
<path d="M6.96894 23.8763C7.18813 23.8465 7.31124 23.9924 7.30523 24.2275C7.30523 24.4091 7.22116 24.4895 7.08304 24.4567C6.85185 24.4567 6.69571 24.4032 6.74676 24.1859C6.77678 24.0668 6.88187 23.8852 6.96894 23.8763Z" fill="black"/>
<path d="M6.98071 33.125C7.02275 33.2768 7.07379 33.4227 7.15186 33.6698C6.77654 33.5209 6.47027 33.4257 6.18803 33.2828C5.47943 32.9196 4.76782 32.5565 4.08624 32.1487C4.05804 32.1315 4.03096 32.1126 4.00517 32.0921C3.82185 31.9338 3.67273 31.7404 3.5668 31.5235C3.38342 31.1187 3.16015 30.7328 2.90023 30.3715C2.401 29.7227 2.12145 28.934 2.10155 28.1182C2.0475 27.2519 2.01447 26.3857 2.02048 25.5195C2.02048 24.7902 2.10455 24.0639 2.14658 23.3346C2.18262 22.6589 2.20664 21.9802 2.25167 21.3074C2.2847 20.7776 2.34175 20.2507 2.39279 19.7238C2.40609 19.6399 2.44987 19.5636 2.5159 19.5095C2.55822 19.8859 2.63153 20.2582 2.73509 20.6228C2.9903 21.3223 2.66603 21.9623 2.58496 22.6231C2.47086 23.537 2.44084 24.4092 2.94226 25.2546C3.15537 25.6494 3.34583 26.0559 3.51275 26.472C3.61183 26.6893 3.81301 26.6417 3.95112 26.5941C4.00217 26.5941 4.05021 26.3649 4.01418 26.2756C3.71392 25.5403 3.39865 24.8229 3.13142 24.0817C3.05049 23.8085 3.02799 23.5216 3.06537 23.2393C3.11941 22.6618 3.2155 22.0903 3.29957 21.4771C3.75596 21.6468 3.82502 22.007 3.93011 22.3076C4.23036 23.1649 4.48558 24.0311 4.7468 24.8974C4.83688 25.195 4.89093 25.4927 4.95398 25.7904C4.99902 26.0077 5.13113 26.1178 5.34131 26.0583C5.55149 25.9987 5.53948 25.838 5.48243 25.6505C5.10111 24.4211 4.73179 23.1887 4.36548 21.9593C4.29794 21.7658 4.18728 21.5898 4.04174 21.4445C3.89619 21.2992 3.71949 21.1882 3.52476 21.1199L3.47372 21.0931C3.41967 21.0633 3.36562 21.0217 3.35962 20.98C3.2185 20.1584 3.08939 19.3309 2.95728 18.5034C2.95728 18.5034 2.97829 18.4706 2.99631 18.4379C3.1966 18.452 3.38966 18.5179 3.55616 18.6292C3.72266 18.7405 3.85679 18.8931 3.94512 19.0719C4.49459 20.1792 5.12813 21.2449 5.6806 22.3463C5.83527 22.7022 5.91986 23.0841 5.92981 23.4715C6.01389 24.7961 6.06193 26.1208 6.12798 27.4454C6.18503 28.5706 6.18503 29.7048 6.33216 30.8181C6.49279 31.6013 6.70952 32.3723 6.98071 33.125Z" fill="white"/>
<path d="M6.44033 5.71522C6.14007 5.73011 6.01096 5.58722 6.01997 5.34909C6.01997 5.28955 6.1731 5.18239 6.23616 5.19132C6.60547 5.26276 6.27219 5.56043 6.44033 5.71522Z" fill="white"/>
<path d="M5.4917 25.6594C5.54875 25.8469 5.56677 26.0077 5.35058 26.0672C5.1344 26.1267 5.00829 26.0166 4.96325 25.7993C4.9002 25.5016 4.84615 25.204 4.75607 24.9063C4.49485 24.0401 4.23363 23.1738 3.93938 22.3165C3.83429 22.0189 3.76523 21.6557 3.30884 21.486L3.48299 21.111L3.53403 21.1378C3.72876 21.2061 3.90546 21.317 4.05101 21.4624C4.19655 21.6077 4.30721 21.7837 4.37475 21.9772C4.74106 23.1976 5.10437 24.43 5.4917 25.6594Z" fill="#692B40"/>
<path d="M6.09197 7.22745L5.43741 7.47749L4.77985 7.12624C4.76484 6.91787 4.74382 6.60829 4.7168 6.26001C5.10413 6.75117 5.14316 6.87917 6.09197 7.22745Z" fill="#B7B7B8"/>
<path d="M5.73772 7.94189C5.35039 8.23957 4.98708 8.53724 4.61776 8.83491C4.58399 8.85551 4.54644 8.86927 4.50727 8.8754C4.4681 8.88153 4.4281 8.87991 4.38957 8.87063C3.76504 8.66524 3.10147 8.54915 2.61205 8.06096C2.60946 8.0422 2.60946 8.02317 2.61205 8.00441C2.97836 8.07585 3.34468 8.15622 3.71099 8.21873C3.90694 8.26862 4.11024 8.28374 4.3115 8.26338C4.7769 8.18301 5.23629 8.05799 5.73772 7.94189Z" fill="#B7B7B8"/>
<path d="M4.81908 19.4915C4.83409 19.5153 4.81908 19.5481 4.81908 19.5749L4.77404 19.5927C4.63128 19.3676 4.50871 19.1306 4.40773 18.8843C4.22757 18.3098 3.75617 18.1639 3.25474 18.0091C2.85841 17.8871 2.47408 17.7114 2.08675 17.5656C2.0519 17.5558 2.02005 17.5376 1.99402 17.5127C1.968 17.4877 1.94862 17.4567 1.93761 17.4225C1.92661 17.3883 1.92432 17.352 1.93096 17.3167C1.9376 17.2814 1.95295 17.2483 1.97565 17.2203C2.20385 16.8512 2.45006 16.494 2.69026 16.1338L2.82838 16.1189C3.09261 16.4344 3.36284 16.747 3.61805 17.0685C4.20355 17.7918 4.41073 18.6908 4.81908 19.4915Z" fill="white"/>
<path d="M4.70806 5.92965C4.57294 5.92965 4.4078 5.86118 4.37477 5.90881C4.30206 6.00321 4.26681 6.12078 4.27569 6.23923C4.27569 6.74229 4.27569 7.25131 4.27569 7.81689C3.73523 7.73949 3.14072 7.64722 2.54321 7.55791L2.51318 7.44778C3.51003 7.1501 4.31472 6.6649 4.23966 5.46826C4.61798 5.43551 4.59996 5.72425 4.70806 5.92965ZM4.0535 7.48945C4.11355 7.48945 4.19762 7.30489 4.18861 7.21559C4.17961 7.12629 4.01747 7.0102 3.97543 7.02806C3.85 7.09875 3.73399 7.18475 3.63014 7.28406C3.63014 7.32275 3.63014 7.36145 3.65115 7.40015C3.77892 7.45315 3.91513 7.48338 4.0535 7.48945Z" fill="#B7B7B8"/>
<path d="M4.2035 7.21555C4.2035 7.30486 4.12843 7.48346 4.06838 7.48941C3.93001 7.48335 3.79381 7.45312 3.66604 7.40011C3.66604 7.36141 3.65102 7.32272 3.64502 7.28402C3.74888 7.18472 3.86488 7.09871 3.99031 7.02802C4.01734 7.01016 4.18248 7.14114 4.2035 7.21555Z" fill="black"/>
<path d="M3.87927 13.163C4.08396 14.0681 4.17074 14.9955 4.13749 15.9224C4.126 16.0454 4.09562 16.1658 4.04741 16.2796L3.66008 16.1903C3.63006 15.6575 3.61204 15.1277 3.564 14.5978C3.52952 14.2409 3.47539 13.8861 3.40186 13.5351C3.22771 12.6808 3.06257 11.8205 2.59117 11.0555C2.29091 10.5673 2.01468 10.0583 1.6904 9.56714C1.55829 9.35579 1.3361 9.20398 1.20999 8.99263C1.08388 8.78129 0.96378 8.55506 0.84668 8.3318L1.25203 8.1532C1.27917 8.20351 1.30925 8.25221 1.3421 8.29906C1.58531 8.6384 1.89758 8.93012 2.12277 9.28138C2.45605 9.8023 2.72328 10.3679 3.04756 10.8858C3.51296 11.5913 3.67509 12.3861 3.87927 13.163Z" fill="#692B40"/>
<path d="M4.00535 32.092L3.75314 32.476L3.37482 32.2289C3.26859 32.155 3.18704 32.0513 3.14062 31.9312C2.94588 31.4244 2.68331 30.9458 2.35995 30.5083C1.92776 29.8426 1.68024 29.0756 1.64234 28.2847C1.57628 27.5733 1.52524 26.8559 1.53124 26.1445C1.53124 25.3378 1.61832 24.5281 1.65735 23.7214C1.68738 23.1856 1.68738 22.6468 1.73241 22.111C1.79547 21.3013 1.87954 20.4917 1.97262 19.682L2.40199 19.7237C2.35094 20.2506 2.29389 20.7774 2.26086 21.3073C2.21583 21.98 2.19181 22.6587 2.15578 23.3344C2.11374 24.0637 2.03567 24.7901 2.02967 25.5194C2.02967 26.3856 2.05669 27.2518 2.11074 28.118C2.12804 28.9329 2.4044 29.7215 2.90041 30.3714C3.16033 30.7327 3.38361 31.1186 3.56698 31.5234C3.67292 31.7403 3.82204 31.9337 4.00535 32.092Z" fill="#692B40"/>
<path d="M3.13168 4.70625C3.17514 5.14028 3.16708 5.57788 3.10765 6.01005C3.07146 6.22242 2.9739 6.41983 2.82681 6.57833C2.67972 6.73684 2.48941 6.84964 2.27895 6.90307C1.83157 6.99832 1.37818 7.10548 0.933799 7.20074C0.898216 7.20925 0.861154 7.20969 0.825375 7.20203C0.789596 7.19437 0.756023 7.17879 0.72716 7.15647C0.698297 7.13415 0.674888 7.10566 0.658679 7.07313C0.642469 7.04059 0.633877 7.00484 0.633543 6.96855C0.631918 6.94775 0.631918 6.92685 0.633543 6.90604C0.633543 6.3107 0.633543 5.73024 0.633543 5.14085C0.633543 5.04559 0.729625 4.88485 0.801687 4.86997C0.965827 4.83425 1.13097 4.8015 1.29711 4.77173C1.62077 4.7079 1.94746 4.66021 2.27594 4.62885C2.34187 4.6229 2.40819 4.6229 2.47411 4.62885C2.67829 4.62587 2.90348 4.66755 3.13168 4.70625ZM2.53116 6.15591C2.63541 6.0469 2.70114 5.90727 2.71847 5.75804C2.7358 5.6088 2.70378 5.45803 2.62724 5.32838C2.60114 5.26304 2.56042 5.20443 2.50815 5.15696C2.45587 5.10949 2.39342 5.0744 2.32548 5.05434C2.25754 5.03428 2.1859 5.02976 2.11594 5.04114C2.04599 5.05252 1.97956 5.07948 1.92164 5.12001C1.82314 5.14343 1.72259 5.15739 1.62139 5.16168C1.38826 5.2076 1.1593 5.27231 0.936802 5.35517C0.88755 5.37153 0.843033 5.39948 0.807065 5.43663C0.771098 5.47379 0.744753 5.51903 0.730289 5.56849C0.715824 5.61795 0.713672 5.67014 0.724015 5.72061C0.734358 5.77107 0.756889 5.8183 0.789676 5.85824C0.917981 6.05933 1.09521 6.22524 1.30507 6.34071C1.51493 6.45618 1.75069 6.51751 1.9907 6.51907C2.18413 6.41868 2.36545 6.29685 2.53116 6.15591Z" fill="#DFBDBC"/>
<path d="M2.62723 5.31942C2.70596 5.44999 2.73921 5.6026 2.72184 5.75375C2.70448 5.9049 2.63748 6.04619 2.53115 6.15587C2.36137 6.29549 2.176 6.41534 1.97868 6.51308C1.73867 6.51152 1.5029 6.45019 1.29304 6.33472C1.08318 6.21925 0.905959 6.05335 0.777654 5.85225C0.746205 5.81217 0.724877 5.76522 0.71545 5.71531C0.706022 5.66539 0.708769 5.61397 0.72346 5.56533C0.73815 5.51668 0.76436 5.47222 0.799903 5.43566C0.835445 5.3991 0.879291 5.37149 0.927782 5.35514C1.15028 5.27227 1.37924 5.20756 1.61237 5.16165C1.71357 5.15736 1.81412 5.1434 1.91262 5.11998C1.97014 5.07748 2.03673 5.04865 2.10727 5.03571C2.1778 5.02277 2.25039 5.02606 2.31944 5.04533C2.38849 5.0646 2.45215 5.09933 2.50552 5.14686C2.55888 5.19438 2.60052 5.25342 2.62723 5.31942ZM1.57333 5.9356C1.57333 5.74211 1.60036 5.61709 1.61537 5.43849L1.11694 5.56053L1.57333 5.9356Z" fill="#692B40"/>
<path d="M2.48302 4.2061L2.459 4.61391C2.39308 4.60796 2.32675 4.60796 2.26083 4.61391C1.93235 4.64527 1.60566 4.69295 1.282 4.75679L1.20093 4.34005L1.26698 4.32516C1.56842 4.25397 1.87614 4.2121 2.18577 4.20014C2.28485 4.19717 2.38394 4.20014 2.48302 4.2061Z" fill="#692B40"/>
<path d="M1.61537 5.43848C1.61537 5.61708 1.58835 5.73615 1.57333 5.93559L1.11694 5.56052L1.61537 5.43848Z" fill="white"/>
<path d="M1.20093 4.34007L1.282 4.75681C1.11786 4.78658 0.952719 4.81932 0.786577 4.85504C0.714515 4.85504 0.621436 5.03067 0.618433 5.12593C0.603421 5.72127 0.618433 6.30173 0.618433 6.89112C0.616808 6.91193 0.616808 6.93283 0.618433 6.95363L0.174054 7.04889C0.117868 6.86915 0.0845811 6.68315 0.0749696 6.49522C0.0749696 5.91773 -0.0091022 5.30453 0.156039 4.77467C0.200249 4.63337 0.212676 4.48418 0.192445 4.33761C0.172213 4.19103 0.119814 4.05064 0.0389388 3.92631C0.019985 3.8909 0.00844027 3.85206 0.00499699 3.81212C0.0015537 3.77218 0.00628283 3.73196 0.0189007 3.69388C0.0315186 3.65579 0.0517653 3.62063 0.0784265 3.59049C0.105088 3.56036 0.137614 3.53587 0.174054 3.5185L0.720521 3.22083L0.900674 3.5185C0.753549 3.59887 0.558382 3.79831 0.570392 3.92333C0.600418 4.29542 0.834618 4.40854 1.20093 4.34007Z" fill="#692B40"/>
</g>
<defs>
<clipPath id="clip0">
<rect y="0.5" width="41" height="50" fill="white"/>
</clipPath>
</defs>
</svg>
