<svg width="96" height="24" viewBox="0 0 96 24" fill="none" xmlns="http://www.w3.org/2000/svg">
<path d="M16.7692 9.29492C16.7692 8.19484 16.7692 7.07701 16.7692 5.99023C16.7692 5.31599 16.4986 4.99217 15.7401 4.9833C13.5222 4.9833 11.3397 4.78812 9.13957 4.8103C7.77858 4.8899 6.42245 5.03795 5.07635 5.25388C3.52824 5.42688 1.97127 5.65755 0.680444 4.45544C0.361064 4.1538 -0.0736481 3.62594 0.0106326 3.32874C0.217523 2.79855 0.569567 2.33736 1.02644 1.99799C1.34146 1.83287 1.69638 1.75911 2.05111 1.78507C4.20693 1.6165 6.36274 1.42133 8.52299 1.31931C10.0667 1.2439 11.6281 1.25277 13.1584 1.31931C14.5158 1.37254 15.8687 1.60763 17.2261 1.66086C17.9536 1.68748 18.6855 1.45238 19.4174 1.41689C21.4978 1.31931 23.5826 1.21728 25.663 1.21285C26.3614 1.20262 27.0511 1.36893 27.668 1.69635C27.8755 1.82354 28.0457 2.00335 28.1612 2.21754C28.2768 2.43173 28.3336 2.67267 28.3259 2.91592C28.3183 3.15917 28.2464 3.39607 28.1176 3.60256C27.9888 3.80906 27.8077 3.97782 27.5926 4.0917C27.129 4.35486 26.618 4.52371 26.0889 4.58851C24.5807 4.76594 23.0636 4.9345 21.551 4.96999C20.5707 4.99661 20.3489 5.41357 20.3755 6.30074C20.4421 8.41219 20.4953 10.5325 20.4199 12.6395C20.34 14.8575 19.8299 16.9778 18.3129 18.6412C16.8412 20.1588 14.9743 21.2344 12.9233 21.7463C12.5718 21.7858 12.2166 21.7194 11.9031 21.5556C8.12376 20.0917 5.12514 17.5633 2.4459 14.6046C2.36606 14.5203 2.29508 14.4183 2.2108 14.3385C0.387677 12.5641 1.42566 11.6282 3.05361 10.7898C3.72786 10.4349 4.79245 11.0648 4.67712 11.7701C4.50413 12.8347 5.12071 13.3759 5.77721 13.9348C7.10796 15.0837 8.38104 16.2503 9.76946 17.2927C10.4599 17.7573 11.2251 18.0994 12.0317 18.3041C12.8701 18.5569 13.4689 17.9315 14.0855 17.4657C16.5075 15.6337 17.0176 13.0299 16.9244 10.2265C16.9244 9.92925 16.8978 9.63205 16.8845 9.33928L16.7692 9.29492Z" fill="#C57D7D"/>
<path d="M52.1891 14.7452C52.1359 13.9467 52.1403 13.1438 52.0161 12.3587C51.8786 11.4715 51.5725 11.2941 50.9515 11.8707C50.0469 12.7505 49.2092 13.6965 48.4453 14.7008C48.2944 14.8827 48.3787 15.2686 48.3832 15.5613C48.3832 16.8433 48.4541 18.1208 48.4186 19.3983C48.3965 20.2101 47.4073 21.3013 46.8972 21.0485C46.254 20.7291 45.4688 20.1879 45.2781 19.5713C45.0022 18.4837 44.893 17.3605 44.9543 16.24C44.9543 15.1222 45.1273 14.0221 45.1982 12.8865C45.2337 12.2655 45.1494 11.6268 45.247 11.0146C45.318 10.571 45.5043 9.84357 45.7971 9.75041C46.072 9.66921 46.361 9.64659 46.6452 9.68403C46.9294 9.72147 47.2027 9.81813 47.4472 9.96777C48.0549 10.4424 48.3344 10.2384 48.8933 9.92341C49.6862 9.41956 50.5687 9.07317 51.4927 8.90317C52.9299 8.70799 54.0521 9.34675 54.7885 10.6775C55.3829 11.7465 55.4583 11.6223 56.3277 10.7662C57.1829 9.91424 58.1607 9.19506 59.2288 8.63258C59.5258 8.52311 59.8451 8.48771 60.1589 8.52945C60.4727 8.57119 60.7716 8.68881 61.0297 8.87212C61.7269 9.56478 62.2762 10.3918 62.6443 11.303C62.9593 12.0437 62.9504 12.9265 63.0879 13.7471C63.2576 15.2267 62.8926 16.7182 62.0588 17.9523C61.6152 18.6576 60.8833 18.5777 60.3111 18.2539C60.1215 18.1189 59.9629 17.945 59.8459 17.7438C59.7289 17.5426 59.6561 17.3188 59.6324 17.0873C59.5393 15.8497 59.6324 14.5943 59.5703 13.3523C59.4888 12.8521 59.3474 12.3636 59.1489 11.8974C58.6521 12.1857 58 12.3409 57.6807 12.7845C56.6252 14.0346 55.8453 15.4932 55.3918 17.0651C55.3384 17.4078 55.1633 17.7199 54.8985 17.9439C54.6337 18.168 54.297 18.2891 53.9501 18.2849C53.1561 18.2849 52.1758 17.207 52.1226 16.3554C52.0871 15.8231 52.1226 15.2863 52.1226 14.7496L52.1891 14.7452Z" fill="#C57D7D"/>
<path d="M69.1745 8.96138C69.7862 8.63306 70.4189 8.34559 71.0686 8.10083C71.7339 7.90565 72.4836 7.65724 73.1224 7.79032C76.1565 8.43351 78.299 11.37 77.4695 14.3465C76.9283 16.2849 75.8105 17.8641 73.7966 18.6226C73.0514 18.9065 72.3594 19.3634 71.6009 19.5852C70.6943 19.8541 69.7317 19.8723 68.8156 19.638C67.8994 19.4037 67.0638 18.9256 66.3976 18.2544C65.7545 17.5178 65.4041 16.5708 65.4129 15.5929C65.4129 11.8447 65.5637 8.09639 65.7056 4.34812C65.7593 3.1895 65.8957 2.0362 66.1137 0.897038C66.1639 0.69905 66.2599 0.51562 66.394 0.361525C66.5281 0.207429 66.6964 0.0869769 66.8856 0.00987228C67.3625 -0.0397053 67.8399 0.0987531 68.2163 0.395791C68.8773 0.919218 69.0503 1.69549 69.0414 2.5516C69.0192 4.45457 69.0414 6.35755 69.0813 8.26052C69.1002 8.49559 69.1313 8.72952 69.1745 8.96138ZM68.9793 14.9586V15.5575C68.9438 17.0301 69.1612 17.2342 70.6649 16.9725C72.1021 16.7196 73.1889 15.8591 74.1515 14.8255C74.4957 14.3622 74.7069 13.8137 74.7624 13.2392C74.8179 12.6647 74.7156 12.0859 74.4664 11.5652C73.8055 10.4429 72.4348 9.95057 71.5077 10.647C70.0306 11.7559 68.4071 12.896 68.9793 14.9586Z" fill="#C57D7D"/>
<path d="M88.1908 15.1985C87.3037 16.1389 86.4875 17.0971 85.5648 17.9354C84.0566 19.3061 81.9319 18.7028 81.1556 16.8043C80.6011 15.5434 80.5285 14.1229 80.9516 12.812C81.045 12.2871 81.1042 11.7566 81.129 11.224C81.5327 8.93069 82.961 7.42251 84.997 6.48655C85.8443 6.0962 86.5363 6.72608 87.1928 7.1741C87.8738 7.59875 88.5138 8.08583 89.1046 8.62905C89.6166 9.13152 90.0316 9.72398 90.3289 10.3768C90.7725 11.3482 90.9011 12.4527 91.3713 13.3976C92.0633 14.7949 92.9283 16.099 93.7268 17.443C94.4099 18.6008 95.0575 19.7719 95.7894 20.9074C95.8704 20.9945 95.9306 21.0987 95.9655 21.2124C96.0003 21.3261 96.0088 21.4462 95.9905 21.5637C95.9721 21.6812 95.9273 21.7929 95.8594 21.8906C95.7915 21.9882 95.7024 22.0691 95.5987 22.1273C95.0886 22.5176 94.6228 22.8503 93.9086 22.5265C92.7376 22.0031 92.0057 21.076 91.3536 20.038C90.3467 18.4455 89.3264 16.8575 88.3106 15.2695C88.2529 15.2074 88.1554 15.1763 88.1908 15.1985ZM86.3101 10.6119C86.3356 10.4401 86.3445 10.2663 86.3367 10.0929C86.2701 9.76906 86.1858 9.44525 86.106 9.12587C85.8121 9.27934 85.5392 9.47019 85.2942 9.69365C84.03 11.2196 84.0389 13.0959 83.9369 14.9279C83.9369 15.0832 84.1187 15.3715 84.2341 15.3715C84.3313 15.3593 84.4249 15.3269 84.5089 15.2765C84.5929 15.2261 84.6655 15.1588 84.722 15.0787C85.7341 13.8082 86.293 12.2361 86.3101 10.6119Z" fill="#C57D7D"/>
<path d="M36.367 18.8625C37.436 19.8783 38.6337 19.896 39.8846 19.4746C40.6697 19.2129 41.4061 18.8048 42.2001 18.5875C42.635 18.4817 43.0941 18.5518 43.4776 18.7826C43.9966 19.1508 43.4776 19.5234 43.2869 19.9093C41.7388 23.2761 37.8264 23.3382 35.5464 22.349C33.9007 21.6304 32.7518 20.0912 32.082 18.3257C32.0199 18.1616 32.0421 17.9265 31.9312 17.8245C30.942 16.9373 31.4654 16.1034 31.9711 15.2029C32.4768 14.3024 32.6675 13.3133 33.1865 12.4749C34.9342 9.64483 38.27 9.85332 40.2439 11.6143C41.4992 12.7366 41.2952 13.748 40.8516 14.9678C40.1685 16.8397 38.6115 17.6826 36.9481 18.4233C36.7884 18.4987 36.6154 18.5475 36.4557 18.6229C36.4202 18.6629 36.4158 18.7338 36.367 18.8625ZM38.4474 12.7056C38.4698 12.5898 38.4698 12.4709 38.4474 12.3551C38.3321 12.0668 38.1857 11.7918 38.0526 11.5168C37.7904 11.6182 37.5452 11.7588 37.3251 11.9337C36.8577 12.4239 36.4263 12.9472 36.0343 13.4996C35.7876 13.8626 35.6073 14.2667 35.502 14.6928C35.4665 14.8214 35.7593 15.1896 35.9057 15.1941C37.09 15.2251 38.4518 13.8677 38.4474 12.7056Z" fill="#C57D7D"/>
<path d="M29.4958 17.7218C29.4958 18.6711 29.4958 19.6248 29.4958 20.5741C29.4796 21.5334 29.0841 22.4473 28.3957 23.1158C27.9167 23.6525 27.3799 23.6126 26.8121 23.2089C25.7431 22.4504 25.4548 21.5455 25.783 20.2103C26.0625 19.0526 25.8984 17.7884 25.925 16.5685C25.925 15.6503 25.9871 14.7276 25.9826 13.8094C25.9622 13.4337 26.0758 13.0628 26.3033 12.7631C26.5307 12.4633 26.8573 12.254 27.2247 12.1726C27.6104 12.123 28.0016 12.2045 28.3355 12.404C28.6694 12.6035 28.9265 12.9095 29.0655 13.2727C29.3894 14.7232 29.5579 16.2136 29.7886 17.7085L29.4958 17.7218Z" fill="#C57D7D"/>
<path d="M26.5993 7.13041C27.6684 7.13041 28.8173 8.82046 28.3338 9.79191C28.2434 9.91687 28.1274 10.0211 27.9936 10.0976C27.8597 10.1741 27.711 10.2211 27.5575 10.2355C27.0653 10.2549 26.5823 10.0987 26.1947 9.79482C25.8071 9.4909 25.5401 9.05908 25.4416 8.57649C25.3948 8.4023 25.3896 8.21953 25.4266 8.04297C25.4635 7.86642 25.5415 7.70105 25.6542 7.56024C25.767 7.41943 25.9113 7.30715 26.0755 7.23247C26.2397 7.1578 26.4191 7.12283 26.5993 7.13041Z" fill="#C57D7D"/>
</svg>
