<svg width="266" height="65" viewBox="0 0 266 65" fill="none" xmlns="http://www.w3.org/2000/svg">
<path d="M46.3528 25.6925C46.3528 22.6517 46.3528 19.5618 46.3528 16.5578C46.3528 14.6941 45.6048 13.799 43.5082 13.7745C37.3775 13.7745 31.3449 13.2349 25.2633 13.2963C21.5013 13.5163 17.7527 13.9255 14.0319 14.5224C9.75264 15.0006 5.44891 15.6382 1.88086 12.3154C0.99804 11.4816 -0.203575 10.0225 0.0293903 9.20097C0.601268 7.73544 1.57438 6.46063 2.83724 5.52256C3.70803 5.06614 4.68908 4.86228 5.66961 4.93401C11.6286 4.46808 17.5876 3.92858 23.5589 3.64657C27.8259 3.43813 32.1419 3.46265 36.372 3.64657C40.124 3.79371 43.8637 4.44356 47.6157 4.59069C49.6266 4.66426 51.6497 4.01442 53.6728 3.91632C59.4234 3.64658 65.1862 3.36456 70.9368 3.3523C72.8672 3.32403 74.7736 3.78374 76.4789 4.68879C77.0525 5.04035 77.5228 5.53738 77.8422 6.12943C78.1616 6.72149 78.3187 7.3875 78.2975 8.05988C78.2763 8.73226 78.0777 9.38708 77.7217 9.95787C77.3657 10.5287 76.865 10.9951 76.2705 11.3099C74.9891 12.0374 73.5764 12.5041 72.1139 12.6832C67.945 13.1736 63.7517 13.6396 59.5705 13.7377C56.8608 13.8112 56.2477 14.9638 56.3213 17.4161C56.5052 23.2525 56.6523 29.1134 56.4439 34.9375C56.2232 41.0682 54.8131 46.9291 50.6197 51.5272C46.5519 55.722 41.3915 58.6951 35.7222 60.1101C34.7506 60.2194 33.7686 60.0358 32.9021 59.5829C22.4554 55.5366 14.1667 48.5477 6.76087 40.3693C6.54017 40.1364 6.34399 39.8544 6.11102 39.6336C1.0716 34.7291 3.94076 32.142 8.44068 29.8246C10.3044 28.8437 13.2471 30.5848 12.9283 32.5343C12.4501 35.477 14.1545 36.9729 15.9692 38.5179C19.6476 41.6936 23.1666 44.9183 27.0044 47.7997C28.9128 49.0838 31.0281 50.0295 33.2577 50.5953C35.5751 51.2942 37.2303 49.5653 38.9347 48.2779C45.6294 43.214 47.0394 36.0166 46.7819 28.2674C46.7819 27.4459 46.7084 26.6244 46.6716 25.8151L46.3528 25.6925Z" fill="#C57D7D"/>
<path d="M144.259 40.7577C144.112 38.5507 144.124 36.3314 143.781 34.1611C143.401 31.7089 142.555 31.2184 140.838 32.8124C138.338 35.2442 136.022 37.8591 133.911 40.6351C133.494 41.1379 133.727 42.2046 133.739 43.0138C133.739 46.5574 133.935 50.0886 133.837 53.6199C133.776 55.8637 131.041 58.88 129.631 58.1811C127.854 57.2983 125.683 55.8024 125.156 54.0981C124.393 51.0916 124.092 47.9869 124.261 44.8898C124.261 41.8 124.739 38.7592 124.935 35.6202C125.033 33.9037 124.8 32.138 125.07 30.446C125.266 29.2198 125.781 27.209 126.591 26.9515C127.351 26.727 128.149 26.6645 128.935 26.768C129.721 26.8715 130.476 27.1387 131.152 27.5523C132.832 28.8642 133.604 28.3002 135.149 27.4297C137.341 26.0369 139.78 25.0795 142.334 24.6095C146.307 24.07 149.409 25.8357 151.444 29.5141C153.087 32.4691 153.296 32.1258 155.699 29.7593C158.063 27.4043 160.766 25.4164 163.718 23.8616C164.539 23.559 165.422 23.4612 166.289 23.5765C167.156 23.6919 167.983 24.017 168.696 24.5237C170.623 26.4384 172.142 28.7243 173.159 31.2429C174.03 33.2906 174.005 35.7306 174.385 37.9989C174.854 42.0888 173.845 46.2116 171.541 49.6227C170.315 51.5723 168.291 51.3516 166.71 50.4565C166.186 50.0832 165.747 49.6025 165.424 49.0465C165.1 48.4904 164.899 47.8717 164.834 47.2317C164.576 43.8108 164.834 40.3409 164.662 36.9077C164.437 35.5252 164.046 34.1748 163.497 32.886C162.124 33.6829 160.322 34.1121 159.439 35.3382C156.521 38.7936 154.366 42.8254 153.112 47.1704C152.964 48.1179 152.48 48.9803 151.748 49.5997C151.016 50.219 150.086 50.5537 149.127 50.5423C146.932 50.5423 144.222 47.5628 144.075 45.2086C143.977 43.7373 144.075 42.2536 144.075 40.77L144.259 40.7577Z" fill="#C57D7D"/>
<path d="M191.209 24.7707C192.9 23.8632 194.649 23.0686 196.445 22.392C198.284 21.8525 200.356 21.1659 202.122 21.5337C210.509 23.3116 216.431 31.4286 214.138 39.656C212.642 45.0142 209.552 49.3792 203.986 51.4759C201.926 52.2607 200.013 53.5236 197.916 54.1367C195.41 54.8799 192.75 54.9304 190.217 54.2827C187.685 53.635 185.375 52.3134 183.534 50.4582C181.756 48.4221 180.787 45.8043 180.812 43.1014C180.812 32.7406 181.229 22.3797 181.621 12.0189C181.769 8.81631 182.146 5.6284 182.749 2.47956C182.888 1.93229 183.153 1.42526 183.524 0.999314C183.894 0.573369 184.36 0.240418 184.883 0.0272886C186.201 -0.109752 187.52 0.27297 188.561 1.09403C190.388 2.54087 190.866 4.68661 190.842 7.05305C190.78 12.3132 190.842 17.5733 190.952 22.8334C191.004 23.4832 191.09 24.1298 191.209 24.7707ZM190.67 41.3481V43.0033C190.572 47.0741 191.173 47.6381 195.329 46.9147C199.302 46.2158 202.306 43.8371 204.967 40.9802C205.918 39.6995 206.502 38.1833 206.655 36.5952C206.809 35.0072 206.526 33.4073 205.837 31.9681C204.01 28.866 200.221 27.505 197.659 29.43C193.576 32.4954 189.088 35.6465 190.67 41.3481Z" fill="#C57D7D"/>
<path d="M243.774 42.0111C241.322 44.6105 239.066 47.259 236.515 49.5764C232.346 53.3651 226.473 51.6976 224.327 46.4497C222.795 42.9645 222.594 39.0379 223.763 35.4145C224.022 33.9635 224.185 32.4972 224.254 31.025C225.37 24.6858 229.318 20.517 234.946 17.9298C237.288 16.8508 239.2 18.5919 241.015 19.8303C242.898 21.0041 244.667 22.3505 246.3 23.8521C247.715 25.241 248.862 26.8786 249.684 28.683C250.91 31.3683 251.266 34.4213 252.565 37.033C254.478 40.8953 256.869 44.5002 259.076 48.2154C260.964 51.4156 262.755 54.6526 264.778 57.7915C265.002 58.032 265.168 58.3203 265.264 58.6346C265.361 58.9488 265.384 59.2808 265.333 59.6055C265.283 59.9303 265.159 60.2392 264.971 60.5091C264.784 60.7789 264.537 61.0026 264.25 61.1634C262.84 62.2424 261.553 63.162 259.579 62.2669C256.342 60.82 254.319 58.2574 252.516 55.3883C249.733 50.9864 246.913 46.5969 244.105 42.2073C243.946 42.0357 243.676 41.9498 243.774 42.0111ZM238.575 29.3329C238.646 28.8582 238.67 28.3778 238.649 27.8983C238.465 27.0032 238.232 26.1082 238.011 25.2253C237.199 25.6496 236.444 26.1771 235.767 26.7948C232.273 31.0127 232.297 36.1993 232.015 41.2632C232.015 41.6923 232.518 42.4893 232.837 42.4893C233.105 42.4555 233.364 42.3661 233.596 42.2268C233.829 42.0874 234.029 41.9012 234.186 41.6801C236.983 38.1681 238.528 33.8226 238.575 29.3329Z" fill="#C57D7D"/>
<path d="M100.524 52.1386C103.479 54.9464 106.79 54.9955 110.247 53.8307C112.418 53.1072 114.453 51.9792 116.648 51.3784C117.85 51.086 119.119 51.2799 120.179 51.9179C121.614 52.9356 120.179 53.9655 119.652 55.0323C115.373 64.3386 104.558 64.5103 98.2559 61.776C93.7069 59.7897 90.5312 55.535 88.6798 50.655C88.5081 50.2013 88.5694 49.5514 88.2629 49.2694C85.5286 46.8172 86.9754 44.512 88.3732 42.023C89.771 39.5339 90.2983 36.7996 91.7328 34.4822C96.5638 26.6595 105.784 27.2358 111.241 32.1035C114.711 35.2057 114.147 38.0012 112.92 41.3731C111.032 46.5474 106.728 48.8771 102.13 50.9247C101.689 51.1332 101.211 51.268 100.769 51.4765C100.671 51.5868 100.659 51.783 100.524 52.1386ZM106.275 35.1198C106.337 34.7999 106.337 34.4711 106.275 34.1512C105.956 33.3542 105.551 32.594 105.184 31.8338C104.459 32.1141 103.781 32.5028 103.173 32.9864C101.881 34.3413 100.688 35.7879 99.6046 37.3146C98.9226 38.3182 98.4244 39.435 98.1333 40.6129C98.0352 40.9685 98.8444 41.9862 99.2491 41.9984C102.523 42.0843 106.287 38.3323 106.275 35.1198Z" fill="#C57D7D"/>
<path d="M81.5312 48.986C81.5312 51.6099 81.5312 54.2461 81.5312 56.87C81.4864 59.5219 80.3931 62.048 78.4904 63.8958C77.1662 65.3794 75.6826 65.2691 74.1131 64.1533C71.1581 62.0566 70.3611 59.5553 71.2685 55.8646C72.0409 52.6644 71.5873 49.1699 71.6608 45.798C71.6608 43.2599 71.8325 40.7096 71.8202 38.1715C71.7636 37.1328 72.0777 36.1078 72.7065 35.2792C73.3352 34.4506 74.2379 33.8721 75.2534 33.647C76.3197 33.51 77.4011 33.7353 78.3239 34.2868C79.2468 34.8382 79.9574 35.6839 80.3419 36.6879C81.2369 40.6973 81.7029 44.8171 82.3405 48.9492L81.5312 48.986Z" fill="#C57D7D"/>
<path d="M73.5249 19.7093C76.4799 19.7093 79.6556 24.3809 78.3191 27.0662C78.0694 27.4116 77.7488 27.6997 77.3787 27.9111C77.0087 28.1226 76.5977 28.2526 76.1733 28.2923C74.8129 28.346 73.4777 27.9143 72.4063 27.0742C71.3349 26.2341 70.5971 25.0405 70.3247 23.7065C70.1952 23.2251 70.181 22.7198 70.2831 22.2318C70.3853 21.7438 70.6008 21.2867 70.9125 20.8975C71.2241 20.5083 71.6229 20.1979 72.0768 19.9915C72.5306 19.7851 73.0267 19.6884 73.5249 19.7093Z" fill="#C57D7D"/>
</svg>
