<svg width="50" height="41" viewBox="0 0 50 41" fill="none" xmlns="http://www.w3.org/2000/svg">
<path d="M29.9157 29.9157H0V3.32396C0 1.49578 1.49578 0 3.32396 0H26.5917C28.4199 0 29.9157 1.49578 29.9157 3.32396V29.9157Z" fill="#C57D7D"/>
<path d="M0 29.9156H29.9157V31.5776H0V29.9156Z" fill="#A74242"/>
<path d="M20.7747 17.451H25.7606V21.606H20.7747V17.451Z" fill="#692B40"/>
<path d="M12.4648 17.451H17.4508V21.606H12.4648V17.451Z" fill="#692B40"/>
<path d="M4.15503 17.451H9.14097V21.606H4.15503V17.451Z" fill="#692B40"/>
<path d="M20.7747 24.0989H25.7606V28.2538H20.7747V24.0989Z" fill="#692B40"/>
<path d="M4.15503 24.0989H9.14097V28.2538H4.15503V24.0989Z" fill="#692B40"/>
<path d="M20.7747 10.8027H25.7606V14.9577H20.7747V10.8027Z" fill="#692B40"/>
<path d="M12.4648 10.8027H17.4508V14.9577H12.4648V10.8027Z" fill="#692B40"/>
<path d="M4.15503 10.8027H9.14097V14.9577H4.15503V10.8027Z" fill="#692B40"/>
<path d="M20.7747 4.15503H25.7606V8.30998H20.7747V4.15503Z" fill="#692B40"/>
<path d="M12.4648 4.15503H17.4508V8.30998H12.4648V4.15503Z" fill="#692B40"/>
<path d="M4.15527 4.15515H9.14122V8.31011H4.15527V4.15515Z" fill="#692B40"/>
<path d="M12.4648 24.0989H17.4508V31.5778H12.4648V24.0989Z" fill="#692B40"/>
<path d="M49.4672 39.3379H19.5515V12.7462C19.5515 10.918 21.0473 9.42224 22.8755 9.42224H46.1432C47.9714 9.42224 49.4672 10.918 49.4672 12.7462V39.3379Z" fill="white"/>
<path d="M19.551 39.3379H49.4667V40.9999H19.551V39.3379Z" fill="#838384"/>
<path d="M40.3257 26.873H45.3116V31.028H40.3257V26.873Z" fill="#B3B3B3"/>
<path d="M32.0156 26.873H37.0016V31.028H32.0156V26.873Z" fill="#B3B3B3"/>
<path d="M23.7058 26.873H28.6918V31.028H23.7058V26.873Z" fill="#B3B3B3"/>
<path d="M40.3257 33.521H45.3116V37.676H40.3257V33.521Z" fill="#B3B3B3"/>
<path d="M23.7058 33.521H28.6918V37.676H23.7058V33.521Z" fill="#B3B3B3"/>
<path d="M40.3257 20.2252H45.3116V24.3802H40.3257V20.2252Z" fill="#B3B3B3"/>
<path d="M32.0156 20.2252H37.0016V24.3802H32.0156V20.2252Z" fill="#B3B3B3"/>
<path d="M23.7058 20.2252H28.6918V24.3802H23.7058V20.2252Z" fill="#B3B3B3"/>
<path d="M40.3257 13.5771H45.3116V17.7321H40.3257V13.5771Z" fill="#B3B3B3"/>
<path d="M32.0156 13.5771H37.0016V17.7321H32.0156V13.5771Z" fill="#B3B3B3"/>
<path d="M23.7065 13.5782H28.6925V17.7332H23.7065V13.5782Z" fill="#B3B3B3"/>
<path d="M32.0156 33.521H37.0016V40.9999H32.0156V33.521Z" fill="#B3B3B3"/>
</svg>
