<svg width="19" height="20" viewBox="0 0 19 20" fill="none" xmlns="http://www.w3.org/2000/svg">
<path d="M3.19985 0.769531L2.26376 1.74561L3.65659 3.19932L4.59135 2.22324L3.19985 0.769531ZM15.4162 0.769531L14.0234 2.22324L14.9588 3.19932L16.351 1.74631L15.4162 0.769531ZM9.30769 1.20273C9.0883 1.2055 8.86624 1.2187 8.64286 1.24716C8.63621 1.24716 8.62956 1.24577 8.62291 1.24716C5.92634 1.56997 3.78025 3.84495 3.40728 6.64823C3.10943 8.90446 4.00031 10.9503 5.48489 12.268C6.09216 12.8092 6.50291 13.5518 6.64835 14.3715V18.5368H8.16418C8.39554 18.9513 8.81771 19.2311 9.30769 19.2311C9.79768 19.2311 10.2198 18.9513 10.4512 18.5368H11.967V15.7599H12.0295V14.9352C12.0295 13.9175 12.5361 12.8914 13.3592 12.0937C14.4602 10.9427 15.2912 9.30781 15.2912 7.42993C15.2912 4.00046 12.588 1.17079 9.30769 1.20273ZM9.30769 2.59118C11.8773 2.55369 13.9615 4.75022 13.9615 7.42993C13.9615 8.88364 13.3166 10.1638 12.4238 11.0954L12.445 11.1177C11.5577 11.972 10.984 13.1231 10.8229 14.3722H7.91486C7.7686 13.1823 7.27994 12.0306 6.35649 11.2044C5.18173 10.1631 4.48165 8.59415 4.71568 6.82248C5.00621 4.63567 6.70553 2.8772 8.78779 2.6363C8.95971 2.61128 9.13284 2.59644 9.30636 2.59187L9.30769 2.59118ZM0 7.42993V8.81838H1.99451V7.42993H0ZM16.6209 7.42993V8.81838H18.6154V7.42993H16.6209ZM3.65659 13.049L2.26443 14.502L3.19985 15.4788L4.59069 14.0251L3.65659 13.049ZM14.9588 13.049L14.024 14.0251L15.4155 15.4788L16.351 14.502L14.9588 13.049ZM7.97802 15.7606H10.6374V17.1491H7.97802V15.7606Z" fill="#C57D7D"/>
</svg>
