<svg width="26" height="26" viewBox="0 0 26 26" fill="none" xmlns="http://www.w3.org/2000/svg">
<path d="M19.0563 10.3801L15.0395 9.82435L13.2439 6.3589C13.1949 6.26402 13.1142 6.18721 13.0145 6.14053C12.7646 6.02305 12.4608 6.12095 12.3358 6.3589L10.5402 9.82435L6.52347 10.3801C6.41273 10.3951 6.31148 10.4448 6.23396 10.5201C6.14024 10.6118 6.0886 10.7352 6.09038 10.8631C6.09216 10.9911 6.14721 11.1131 6.24345 11.2024L9.14964 13.8997L8.46304 17.7086C8.44693 17.7972 8.45723 17.8883 8.49277 17.9716C8.5283 18.0549 8.58764 18.1271 8.66406 18.1799C8.74049 18.2328 8.83093 18.2642 8.92515 18.2706C9.01936 18.2769 9.11357 18.2581 9.1971 18.2161L12.7899 16.4179L16.3827 18.2161C16.4808 18.2658 16.5947 18.2824 16.7038 18.2643C16.9791 18.2191 17.1642 17.9706 17.1167 17.7086L16.4301 13.8997L19.3363 11.2024C19.4154 11.1286 19.4676 11.0322 19.4835 10.9268C19.5262 10.6632 19.3332 10.4192 19.0563 10.3801Z" fill="#692B40"/>
<circle cx="12.79" cy="12.79" r="11.79" stroke="#692B40" stroke-width="2"/>
</svg>
