<svg width="48" height="46" viewBox="0 0 48 46" fill="none" xmlns="http://www.w3.org/2000/svg">
<g filter="url(#filter0_d)">
<ellipse cx="23.5519" cy="18.6228" rx="19.5519" ry="18.6228" fill="#FFEAEA"/>
</g>
<path d="M14.201 14.2846C14.201 14.8498 14.6647 15.3123 15.2314 15.3123C15.7981 15.3123 16.2618 14.8498 16.2618 14.2846V12.2293H18.3226C18.8893 12.2293 19.353 11.7668 19.353 11.2016C19.353 10.6364 18.8893 10.1739 18.3226 10.1739H16.2618V8.11861C16.2618 7.55339 15.7981 7.09094 15.2314 7.09094C14.6647 7.09094 14.201 7.55339 14.201 8.11861V10.1739H12.1402C11.5735 10.1739 11.1098 10.6364 11.1098 11.2016C11.1098 11.7668 11.5735 12.2293 12.1402 12.2293H14.201V14.2846Z" fill="#692B40"/>
<path d="M24.505 23.5336C26.2122 23.5336 27.5962 22.1532 27.5962 20.4506C27.5962 18.7479 26.2122 17.3676 24.505 17.3676C22.7977 17.3676 21.4138 18.7479 21.4138 20.4506C21.4138 22.1532 22.7977 23.5336 24.505 23.5336Z" fill="#692B40"/>
<path d="M32.7482 12.2293H29.4818L28.2041 10.8419C28.0121 10.6317 27.7782 10.4637 27.5174 10.3486C27.2566 10.2336 26.9746 10.1741 26.6895 10.174H20.0949C20.2701 10.4823 20.3834 10.8214 20.3834 11.2016C20.3834 12.3321 19.456 13.257 18.3226 13.257H17.2922V14.2846C17.2922 15.4151 16.3648 16.34 15.2314 16.34C14.8501 16.34 14.5101 16.2269 14.201 16.0522V26.6166C14.201 27.7471 15.1284 28.672 16.2618 28.672H32.7482C33.8817 28.672 34.809 27.7471 34.809 26.6166V14.2846C34.809 13.1542 33.8817 12.2293 32.7482 12.2293ZM24.505 25.589C21.6611 25.589 19.353 23.287 19.353 20.4506C19.353 17.6143 21.6611 15.3123 24.505 15.3123C27.3489 15.3123 29.657 17.6143 29.657 20.4506C29.657 23.287 27.3489 25.589 24.505 25.589Z" fill="#692B40"/>
<defs>
<filter id="filter0_d" x="0" y="0" width="47.1037" height="45.2457" filterUnits="userSpaceOnUse" color-interpolation-filters="sRGB">
<feFlood flood-opacity="0" result="BackgroundImageFix"/>
<feColorMatrix in="SourceAlpha" type="matrix" values="0 0 0 0 0 0 0 0 0 0 0 0 0 0 0 0 0 0 127 0"/>
<feOffset dy="4"/>
<feGaussianBlur stdDeviation="2"/>
<feColorMatrix type="matrix" values="0 0 0 0 0 0 0 0 0 0 0 0 0 0 0 0 0 0 0.25 0"/>
<feBlend mode="normal" in2="BackgroundImageFix" result="effect1_dropShadow"/>
<feBlend mode="normal" in="SourceGraphic" in2="effect1_dropShadow" result="shape"/>
</filter>
</defs>
</svg>
